<svg width="1108" height="263" viewBox="0 0 1108 263" fill="none" xmlns="http://www.w3.org/2000/svg">
<g clip-path="url(#clip0_33_8011)">
<path d="M565.145 211.244C571.268 211.244 576.227 206.285 576.227 200.163C576.227 194.04 571.268 189.081 565.145 189.081C559.023 189.081 554.064 194.04 554.064 200.163C554.064 206.285 559.023 211.244 565.145 211.244ZM565.145 216.784C557.749 216.784 542.983 220.497 542.983 227.866V233.406H587.308V227.866C587.308 220.497 572.542 216.784 565.145 216.784Z" fill="#323232"/>
</g>
<path d="M510.114 259.147V250.578H511.412L515.708 257.029V250.578H517.006V259.147H515.708L511.412 252.695V259.147H510.114ZM521.536 259.294C520.941 259.294 520.41 259.163 519.945 258.902C519.488 258.633 519.129 258.261 518.868 257.788C518.607 257.315 518.476 256.764 518.476 256.135C518.476 255.499 518.602 254.94 518.855 254.458C519.117 253.977 519.476 253.601 519.933 253.332C520.398 253.063 520.937 252.928 521.549 252.928C522.144 252.928 522.663 253.063 523.103 253.332C523.544 253.593 523.887 253.944 524.132 254.385C524.376 254.825 524.499 255.311 524.499 255.842C524.499 255.923 524.495 256.013 524.487 256.111C524.487 256.201 524.482 256.303 524.474 256.417H519.749C519.79 257.004 519.982 257.453 520.324 257.763C520.675 258.065 521.079 258.216 521.536 258.216C521.904 258.216 522.21 258.135 522.454 257.972C522.707 257.8 522.895 257.572 523.018 257.286H524.315C524.152 257.857 523.826 258.335 523.336 258.718C522.854 259.102 522.255 259.294 521.536 259.294ZM521.536 253.993C521.104 253.993 520.72 254.124 520.386 254.385C520.051 254.638 519.847 255.021 519.774 255.535H523.201C523.177 255.062 523.009 254.687 522.699 254.409C522.389 254.132 522.002 253.993 521.536 253.993ZM528.085 259.294C527.351 259.294 526.771 259.065 526.347 258.608C525.931 258.151 525.723 257.47 525.723 256.564V253.075H527.02V256.429C527.02 257.604 527.502 258.192 528.465 258.192C528.946 258.192 529.342 258.021 529.652 257.678C529.962 257.335 530.118 256.845 530.118 256.209V253.075H531.415V259.147H530.264L530.166 258.082C529.979 258.457 529.701 258.755 529.334 258.975C528.975 259.188 528.559 259.294 528.085 259.294ZM533.066 259.147V253.075H534.229L534.339 254.226C534.551 253.826 534.845 253.512 535.22 253.283C535.604 253.046 536.065 252.928 536.604 252.928V254.287H536.249C535.89 254.287 535.567 254.348 535.282 254.47C535.004 254.585 534.78 254.785 534.608 255.07C534.445 255.348 534.363 255.735 534.363 256.233V259.147H533.066ZM540.389 259.294C539.809 259.294 539.287 259.163 538.822 258.902C538.365 258.633 538.002 258.261 537.732 257.788C537.463 257.306 537.328 256.747 537.328 256.111C537.328 255.474 537.463 254.919 537.732 254.446C538.01 253.964 538.381 253.593 538.846 253.332C539.312 253.063 539.83 252.928 540.401 252.928C540.981 252.928 541.499 253.063 541.956 253.332C542.421 253.593 542.788 253.964 543.058 254.446C543.335 254.919 543.474 255.474 543.474 256.111C543.474 256.747 543.335 257.306 543.058 257.788C542.788 258.261 542.421 258.633 541.956 258.902C541.491 259.163 540.968 259.294 540.389 259.294ZM540.389 258.18C540.699 258.18 540.985 258.102 541.246 257.947C541.515 257.792 541.731 257.563 541.895 257.262C542.058 256.951 542.139 256.568 542.139 256.111C542.139 255.654 542.058 255.274 541.895 254.972C541.74 254.662 541.527 254.43 541.258 254.275C540.997 254.12 540.711 254.042 540.401 254.042C540.091 254.042 539.801 254.12 539.532 254.275C539.271 254.43 539.059 254.662 538.895 254.972C538.732 255.274 538.651 255.654 538.651 256.111C538.651 256.568 538.732 256.951 538.895 257.262C539.059 257.563 539.271 257.792 539.532 257.947C539.793 258.102 540.079 258.18 540.389 258.18ZM548.292 259.294C547.819 259.294 547.399 259.2 547.032 259.012C546.672 258.824 546.387 258.559 546.175 258.216L546.04 259.147H544.877V250.333H546.175V254.018C546.37 253.732 546.64 253.479 546.983 253.259C547.325 253.038 547.766 252.928 548.305 252.928C548.892 252.928 549.41 253.067 549.859 253.344C550.308 253.622 550.659 254.001 550.912 254.483C551.173 254.964 551.304 255.511 551.304 256.123C551.304 256.735 551.173 257.282 550.912 257.763C550.659 258.237 550.308 258.612 549.859 258.89C549.41 259.159 548.888 259.294 548.292 259.294ZM548.072 258.167C548.627 258.167 549.084 257.98 549.443 257.604C549.802 257.221 549.982 256.723 549.982 256.111C549.982 255.711 549.9 255.356 549.737 255.046C549.574 254.736 549.349 254.495 549.064 254.324C548.778 254.144 548.447 254.054 548.072 254.054C547.517 254.054 547.06 254.246 546.701 254.63C546.35 255.013 546.175 255.507 546.175 256.111C546.175 256.723 546.35 257.221 546.701 257.604C547.06 257.98 547.517 258.167 548.072 258.167ZM553.442 251.924C553.197 251.924 552.993 251.851 552.83 251.704C552.675 251.549 552.597 251.357 552.597 251.128C552.597 250.9 552.675 250.712 552.83 250.565C552.993 250.41 553.197 250.333 553.442 250.333C553.687 250.333 553.887 250.41 554.042 250.565C554.205 250.712 554.286 250.9 554.286 251.128C554.286 251.357 554.205 251.549 554.042 251.704C553.887 251.851 553.687 251.924 553.442 251.924ZM552.793 259.147V253.075H554.091V259.147H552.793ZM558.35 259.147C557.754 259.147 557.281 259.004 556.93 258.718C556.579 258.424 556.403 257.906 556.403 257.164V254.164H555.363V253.075H556.403L556.563 251.532H557.701V253.075H559.415V254.164H557.701V257.164C557.701 257.498 557.77 257.731 557.909 257.861C558.056 257.984 558.305 258.045 558.656 258.045H559.354V259.147H558.35ZM563.886 259.147V250.578H569.334V251.63H565.184V254.299H568.966V255.327H565.184V258.094H569.334V259.147H563.886ZM570.831 259.147V253.075H571.981L572.091 253.932C572.287 253.622 572.544 253.377 572.863 253.197C573.189 253.018 573.565 252.928 573.989 252.928C574.952 252.928 575.621 253.307 575.997 254.066C576.217 253.716 576.511 253.438 576.878 253.234C577.253 253.03 577.657 252.928 578.09 252.928C578.849 252.928 579.445 253.157 579.877 253.614C580.31 254.071 580.526 254.752 580.526 255.658V259.147H579.228V255.793C579.228 254.617 578.779 254.03 577.882 254.03C577.425 254.03 577.049 254.201 576.756 254.544C576.47 254.887 576.327 255.376 576.327 256.013V259.147H575.029V255.793C575.029 254.617 574.577 254.03 573.671 254.03C573.222 254.03 572.85 254.201 572.557 254.544C572.271 254.887 572.128 255.376 572.128 256.013V259.147H570.831ZM582.044 261.84V253.075H583.207L583.342 254.018C583.538 253.732 583.807 253.479 584.15 253.259C584.492 253.038 584.933 252.928 585.472 252.928C586.059 252.928 586.578 253.067 587.026 253.344C587.475 253.622 587.826 254.001 588.079 254.483C588.34 254.964 588.471 255.511 588.471 256.123C588.471 256.735 588.34 257.282 588.079 257.763C587.826 258.237 587.475 258.612 587.026 258.89C586.578 259.159 586.055 259.294 585.459 259.294C584.986 259.294 584.566 259.2 584.199 259.012C583.84 258.824 583.554 258.559 583.342 258.216V261.84H582.044ZM585.239 258.167C585.794 258.167 586.251 257.98 586.61 257.604C586.969 257.221 587.149 256.723 587.149 256.111C587.149 255.711 587.067 255.356 586.904 255.046C586.741 254.736 586.516 254.495 586.231 254.324C585.945 254.144 585.615 254.054 585.239 254.054C584.684 254.054 584.227 254.246 583.868 254.63C583.517 255.013 583.342 255.507 583.342 256.111C583.342 256.723 583.517 257.221 583.868 257.604C584.227 257.98 584.684 258.167 585.239 258.167ZM589.874 259.147V250.333H591.172V259.147H589.874ZM595.655 259.294C595.076 259.294 594.554 259.163 594.088 258.902C593.631 258.633 593.268 258.261 592.999 257.788C592.73 257.306 592.595 256.747 592.595 256.111C592.595 255.474 592.73 254.919 592.999 254.446C593.276 253.964 593.648 253.593 594.113 253.332C594.578 253.063 595.096 252.928 595.668 252.928C596.247 252.928 596.765 253.063 597.222 253.332C597.687 253.593 598.055 253.964 598.324 254.446C598.601 254.919 598.74 255.474 598.74 256.111C598.74 256.747 598.601 257.306 598.324 257.788C598.055 258.261 597.687 258.633 597.222 258.902C596.757 259.163 596.235 259.294 595.655 259.294ZM595.655 258.18C595.965 258.18 596.251 258.102 596.512 257.947C596.782 257.792 596.998 257.563 597.161 257.262C597.324 256.951 597.406 256.568 597.406 256.111C597.406 255.654 597.324 255.274 597.161 254.972C597.006 254.662 596.794 254.43 596.524 254.275C596.263 254.12 595.978 254.042 595.668 254.042C595.357 254.042 595.068 254.12 594.798 254.275C594.537 254.43 594.325 254.662 594.162 254.972C593.999 255.274 593.917 255.654 593.917 256.111C593.917 256.568 593.999 256.951 594.162 257.262C594.325 257.563 594.537 257.792 594.798 257.947C595.06 258.102 595.345 258.18 595.655 258.18ZM600.339 261.84L601.796 258.645H601.441L599.042 253.075H600.45L602.31 257.568L604.257 253.075H605.628L601.71 261.84H600.339ZM608.985 259.294C608.389 259.294 607.859 259.163 607.393 258.902C606.936 258.633 606.577 258.261 606.316 257.788C606.055 257.315 605.924 256.764 605.924 256.135C605.924 255.499 606.051 254.94 606.304 254.458C606.565 253.977 606.924 253.601 607.381 253.332C607.846 253.063 608.385 252.928 608.997 252.928C609.593 252.928 610.111 253.063 610.552 253.332C610.992 253.593 611.335 253.944 611.58 254.385C611.825 254.825 611.947 255.311 611.947 255.842C611.947 255.923 611.943 256.013 611.935 256.111C611.935 256.201 611.931 256.303 611.923 256.417H607.197C607.238 257.004 607.43 257.453 607.773 257.763C608.124 258.065 608.528 258.216 608.985 258.216C609.352 258.216 609.658 258.135 609.903 257.972C610.156 257.8 610.344 257.572 610.466 257.286H611.764C611.6 257.857 611.274 258.335 610.784 258.718C610.303 259.102 609.703 259.294 608.985 259.294ZM608.985 253.993C608.552 253.993 608.169 254.124 607.834 254.385C607.499 254.638 607.295 255.021 607.222 255.535H610.65C610.625 255.062 610.458 254.687 610.148 254.409C609.838 254.132 609.45 253.993 608.985 253.993ZM616.134 259.294C615.538 259.294 615.007 259.163 614.542 258.902C614.085 258.633 613.726 258.261 613.465 257.788C613.204 257.315 613.073 256.764 613.073 256.135C613.073 255.499 613.2 254.94 613.453 254.458C613.714 253.977 614.073 253.601 614.53 253.332C614.995 253.063 615.534 252.928 616.146 252.928C616.742 252.928 617.26 253.063 617.701 253.332C618.141 253.593 618.484 253.944 618.729 254.385C618.974 254.825 619.096 255.311 619.096 255.842C619.096 255.923 619.092 256.013 619.084 256.111C619.084 256.201 619.08 256.303 619.072 256.417H614.346C614.387 257.004 614.579 257.453 614.922 257.763C615.273 258.065 615.677 258.216 616.134 258.216C616.501 258.216 616.807 258.135 617.052 257.972C617.305 257.8 617.492 257.572 617.615 257.286H618.912C618.749 257.857 618.423 258.335 617.933 258.718C617.452 259.102 616.852 259.294 616.134 259.294ZM616.134 253.993C615.701 253.993 615.318 254.124 614.983 254.385C614.648 254.638 614.444 255.021 614.371 255.535H617.798C617.774 255.062 617.607 254.687 617.297 254.409C616.986 254.132 616.599 253.993 616.134 253.993Z" fill="black"/>
<path d="M32.7593 58.2755C31.5808 58.2755 30.5172 58.0459 29.5683 57.5868C28.6195 57.1124 27.8619 56.4007 27.2956 55.4518C26.7447 54.503 26.4692 53.3016 26.4692 51.8477V41.9305H29.4076V51.8706C29.4076 53.1256 29.7061 54.0592 30.3029 54.6713C30.9151 55.2835 31.7568 55.5896 32.8281 55.5896C33.8841 55.5896 34.7182 55.2835 35.3304 54.6713C35.9425 54.0592 36.2486 53.1256 36.2486 51.8706V41.9305H39.187V51.8477C39.187 53.3016 38.8963 54.503 38.3147 55.4518C37.7331 56.4007 36.9526 57.1124 35.9731 57.5868C35.009 58.0459 33.9377 58.2755 32.7593 58.2755ZM46.8238 58.2755C45.8137 58.2755 44.9261 58.1148 44.1609 57.7934C43.3956 57.4567 42.7835 56.9976 42.3243 56.416C41.8652 55.8344 41.5897 55.1611 41.4979 54.3959H44.4593C44.5511 54.8397 44.796 55.2223 45.1939 55.5437C45.6071 55.8498 46.1351 56.0028 46.7779 56.0028C47.4207 56.0028 47.8874 55.8727 48.1782 55.6125C48.4843 55.3524 48.6373 55.0539 48.6373 54.7172C48.6373 54.2275 48.4231 53.8985 47.9946 53.7301C47.566 53.5465 46.9692 53.3705 46.204 53.2021C45.7142 53.095 45.2168 52.9649 44.7118 52.8119C44.2068 52.6588 43.74 52.4675 43.3115 52.238C42.8983 51.9931 42.5616 51.687 42.3014 51.3197C42.0412 50.9371 41.9111 50.4703 41.9111 49.9194C41.9111 48.9093 42.309 48.0599 43.1049 47.3712C43.916 46.6825 45.0485 46.3382 46.5024 46.3382C47.8492 46.3382 48.9205 46.6519 49.7163 47.2794C50.5274 47.9068 51.0095 48.7715 51.1625 49.8734H48.3848C48.2165 49.0317 47.5814 48.6108 46.4794 48.6108C45.9285 48.6108 45.5 48.718 45.1939 48.9322C44.9031 49.1465 44.7577 49.4143 44.7577 49.7357C44.7577 50.0724 44.9796 50.3402 45.4235 50.5392C45.8673 50.7381 46.4565 50.9218 47.1911 51.0901C47.9869 51.2738 48.7139 51.4804 49.372 51.71C50.0453 51.9242 50.581 52.2533 50.9789 52.6971C51.3768 53.1256 51.5758 53.7454 51.5758 54.5565C51.5911 55.2605 51.4074 55.8957 51.0248 56.4619C50.6422 57.0282 50.0913 57.472 49.372 57.7934C48.6527 58.1148 47.8033 58.2755 46.8238 58.2755ZM59.7113 58.2755C58.5635 58.2755 57.5457 58.0306 56.6581 57.5409C55.7704 57.0511 55.0741 56.3624 54.5691 55.4748C54.064 54.5872 53.8115 53.5618 53.8115 52.3986C53.8115 51.2202 54.0564 50.1719 54.5461 49.2536C55.0511 48.3354 55.7398 47.6237 56.6122 47.1187C57.4998 46.5983 58.5405 46.3382 59.7342 46.3382C60.8514 46.3382 61.8386 46.583 62.6956 47.0728C63.5526 47.5625 64.2184 48.2359 64.6928 49.0929C65.1826 49.9347 65.4274 50.8759 65.4274 51.9166C65.4274 52.0849 65.4198 52.2609 65.4045 52.4446C65.4045 52.6282 65.3968 52.8195 65.3815 53.0185H56.727C56.7882 53.9061 57.0943 54.6025 57.6452 55.1075C58.2115 55.6125 58.8925 55.8651 59.6883 55.8651C60.2852 55.8651 60.7826 55.735 61.1805 55.4748C61.5937 55.1993 61.8998 54.8473 62.0987 54.4188H65.0831C64.8688 55.1381 64.5092 55.7962 64.0041 56.3931C63.5144 56.9746 62.9022 57.4337 62.1676 57.7704C61.4483 58.1071 60.6295 58.2755 59.7113 58.2755ZM59.7342 48.7256C59.0149 48.7256 58.3798 48.9322 57.8289 49.3454C57.2779 49.7434 56.9259 50.3555 56.7729 51.182H62.4431C62.3972 50.4321 62.1217 49.8352 61.6167 49.3914C61.1116 48.9475 60.4841 48.7256 59.7342 48.7256ZM67.8988 58V46.6136H70.5158L70.7913 48.7486C71.2045 48.014 71.7631 47.4324 72.4671 47.0039C73.1864 46.5601 74.0282 46.3382 74.9923 46.3382V49.4373H74.1659C73.5231 49.4373 72.9492 49.5368 72.4442 49.7357C71.9391 49.9347 71.5412 50.279 71.2504 50.7687C70.975 51.2585 70.8372 51.9395 70.8372 52.8119V58H67.8988ZM88.7378 58.2755C87.5594 58.2755 86.4957 58.0459 85.5469 57.5868C84.598 57.1124 83.8405 56.4007 83.2742 55.4518C82.7232 54.503 82.4478 53.3016 82.4478 51.8477V41.9305H85.3862V51.8706C85.3862 53.1256 85.6846 54.0592 86.2815 54.6713C86.8937 55.2835 87.7354 55.5896 88.8067 55.5896C89.8627 55.5896 90.6968 55.2835 91.3089 54.6713C91.9211 54.0592 92.2272 53.1256 92.2272 51.8706V41.9305H95.1656V51.8477C95.1656 53.3016 94.8748 54.503 94.2933 55.4518C93.7117 56.4007 92.9312 57.1124 91.9517 57.5868C90.9875 58.0459 89.9162 58.2755 88.7378 58.2755ZM98.0963 63.0504V46.6136H100.713L101.035 48.2435C101.402 47.7385 101.884 47.2947 102.481 46.9121C103.093 46.5295 103.881 46.3382 104.845 46.3382C105.917 46.3382 106.873 46.5983 107.715 47.1187C108.557 47.639 109.222 48.3507 109.712 49.2536C110.202 50.1566 110.447 51.182 110.447 52.3298C110.447 53.4776 110.202 54.503 109.712 55.4059C109.222 56.2936 108.557 56.9976 107.715 57.5179C106.873 58.023 105.917 58.2755 104.845 58.2755C103.988 58.2755 103.239 58.1148 102.596 57.7934C101.953 57.472 101.433 57.0205 101.035 56.439V63.0504H98.0963ZM104.226 55.7044C105.159 55.7044 105.932 55.3906 106.544 54.7632C107.156 54.1357 107.463 53.3246 107.463 52.3298C107.463 51.335 107.156 50.5162 106.544 49.8734C105.932 49.2307 105.159 48.9093 104.226 48.9093C103.277 48.9093 102.496 49.2307 101.884 49.8734C101.287 50.5009 100.989 51.312 100.989 52.3068C100.989 53.3016 101.287 54.1204 101.884 54.7632C102.496 55.3906 103.277 55.7044 104.226 55.7044ZM113.072 58V41.4714H116.01V58H113.072ZM124.476 58.2755C123.374 58.2755 122.38 58.023 121.492 57.5179C120.62 57.0129 119.923 56.3165 119.403 55.4289C118.898 54.5259 118.645 53.4852 118.645 52.3068C118.645 51.1284 118.905 50.0954 119.426 49.2077C119.946 48.3048 120.643 47.6008 121.515 47.0957C122.402 46.5907 123.397 46.3382 124.499 46.3382C125.586 46.3382 126.565 46.5907 127.438 47.0957C128.325 47.6008 129.022 48.3048 129.527 49.2077C130.047 50.0954 130.307 51.1284 130.307 52.3068C130.307 53.4852 130.047 54.5259 129.527 55.4289C129.022 56.3165 128.325 57.0129 127.438 57.5179C126.55 58.023 125.563 58.2755 124.476 58.2755ZM124.476 55.7273C125.241 55.7273 125.907 55.4442 126.473 54.8779C127.04 54.2964 127.323 53.4393 127.323 52.3068C127.323 51.1743 127.04 50.3249 126.473 49.7587C125.907 49.1771 125.249 48.8863 124.499 48.8863C123.719 48.8863 123.045 49.1771 122.479 49.7587C121.928 50.3249 121.653 51.1743 121.653 52.3068C121.653 53.4393 121.928 54.2964 122.479 54.8779C123.045 55.4442 123.711 55.7273 124.476 55.7273ZM136.86 58.2755C135.88 58.2755 135.077 58.1224 134.449 57.8163C133.822 57.495 133.355 57.0741 133.049 56.5537C132.743 56.0334 132.59 55.4595 132.59 54.832C132.59 53.776 133.003 52.919 133.83 52.2609C134.656 51.6028 135.896 51.2738 137.549 51.2738H140.441V50.9983C140.441 50.2178 140.219 49.6439 139.775 49.2766C139.332 48.9093 138.781 48.7256 138.123 48.7256C137.526 48.7256 137.005 48.871 136.561 49.1618C136.118 49.4373 135.842 49.8505 135.735 50.4014H132.866C132.942 49.575 133.218 48.8557 133.692 48.2435C134.182 47.6314 134.809 47.1646 135.574 46.8432C136.34 46.5065 137.197 46.3382 138.145 46.3382C139.768 46.3382 141.046 46.7437 141.979 47.5549C142.913 48.366 143.38 49.5138 143.38 50.9983V58H140.877L140.602 56.1635C140.265 56.7757 139.791 57.2807 139.179 57.6786C138.582 58.0765 137.809 58.2755 136.86 58.2755ZM137.526 55.9798C138.367 55.9798 139.018 55.7044 139.477 55.1534C139.951 54.6025 140.25 53.9214 140.372 53.1103H137.87C137.089 53.1103 136.531 53.2557 136.194 53.5465C135.857 53.8219 135.689 54.1663 135.689 54.5795C135.689 55.0233 135.857 55.3677 136.194 55.6125C136.531 55.8574 136.975 55.9798 137.526 55.9798ZM151.418 58.2755C150.346 58.2755 149.39 58.0153 148.548 57.495C147.706 56.9746 147.041 56.263 146.551 55.36C146.061 54.4571 145.816 53.4317 145.816 52.2839C145.816 51.136 146.061 50.1183 146.551 49.2307C147.041 48.3277 147.706 47.6237 148.548 47.1187C149.39 46.5983 150.346 46.3382 151.418 46.3382C152.275 46.3382 153.025 46.4989 153.667 46.8202C154.31 47.1416 154.831 47.5931 155.228 48.1747V41.4714H158.167V58H155.55L155.228 56.3701C154.861 56.8751 154.371 57.319 153.759 57.7016C153.162 58.0842 152.382 58.2755 151.418 58.2755ZM152.037 55.7044C152.986 55.7044 153.759 55.3906 154.356 54.7632C154.968 54.1204 155.274 53.3016 155.274 52.3068C155.274 51.312 154.968 50.5009 154.356 49.8734C153.759 49.2307 152.986 48.9093 152.037 48.9093C151.104 48.9093 150.331 49.223 149.719 49.8505C149.107 50.478 148.801 51.2891 148.801 52.2839C148.801 53.2786 149.107 54.0974 149.719 54.7402C150.331 55.383 151.104 55.7044 152.037 55.7044ZM165.865 58.2755C164.855 58.2755 163.967 58.1148 163.202 57.7934C162.437 57.4567 161.825 56.9976 161.366 56.416C160.907 55.8344 160.631 55.1611 160.539 54.3959H163.501C163.592 54.8397 163.837 55.2223 164.235 55.5437C164.648 55.8498 165.176 56.0028 165.819 56.0028C166.462 56.0028 166.929 55.8727 167.22 55.6125C167.526 55.3524 167.679 55.0539 167.679 54.7172C167.679 54.2275 167.464 53.8985 167.036 53.7301C166.607 53.5465 166.011 53.3705 165.245 53.2021C164.756 53.095 164.258 52.9649 163.753 52.8119C163.248 52.6588 162.781 52.4675 162.353 52.238C161.94 51.9931 161.603 51.687 161.343 51.3197C161.083 50.9371 160.952 50.4703 160.952 49.9194C160.952 48.9093 161.35 48.0599 162.146 47.3712C162.957 46.6825 164.09 46.3382 165.544 46.3382C166.891 46.3382 167.962 46.6519 168.758 47.2794C169.569 47.9068 170.051 48.7715 170.204 49.8734H167.426C167.258 49.0317 166.623 48.6108 165.521 48.6108C164.97 48.6108 164.541 48.718 164.235 48.9322C163.944 49.1465 163.799 49.4143 163.799 49.7357C163.799 50.0724 164.021 50.3402 164.465 50.5392C164.909 50.7381 165.498 50.9218 166.232 51.0901C167.028 51.2738 167.755 51.4804 168.413 51.71C169.087 51.9242 169.622 52.2533 170.02 52.6971C170.418 53.1256 170.617 53.7454 170.617 54.5565C170.632 55.2605 170.449 55.8957 170.066 56.4619C169.684 57.0282 169.133 57.472 168.413 57.7934C167.694 58.1148 166.845 58.2755 165.865 58.2755ZM31.1982 88.2755C30.1881 88.2755 29.3005 88.1148 28.5353 87.7934C27.7701 87.4567 27.1579 86.9976 26.6988 86.416C26.2396 85.8344 25.9642 85.1611 25.8723 84.3959H28.8337C28.9255 84.8397 29.1704 85.2223 29.5683 85.5437C29.9815 85.8498 30.5095 86.0028 31.1523 86.0028C31.7951 86.0028 32.2619 85.8727 32.5526 85.6125C32.8587 85.3524 33.0118 85.0539 33.0118 84.7172C33.0118 84.2275 32.7975 83.8985 32.369 83.7301C31.9405 83.5465 31.3436 83.3705 30.5784 83.2021C30.0887 83.095 29.5913 82.9649 29.0862 82.8119C28.5812 82.6588 28.1144 82.4675 27.6859 82.238C27.2727 81.9931 26.936 81.687 26.6758 81.3197C26.4156 80.9371 26.2856 80.4703 26.2856 79.9194C26.2856 78.9093 26.6835 78.0599 27.4793 77.3712C28.2904 76.6825 29.4229 76.3382 30.8768 76.3382C32.2236 76.3382 33.2949 76.6519 34.0907 77.2794C34.9018 77.9068 35.3839 78.7715 35.537 79.8734H32.7593C32.5909 79.0317 31.9558 78.6108 30.8539 78.6108C30.3029 78.6108 29.8744 78.718 29.5683 78.9322C29.2775 79.1465 29.1321 79.4143 29.1321 79.7357C29.1321 80.0724 29.3541 80.3402 29.7979 80.5392C30.2417 80.7381 30.8309 80.9218 31.5655 81.0901C32.3613 81.2738 33.0883 81.4804 33.7464 81.71C34.4198 81.9242 34.9554 82.2533 35.3533 82.6971C35.7512 83.1256 35.9502 83.7454 35.9502 84.5565C35.9655 85.2605 35.7818 85.8957 35.3992 86.4619C35.0166 87.0282 34.4657 87.472 33.7464 87.7934C33.0271 88.1148 32.1777 88.2755 31.1982 88.2755ZM38.5532 88V71.4714H41.4916V88H38.5532ZM50.0266 88.2755C48.8787 88.2755 47.861 88.0306 46.9734 87.5409C46.0857 87.0511 45.3894 86.3624 44.8843 85.4748C44.3793 84.5872 44.1268 83.5618 44.1268 82.3986C44.1268 81.2202 44.3716 80.1719 44.8614 79.2536C45.3664 78.3354 46.0551 77.6237 46.9275 77.1187C47.8151 76.5983 48.8558 76.3382 50.0495 76.3382C51.1667 76.3382 52.1539 76.583 53.0109 77.0728C53.8679 77.5625 54.5337 78.2359 55.0081 79.0929C55.4978 79.9347 55.7427 80.8759 55.7427 81.9166C55.7427 82.0849 55.735 82.2609 55.7197 82.4446C55.7197 82.6282 55.7121 82.8195 55.6968 83.0185H47.0422C47.1035 83.9061 47.4095 84.6025 47.9605 85.1075C48.5267 85.6125 49.2078 85.8651 50.0036 85.8651C50.6005 85.8651 51.0979 85.735 51.4958 85.4748C51.909 85.1993 52.2151 84.8473 52.414 84.4188H55.3984C55.1841 85.1381 54.8244 85.7962 54.3194 86.3931C53.8297 86.9746 53.2175 87.4337 52.4829 87.7704C51.7636 88.1071 50.9448 88.2755 50.0266 88.2755ZM50.0495 78.7256C49.3302 78.7256 48.6951 78.9322 48.1441 79.3454C47.5932 79.7434 47.2412 80.3555 47.0882 81.182H52.7584C52.7125 80.4321 52.437 79.8352 51.9319 79.3914C51.4269 78.9475 50.7994 78.7256 50.0495 78.7256ZM63.7466 88.2755C62.5988 88.2755 61.581 88.0306 60.6934 87.5409C59.8057 87.0511 59.1094 86.3624 58.6044 85.4748C58.0993 84.5872 57.8468 83.5618 57.8468 82.3986C57.8468 81.2202 58.0917 80.1719 58.5814 79.2536C59.0864 78.3354 59.7751 77.6237 60.6475 77.1187C61.5351 76.5983 62.5758 76.3382 63.7695 76.3382C64.8867 76.3382 65.8739 76.583 66.7309 77.0728C67.5879 77.5625 68.2537 78.2359 68.7281 79.0929C69.2178 79.9347 69.4627 80.8759 69.4627 81.9166C69.4627 82.0849 69.4551 82.2609 69.4398 82.4446C69.4398 82.6282 69.4321 82.8195 69.4168 83.0185H60.7623C60.8235 83.9061 61.1296 84.6025 61.6805 85.1075C62.2468 85.6125 62.9278 85.8651 63.7236 85.8651C64.3205 85.8651 64.8179 85.735 65.2158 85.4748C65.629 85.1993 65.9351 84.8473 66.134 84.4188H69.1184C68.9041 85.1381 68.5445 85.7962 68.0394 86.3931C67.5497 86.9746 66.9375 87.4337 66.2029 87.7704C65.4836 88.1071 64.6648 88.2755 63.7466 88.2755ZM63.7695 78.7256C63.0502 78.7256 62.4151 78.9322 61.8642 79.3454C61.3132 79.7434 60.9612 80.3555 60.8082 81.182H66.4784C66.4325 80.4321 66.157 79.8352 65.652 79.3914C65.1469 78.9475 64.5194 78.7256 63.7695 78.7256ZM71.9341 93.0504V76.6136H74.5511L74.8725 78.2435C75.2398 77.7385 75.7219 77.2947 76.3188 76.9121C76.9309 76.5295 77.7191 76.3382 78.6833 76.3382C79.7546 76.3382 80.7111 76.5983 81.5528 77.1187C82.3946 77.639 83.0603 78.3507 83.55 79.2536C84.0398 80.1566 84.2846 81.182 84.2846 82.3298C84.2846 83.4776 84.0398 84.503 83.55 85.4059C83.0603 86.2936 82.3946 86.9976 81.5528 87.5179C80.7111 88.023 79.7546 88.2755 78.6833 88.2755C77.8262 88.2755 77.0763 88.1148 76.4336 87.7934C75.7908 87.472 75.2704 87.0205 74.8725 86.439V93.0504H71.9341ZM78.0635 85.7044C78.997 85.7044 79.7699 85.3906 80.3821 84.7632C80.9942 84.1357 81.3003 83.3246 81.3003 82.3298C81.3003 81.335 80.9942 80.5162 80.3821 79.8734C79.7699 79.2307 78.997 78.9093 78.0635 78.9093C77.1146 78.9093 76.3341 79.2307 75.7219 79.8734C75.125 80.5009 74.8266 81.312 74.8266 82.3068C74.8266 83.3016 75.125 84.1204 75.7219 84.7632C76.3341 85.3906 77.1146 85.7044 78.0635 85.7044ZM97.6137 88.2755C96.5424 88.2755 95.5859 88.0153 94.7441 87.495C93.9024 86.9746 93.2367 86.263 92.7469 85.36C92.2572 84.4571 92.0123 83.4317 92.0123 82.2839C92.0123 81.136 92.2572 80.1183 92.7469 79.2307C93.2367 78.3277 93.9024 77.6237 94.7441 77.1187C95.5859 76.5983 96.5424 76.3382 97.6137 76.3382C98.4707 76.3382 99.2206 76.4989 99.8634 76.8202C100.506 77.1416 101.027 77.5931 101.424 78.1747V71.4714H104.363V88H101.746L101.424 86.3701C101.057 86.8751 100.567 87.319 99.9552 87.7016C99.3584 88.0842 98.5778 88.2755 97.6137 88.2755ZM98.2335 85.7044C99.1824 85.7044 99.9552 85.3906 100.552 84.7632C101.164 84.1204 101.47 83.3016 101.47 82.3068C101.47 81.312 101.164 80.5009 100.552 79.8734C99.9552 79.2307 99.1824 78.9093 98.2335 78.9093C97.2999 78.9093 96.5271 79.223 95.9149 79.8505C95.3027 80.478 94.9967 81.2891 94.9967 82.2839C94.9967 83.2786 95.3027 84.0974 95.9149 84.7402C96.5271 85.383 97.2999 85.7044 98.2335 85.7044ZM111.281 88.2755C110.301 88.2755 109.498 88.1224 108.87 87.8163C108.243 87.495 107.776 87.0741 107.47 86.5537C107.164 86.0334 107.011 85.4595 107.011 84.832C107.011 83.776 107.424 82.919 108.25 82.2609C109.077 81.6028 110.316 81.2738 111.969 81.2738H114.862V80.9983C114.862 80.2178 114.64 79.6439 114.196 79.2766C113.752 78.9093 113.201 78.7256 112.543 78.7256C111.946 78.7256 111.426 78.871 110.982 79.1618C110.538 79.4373 110.263 79.8505 110.156 80.4014H107.286C107.363 79.575 107.638 78.8557 108.113 78.2435C108.602 77.6314 109.23 77.1646 109.995 76.8432C110.76 76.5065 111.617 76.3382 112.566 76.3382C114.188 76.3382 115.466 76.7437 116.4 77.5549C117.333 78.366 117.8 79.5138 117.8 80.9983V88H115.298L115.022 86.1635C114.686 86.7757 114.211 87.2807 113.599 87.6786C113.002 88.0765 112.229 88.2755 111.281 88.2755ZM111.946 85.9798C112.788 85.9798 113.439 85.7044 113.898 85.1534C114.372 84.6025 114.671 83.9214 114.793 83.1103H112.291C111.51 83.1103 110.952 83.2557 110.615 83.5465C110.278 83.8219 110.11 84.1663 110.11 84.5795C110.11 85.0233 110.278 85.3677 110.615 85.6125C110.952 85.8574 111.395 85.9798 111.946 85.9798ZM125.521 88C124.327 88 123.37 87.7092 122.651 87.1277C121.932 86.5461 121.572 85.5131 121.572 84.0285V79.07H119.621V76.6136H121.572L121.917 73.5604H124.511V76.6136H127.587V79.07H124.511V84.0515C124.511 84.6025 124.625 84.9851 124.855 85.1993C125.1 85.3983 125.513 85.4978 126.095 85.4978H127.518V88H125.521ZM134.035 88.2755C133.056 88.2755 132.252 88.1224 131.625 87.8163C130.997 87.495 130.531 87.0741 130.224 86.5537C129.918 86.0334 129.765 85.4595 129.765 84.832C129.765 83.776 130.179 82.919 131.005 82.2609C131.831 81.6028 133.071 81.2738 134.724 81.2738H137.616V80.9983C137.616 80.2178 137.394 79.6439 136.951 79.2766C136.507 78.9093 135.956 78.7256 135.298 78.7256C134.701 78.7256 134.181 78.871 133.737 79.1618C133.293 79.4373 133.017 79.8505 132.91 80.4014H130.041C130.117 79.575 130.393 78.8557 130.867 78.2435C131.357 77.6314 131.984 77.1646 132.75 76.8432C133.515 76.5065 134.372 76.3382 135.321 76.3382C136.943 76.3382 138.221 76.7437 139.154 77.5549C140.088 78.366 140.555 79.5138 140.555 80.9983V88H138.053L137.777 86.1635C137.44 86.7757 136.966 87.2807 136.354 87.6786C135.757 88.0765 134.984 88.2755 134.035 88.2755ZM134.701 85.9798C135.543 85.9798 136.193 85.7044 136.652 85.1534C137.127 84.6025 137.425 83.9214 137.548 83.1103H135.045C134.265 83.1103 133.706 83.2557 133.369 83.5465C133.033 83.8219 132.864 84.1663 132.864 84.5795C132.864 85.0233 133.033 85.3677 133.369 85.6125C133.706 85.8574 134.15 85.9798 134.701 85.9798ZM153.902 88C152.709 88 151.752 87.7092 151.033 87.1277C150.313 86.5461 149.954 85.5131 149.954 84.0285V79.07H148.003V76.6136H149.954L150.298 73.5604H152.892V76.6136H155.968V79.07H152.892V84.0515C152.892 84.6025 153.007 84.9851 153.237 85.1993C153.481 85.3983 153.895 85.4978 154.476 85.4978H155.9V88H153.902ZM163.663 88.2755C162.562 88.2755 161.567 88.023 160.679 87.5179C159.807 87.0129 159.11 86.3165 158.59 85.4289C158.085 84.5259 157.833 83.4852 157.833 82.3068C157.833 81.1284 158.093 80.0954 158.613 79.2077C159.133 78.3048 159.83 77.6008 160.702 77.0957C161.59 76.5907 162.585 76.3382 163.686 76.3382C164.773 76.3382 165.752 76.5907 166.625 77.0957C167.512 77.6008 168.209 78.3048 168.714 79.2077C169.234 80.0954 169.494 81.1284 169.494 82.3068C169.494 83.4852 169.234 84.5259 168.714 85.4289C168.209 86.3165 167.512 87.0129 166.625 87.5179C165.737 88.023 164.75 88.2755 163.663 88.2755ZM163.663 85.7273C164.429 85.7273 165.094 85.4442 165.661 84.8779C166.227 84.2964 166.51 83.4393 166.51 82.3068C166.51 81.1743 166.227 80.3249 165.661 79.7587C165.094 79.1771 164.436 78.8863 163.686 78.8863C162.906 78.8863 162.233 79.1771 161.666 79.7587C161.115 80.3249 160.84 81.1743 160.84 82.3068C160.84 83.4393 161.115 84.2964 161.666 84.8779C162.233 85.4442 162.898 85.7273 163.663 85.7273ZM30.4177 118.275C29.4382 118.275 28.6348 118.122 28.0073 117.816C27.3798 117.495 26.913 117.074 26.6069 116.554C26.3009 116.033 26.1478 115.459 26.1478 114.832C26.1478 113.776 26.561 112.919 27.3875 112.261C28.2139 111.603 29.4535 111.274 31.1064 111.274H33.9989V110.998C33.9989 110.218 33.777 109.644 33.3332 109.277C32.8893 108.909 32.3384 108.726 31.6803 108.726C31.0834 108.726 30.5631 108.871 30.1193 109.162C29.6754 109.437 29.4 109.85 29.2928 110.401H26.4233C26.4998 109.575 26.7753 108.856 27.2497 108.244C27.7395 107.631 28.3669 107.165 29.1321 106.843C29.8974 106.507 30.7544 106.338 31.7033 106.338C33.3255 106.338 34.6034 106.744 35.537 107.555C36.4705 108.366 36.9373 109.514 36.9373 110.998V118H34.4351L34.1596 116.163C33.8229 116.776 33.3485 117.281 32.7363 117.679C32.1394 118.077 31.3666 118.275 30.4177 118.275ZM31.0834 115.98C31.9252 115.98 32.5756 115.704 33.0347 115.153C33.5092 114.602 33.8076 113.921 33.93 113.11H31.4278C30.6473 113.11 30.0887 113.256 29.752 113.546C29.4153 113.822 29.2469 114.166 29.2469 114.58C29.2469 115.023 29.4153 115.368 29.752 115.613C30.0887 115.857 30.5325 115.98 31.0834 115.98ZM50.7899 118.275C49.6267 118.275 48.6014 118.023 47.7137 117.518C46.8261 117.013 46.1221 116.309 45.6017 115.406C45.0967 114.503 44.8442 113.47 44.8442 112.307C44.8442 111.144 45.0967 110.111 45.6017 109.208C46.1221 108.305 46.8261 107.601 47.7137 107.096C48.6014 106.591 49.6267 106.338 50.7899 106.338C52.2438 106.338 53.4681 106.721 54.4629 107.486C55.4577 108.236 56.0928 109.277 56.3683 110.608H53.2692C53.1161 110.057 52.81 109.629 52.3509 109.322C51.9071 109.001 51.3791 108.84 50.7669 108.84C49.9558 108.84 49.2671 109.146 48.7008 109.759C48.1346 110.371 47.8514 111.22 47.8514 112.307C47.8514 113.393 48.1346 114.243 48.7008 114.855C49.2671 115.467 49.9558 115.773 50.7669 115.773C51.3791 115.773 51.9071 115.62 52.3509 115.314C52.81 115.008 53.1161 114.572 53.2692 114.006H56.3683C56.0928 115.291 55.4577 116.324 54.4629 117.105C53.4681 117.885 52.2438 118.275 50.7899 118.275ZM58.9763 118V101.471H61.9147V118H58.9763ZM70.3808 118.275C69.2789 118.275 68.2841 118.023 67.3965 117.518C66.5241 117.013 65.8278 116.317 65.3074 115.429C64.8024 114.526 64.5499 113.485 64.5499 112.307C64.5499 111.128 64.81 110.095 65.3304 109.208C65.8507 108.305 66.5471 107.601 67.4194 107.096C68.3071 106.591 69.3018 106.338 70.4038 106.338C71.4904 106.338 72.4698 106.591 73.3422 107.096C74.2298 107.601 74.9262 108.305 75.4312 109.208C75.9515 110.095 76.2117 111.128 76.2117 112.307C76.2117 113.485 75.9515 114.526 75.4312 115.429C74.9262 116.317 74.2298 117.013 73.3422 117.518C72.4545 118.023 71.4674 118.275 70.3808 118.275ZM70.3808 115.727C71.146 115.727 71.8117 115.444 72.378 114.878C72.9443 114.296 73.2274 113.439 73.2274 112.307C73.2274 111.174 72.9443 110.325 72.378 109.759C71.8117 109.177 71.1537 108.886 70.4038 108.886C69.6232 108.886 68.9498 109.177 68.3836 109.759C67.8326 110.325 67.5572 111.174 67.5572 112.307C67.5572 113.439 67.8326 114.296 68.3836 114.878C68.9498 115.444 69.6156 115.727 70.3808 115.727ZM83.1088 118.275C81.6855 118.275 80.5836 117.832 79.8031 116.944C79.0379 116.056 78.6553 114.755 78.6553 113.041V106.614H81.5708V112.766C81.5708 113.745 81.7697 114.495 82.1676 115.016C82.5655 115.536 83.193 115.796 84.0501 115.796C84.8612 115.796 85.5269 115.505 86.0473 114.924C86.5829 114.342 86.8507 113.531 86.8507 112.49V106.614H89.7891V118H87.1951L86.9655 116.072C86.6135 116.745 86.1008 117.281 85.4274 117.679C84.7694 118.077 83.9965 118.275 83.1088 118.275ZM98.0396 118.275C96.9683 118.275 96.0118 118.015 95.1701 117.495C94.3284 116.975 93.6626 116.263 93.1729 115.36C92.6831 114.457 92.4383 113.432 92.4383 112.284C92.4383 111.136 92.6831 110.118 93.1729 109.231C93.6626 108.328 94.3284 107.624 95.1701 107.119C96.0118 106.598 96.9683 106.338 98.0396 106.338C98.8967 106.338 99.6466 106.499 100.289 106.82C100.932 107.142 101.452 107.593 101.85 108.175V101.471H104.789V118H102.172L101.85 116.37C101.483 116.875 100.993 117.319 100.381 117.702C99.7843 118.084 99.0038 118.275 98.0396 118.275ZM98.6595 115.704C99.6083 115.704 100.381 115.391 100.978 114.763C101.59 114.12 101.896 113.302 101.896 112.307C101.896 111.312 101.59 110.501 100.978 109.873C100.381 109.231 99.6083 108.909 98.6595 108.909C97.7259 108.909 96.953 109.223 96.3409 109.85C95.7287 110.478 95.4226 111.289 95.4226 112.284C95.4226 113.279 95.7287 114.097 96.3409 114.74C96.953 115.383 97.7259 115.704 98.6595 115.704ZM113.779 118V109.07H112.218V106.614H113.779V105.282C113.779 103.905 114.123 102.925 114.812 102.344C115.516 101.762 116.465 101.471 117.659 101.471H118.921V103.974H118.118C117.613 103.974 117.253 104.073 117.039 104.272C116.825 104.471 116.718 104.808 116.718 105.282V106.614H119.174V109.07H116.718V118H113.779ZM126.516 118.275C125.414 118.275 124.42 118.023 123.532 117.518C122.66 117.013 121.963 116.317 121.443 115.429C120.938 114.526 120.685 113.485 120.685 112.307C120.685 111.128 120.946 110.095 121.466 109.208C121.986 108.305 122.683 107.601 123.555 107.096C124.443 106.591 125.437 106.338 126.539 106.338C127.626 106.338 128.605 106.591 129.478 107.096C130.365 107.601 131.062 108.305 131.567 109.208C132.087 110.095 132.347 111.128 132.347 112.307C132.347 113.485 132.087 114.526 131.567 115.429C131.062 116.317 130.365 117.013 129.478 117.518C128.59 118.023 127.603 118.275 126.516 118.275ZM126.516 115.727C127.282 115.727 127.947 115.444 128.513 114.878C129.08 114.296 129.363 113.439 129.363 112.307C129.363 111.174 129.08 110.325 128.513 109.759C127.947 109.177 127.289 108.886 126.539 108.886C125.759 108.886 125.085 109.177 124.519 109.759C123.968 110.325 123.693 111.174 123.693 112.307C123.693 113.439 123.968 114.296 124.519 114.878C125.085 115.444 125.751 115.727 126.516 115.727ZM134.974 118V101.471H137.913V118H134.974ZM146.149 118.275C145.078 118.275 144.122 118.015 143.28 117.495C142.438 116.975 141.772 116.263 141.283 115.36C140.793 114.457 140.548 113.432 140.548 112.284C140.548 111.136 140.793 110.118 141.283 109.231C141.772 108.328 142.438 107.624 143.28 107.119C144.122 106.598 145.078 106.338 146.149 106.338C147.006 106.338 147.756 106.499 148.399 106.82C149.042 107.142 149.562 107.593 149.96 108.175V101.471H152.899V118H150.282L149.96 116.37C149.593 116.875 149.103 117.319 148.491 117.702C147.894 118.084 147.114 118.275 146.149 118.275ZM146.769 115.704C147.718 115.704 148.491 115.391 149.088 114.763C149.7 114.12 150.006 113.302 150.006 112.307C150.006 111.312 149.7 110.501 149.088 109.873C148.491 109.231 147.718 108.909 146.769 108.909C145.836 108.909 145.063 109.223 144.451 109.85C143.838 110.478 143.532 111.289 143.532 112.284C143.532 113.279 143.838 114.097 144.451 114.74C145.063 115.383 145.836 115.704 146.769 115.704ZM161.423 118.275C160.275 118.275 159.258 118.031 158.37 117.541C157.482 117.051 156.786 116.362 156.281 115.475C155.776 114.587 155.523 113.562 155.523 112.399C155.523 111.22 155.768 110.172 156.258 109.254C156.763 108.335 157.452 107.624 158.324 107.119C159.212 106.598 160.252 106.338 161.446 106.338C162.563 106.338 163.551 106.583 164.408 107.073C165.265 107.563 165.93 108.236 166.405 109.093C166.895 109.935 167.139 110.876 167.139 111.917C167.139 112.085 167.132 112.261 167.116 112.445C167.116 112.628 167.109 112.82 167.093 113.018H158.439C158.5 113.906 158.806 114.602 159.357 115.107C159.923 115.613 160.604 115.865 161.4 115.865C161.997 115.865 162.495 115.735 162.892 115.475C163.306 115.199 163.612 114.847 163.811 114.419H166.795C166.581 115.138 166.221 115.796 165.716 116.393C165.226 116.975 164.614 117.434 163.88 117.77C163.16 118.107 162.341 118.275 161.423 118.275ZM161.446 108.726C160.727 108.726 160.092 108.932 159.541 109.345C158.99 109.743 158.638 110.356 158.485 111.182H164.155C164.109 110.432 163.834 109.835 163.329 109.391C162.824 108.948 162.196 108.726 161.446 108.726ZM169.611 118V106.614H172.228L172.503 108.749C172.916 108.014 173.475 107.432 174.179 107.004C174.898 106.56 175.74 106.338 176.704 106.338V109.437H175.878C175.235 109.437 174.661 109.537 174.156 109.736C173.651 109.935 173.253 110.279 172.962 110.769C172.687 111.258 172.549 111.94 172.549 112.812V118H169.611Z" fill="black"/>
<rect x="1.67663" y="9.67663" width="200.078" height="137.483" stroke="#1E1E1E" stroke-width="3.35326"/>
<path d="M941.938 75.2755C940.76 75.2755 939.696 75.0459 938.748 74.5868C937.799 74.1124 937.041 73.4007 936.475 72.4518C935.924 71.503 935.648 70.3016 935.648 68.8477V58.9305H938.587V68.8706C938.587 70.1256 938.885 71.0592 939.482 71.6713C940.094 72.2835 940.936 72.5896 942.007 72.5896C943.063 72.5896 943.897 72.2835 944.51 71.6713C945.122 71.0592 945.428 70.1256 945.428 68.8706V58.9305H948.366V68.8477C948.366 70.3016 948.075 71.503 947.494 72.4518C946.912 73.4007 946.132 74.1124 945.152 74.5868C944.188 75.0459 943.117 75.2755 941.938 75.2755ZM956.003 75.2755C954.993 75.2755 954.105 75.1148 953.34 74.7934C952.575 74.4567 951.963 73.9976 951.504 73.416C951.044 72.8344 950.769 72.1611 950.677 71.3959H953.638C953.73 71.8397 953.975 72.2223 954.373 72.5437C954.786 72.8498 955.314 73.0028 955.957 73.0028C956.6 73.0028 957.067 72.8727 957.357 72.6125C957.664 72.3524 957.817 72.0539 957.817 71.7172C957.817 71.2275 957.602 70.8985 957.174 70.7301C956.745 70.5465 956.148 70.3705 955.383 70.2021C954.893 70.095 954.396 69.9649 953.891 69.8119C953.386 69.6588 952.919 69.4675 952.491 69.238C952.077 68.9931 951.741 68.687 951.481 68.3197C951.22 67.9371 951.09 67.4703 951.09 66.9194C951.09 65.9093 951.488 65.0599 952.284 64.3712C953.095 63.6825 954.228 63.3382 955.682 63.3382C957.028 63.3382 958.1 63.6519 958.895 64.2794C959.707 64.9068 960.189 65.7715 960.342 66.8734H957.564C957.396 66.0317 956.761 65.6108 955.659 65.6108C955.108 65.6108 954.679 65.718 954.373 65.9322C954.082 66.1465 953.937 66.4143 953.937 66.7357C953.937 67.0724 954.159 67.3402 954.603 67.5392C955.046 67.7381 955.636 67.9218 956.37 68.0901C957.166 68.2738 957.893 68.4804 958.551 68.71C959.225 68.9242 959.76 69.2533 960.158 69.6971C960.556 70.1256 960.755 70.7454 960.755 71.5565C960.77 72.2605 960.587 72.8957 960.204 73.4619C959.821 74.0282 959.27 74.472 958.551 74.7934C957.832 75.1148 956.982 75.2755 956.003 75.2755ZM968.89 75.2755C967.743 75.2755 966.725 75.0306 965.837 74.5409C964.95 74.0511 964.253 73.3624 963.748 72.4748C963.243 71.5872 962.991 70.5618 962.991 69.3986C962.991 68.2202 963.236 67.1719 963.725 66.2536C964.23 65.3354 964.919 64.6237 965.791 64.1187C966.679 63.5983 967.72 63.3382 968.913 63.3382C970.031 63.3382 971.018 63.583 971.875 64.0728C972.732 64.5625 973.398 65.2359 973.872 66.0929C974.362 66.9347 974.607 67.8759 974.607 68.9166C974.607 69.0849 974.599 69.2609 974.584 69.4446C974.584 69.6282 974.576 69.8195 974.561 70.0185H965.906C965.967 70.9061 966.273 71.6025 966.824 72.1075C967.391 72.6125 968.072 72.8651 968.868 72.8651C969.464 72.8651 969.962 72.735 970.36 72.4748C970.773 72.1993 971.079 71.8473 971.278 71.4188H974.262C974.048 72.1381 973.688 72.7962 973.183 73.3931C972.694 73.9746 972.081 74.4337 971.347 74.7704C970.628 75.1071 969.809 75.2755 968.89 75.2755ZM968.913 65.7256C968.194 65.7256 967.559 65.9322 967.008 66.3454C966.457 66.7434 966.105 67.3555 965.952 68.182H971.622C971.576 67.4321 971.301 66.8352 970.796 66.3914C970.291 65.9475 969.663 65.7256 968.913 65.7256ZM977.078 75V63.6136H979.695L979.971 65.7486C980.384 65.014 980.942 64.4324 981.646 64.0039C982.366 63.5601 983.207 63.3382 984.172 63.3382V66.4373H983.345C982.702 66.4373 982.128 66.5368 981.623 66.7357C981.118 66.9347 980.72 67.279 980.43 67.7687C980.154 68.2585 980.016 68.9395 980.016 69.8119V75H977.078ZM996.471 71.6025C995.92 71.6025 995.407 71.5412 994.933 71.4188L994.083 72.2682C994.343 72.4059 994.695 72.5207 995.139 72.6125C995.583 72.7044 996.302 72.7962 997.297 72.888C998.812 73.0258 999.914 73.3854 1000.6 73.967C1001.29 74.5485 1001.64 75.352 1001.64 76.3774C1001.64 77.0508 1001.45 77.6859 1001.08 78.2828C1000.72 78.8949 1000.15 79.3847 999.386 79.752C998.621 80.1346 997.642 80.3259 996.448 80.3259C994.826 80.3259 993.517 80.0198 992.522 79.4076C991.527 78.8108 991.03 77.9078 991.03 76.6988C991.03 75.6734 991.527 74.7857 992.522 74.0358C992.216 73.8981 991.948 73.7527 991.719 73.5997C991.505 73.4466 991.313 73.2859 991.145 73.1176V72.5896L993.142 70.4776C992.254 69.6971 991.811 68.6947 991.811 67.4703C991.811 66.7051 991.994 66.0088 992.362 65.3813C992.744 64.7538 993.28 64.2564 993.969 63.8891C994.657 63.5218 995.491 63.3382 996.471 63.3382C997.114 63.3382 997.71 63.43 998.261 63.6136H1002.58V65.4042L1000.63 65.542C1000.93 66.1235 1001.08 66.7663 1001.08 67.4703C1001.08 68.2355 1000.9 68.9319 1000.53 69.5593C1000.17 70.1868 999.631 70.6842 998.927 71.0515C998.238 71.4188 997.42 71.6025 996.471 71.6025ZM996.471 69.3527C997.068 69.3527 997.557 69.192 997.94 68.8706C998.338 68.5493 998.537 68.0901 998.537 67.4933C998.537 66.8964 998.338 66.4373 997.94 66.1159C997.557 65.7945 997.068 65.6338 996.471 65.6338C995.843 65.6338 995.338 65.7945 994.956 66.1159C994.573 66.4373 994.382 66.8964 994.382 67.4933C994.382 68.0901 994.573 68.5493 994.956 68.8706C995.338 69.192 995.843 69.3527 996.471 69.3527ZM993.716 76.4003C993.716 76.9666 993.976 77.3875 994.497 77.6629C995.032 77.9537 995.683 78.0991 996.448 78.0991C997.182 78.0991 997.779 77.9461 998.238 77.64C998.698 77.3492 998.927 76.9513 998.927 76.4463C998.927 76.033 998.774 75.6887 998.468 75.4132C998.177 75.1377 997.588 74.9694 996.7 74.9082C996.073 74.8623 995.491 74.7934 994.956 74.7016C994.512 74.9464 994.19 75.2143 993.991 75.505C993.808 75.7958 993.716 76.0943 993.716 76.4003ZM1009.8 75.2755C1008.66 75.2755 1007.64 75.0306 1006.75 74.5409C1005.86 74.0511 1005.17 73.3624 1004.66 72.4748C1004.16 71.5872 1003.9 70.5618 1003.9 69.3986C1003.9 68.2202 1004.15 67.1719 1004.64 66.2536C1005.14 65.3354 1005.83 64.6237 1006.7 64.1187C1007.59 63.5983 1008.63 63.3382 1009.83 63.3382C1010.94 63.3382 1011.93 63.583 1012.79 64.0728C1013.65 64.5625 1014.31 65.2359 1014.79 66.0929C1015.28 66.9347 1015.52 67.8759 1015.52 68.9166C1015.52 69.0849 1015.51 69.2609 1015.5 69.4446C1015.5 69.6282 1015.49 69.8195 1015.47 70.0185H1006.82C1006.88 70.9061 1007.19 71.6025 1007.74 72.1075C1008.3 72.6125 1008.99 72.8651 1009.78 72.8651C1010.38 72.8651 1010.88 72.735 1011.27 72.4748C1011.69 72.1993 1011.99 71.8473 1012.19 71.4188H1015.18C1014.96 72.1381 1014.6 72.7962 1014.1 73.3931C1013.61 73.9746 1012.99 74.4337 1012.26 74.7704C1011.54 75.1071 1010.72 75.2755 1009.8 75.2755ZM1009.83 65.7256C1009.11 65.7256 1008.47 65.9322 1007.92 66.3454C1007.37 66.7434 1007.02 67.3555 1006.87 68.182H1012.54C1012.49 67.4321 1012.21 66.8352 1011.71 66.3914C1011.2 65.9475 1010.58 65.7256 1009.83 65.7256ZM1022.86 75C1021.67 75 1020.71 74.7092 1019.99 74.1277C1019.27 73.5461 1018.91 72.5131 1018.91 71.0285V66.07H1016.96V63.6136H1018.91L1019.26 60.5604H1021.85V63.6136H1024.93V66.07H1021.85V71.0515C1021.85 71.6025 1021.97 71.9851 1022.2 72.1993C1022.44 72.3983 1022.86 72.4978 1023.44 72.4978H1024.86V75H1022.86ZM1032.16 75.2755C1031.15 75.2755 1030.26 75.1148 1029.5 74.7934C1028.73 74.4567 1028.12 73.9976 1027.66 73.416C1027.2 72.8344 1026.92 72.1611 1026.83 71.3959H1029.79C1029.89 71.8397 1030.13 72.2223 1030.53 72.5437C1030.94 72.8498 1031.47 73.0028 1032.11 73.0028C1032.75 73.0028 1033.22 72.8727 1033.51 72.6125C1033.82 72.3524 1033.97 72.0539 1033.97 71.7172C1033.97 71.2275 1033.76 70.8985 1033.33 70.7301C1032.9 70.5465 1032.3 70.3705 1031.54 70.2021C1031.05 70.095 1030.55 69.9649 1030.05 69.8119C1029.54 69.6588 1029.07 69.4675 1028.65 69.238C1028.23 68.9931 1027.9 68.687 1027.64 68.3197C1027.38 67.9371 1027.25 67.4703 1027.25 66.9194C1027.25 65.9093 1027.64 65.0599 1028.44 64.3712C1029.25 63.6825 1030.38 63.3382 1031.84 63.3382C1033.18 63.3382 1034.25 63.6519 1035.05 64.2794C1035.86 64.9068 1036.34 65.7715 1036.5 66.8734H1033.72C1033.55 66.0317 1032.92 65.6108 1031.81 65.6108C1031.26 65.6108 1030.83 65.718 1030.53 65.9322C1030.24 66.1465 1030.09 66.4143 1030.09 66.7357C1030.09 67.0724 1030.31 67.3402 1030.76 67.5392C1031.2 67.7381 1031.79 67.9218 1032.53 68.0901C1033.32 68.2738 1034.05 68.4804 1034.71 68.71C1035.38 68.9242 1035.92 69.2533 1036.31 69.6971C1036.71 70.1256 1036.91 70.7454 1036.91 71.5565C1036.93 72.2605 1036.74 72.8957 1036.36 73.4619C1035.98 74.0282 1035.43 74.472 1034.71 74.7934C1033.99 75.1148 1033.14 75.2755 1032.16 75.2755ZM1050.06 75C1048.86 75 1047.91 74.7092 1047.19 74.1277C1046.47 73.5461 1046.11 72.5131 1046.11 71.0285V66.07H1044.16V63.6136H1046.11L1046.45 60.5604H1049.05V63.6136H1052.12V66.07H1049.05V71.0515C1049.05 71.6025 1049.16 71.9851 1049.39 72.1993C1049.64 72.3983 1050.05 72.4978 1050.63 72.4978H1052.05V75H1050.06ZM1054.65 75V58.4714H1057.58V65.3583C1057.97 64.7309 1058.48 64.2411 1059.12 63.8891C1059.78 63.5218 1060.53 63.3382 1061.37 63.3382C1062.78 63.3382 1063.87 63.782 1064.63 64.6696C1065.41 65.5573 1065.8 66.8581 1065.8 68.5722V75H1062.89V68.8477C1062.89 67.8682 1062.69 67.1183 1062.29 66.598C1061.91 66.0776 1061.3 65.8175 1060.45 65.8175C1059.63 65.8175 1058.94 66.1082 1058.39 66.6898C1057.85 67.2714 1057.58 68.0825 1057.58 69.1232V75H1054.65ZM1074.14 75.2755C1073 75.2755 1071.98 75.0306 1071.09 74.5409C1070.2 74.0511 1069.51 73.3624 1069 72.4748C1068.5 71.5872 1068.24 70.5618 1068.24 69.3986C1068.24 68.2202 1068.49 67.1719 1068.98 66.2536C1069.48 65.3354 1070.17 64.6237 1071.05 64.1187C1071.93 63.5983 1072.97 63.3382 1074.17 63.3382C1075.28 63.3382 1076.27 63.583 1077.13 64.0728C1077.99 64.5625 1078.65 65.2359 1079.13 66.0929C1079.62 66.9347 1079.86 67.8759 1079.86 68.9166C1079.86 69.0849 1079.85 69.2609 1079.84 69.4446C1079.84 69.6282 1079.83 69.8195 1079.81 70.0185H1071.16C1071.22 70.9061 1071.53 71.6025 1072.08 72.1075C1072.64 72.6125 1073.33 72.8651 1074.12 72.8651C1074.72 72.8651 1075.22 72.735 1075.61 72.4748C1076.03 72.1993 1076.33 71.8473 1076.53 71.4188H1079.52C1079.3 72.1381 1078.94 72.7962 1078.44 73.3931C1077.95 73.9746 1077.34 74.4337 1076.6 74.7704C1075.88 75.1071 1075.06 75.2755 1074.14 75.2755ZM1074.17 65.7256C1073.45 65.7256 1072.81 65.9322 1072.26 66.3454C1071.71 66.7434 1071.36 67.3555 1071.21 68.182H1076.88C1076.83 67.4321 1076.55 66.8352 1076.05 66.3914C1075.54 65.9475 1074.92 65.7256 1074.17 65.7256ZM940.377 105.275C939.367 105.275 938.48 105.115 937.714 104.793C936.949 104.457 936.337 103.998 935.878 103.416C935.419 102.834 935.143 102.161 935.052 101.396H938.013C938.105 101.84 938.35 102.222 938.748 102.544C939.161 102.85 939.689 103.003 940.332 103.003C940.974 103.003 941.441 102.873 941.732 102.613C942.038 102.352 942.191 102.054 942.191 101.717C942.191 101.228 941.977 100.898 941.548 100.73C941.12 100.546 940.523 100.37 939.758 100.202C939.268 100.095 938.77 99.9649 938.265 99.8119C937.76 99.6588 937.294 99.4675 936.865 99.238C936.452 98.9931 936.115 98.687 935.855 98.3197C935.595 97.9371 935.465 97.4703 935.465 96.9194C935.465 95.9093 935.863 95.0599 936.658 94.3712C937.47 93.6825 938.602 93.3382 940.056 93.3382C941.403 93.3382 942.474 93.6519 943.27 94.2794C944.081 94.9068 944.563 95.7715 944.716 96.8734H941.938C941.77 96.0317 941.135 95.6108 940.033 95.6108C939.482 95.6108 939.054 95.718 938.748 95.9322C938.457 96.1465 938.311 96.4143 938.311 96.7357C938.311 97.0724 938.533 97.3402 938.977 97.5392C939.421 97.7381 940.01 97.9218 940.745 98.0901C941.541 98.2738 942.267 98.4804 942.926 98.71C943.599 98.9242 944.135 99.2533 944.533 99.6971C944.93 100.126 945.129 100.745 945.129 101.557C945.145 102.261 944.961 102.896 944.578 103.462C944.196 104.028 943.645 104.472 942.926 104.793C942.206 105.115 941.357 105.275 940.377 105.275ZM953.311 105.275C952.148 105.275 951.122 105.023 950.235 104.518C949.347 104.013 948.643 103.309 948.123 102.406C947.618 101.503 947.365 100.47 947.365 99.3068C947.365 98.1437 947.618 97.1107 948.123 96.2077C948.643 95.3048 949.347 94.6008 950.235 94.0957C951.122 93.5907 952.148 93.3382 953.311 93.3382C954.765 93.3382 955.989 93.7208 956.984 94.486C957.979 95.2359 958.614 96.2766 958.889 97.608H955.79C955.637 97.0571 955.331 96.6286 954.872 96.3225C954.428 96.0011 953.9 95.8404 953.288 95.8404C952.477 95.8404 951.788 96.1465 951.222 96.7587C950.656 97.3708 950.372 98.2202 950.372 99.3068C950.372 100.393 950.656 101.243 951.222 101.855C951.788 102.467 952.477 102.773 953.288 102.773C953.9 102.773 954.428 102.62 954.872 102.314C955.331 102.008 955.637 101.572 955.79 101.006H958.889C958.614 102.291 957.979 103.324 956.984 104.105C955.989 104.885 954.765 105.275 953.311 105.275ZM966.961 105.275C965.859 105.275 964.864 105.023 963.977 104.518C963.104 104.013 962.408 103.317 961.888 102.429C961.382 101.526 961.13 100.485 961.13 99.3068C961.13 98.1284 961.39 97.0954 961.91 96.2077C962.431 95.3048 963.127 94.6008 964 94.0957C964.887 93.5907 965.882 93.3382 966.984 93.3382C968.07 93.3382 969.05 93.5907 969.922 94.0957C970.81 94.6008 971.506 95.3048 972.011 96.2077C972.532 97.0954 972.792 98.1284 972.792 99.3068C972.792 100.485 972.532 101.526 972.011 102.429C971.506 103.317 970.81 104.013 969.922 104.518C969.035 105.023 968.047 105.275 966.961 105.275ZM966.961 102.727C967.726 102.727 968.392 102.444 968.958 101.878C969.524 101.296 969.807 100.439 969.807 99.3068C969.807 98.1743 969.524 97.3249 968.958 96.7587C968.392 96.1771 967.734 95.8863 966.984 95.8863C966.203 95.8863 965.53 96.1771 964.964 96.7587C964.413 97.3249 964.137 98.1743 964.137 99.3068C964.137 100.439 964.413 101.296 964.964 101.878C965.53 102.444 966.196 102.727 966.961 102.727ZM975.419 105V93.6136H978.036L978.312 95.7486C978.725 95.014 979.283 94.4324 979.987 94.0039C980.707 93.5601 981.548 93.3382 982.513 93.3382V96.4373H981.686C981.043 96.4373 980.469 96.5368 979.964 96.7357C979.459 96.9347 979.061 97.279 978.771 97.7687C978.495 98.2585 978.357 98.9395 978.357 99.8119V105H975.419ZM989.852 105.275C988.704 105.275 987.686 105.031 986.798 104.541C985.911 104.051 985.214 103.362 984.709 102.475C984.204 101.587 983.952 100.562 983.952 99.3986C983.952 98.2202 984.197 97.1719 984.686 96.2536C985.191 95.3354 985.88 94.6237 986.753 94.1187C987.64 93.5983 988.681 93.3382 989.875 93.3382C990.992 93.3382 991.979 93.583 992.836 94.0728C993.693 94.5625 994.359 95.2359 994.833 96.0929C995.323 96.9347 995.568 97.8759 995.568 98.9166C995.568 99.0849 995.56 99.2609 995.545 99.4446C995.545 99.6282 995.537 99.8195 995.522 100.018H986.867C986.929 100.906 987.235 101.602 987.786 102.107C988.352 102.613 989.033 102.865 989.829 102.865C990.426 102.865 990.923 102.735 991.321 102.475C991.734 102.199 992.04 101.847 992.239 101.419H995.223C995.009 102.138 994.649 102.796 994.144 103.393C993.655 103.975 993.043 104.434 992.308 104.77C991.589 105.107 990.77 105.275 989.852 105.275ZM989.875 95.7256C989.155 95.7256 988.52 95.9322 987.969 96.3454C987.418 96.7434 987.066 97.3555 986.913 98.182H992.583C992.538 97.4321 992.262 96.8352 991.757 96.3914C991.252 95.9475 990.624 95.7256 989.875 95.7256ZM1003.27 105.275C1002.2 105.275 1001.25 105.015 1000.4 104.495C999.562 103.975 998.896 103.263 998.406 102.36C997.917 101.457 997.672 100.432 997.672 99.2839C997.672 98.136 997.917 97.1183 998.406 96.2307C998.896 95.3277 999.562 94.6237 1000.4 94.1187C1001.25 93.5983 1002.2 93.3382 1003.27 93.3382C1004.13 93.3382 1004.88 93.4989 1005.52 93.8202C1006.17 94.1416 1006.69 94.5931 1007.08 95.1747V88.4714H1010.02V105H1007.41L1007.08 103.37C1006.72 103.875 1006.23 104.319 1005.61 104.702C1005.02 105.084 1004.24 105.275 1003.27 105.275ZM1003.89 102.704C1004.84 102.704 1005.61 102.391 1006.21 101.763C1006.82 101.12 1007.13 100.302 1007.13 99.3068C1007.13 98.312 1006.82 97.5009 1006.21 96.8734C1005.61 96.2307 1004.84 95.9093 1003.89 95.9093C1002.96 95.9093 1002.19 96.223 1001.57 96.8505C1000.96 97.478 1000.66 98.2891 1000.66 99.2839C1000.66 100.279 1000.96 101.097 1001.57 101.74C1002.19 102.383 1002.96 102.704 1003.89 102.704ZM1023.72 105.275C1022.65 105.275 1021.69 105.015 1020.85 104.495C1020.01 103.975 1019.34 103.263 1018.85 102.36C1018.36 101.457 1018.12 100.432 1018.12 99.2839C1018.12 98.136 1018.36 97.1183 1018.85 96.2307C1019.34 95.3277 1020.01 94.6237 1020.85 94.1187C1021.69 93.5983 1022.65 93.3382 1023.72 93.3382C1024.58 93.3382 1025.33 93.4989 1025.97 93.8202C1026.61 94.1416 1027.13 94.5931 1027.53 95.1747V88.4714H1030.47V105H1027.85L1027.53 103.37C1027.16 103.875 1026.67 104.319 1026.06 104.702C1025.46 105.084 1024.68 105.275 1023.72 105.275ZM1024.34 102.704C1025.29 102.704 1026.06 102.391 1026.66 101.763C1027.27 101.12 1027.58 100.302 1027.58 99.3068C1027.58 98.312 1027.27 97.5009 1026.66 96.8734C1026.06 96.2307 1025.29 95.9093 1024.34 95.9093C1023.4 95.9093 1022.63 96.223 1022.02 96.8505C1021.41 97.478 1021.1 98.2891 1021.1 99.2839C1021.1 100.279 1021.41 101.097 1022.02 101.74C1022.63 102.383 1023.4 102.704 1024.34 102.704ZM1037.39 105.275C1036.41 105.275 1035.6 105.122 1034.98 104.816C1034.35 104.495 1033.88 104.074 1033.57 103.554C1033.27 103.033 1033.12 102.459 1033.12 101.832C1033.12 100.776 1033.53 99.919 1034.36 99.2609C1035.18 98.6028 1036.42 98.2738 1038.07 98.2738H1040.97V97.9983C1040.97 97.2178 1040.74 96.6439 1040.3 96.2766C1039.86 95.9093 1039.31 95.7256 1038.65 95.7256C1038.05 95.7256 1037.53 95.871 1037.09 96.1618C1036.64 96.4373 1036.37 96.8505 1036.26 97.4014H1033.39C1033.47 96.575 1033.74 95.8557 1034.22 95.2435C1034.71 94.6314 1035.33 94.1646 1036.1 93.8432C1036.87 93.5065 1037.72 93.3382 1038.67 93.3382C1040.29 93.3382 1041.57 93.7437 1042.5 94.5549C1043.44 95.366 1043.91 96.5138 1043.91 97.9983V105H1041.4L1041.13 103.163C1040.79 103.776 1040.32 104.281 1039.7 104.679C1039.11 105.077 1038.33 105.275 1037.39 105.275ZM1038.05 102.98C1038.89 102.98 1039.54 102.704 1040 102.153C1040.48 101.602 1040.78 100.921 1040.9 100.11H1038.4C1037.62 100.11 1037.06 100.256 1036.72 100.546C1036.38 100.822 1036.21 101.166 1036.21 101.58C1036.21 102.023 1036.38 102.368 1036.72 102.613C1037.06 102.857 1037.5 102.98 1038.05 102.98ZM1051.63 105C1050.43 105 1049.48 104.709 1048.76 104.128C1048.04 103.546 1047.68 102.513 1047.68 101.029V96.07H1045.73V93.6136H1047.68L1048.02 90.5604H1050.62V93.6136H1053.69V96.07H1050.62V101.052C1050.62 101.602 1050.73 101.985 1050.96 102.199C1051.2 102.398 1051.62 102.498 1052.2 102.498H1053.62V105H1051.63ZM1060.14 105.275C1059.16 105.275 1058.36 105.122 1057.73 104.816C1057.1 104.495 1056.64 104.074 1056.33 103.554C1056.02 103.033 1055.87 102.459 1055.87 101.832C1055.87 100.776 1056.28 99.919 1057.11 99.2609C1057.94 98.6028 1059.18 98.2738 1060.83 98.2738H1063.72V97.9983C1063.72 97.2178 1063.5 96.6439 1063.06 96.2766C1062.61 95.9093 1062.06 95.7256 1061.4 95.7256C1060.81 95.7256 1060.29 95.871 1059.84 96.1618C1059.4 96.4373 1059.12 96.8505 1059.02 97.4014H1056.15C1056.22 96.575 1056.5 95.8557 1056.97 95.2435C1057.46 94.6314 1058.09 94.1646 1058.85 93.8432C1059.62 93.5065 1060.48 93.3382 1061.43 93.3382C1063.05 93.3382 1064.33 93.7437 1065.26 94.5549C1066.19 95.366 1066.66 96.5138 1066.66 97.9983V105H1064.16L1063.88 103.163C1063.55 103.776 1063.07 104.281 1062.46 104.679C1061.86 105.077 1061.09 105.275 1060.14 105.275ZM1060.81 102.98C1061.65 102.98 1062.3 102.704 1062.76 102.153C1063.23 101.602 1063.53 100.921 1063.65 100.11H1061.15C1060.37 100.11 1059.81 100.256 1059.47 100.546C1059.14 100.822 1058.97 101.166 1058.97 101.58C1058.97 102.023 1059.14 102.368 1059.47 102.613C1059.81 102.857 1060.26 102.98 1060.81 102.98Z" fill="black"/>
<rect x="905.677" y="9.67663" width="200.078" height="137.483" stroke="#1E1E1E" stroke-width="3.35326"/>
<path d="M395.561 75V58.9305H399.05L404.17 69.1232L409.22 58.9305H412.709V75H409.771V63.9121L405.295 72.7044H402.976L398.499 63.9121V75H395.561ZM419.684 75.2755C418.704 75.2755 417.901 75.1224 417.273 74.8163C416.646 74.495 416.179 74.0741 415.873 73.5537C415.567 73.0334 415.414 72.4595 415.414 71.832C415.414 70.776 415.827 69.919 416.654 69.2609C417.48 68.6028 418.72 68.2738 420.373 68.2738H423.265V67.9983C423.265 67.2178 423.043 66.6439 422.599 66.2766C422.156 65.9093 421.605 65.7256 420.946 65.7256C420.35 65.7256 419.829 65.871 419.385 66.1618C418.942 66.4373 418.666 66.8505 418.559 67.4014H415.689C415.766 66.575 416.041 65.8557 416.516 65.2435C417.006 64.6314 417.633 64.1646 418.398 63.8432C419.164 63.5065 420.021 63.3382 420.969 63.3382C422.592 63.3382 423.87 63.7437 424.803 64.5549C425.737 65.366 426.203 66.5138 426.203 67.9983V75H423.701L423.426 73.1635C423.089 73.7757 422.615 74.2807 422.002 74.6786C421.406 75.0765 420.633 75.2755 419.684 75.2755ZM420.35 72.9798C421.191 72.9798 421.842 72.7044 422.301 72.1534C422.775 71.6025 423.074 70.9214 423.196 70.1103H420.694C419.913 70.1103 419.355 70.2557 419.018 70.5465C418.681 70.8219 418.513 71.1663 418.513 71.5795C418.513 72.0233 418.681 72.3677 419.018 72.6125C419.355 72.8574 419.799 72.9798 420.35 72.9798ZM429.008 75V63.6136H431.602L431.831 65.542C432.183 64.8686 432.688 64.3329 433.346 63.935C434.02 63.5371 434.808 63.3382 435.711 63.3382C437.119 63.3382 438.213 63.782 438.994 64.6696C439.774 65.5573 440.164 66.8581 440.164 68.5722V75H437.226V68.8477C437.226 67.8682 437.027 67.1183 436.629 66.598C436.231 66.0776 435.611 65.8175 434.77 65.8175C433.943 65.8175 433.262 66.1082 432.726 66.6898C432.206 67.2714 431.946 68.0825 431.946 69.1232V75H429.008ZM447.244 75.2755C445.821 75.2755 444.719 74.8317 443.938 73.944C443.173 73.0564 442.791 71.7555 442.791 70.0414V63.6136H445.706V69.7659C445.706 70.7454 445.905 71.4953 446.303 72.0157C446.701 72.536 447.328 72.7962 448.185 72.7962C448.996 72.7962 449.662 72.5054 450.182 71.9238C450.718 71.3423 450.986 70.5312 450.986 69.4905V63.6136H453.924V75H451.33L451.101 73.0717C450.749 73.7451 450.236 74.2807 449.563 74.6786C448.905 75.0765 448.132 75.2755 447.244 75.2755ZM460.866 75.2755C459.887 75.2755 459.083 75.1224 458.456 74.8163C457.828 74.495 457.362 74.0741 457.056 73.5537C456.749 73.0334 456.596 72.4595 456.596 71.832C456.596 70.776 457.01 69.919 457.836 69.2609C458.663 68.6028 459.902 68.2738 461.555 68.2738H464.448V67.9983C464.448 67.2178 464.226 66.6439 463.782 66.2766C463.338 65.9093 462.787 65.7256 462.129 65.7256C461.532 65.7256 461.012 65.871 460.568 66.1618C460.124 66.4373 459.849 66.8505 459.741 67.4014H456.872C456.948 66.575 457.224 65.8557 457.698 65.2435C458.188 64.6314 458.816 64.1646 459.581 63.8432C460.346 63.5065 461.203 63.3382 462.152 63.3382C463.774 63.3382 465.052 63.7437 465.986 64.5549C466.919 65.366 467.386 66.5138 467.386 67.9983V75H464.884L464.608 73.1635C464.272 73.7757 463.797 74.2807 463.185 74.6786C462.588 75.0765 461.815 75.2755 460.866 75.2755ZM461.532 72.9798C462.374 72.9798 463.024 72.7044 463.483 72.1534C463.958 71.6025 464.256 70.9214 464.379 70.1103H461.876C461.096 70.1103 460.537 70.2557 460.201 70.5465C459.864 70.8219 459.696 71.1663 459.696 71.5795C459.696 72.0233 459.864 72.3677 460.201 72.6125C460.537 72.8574 460.981 72.9798 461.532 72.9798ZM470.19 75V58.4714H473.128V75H470.19ZM481.67 75V58.9305H485.159L490.278 69.1232L495.329 58.9305H498.818V75H495.88V63.9121L491.403 72.7044H489.085L484.608 63.9121V75H481.67ZM507.331 75.2755C506.229 75.2755 505.234 75.023 504.346 74.5179C503.474 74.0129 502.778 73.3165 502.257 72.4289C501.752 71.5259 501.5 70.4852 501.5 69.3068C501.5 68.1284 501.76 67.0954 502.28 66.2077C502.801 65.3048 503.497 64.6008 504.369 64.0957C505.257 63.5907 506.252 63.3382 507.354 63.3382C508.44 63.3382 509.42 63.5907 510.292 64.0957C511.18 64.6008 511.876 65.3048 512.381 66.2077C512.901 67.0954 513.162 68.1284 513.162 69.3068C513.162 70.4852 512.901 71.5259 512.381 72.4289C511.876 73.3165 511.18 74.0129 510.292 74.5179C509.404 75.023 508.417 75.2755 507.331 75.2755ZM507.331 72.7273C508.096 72.7273 508.762 72.4442 509.328 71.8779C509.894 71.2964 510.177 70.4393 510.177 69.3068C510.177 68.1743 509.894 67.3249 509.328 66.7587C508.762 66.1771 508.104 65.8863 507.354 65.8863C506.573 65.8863 505.9 66.1771 505.334 66.7587C504.783 67.3249 504.507 68.1743 504.507 69.3068C504.507 70.4393 504.783 71.2964 505.334 71.8779C505.9 72.4442 506.566 72.7273 507.331 72.7273ZM515.789 75V63.6136H518.383L518.613 65.542C518.965 64.8686 519.47 64.3329 520.128 63.935C520.801 63.5371 521.589 63.3382 522.492 63.3382C523.9 63.3382 524.994 63.782 525.775 64.6696C526.555 65.5573 526.946 66.8581 526.946 68.5722V75H524.007V68.8477C524.007 67.8682 523.808 67.1183 523.41 66.598C523.013 66.0776 522.393 65.8175 521.551 65.8175C520.725 65.8175 520.043 66.1082 519.508 66.6898C518.987 67.2714 518.727 68.0825 518.727 69.1232V75H515.789ZM534.829 75C533.635 75 532.679 74.7092 531.959 74.1277C531.24 73.5461 530.88 72.5131 530.88 71.0285V66.07H528.929V63.6136H530.88L531.225 60.5604H533.819V63.6136H536.895V66.07H533.819V71.0515C533.819 71.6025 533.934 71.9851 534.163 72.1993C534.408 72.3983 534.821 72.4978 535.403 72.4978H536.826V75H534.829ZM543.343 75.2755C542.364 75.2755 541.56 75.1224 540.933 74.8163C540.305 74.495 539.839 74.0741 539.533 73.5537C539.227 73.0334 539.073 72.4595 539.073 71.832C539.073 70.776 539.487 69.919 540.313 69.2609C541.14 68.6028 542.379 68.2738 544.032 68.2738H546.925V67.9983C546.925 67.2178 546.703 66.6439 546.259 66.2766C545.815 65.9093 545.264 65.7256 544.606 65.7256C544.009 65.7256 543.489 65.871 543.045 66.1618C542.601 66.4373 542.326 66.8505 542.219 67.4014H539.349C539.425 66.575 539.701 65.8557 540.175 65.2435C540.665 64.6314 541.293 64.1646 542.058 63.8432C542.823 63.5065 543.68 63.3382 544.629 63.3382C546.251 63.3382 547.529 63.7437 548.463 64.5549C549.396 65.366 549.863 66.5138 549.863 67.9983V75H547.361L547.085 73.1635C546.749 73.7757 546.274 74.2807 545.662 74.6786C545.065 75.0765 544.292 75.2755 543.343 75.2755ZM544.009 72.9798C544.851 72.9798 545.501 72.7044 545.96 72.1534C546.435 71.6025 546.733 70.9214 546.856 70.1103H544.353C543.573 70.1103 543.014 70.2557 542.678 70.5465C542.341 70.8219 542.173 71.1663 542.173 71.5795C542.173 72.0233 542.341 72.3677 542.678 72.6125C543.014 72.8574 543.458 72.9798 544.009 72.9798ZM557.488 71.6025C556.937 71.6025 556.424 71.5412 555.95 71.4188L555.1 72.2682C555.361 72.4059 555.713 72.5207 556.156 72.6125C556.6 72.7044 557.32 72.7962 558.314 72.888C559.829 73.0258 560.931 73.3854 561.62 73.967C562.309 74.5485 562.653 75.352 562.653 76.3774C562.653 77.0508 562.469 77.6859 562.102 78.2828C561.735 78.8949 561.169 79.3847 560.403 79.752C559.638 80.1346 558.659 80.3259 557.465 80.3259C555.843 80.3259 554.534 80.0198 553.539 79.4076C552.545 78.8108 552.047 77.9078 552.047 76.6988C552.047 75.6734 552.545 74.7857 553.539 74.0358C553.233 73.8981 552.965 73.7527 552.736 73.5997C552.522 73.4466 552.33 73.2859 552.162 73.1176V72.5896L554.159 70.4776C553.272 69.6971 552.828 68.6947 552.828 67.4703C552.828 66.7051 553.011 66.0088 553.379 65.3813C553.761 64.7538 554.297 64.2564 554.986 63.8891C555.674 63.5218 556.508 63.3382 557.488 63.3382C558.131 63.3382 558.728 63.43 559.278 63.6136H563.594V65.4042L561.643 65.542C561.949 66.1235 562.102 66.7663 562.102 67.4703C562.102 68.2355 561.918 68.9319 561.551 69.5593C561.184 70.1868 560.648 70.6842 559.944 71.0515C559.256 71.4188 558.437 71.6025 557.488 71.6025ZM557.488 69.3527C558.085 69.3527 558.574 69.192 558.957 68.8706C559.355 68.5493 559.554 68.0901 559.554 67.4933C559.554 66.8964 559.355 66.4373 558.957 66.1159C558.574 65.7945 558.085 65.6338 557.488 65.6338C556.86 65.6338 556.355 65.7945 555.973 66.1159C555.59 66.4373 555.399 66.8964 555.399 67.4933C555.399 68.0901 555.59 68.5493 555.973 68.8706C556.355 69.192 556.86 69.3527 557.488 69.3527ZM554.733 76.4003C554.733 76.9666 554.993 77.3875 555.514 77.6629C556.049 77.9537 556.7 78.0991 557.465 78.0991C558.2 78.0991 558.796 77.9461 559.256 77.64C559.715 77.3492 559.944 76.9513 559.944 76.4463C559.944 76.033 559.791 75.6887 559.485 75.4132C559.194 75.1377 558.605 74.9694 557.717 74.9082C557.09 74.8623 556.508 74.7934 555.973 74.7016C555.529 74.9464 555.208 75.2143 555.009 75.505C554.825 75.7958 554.733 76.0943 554.733 76.4003ZM570.821 75.2755C569.673 75.2755 568.656 75.0306 567.768 74.5409C566.88 74.0511 566.184 73.3624 565.679 72.4748C565.174 71.5872 564.921 70.5618 564.921 69.3986C564.921 68.2202 565.166 67.1719 565.656 66.2536C566.161 65.3354 566.85 64.6237 567.722 64.1187C568.61 63.5983 569.65 63.3382 570.844 63.3382C571.961 63.3382 572.948 63.583 573.805 64.0728C574.662 64.5625 575.328 65.2359 575.803 66.0929C576.292 66.9347 576.537 67.8759 576.537 68.9166C576.537 69.0849 576.53 69.2609 576.514 69.4446C576.514 69.6282 576.507 69.8195 576.491 70.0185H567.837C567.898 70.9061 568.204 71.6025 568.755 72.1075C569.321 72.6125 570.002 72.8651 570.798 72.8651C571.395 72.8651 571.892 72.735 572.29 72.4748C572.703 72.1993 573.01 71.8473 573.209 71.4188H576.193C575.979 72.1381 575.619 72.7962 575.114 73.3931C574.624 73.9746 574.012 74.4337 573.277 74.7704C572.558 75.1071 571.739 75.2755 570.821 75.2755ZM570.844 65.7256C570.125 65.7256 569.49 65.9322 568.939 66.3454C568.388 66.7434 568.036 67.3555 567.883 68.182H573.553C573.507 67.4321 573.231 66.8352 572.726 66.3914C572.221 65.9475 571.594 65.7256 570.844 65.7256ZM591.825 75.2755C590.202 75.2755 588.81 74.9311 587.647 74.2424C586.484 73.5384 585.588 72.5666 584.961 71.327C584.333 70.072 584.02 68.6258 584.02 66.9882C584.02 65.3507 584.333 63.9044 584.961 62.6495C585.588 61.3945 586.484 60.4151 587.647 59.7111C588.81 59.0071 590.202 58.6551 591.825 58.6551C593.753 58.6551 595.329 59.1371 596.554 60.1013C597.793 61.0502 598.566 62.3893 598.872 64.1187H595.635C595.436 63.2463 595.008 62.5653 594.35 62.0756C593.707 61.5705 592.85 61.318 591.779 61.318C590.294 61.318 589.131 61.823 588.289 62.8331C587.448 63.8432 587.027 65.2282 587.027 66.9882C587.027 68.7482 587.448 70.1332 588.289 71.1433C589.131 72.1381 590.294 72.6355 591.779 72.6355C592.85 72.6355 593.707 72.4059 594.35 71.9468C595.008 71.4724 595.436 70.8219 595.635 69.9955H598.872C598.566 71.6484 597.793 72.9416 596.554 73.8751C595.329 74.8087 593.753 75.2755 591.825 75.2755ZM606.868 75.2755C605.766 75.2755 604.771 75.023 603.884 74.5179C603.011 74.0129 602.315 73.3165 601.795 72.4289C601.29 71.5259 601.037 70.4852 601.037 69.3068C601.037 68.1284 601.297 67.0954 601.818 66.2077C602.338 65.3048 603.034 64.6008 603.907 64.0957C604.794 63.5907 605.789 63.3382 606.891 63.3382C607.978 63.3382 608.957 63.5907 609.829 64.0957C610.717 64.6008 611.413 65.3048 611.919 66.2077C612.439 67.0954 612.699 68.1284 612.699 69.3068C612.699 70.4852 612.439 71.5259 611.919 72.4289C611.413 73.3165 610.717 74.0129 609.829 74.5179C608.942 75.023 607.955 75.2755 606.868 75.2755ZM606.868 72.7273C607.633 72.7273 608.299 72.4442 608.865 71.8779C609.432 71.2964 609.715 70.4393 609.715 69.3068C609.715 68.1743 609.432 67.3249 608.865 66.7587C608.299 66.1771 607.641 65.8863 606.891 65.8863C606.111 65.8863 605.437 66.1771 604.871 66.7587C604.32 67.3249 604.044 68.1743 604.044 69.3068C604.044 70.4393 604.32 71.2964 604.871 71.8779C605.437 72.4442 606.103 72.7273 606.868 72.7273ZM615.326 75V63.6136H617.92L618.15 65.542C618.502 64.8686 619.007 64.3329 619.665 63.935C620.338 63.5371 621.127 63.3382 622.03 63.3382C623.438 63.3382 624.532 63.782 625.312 64.6696C626.093 65.5573 626.483 66.8581 626.483 68.5722V75H623.545V68.8477C623.545 67.8682 623.346 67.1183 622.948 66.598C622.55 66.0776 621.93 65.8175 621.088 65.8175C620.262 65.8175 619.581 66.1082 619.045 66.6898C618.525 67.2714 618.265 68.0825 618.265 69.1232V75H615.326ZM629.821 75V66.07H628.26V63.6136H629.821V62.2822C629.821 60.9048 630.165 59.9253 630.854 59.3438C631.558 58.7622 632.507 58.4714 633.701 58.4714H634.963V60.9737H634.16C633.655 60.9737 633.295 61.0731 633.081 61.2721C632.866 61.471 632.759 61.8077 632.759 62.2822V63.6136H640.105V75H637.167V66.07H632.759V75H629.821ZM638.659 61.9837C638.123 61.9837 637.68 61.823 637.328 61.5017C636.991 61.1803 636.823 60.7747 636.823 60.285C636.823 59.7952 636.991 59.3973 637.328 59.0912C637.68 58.7698 638.123 58.6092 638.659 58.6092C639.195 58.6092 639.631 58.7698 639.968 59.0912C640.32 59.3973 640.496 59.7952 640.496 60.285C640.496 60.7747 640.32 61.1803 639.968 61.5017C639.631 61.823 639.195 61.9837 638.659 61.9837ZM648.036 71.6025C647.485 71.6025 646.972 71.5412 646.497 71.4188L645.648 72.2682C645.908 72.4059 646.26 72.5207 646.704 72.6125C647.148 72.7044 647.867 72.7962 648.862 72.888C650.377 73.0258 651.479 73.3854 652.168 73.967C652.856 74.5485 653.201 75.352 653.201 76.3774C653.201 77.0508 653.017 77.6859 652.65 78.2828C652.282 78.8949 651.716 79.3847 650.951 79.752C650.186 80.1346 649.206 80.3259 648.013 80.3259C646.39 80.3259 645.082 80.0198 644.087 79.4076C643.092 78.8108 642.595 77.9078 642.595 76.6988C642.595 75.6734 643.092 74.7857 644.087 74.0358C643.781 73.8981 643.513 73.7527 643.284 73.5997C643.069 73.4466 642.878 73.2859 642.71 73.1176V72.5896L644.707 70.4776C643.819 69.6971 643.375 68.6947 643.375 67.4703C643.375 66.7051 643.559 66.0088 643.926 65.3813C644.309 64.7538 644.845 64.2564 645.533 63.8891C646.222 63.5218 647.056 63.3382 648.036 63.3382C648.678 63.3382 649.275 63.43 649.826 63.6136H654.142V65.4042L652.191 65.542C652.497 66.1235 652.65 66.7663 652.65 67.4703C652.65 68.2355 652.466 68.9319 652.099 69.5593C651.731 70.1868 651.196 70.6842 650.492 71.0515C649.803 71.4188 648.984 71.6025 648.036 71.6025ZM648.036 69.3527C648.632 69.3527 649.122 69.192 649.505 68.8706C649.903 68.5493 650.102 68.0901 650.102 67.4933C650.102 66.8964 649.903 66.4373 649.505 66.1159C649.122 65.7945 648.632 65.6338 648.036 65.6338C647.408 65.6338 646.903 65.7945 646.52 66.1159C646.138 66.4373 645.946 66.8964 645.946 67.4933C645.946 68.0901 646.138 68.5493 646.52 68.8706C646.903 69.192 647.408 69.3527 648.036 69.3527ZM645.281 76.4003C645.281 76.9666 645.541 77.3875 646.061 77.6629C646.597 77.9537 647.247 78.0991 648.013 78.0991C648.747 78.0991 649.344 77.9461 649.803 77.64C650.262 77.3492 650.492 76.9513 650.492 76.4463C650.492 76.033 650.339 75.6887 650.033 75.4132C649.742 75.1377 649.153 74.9694 648.265 74.9082C647.638 74.8623 647.056 74.7934 646.52 74.7016C646.077 74.9464 645.755 75.2143 645.556 75.505C645.373 75.7958 645.281 76.0943 645.281 76.4003ZM660.554 75.2755C659.131 75.2755 658.029 74.8317 657.249 73.944C656.484 73.0564 656.101 71.7555 656.101 70.0414V63.6136H659.016V69.7659C659.016 70.7454 659.215 71.4953 659.613 72.0157C660.011 72.536 660.639 72.7962 661.496 72.7962C662.307 72.7962 662.973 72.5054 663.493 71.9238C664.029 71.3423 664.296 70.5312 664.296 69.4905V63.6136H667.235V75H664.641L664.411 73.0717C664.059 73.7451 663.546 74.2807 662.873 74.6786C662.215 75.0765 661.442 75.2755 660.554 75.2755ZM670.251 75V63.6136H672.868L673.144 65.7486C673.557 65.014 674.116 64.4324 674.82 64.0039C675.539 63.5601 676.381 63.3382 677.345 63.3382V66.4373H676.518C675.876 66.4373 675.302 66.5368 674.797 66.7357C674.292 66.9347 673.894 67.279 673.603 67.7687C673.327 68.2585 673.19 68.9395 673.19 69.8119V75H670.251ZM683.279 75.2755C682.299 75.2755 681.496 75.1224 680.868 74.8163C680.241 74.495 679.774 74.0741 679.468 73.5537C679.162 73.0334 679.009 72.4595 679.009 71.832C679.009 70.776 679.422 69.919 680.248 69.2609C681.075 68.6028 682.314 68.2738 683.967 68.2738H686.86V67.9983C686.86 67.2178 686.638 66.6439 686.194 66.2766C685.75 65.9093 685.199 65.7256 684.541 65.7256C683.944 65.7256 683.424 65.871 682.98 66.1618C682.536 66.4373 682.261 66.8505 682.154 67.4014H679.284C679.361 66.575 679.636 65.8557 680.111 65.2435C680.6 64.6314 681.228 64.1646 681.993 63.8432C682.758 63.5065 683.615 63.3382 684.564 63.3382C686.186 63.3382 687.464 63.7437 688.398 64.5549C689.331 65.366 689.798 66.5138 689.798 67.9983V75H687.296L687.02 73.1635C686.684 73.7757 686.209 74.2807 685.597 74.6786C685 75.0765 684.227 75.2755 683.279 75.2755ZM683.944 72.9798C684.786 72.9798 685.436 72.7044 685.896 72.1534C686.37 71.6025 686.668 70.9214 686.791 70.1103H684.289C683.508 70.1103 682.95 70.2557 682.613 70.5465C682.276 70.8219 682.108 71.1663 682.108 71.5795C682.108 72.0233 682.276 72.3677 682.613 72.6125C682.95 72.8574 683.393 72.9798 683.944 72.9798ZM697.519 75C696.325 75 695.368 74.7092 694.649 74.1277C693.93 73.5461 693.57 72.5131 693.57 71.0285V66.07H691.619V63.6136H693.57L693.915 60.5604H696.509V63.6136H699.585V66.07H696.509V71.0515C696.509 71.6025 696.623 71.9851 696.853 72.1993C697.098 72.3983 697.511 72.4978 698.093 72.4978H699.516V75H697.519ZM703.692 61.846C703.156 61.846 702.712 61.6853 702.36 61.3639C702.023 61.0425 701.855 60.637 701.855 60.1472C701.855 59.6575 702.023 59.2596 702.36 58.9535C702.712 58.6321 703.156 58.4714 703.692 58.4714C704.227 58.4714 704.663 58.6321 705 58.9535C705.352 59.2596 705.528 59.6575 705.528 60.1472C705.528 60.637 705.352 61.0425 705 61.3639C704.663 61.6853 704.227 61.846 703.692 61.846ZM702.222 75V63.6136H705.161V75H702.222ZM713.691 75.2755C712.59 75.2755 711.595 75.023 710.707 74.5179C709.835 74.0129 709.138 73.3165 708.618 72.4289C708.113 71.5259 707.861 70.4852 707.861 69.3068C707.861 68.1284 708.121 67.0954 708.641 66.2077C709.161 65.3048 709.858 64.6008 710.73 64.0957C711.618 63.5907 712.612 63.3382 713.714 63.3382C714.801 63.3382 715.78 63.5907 716.653 64.0957C717.54 64.6008 718.237 65.3048 718.742 66.2077C719.262 67.0954 719.522 68.1284 719.522 69.3068C719.522 70.4852 719.262 71.5259 718.742 72.4289C718.237 73.3165 717.54 74.0129 716.653 74.5179C715.765 75.023 714.778 75.2755 713.691 75.2755ZM713.691 72.7273C714.457 72.7273 715.122 72.4442 715.689 71.8779C716.255 71.2964 716.538 70.4393 716.538 69.3068C716.538 68.1743 716.255 67.3249 715.689 66.7587C715.122 66.1771 714.464 65.8863 713.714 65.8863C712.934 65.8863 712.26 66.1771 711.694 66.7587C711.143 67.3249 710.868 68.1743 710.868 69.3068C710.868 70.4393 711.143 71.2964 711.694 71.8779C712.26 72.4442 712.926 72.7273 713.691 72.7273ZM722.15 75V63.6136H724.744L724.973 65.542C725.325 64.8686 725.83 64.3329 726.488 63.935C727.162 63.5371 727.95 63.3382 728.853 63.3382C730.261 63.3382 731.355 63.782 732.136 64.6696C732.916 65.5573 733.306 66.8581 733.306 68.5722V75H730.368V68.8477C730.368 67.8682 730.169 67.1183 729.771 66.598C729.373 66.0776 728.753 65.8175 727.912 65.8175C727.085 65.8175 726.404 66.1082 725.869 66.6898C725.348 67.2714 725.088 68.0825 725.088 69.1232V75H722.15ZM396.02 105V96.07H394.459V93.6136H396.02V92.2822C396.02 90.9048 396.365 89.9253 397.053 89.3438C397.757 88.7622 398.706 88.4714 399.9 88.4714H401.162V90.9737H400.359C399.854 90.9737 399.494 91.0731 399.28 91.2721C399.066 91.471 398.959 91.8077 398.959 92.2822V93.6136H401.415V96.07H398.959V105H396.02ZM403.742 105V93.6136H406.359L406.635 95.7486C407.048 95.014 407.606 94.4324 408.31 94.0039C409.03 93.5601 409.871 93.3382 410.836 93.3382V96.4373H410.009C409.366 96.4373 408.793 96.5368 408.287 96.7357C407.782 96.9347 407.385 97.279 407.094 97.7687C406.818 98.2585 406.681 98.9395 406.681 99.8119V105H403.742ZM418.106 105.275C417.004 105.275 416.009 105.023 415.121 104.518C414.249 104.013 413.553 103.317 413.032 102.429C412.527 101.526 412.275 100.485 412.275 99.3068C412.275 98.1284 412.535 97.0954 413.055 96.2077C413.576 95.3048 414.272 94.6008 415.144 94.0957C416.032 93.5907 417.027 93.3382 418.129 93.3382C419.215 93.3382 420.195 93.5907 421.067 94.0957C421.955 94.6008 422.651 95.3048 423.156 96.2077C423.677 97.0954 423.937 98.1284 423.937 99.3068C423.937 100.485 423.677 101.526 423.156 102.429C422.651 103.317 421.955 104.013 421.067 104.518C420.18 105.023 419.192 105.275 418.106 105.275ZM418.106 102.727C418.871 102.727 419.537 102.444 420.103 101.878C420.669 101.296 420.952 100.439 420.952 99.3068C420.952 98.1743 420.669 97.3249 420.103 96.7587C419.537 96.1771 418.879 95.8863 418.129 95.8863C417.348 95.8863 416.675 96.1771 416.109 96.7587C415.558 97.3249 415.282 98.1743 415.282 99.3068C415.282 100.439 415.558 101.296 416.109 101.878C416.675 102.444 417.341 102.727 418.106 102.727ZM426.564 105V93.6136H429.158L429.411 95.1517C429.778 94.6008 430.26 94.1646 430.857 93.8432C431.469 93.5065 432.173 93.3382 432.969 93.3382C434.729 93.3382 435.976 94.0192 436.711 95.3813C437.124 94.7538 437.675 94.2564 438.364 93.8891C439.068 93.5218 439.833 93.3382 440.659 93.3382C442.144 93.3382 443.284 93.782 444.08 94.6696C444.875 95.5573 445.273 96.8581 445.273 98.5722V105H442.335V98.8477C442.335 97.8682 442.144 97.1183 441.761 96.598C441.394 96.0776 440.82 95.8175 440.039 95.8175C439.244 95.8175 438.601 96.1082 438.111 96.6898C437.637 97.2714 437.399 98.0825 437.399 99.1232V105H434.461V98.8477C434.461 97.8682 434.27 97.1183 433.887 96.598C433.504 96.0776 432.915 95.8175 432.119 95.8175C431.339 95.8175 430.704 96.1082 430.214 96.6898C429.74 97.2714 429.502 98.0825 429.502 99.1232V105H426.564ZM453.602 105V88.9305H456.54L464.093 100.248V88.9305H467.032V105H464.093L456.54 93.7055V105H453.602ZM475.61 105.275C474.463 105.275 473.445 105.031 472.557 104.541C471.67 104.051 470.973 103.362 470.468 102.475C469.963 101.587 469.711 100.562 469.711 99.3986C469.711 98.2202 469.956 97.1719 470.445 96.2536C470.95 95.3354 471.639 94.6237 472.511 94.1187C473.399 93.5983 474.44 93.3382 475.633 93.3382C476.751 93.3382 477.738 93.583 478.595 94.0728C479.452 94.5625 480.118 95.2359 480.592 96.0929C481.082 96.9347 481.327 97.8759 481.327 98.9166C481.327 99.0849 481.319 99.2609 481.304 99.4446C481.304 99.6282 481.296 99.8195 481.281 100.018H472.626C472.687 100.906 472.993 101.602 473.544 102.107C474.111 102.613 474.792 102.865 475.587 102.865C476.184 102.865 476.682 102.735 477.08 102.475C477.493 102.199 477.799 101.847 477.998 101.419H480.982C480.768 102.138 480.408 102.796 479.903 103.393C479.414 103.975 478.801 104.434 478.067 104.77C477.347 105.107 476.529 105.275 475.61 105.275ZM475.633 95.7256C474.914 95.7256 474.279 95.9322 473.728 96.3454C473.177 96.7434 472.825 97.3555 472.672 98.182H478.342C478.296 97.4321 478.021 96.8352 477.516 96.3914C477.011 95.9475 476.383 95.7256 475.633 95.7256ZM488.068 105.275C486.645 105.275 485.543 104.832 484.762 103.944C483.997 103.056 483.614 101.755 483.614 100.041V93.6136H486.53V99.7659C486.53 100.745 486.729 101.495 487.127 102.016C487.525 102.536 488.152 102.796 489.009 102.796C489.82 102.796 490.486 102.505 491.006 101.924C491.542 101.342 491.81 100.531 491.81 99.4905V93.6136H494.748V105H492.154L491.925 103.072C491.573 103.745 491.06 104.281 490.386 104.679C489.728 105.077 488.955 105.275 488.068 105.275ZM497.765 105V93.6136H500.382L500.657 95.7486C501.07 95.014 501.629 94.4324 502.333 94.0039C503.052 93.5601 503.894 93.3382 504.858 93.3382V96.4373H504.032C503.389 96.4373 502.815 96.5368 502.31 96.7357C501.805 96.9347 501.407 97.279 501.116 97.7687C500.841 98.2585 500.703 98.9395 500.703 99.8119V105H497.765ZM512.128 105.275C511.026 105.275 510.032 105.023 509.144 104.518C508.272 104.013 507.575 103.317 507.055 102.429C506.55 101.526 506.297 100.485 506.297 99.3068C506.297 98.1284 506.558 97.0954 507.078 96.2077C507.598 95.3048 508.295 94.6008 509.167 94.0957C510.055 93.5907 511.049 93.3382 512.151 93.3382C513.238 93.3382 514.217 93.5907 515.09 94.0957C515.977 94.6008 516.674 95.3048 517.179 96.2077C517.699 97.0954 517.959 98.1284 517.959 99.3068C517.959 100.485 517.699 101.526 517.179 102.429C516.674 103.317 515.977 104.013 515.09 104.518C514.202 105.023 513.215 105.275 512.128 105.275ZM512.128 102.727C512.893 102.727 513.559 102.444 514.125 101.878C514.692 101.296 514.975 100.439 514.975 99.3068C514.975 98.1743 514.692 97.3249 514.125 96.7587C513.559 96.1771 512.901 95.8863 512.151 95.8863C511.371 95.8863 510.697 96.1771 510.131 96.7587C509.58 97.3249 509.305 98.1743 509.305 99.3068C509.305 100.439 509.58 101.296 510.131 101.878C510.697 102.444 511.363 102.727 512.128 102.727ZM527.336 105.275C526.479 105.275 525.729 105.115 525.086 104.793C524.443 104.472 523.923 104.021 523.525 103.439L523.203 105H520.586V88.4714H523.525V95.2435C523.892 94.7385 524.374 94.2947 524.971 93.9121C525.583 93.5295 526.371 93.3382 527.336 93.3382C528.407 93.3382 529.363 93.5983 530.205 94.1187C531.047 94.639 531.713 95.3507 532.202 96.2536C532.692 97.1566 532.937 98.182 532.937 99.3298C532.937 100.478 532.692 101.503 532.202 102.406C531.713 103.294 531.047 103.998 530.205 104.518C529.363 105.023 528.407 105.275 527.336 105.275ZM526.716 102.704C527.649 102.704 528.422 102.391 529.034 101.763C529.647 101.136 529.953 100.325 529.953 99.3298C529.953 98.335 529.647 97.5162 529.034 96.8734C528.422 96.2307 527.649 95.9093 526.716 95.9093C525.767 95.9093 524.986 96.2307 524.374 96.8734C523.777 97.5009 523.479 98.312 523.479 99.3068C523.479 100.302 523.777 101.12 524.374 101.763C524.986 102.391 525.767 102.704 526.716 102.704ZM537.146 91.846C536.61 91.846 536.166 91.6853 535.814 91.3639C535.478 91.0425 535.309 90.637 535.309 90.1472C535.309 89.6575 535.478 89.2596 535.814 88.9535C536.166 88.6321 536.61 88.4714 537.146 88.4714C537.682 88.4714 538.118 88.6321 538.454 88.9535C538.806 89.2596 538.982 89.6575 538.982 90.1472C538.982 90.637 538.806 91.0425 538.454 91.3639C538.118 91.6853 537.682 91.846 537.146 91.846ZM535.677 105V93.6136H538.615V105H535.677ZM546.755 105C545.562 105 544.605 104.709 543.886 104.128C543.167 103.546 542.807 102.513 542.807 101.029V96.07H540.856V93.6136H542.807L543.151 90.5604H545.745V93.6136H548.822V96.07H545.745V101.052C545.745 101.602 545.86 101.985 546.09 102.199C546.335 102.398 546.748 102.498 547.329 102.498H548.753V105H546.755ZM562.37 105.275C561.191 105.275 560.151 105.077 559.248 104.679C558.345 104.265 557.633 103.684 557.113 102.934C556.593 102.169 556.325 101.243 556.309 100.156H559.409C559.439 100.906 559.707 101.541 560.212 102.062C560.732 102.567 561.444 102.819 562.347 102.819C563.127 102.819 563.747 102.635 564.206 102.268C564.666 101.886 564.895 101.381 564.895 100.753C564.895 100.095 564.688 99.5823 564.275 99.215C563.877 98.8477 563.342 98.5493 562.668 98.3197C561.995 98.0901 561.276 97.8453 560.51 97.5851C559.271 97.1566 558.322 96.6056 557.664 95.9322C557.021 95.2588 556.7 94.3635 556.7 93.2463C556.684 92.2975 556.906 91.4864 557.365 90.813C557.84 90.1243 558.483 89.5963 559.294 89.229C560.105 88.8464 561.038 88.6551 562.094 88.6551C563.166 88.6551 564.107 88.8464 564.918 89.229C565.744 89.6116 566.387 90.1472 566.846 90.8359C567.321 91.5246 567.573 92.3434 567.604 93.2923H564.459C564.444 92.726 564.222 92.2286 563.793 91.8001C563.38 91.3563 562.798 91.1344 562.048 91.1344C561.406 91.119 560.862 91.2797 560.419 91.6164C559.99 91.9378 559.776 92.4123 559.776 93.0397C559.776 93.5754 559.944 94.0039 560.281 94.3253C560.618 94.6314 561.077 94.8915 561.658 95.1058C562.24 95.3201 562.906 95.5496 563.655 95.7945C564.451 96.07 565.178 96.3914 565.836 96.7587C566.494 97.126 567.022 97.6157 567.42 98.2279C567.818 98.8247 568.017 99.5976 568.017 100.546C568.017 101.388 567.803 102.169 567.374 102.888C566.946 103.607 566.311 104.189 565.469 104.633C564.627 105.061 563.594 105.275 562.37 105.275ZM572.096 91.846C571.56 91.846 571.117 91.6853 570.765 91.3639C570.428 91.0425 570.26 90.637 570.26 90.1472C570.26 89.6575 570.428 89.2596 570.765 88.9535C571.117 88.6321 571.56 88.4714 572.096 88.4714C572.632 88.4714 573.068 88.6321 573.405 88.9535C573.757 89.2596 573.933 89.6575 573.933 90.1472C573.933 90.637 573.757 91.0425 573.405 91.3639C573.068 91.6853 572.632 91.846 572.096 91.846ZM570.627 105V93.6136H573.565V105H570.627ZM581.866 105.275C580.795 105.275 579.838 105.015 578.997 104.495C578.155 103.975 577.489 103.263 577 102.36C576.51 101.457 576.265 100.432 576.265 99.2839C576.265 98.136 576.51 97.1183 577 96.2307C577.489 95.3277 578.155 94.6237 578.997 94.1187C579.838 93.5983 580.795 93.3382 581.866 93.3382C582.723 93.3382 583.473 93.4989 584.116 93.8202C584.759 94.1416 585.279 94.5931 585.677 95.1747V88.4714H588.615V105H585.998L585.677 103.37C585.31 103.875 584.82 104.319 584.208 104.702C583.611 105.084 582.83 105.275 581.866 105.275ZM582.486 102.704C583.435 102.704 584.208 102.391 584.805 101.763C585.417 101.12 585.723 100.302 585.723 99.3068C585.723 98.312 585.417 97.5009 584.805 96.8734C584.208 96.2307 583.435 95.9093 582.486 95.9093C581.553 95.9093 580.78 96.223 580.168 96.8505C579.555 97.478 579.249 98.2891 579.249 99.2839C579.249 100.279 579.555 101.097 580.168 101.74C580.78 102.383 581.553 102.704 582.486 102.704ZM597.14 105.275C595.992 105.275 594.975 105.031 594.087 104.541C593.199 104.051 592.503 103.362 591.998 102.475C591.493 101.587 591.24 100.562 591.24 99.3986C591.24 98.2202 591.485 97.1719 591.975 96.2536C592.48 95.3354 593.169 94.6237 594.041 94.1187C594.929 93.5983 595.969 93.3382 597.163 93.3382C598.28 93.3382 599.267 93.583 600.125 94.0728C600.982 94.5625 601.647 95.2359 602.122 96.0929C602.611 96.9347 602.856 97.8759 602.856 98.9166C602.856 99.0849 602.849 99.2609 602.833 99.4446C602.833 99.6282 602.826 99.8195 602.81 100.018H594.156C594.217 100.906 594.523 101.602 595.074 102.107C595.64 102.613 596.321 102.865 597.117 102.865C597.714 102.865 598.211 102.735 598.609 102.475C599.023 102.199 599.329 101.847 599.528 101.419H602.512C602.298 102.138 601.938 102.796 601.433 103.393C600.943 103.975 600.331 104.434 599.597 104.77C598.877 105.107 598.058 105.275 597.14 105.275ZM597.163 95.7256C596.444 95.7256 595.809 95.9322 595.258 96.3454C594.707 96.7434 594.355 97.3555 594.202 98.182H599.872C599.826 97.4321 599.551 96.8352 599.046 96.3914C598.541 95.9475 597.913 95.7256 597.163 95.7256ZM615.068 105.275C613.644 105.275 612.542 104.832 611.762 103.944C610.997 103.056 610.614 101.755 610.614 100.041V93.6136H613.53V99.7659C613.53 100.745 613.729 101.495 614.126 102.016C614.524 102.536 615.152 102.796 616.009 102.796C616.82 102.796 617.486 102.505 618.006 101.924C618.542 101.342 618.81 100.531 618.81 99.4905V93.6136H621.748V105H619.154L618.924 103.072C618.572 103.745 618.06 104.281 617.386 104.679C616.728 105.077 615.955 105.275 615.068 105.275ZM629.47 105.275C628.46 105.275 627.573 105.115 626.808 104.793C626.042 104.457 625.43 103.998 624.971 103.416C624.512 102.834 624.236 102.161 624.145 101.396H627.106C627.198 101.84 627.443 102.222 627.841 102.544C628.254 102.85 628.782 103.003 629.425 103.003C630.067 103.003 630.534 102.873 630.825 102.613C631.131 102.352 631.284 102.054 631.284 101.717C631.284 101.228 631.07 100.898 630.641 100.73C630.213 100.546 629.616 100.37 628.851 100.202C628.361 100.095 627.864 99.9649 627.358 99.8119C626.853 99.6588 626.387 99.4675 625.958 99.238C625.545 98.9931 625.208 98.687 624.948 98.3197C624.688 97.9371 624.558 97.4703 624.558 96.9194C624.558 95.9093 624.956 95.0599 625.752 94.3712C626.563 93.6825 627.695 93.3382 629.149 93.3382C630.496 93.3382 631.567 93.6519 632.363 94.2794C633.174 94.9068 633.656 95.7715 633.809 96.8734H631.031C630.863 96.0317 630.228 95.6108 629.126 95.6108C628.575 95.6108 628.147 95.718 627.841 95.9322C627.55 96.1465 627.404 96.4143 627.404 96.7357C627.404 97.0724 627.626 97.3402 628.07 97.5392C628.514 97.7381 629.103 97.9218 629.838 98.0901C630.634 98.2738 631.361 98.4804 632.019 98.71C632.692 98.9242 633.228 99.2533 633.626 99.6971C634.023 100.126 634.222 100.745 634.222 101.557C634.238 102.261 634.054 102.896 633.671 103.462C633.289 104.028 632.738 104.472 632.019 104.793C631.299 105.115 630.45 105.275 629.47 105.275ZM638.409 91.846C637.874 91.846 637.43 91.6853 637.078 91.3639C636.741 91.0425 636.573 90.637 636.573 90.1472C636.573 89.6575 636.741 89.2596 637.078 88.9535C637.43 88.6321 637.874 88.4714 638.409 88.4714C638.945 88.4714 639.381 88.6321 639.718 88.9535C640.07 89.2596 640.246 89.6575 640.246 90.1472C640.246 90.637 640.07 91.0425 639.718 91.3639C639.381 91.6853 638.945 91.846 638.409 91.846ZM636.94 105V93.6136H639.879V105H636.94ZM642.946 105V93.6136H645.54L645.769 95.542C646.121 94.8686 646.626 94.3329 647.284 93.935C647.958 93.5371 648.746 93.3382 649.649 93.3382C651.057 93.3382 652.151 93.782 652.932 94.6696C653.712 95.5573 654.102 96.8581 654.102 98.5722V105H651.164V98.8477C651.164 97.8682 650.965 97.1183 650.567 96.598C650.169 96.0776 649.549 95.8175 648.708 95.8175C647.881 95.8175 647.2 96.1082 646.665 96.6898C646.144 97.2714 645.884 98.0825 645.884 99.1232V105H642.946ZM661.733 101.602C661.182 101.602 660.669 101.541 660.195 101.419L659.346 102.268C659.606 102.406 659.958 102.521 660.402 102.613C660.845 102.704 661.565 102.796 662.56 102.888C664.075 103.026 665.177 103.385 665.865 103.967C666.554 104.549 666.898 105.352 666.898 106.377C666.898 107.051 666.715 107.686 666.347 108.283C665.98 108.895 665.414 109.385 664.649 109.752C663.883 110.135 662.904 110.326 661.71 110.326C660.088 110.326 658.779 110.02 657.785 109.408C656.79 108.811 656.292 107.908 656.292 106.699C656.292 105.673 656.79 104.786 657.785 104.036C657.479 103.898 657.211 103.753 656.981 103.6C656.767 103.447 656.576 103.286 656.407 103.118V102.59L658.404 100.478C657.517 99.6971 657.073 98.6947 657.073 97.4703C657.073 96.7051 657.257 96.0088 657.624 95.3813C658.007 94.7538 658.542 94.2564 659.231 93.8891C659.92 93.5218 660.754 93.3382 661.733 93.3382C662.376 93.3382 662.973 93.43 663.524 93.6136H667.839V95.4042L665.888 95.542C666.194 96.1235 666.347 96.7663 666.347 97.4703C666.347 98.2355 666.164 98.9319 665.796 99.5593C665.429 100.187 664.893 100.684 664.189 101.052C663.501 101.419 662.682 101.602 661.733 101.602ZM661.733 99.3527C662.33 99.3527 662.82 99.192 663.202 98.8706C663.6 98.5493 663.799 98.0901 663.799 97.4933C663.799 96.8964 663.6 96.4373 663.202 96.1159C662.82 95.7945 662.33 95.6338 661.733 95.6338C661.106 95.6338 660.601 95.7945 660.218 96.1159C659.835 96.4373 659.644 96.8964 659.644 97.4933C659.644 98.0901 659.835 98.5493 660.218 98.8706C660.601 99.192 661.106 99.3527 661.733 99.3527ZM658.978 106.4C658.978 106.967 659.239 107.387 659.759 107.663C660.295 107.954 660.945 108.099 661.71 108.099C662.445 108.099 663.042 107.946 663.501 107.64C663.96 107.349 664.189 106.951 664.189 106.446C664.189 106.033 664.036 105.689 663.73 105.413C663.44 105.138 662.85 104.969 661.963 104.908C661.335 104.862 660.754 104.793 660.218 104.702C659.774 104.946 659.453 105.214 659.254 105.505C659.07 105.796 658.978 106.094 658.978 106.4ZM682.798 105.275C681.176 105.275 679.783 104.931 678.62 104.242C677.457 103.538 676.562 102.567 675.934 101.327C675.307 100.072 674.993 98.6258 674.993 96.9882C674.993 95.3507 675.307 93.9044 675.934 92.6495C676.562 91.3945 677.457 90.4151 678.62 89.7111C679.783 89.0071 681.176 88.6551 682.798 88.6551C684.727 88.6551 686.303 89.1371 687.527 90.1013C688.767 91.0502 689.54 92.3893 689.846 94.1187H686.609C686.41 93.2463 685.982 92.5653 685.323 92.0756C684.681 91.5705 683.824 91.318 682.752 91.318C681.268 91.318 680.105 91.823 679.263 92.8331C678.421 93.8432 678 95.2282 678 96.9882C678 98.7482 678.421 100.133 679.263 101.143C680.105 102.138 681.268 102.635 682.752 102.635C683.824 102.635 684.681 102.406 685.323 101.947C685.982 101.472 686.41 100.822 686.609 99.9955H689.846C689.54 101.648 688.767 102.942 687.527 103.875C686.303 104.809 684.727 105.275 682.798 105.275ZM692.447 105V88.9305H695.385V102.704H702.502V105H692.447ZM705.091 105V88.9305H708.029V105H705.091Z" fill="black"/>
<rect x="353.677" y="1.67663" width="421.647" height="153.647" stroke="#3A93E6" stroke-width="3.35326"/>
<path d="M316.658 78.5928C316.985 78.2654 316.985 77.7346 316.658 77.4072L311.323 72.0722C310.996 71.7448 310.465 71.7448 310.137 72.0722C309.81 72.3996 309.81 72.9304 310.137 73.2578L314.88 78L310.137 82.7422C309.81 83.0696 309.81 83.6004 310.137 83.9278C310.465 84.2552 310.996 84.2552 311.323 83.9278L316.658 78.5928ZM249 78.8383H316.065V77.1617H249V78.8383Z" fill="black"/>
<path d="M859.421 78.5928C859.748 78.2654 859.748 77.7346 859.421 77.4072L854.086 72.0722C853.758 71.7448 853.227 71.7448 852.9 72.0722C852.573 72.3996 852.573 72.9304 852.9 73.2578L857.642 78L852.9 82.7422C852.573 83.0696 852.573 83.6004 852.9 83.9278C853.227 84.2552 853.758 84.2552 854.086 83.9278L859.421 78.5928ZM813 78.8383H858.828V77.1617H813V78.8383Z" fill="black"/>
<defs>
<clipPath id="clip0_33_8011">
<rect width="66.4876" height="66.4876" fill="white" transform="translate(531.902 178)"/>
</clipPath>
</defs>
</svg>
