<svg width="32" height="32" viewBox="0 0 32 32" fill="none" xmlns="http://www.w3.org/2000/svg">
<rect width="32" height="32" rx="4" fill="#00BE91"/>
<path d="M15.796 23.742C14.788 23.742 13.8535 23.574 12.9925 23.238C12.1315 22.895 11.4315 22.363 10.8925 21.642C10.3535 20.914 10.056 19.969 10 18.807H13.318C13.318 19.234 13.4265 19.5875 13.6435 19.8675C13.8605 20.1475 14.1545 20.354 14.5255 20.487C14.9035 20.62 15.32 20.6865 15.775 20.6865C16.139 20.6865 16.4785 20.655 16.7935 20.592C17.1155 20.529 17.3745 20.417 17.5705 20.256C17.7665 20.095 17.8645 19.8745 17.8645 19.5945C17.8645 19.2515 17.7595 18.996 17.5495 18.828C17.3465 18.66 16.9755 18.4675 16.4365 18.2505L13.3705 16.917C12.3625 16.483 11.5785 15.972 11.0185 15.384C10.4585 14.796 10.1785 13.9945 10.1785 12.9795C10.1785 11.7895 10.6615 10.8305 11.6275 10.1025C12.6005 9.3675 13.9305 9 15.6175 9C17.3325 9 18.6485 9.406 19.5655 10.218C20.4825 11.023 20.997 12.1745 21.109 13.6725H17.812C17.728 13.2105 17.5215 12.822 17.1925 12.507C16.8705 12.192 16.3455 12.0345 15.6175 12.0345C15.0925 12.0345 14.669 12.1325 14.347 12.3285C14.025 12.5175 13.864 12.7555 13.864 13.0425C13.864 13.3085 13.9655 13.5185 14.1685 13.6725C14.3785 13.8265 14.69 13.9945 15.103 14.1765L18.3475 15.552C19.4255 16.021 20.227 16.5705 20.752 17.2005C21.284 17.8305 21.55 18.5865 21.55 19.4685C21.55 20.4135 21.3225 21.2045 20.8675 21.8415C20.4195 22.4715 19.765 22.9475 18.904 23.2695C18.05 23.5845 17.014 23.742 15.796 23.742Z" fill="white"/>
</svg>
