<svg width="737" height="172" viewBox="0 0 737 172" fill="none" xmlns="http://www.w3.org/2000/svg">
<path d="M25.9552 46V30.6093H20.6961V27.954H34.5399V30.6093H29.255V46H25.9552ZM36.907 46V27.4384H40.2069V35.1724C40.6366 34.4677 41.2123 33.9178 41.9341 33.5225C42.6732 33.11 43.5153 32.9038 44.4606 32.9038C46.0418 32.9038 47.262 33.4022 48.1213 34.399C48.9979 35.3958 49.4361 36.8567 49.4361 38.7816V46H46.1621V39.091C46.1621 37.991 45.9386 37.1489 45.4918 36.5645C45.0621 35.9802 44.3747 35.688 43.4294 35.688C42.5013 35.688 41.7279 36.0145 41.1092 36.6676C40.5077 37.3207 40.2069 38.2316 40.2069 39.4003V46H36.907ZM58.8045 46.3094C57.5155 46.3094 56.3726 46.0344 55.3758 45.4844C54.379 44.9344 53.597 44.161 53.0298 43.1642C52.4627 42.1674 52.1791 41.0159 52.1791 39.7097C52.1791 38.3863 52.4541 37.209 53.004 36.1778C53.5712 35.1466 54.3446 34.3474 55.3242 33.7803C56.3211 33.1959 57.4898 32.9038 58.8303 32.9038C60.0849 32.9038 61.1935 33.1787 62.1559 33.7287C63.1184 34.2787 63.866 35.0349 64.3988 35.9974C64.9488 36.9426 65.2238 37.9996 65.2238 39.1683C65.2238 39.3574 65.2152 39.555 65.198 39.7612C65.198 39.9675 65.1894 40.1823 65.1722 40.4057H55.4531C55.5219 41.4026 55.8656 42.1846 56.4843 42.7517C57.1202 43.3189 57.8851 43.6025 58.7788 43.6025C59.449 43.6025 60.0076 43.4564 60.4545 43.1642C60.9185 42.8548 61.2622 42.4595 61.4857 41.9783H64.8371C64.5964 42.7861 64.1926 43.5251 63.6254 44.1954C63.0754 44.8485 62.388 45.3641 61.563 45.7422C60.7552 46.1203 59.8357 46.3094 58.8045 46.3094ZM58.8303 35.5849C58.0225 35.5849 57.3093 35.8169 56.6906 36.2809C56.0719 36.7278 55.6766 37.4153 55.5047 38.3433H61.8724C61.8208 37.5012 61.5114 36.8309 60.9443 36.3325C60.3771 35.8341 59.6725 35.5849 58.8303 35.5849ZM78.5504 46.3094C77.4505 46.3094 76.5482 46.1375 75.8435 45.7938C75.1389 45.4328 74.6147 44.9602 74.2709 44.3759C73.9272 43.7915 73.7553 43.147 73.7553 42.4424C73.7553 41.2565 74.2194 40.294 75.1475 39.555C76.0755 38.816 77.4677 38.4465 79.3238 38.4465H82.5721V38.1371C82.5721 37.2606 82.3229 36.6161 81.8245 36.2036C81.3261 35.7911 80.7073 35.5849 79.9683 35.5849C79.298 35.5849 78.7137 35.7482 78.2153 36.0747C77.7169 36.3841 77.4075 36.8481 77.2872 37.4668H74.0647C74.1506 36.5387 74.46 35.731 74.9928 35.0435C75.5427 34.356 76.2474 33.8318 77.1067 33.4709C77.9661 33.0928 78.9285 32.9038 79.9941 32.9038C81.8159 32.9038 83.251 33.3592 84.2994 34.2701C85.3477 35.181 85.8719 36.47 85.8719 38.1371V46H83.0619L82.7526 43.9376C82.3744 44.6251 81.8417 45.1922 81.1542 45.6391C80.4839 46.0859 79.616 46.3094 78.5504 46.3094ZM79.298 43.7314C80.2433 43.7314 80.9737 43.422 81.4893 42.8033C82.0221 42.1846 82.3573 41.4198 82.4948 40.5089H79.6847C78.8082 40.5089 78.1809 40.6721 77.8028 40.9987C77.4247 41.308 77.2356 41.6947 77.2356 42.1588C77.2356 42.6572 77.4247 43.0439 77.8028 43.3189C78.1809 43.5939 78.6793 43.7314 79.298 43.7314ZM89.0209 51.6716V33.2131H91.9598L92.3208 35.0435C92.7332 34.4763 93.2746 33.9779 93.9449 33.5483C94.6324 33.1186 95.5175 32.9038 96.6002 32.9038C97.8033 32.9038 98.8775 33.1959 99.8227 33.7803C100.768 34.3646 101.516 35.1638 102.066 36.1778C102.616 37.1918 102.891 38.3433 102.891 39.6323C102.891 40.9213 102.616 42.0728 102.066 43.0869C101.516 44.0837 100.768 44.8743 99.8227 45.4586C98.8775 46.0258 97.8033 46.3094 96.6002 46.3094C95.6378 46.3094 94.7956 46.1289 94.0738 45.768C93.352 45.4071 92.7676 44.9001 92.3208 44.247V51.6716H89.0209ZM95.9042 43.422C96.9526 43.422 97.8205 43.0697 98.508 42.365C99.1954 41.6604 99.5392 40.7495 99.5392 39.6323C99.5392 38.5152 99.1954 37.5957 98.508 36.8739C97.8205 36.152 96.9526 35.7911 95.9042 35.7911C94.8386 35.7911 93.9621 36.152 93.2746 36.8739C92.6043 37.5785 92.2692 38.4894 92.2692 39.6066C92.2692 40.7237 92.6043 41.6432 93.2746 42.365C93.9621 43.0697 94.8386 43.422 95.9042 43.422ZM105.838 51.6716V33.2131H108.777L109.138 35.0435C109.551 34.4763 110.092 33.9779 110.762 33.5483C111.45 33.1186 112.335 32.9038 113.418 32.9038C114.621 32.9038 115.695 33.1959 116.64 33.7803C117.585 34.3646 118.333 35.1638 118.883 36.1778C119.433 37.1918 119.708 38.3433 119.708 39.6323C119.708 40.9213 119.433 42.0728 118.883 43.0869C118.333 44.0837 117.585 44.8743 116.64 45.4586C115.695 46.0258 114.621 46.3094 113.418 46.3094C112.455 46.3094 111.613 46.1289 110.891 45.768C110.169 45.4071 109.585 44.9001 109.138 44.247V51.6716H105.838ZM112.722 43.422C113.77 43.422 114.638 43.0697 115.325 42.365C116.013 41.6604 116.357 40.7495 116.357 39.6323C116.357 38.5152 116.013 37.5957 115.325 36.8739C114.638 36.152 113.77 35.7911 112.722 35.7911C111.656 35.7911 110.78 36.152 110.092 36.8739C109.422 37.5785 109.087 38.4894 109.087 39.6066C109.087 40.7237 109.422 41.6432 110.092 42.365C110.78 43.0697 111.656 43.422 112.722 43.422ZM128.799 46V27.4384H132.098V35.1724C132.528 34.4677 133.104 33.9178 133.826 33.5225C134.565 33.11 135.407 32.9038 136.352 32.9038C137.933 32.9038 139.154 33.4022 140.013 34.399C140.889 35.3958 141.328 36.8567 141.328 38.7816V46H138.054V39.091C138.054 37.991 137.83 37.1489 137.383 36.5645C136.954 35.9802 136.266 35.688 135.321 35.688C134.393 35.688 133.62 36.0145 133.001 36.6676C132.399 37.3207 132.098 38.2316 132.098 39.4003V46H128.799ZM148.892 46.3094C147.792 46.3094 146.889 46.1375 146.185 45.7938C145.48 45.4328 144.956 44.9602 144.612 44.3759C144.268 43.7915 144.096 43.147 144.096 42.4424C144.096 41.2565 144.561 40.294 145.489 39.555C146.417 38.816 147.809 38.4465 149.665 38.4465H152.913V38.1371C152.913 37.2606 152.664 36.6161 152.166 36.2036C151.667 35.7911 151.048 35.5849 150.309 35.5849C149.639 35.5849 149.055 35.7482 148.556 36.0747C148.058 36.3841 147.749 36.8481 147.628 37.4668H144.406C144.492 36.5387 144.801 35.731 145.334 35.0435C145.884 34.356 146.589 33.8318 147.448 33.4709C148.307 33.0928 149.27 32.9038 150.335 32.9038C152.157 32.9038 153.592 33.3592 154.64 34.2701C155.689 35.181 156.213 36.47 156.213 38.1371V46H153.403L153.094 43.9376C152.716 44.6251 152.183 45.1922 151.495 45.6391C150.825 46.0859 149.957 46.3094 148.892 46.3094ZM149.639 43.7314C150.584 43.7314 151.315 43.422 151.83 42.8033C152.363 42.1846 152.698 41.4198 152.836 40.5089H150.026C149.149 40.5089 148.522 40.6721 148.144 40.9987C147.766 41.308 147.577 41.6947 147.577 42.1588C147.577 42.6572 147.766 43.0439 148.144 43.3189C148.522 43.5939 149.02 43.7314 149.639 43.7314ZM164.647 46.3094C163.513 46.3094 162.516 46.1289 161.656 45.768C160.797 45.3899 160.11 44.8743 159.594 44.2212C159.078 43.5681 158.769 42.8119 158.666 41.9525H161.992C162.095 42.451 162.37 42.8806 162.817 43.2415C163.281 43.5853 163.874 43.7571 164.595 43.7571C165.317 43.7571 165.841 43.6111 166.168 43.3189C166.512 43.0267 166.684 42.6916 166.684 42.3135C166.684 41.7635 166.443 41.394 165.962 41.2049C165.481 40.9987 164.81 40.801 163.951 40.612C163.401 40.4917 162.842 40.3456 162.275 40.1737C161.708 40.0019 161.184 39.787 160.703 39.5292C160.239 39.2542 159.86 38.9105 159.568 38.498C159.276 38.0684 159.13 37.5442 159.13 36.9254C159.13 35.7911 159.577 34.8373 160.471 34.0639C161.381 33.2905 162.653 32.9038 164.286 32.9038C165.798 32.9038 167.002 33.2561 167.895 33.9607C168.806 34.6654 169.348 35.6364 169.519 36.8739H166.4C166.211 35.9286 165.498 35.456 164.26 35.456C163.642 35.456 163.16 35.5763 162.817 35.8169C162.49 36.0575 162.327 36.3583 162.327 36.7192C162.327 37.0973 162.576 37.3981 163.074 37.6215C163.573 37.8449 164.234 38.0512 165.059 38.2402C165.953 38.4465 166.77 38.6785 167.509 38.9363C168.265 39.1769 168.866 39.5464 169.313 40.0448C169.76 40.526 169.983 41.2221 169.983 42.133C170.001 42.9236 169.794 43.6368 169.365 44.2727C168.935 44.9086 168.316 45.4071 167.509 45.768C166.701 46.1289 165.747 46.3094 164.647 46.3094ZM184.747 46C183.406 46 182.332 45.6735 181.524 45.0204C180.717 44.3673 180.313 43.2072 180.313 41.5401V35.9716H178.121V33.2131H180.313L180.699 29.7844H183.613V33.2131H187.067V35.9716H183.613V41.5658C183.613 42.1846 183.741 42.6142 183.999 42.8548C184.274 43.0783 184.738 43.19 185.391 43.19H186.99V46H184.747ZM195.709 46.3094C194.471 46.3094 193.354 46.0258 192.357 45.4586C191.378 44.8915 190.596 44.1095 190.011 43.1126C189.444 42.0986 189.161 40.9299 189.161 39.6066C189.161 38.2832 189.453 37.1231 190.037 36.1263C190.621 35.1122 191.403 34.3217 192.383 33.7545C193.38 33.1873 194.497 32.9038 195.734 32.9038C196.955 32.9038 198.055 33.1873 199.034 33.7545C200.031 34.3217 200.813 35.1122 201.38 36.1263C201.965 37.1231 202.257 38.2832 202.257 39.6066C202.257 40.9299 201.965 42.0986 201.38 43.1126C200.813 44.1095 200.031 44.8915 199.034 45.4586C198.037 46.0258 196.929 46.3094 195.709 46.3094ZM195.709 43.4478C196.568 43.4478 197.316 43.1298 197.951 42.4939C198.587 41.8408 198.905 40.8784 198.905 39.6066C198.905 38.3347 198.587 37.3809 197.951 36.745C197.316 36.0919 196.577 35.7653 195.734 35.7653C194.858 35.7653 194.102 36.0919 193.466 36.745C192.847 37.3809 192.538 38.3347 192.538 39.6066C192.538 40.8784 192.847 41.8408 193.466 42.4939C194.102 43.1298 194.849 43.4478 195.709 43.4478ZM218.929 46.3094C217.967 46.3094 217.125 46.1289 216.403 45.768C215.681 45.4071 215.097 44.9001 214.65 44.247L214.289 46H211.35V27.4384H214.65V35.0435C215.062 34.4763 215.604 33.9779 216.274 33.5483C216.961 33.1186 217.847 32.9038 218.929 32.9038C220.132 32.9038 221.207 33.1959 222.152 33.7803C223.097 34.3646 223.845 35.1638 224.395 36.1778C224.945 37.1918 225.22 38.3433 225.22 39.6323C225.22 40.9213 224.945 42.0728 224.395 43.0869C223.845 44.0837 223.097 44.8743 222.152 45.4586C221.207 46.0258 220.132 46.3094 218.929 46.3094ZM218.233 43.422C219.282 43.422 220.15 43.0697 220.837 42.365C221.525 41.6604 221.868 40.7495 221.868 39.6323C221.868 38.5152 221.525 37.5957 220.837 36.8739C220.15 36.152 219.282 35.7911 218.233 35.7911C217.168 35.7911 216.291 36.152 215.604 36.8739C214.933 37.5785 214.598 38.4894 214.598 39.6066C214.598 40.7237 214.933 41.6432 215.604 42.365C216.291 43.0697 217.168 43.422 218.233 43.422ZM234.38 46.3094C233.091 46.3094 231.949 46.0344 230.952 45.4844C229.955 44.9344 229.173 44.161 228.606 43.1642C228.039 42.1674 227.755 41.0159 227.755 39.7097C227.755 38.3863 228.03 37.209 228.58 36.1778C229.147 35.1466 229.921 34.3474 230.9 33.7803C231.897 33.1959 233.066 32.9038 234.406 32.9038C235.661 32.9038 236.769 33.1787 237.732 33.7287C238.694 34.2787 239.442 35.0349 239.975 35.9974C240.525 36.9426 240.8 37.9996 240.8 39.1683C240.8 39.3574 240.791 39.555 240.774 39.7612C240.774 39.9675 240.765 40.1823 240.748 40.4057H231.029C231.098 41.4026 231.442 42.1846 232.06 42.7517C232.696 43.3189 233.461 43.6025 234.355 43.6025C235.025 43.6025 235.584 43.4564 236.03 43.1642C236.494 42.8548 236.838 42.4595 237.062 41.9783H240.413C240.172 42.7861 239.768 43.5251 239.201 44.1954C238.651 44.8485 237.964 45.3641 237.139 45.7422C236.331 46.1203 235.412 46.3094 234.38 46.3094ZM234.406 35.5849C233.598 35.5849 232.885 35.8169 232.266 36.2809C231.648 36.7278 231.252 37.4153 231.081 38.3433H237.448C237.397 37.5012 237.087 36.8309 236.52 36.3325C235.953 35.8341 235.248 35.5849 234.406 35.5849ZM255.982 46.3094C254.676 46.3094 253.525 46.0258 252.528 45.4586C251.531 44.8915 250.741 44.1009 250.156 43.0869C249.589 42.0728 249.305 40.9127 249.305 39.6066C249.305 38.3004 249.589 37.1403 250.156 36.1263C250.741 35.1122 251.531 34.3217 252.528 33.7545C253.525 33.1873 254.676 32.9038 255.982 32.9038C257.615 32.9038 258.99 33.3334 260.107 34.1928C261.224 35.0349 261.938 36.2036 262.247 37.6988H258.767C258.595 37.0801 258.251 36.5989 257.736 36.2552C257.237 35.8942 256.644 35.7138 255.957 35.7138C255.046 35.7138 254.272 36.0575 253.636 36.745C253.001 37.4324 252.683 38.3863 252.683 39.6066C252.683 40.8268 253.001 41.7807 253.636 42.4681C254.272 43.1556 255.046 43.4993 255.957 43.4993C256.644 43.4993 257.237 43.3275 257.736 42.9837C258.251 42.64 258.595 42.1502 258.767 41.5143H262.247C261.938 42.958 261.224 44.1181 260.107 44.9946C258.99 45.8711 257.615 46.3094 255.982 46.3094ZM271.312 46.3094C270.074 46.3094 268.957 46.0258 267.96 45.4586C266.98 44.8915 266.198 44.1095 265.614 43.1126C265.047 42.0986 264.763 40.9299 264.763 39.6066C264.763 38.2832 265.056 37.1231 265.64 36.1263C266.224 35.1122 267.006 34.3217 267.986 33.7545C268.983 33.1873 270.1 32.9038 271.337 32.9038C272.558 32.9038 273.657 33.1873 274.637 33.7545C275.634 34.3217 276.416 35.1122 276.983 36.1263C277.567 37.1231 277.86 38.2832 277.86 39.6066C277.86 40.9299 277.567 42.0986 276.983 43.1126C276.416 44.1095 275.634 44.8915 274.637 45.4586C273.64 46.0258 272.532 46.3094 271.312 46.3094ZM271.312 43.4478C272.171 43.4478 272.918 43.1298 273.554 42.4939C274.19 41.8408 274.508 40.8784 274.508 39.6066C274.508 38.3347 274.19 37.3809 273.554 36.745C272.918 36.0919 272.179 35.7653 271.337 35.7653C270.461 35.7653 269.705 36.0919 269.069 36.745C268.45 37.3809 268.141 38.3347 268.141 39.6066C268.141 40.8784 268.45 41.8408 269.069 42.4939C269.705 43.1298 270.452 43.4478 271.312 43.4478ZM280.81 46V33.2131H283.723L284.007 34.9404C284.419 34.3217 284.961 33.8318 285.631 33.4709C286.318 33.0928 287.109 32.9038 288.003 32.9038C289.979 32.9038 291.38 33.6686 292.205 35.1982C292.669 34.4935 293.288 33.935 294.061 33.5225C294.852 33.11 295.711 32.9038 296.639 32.9038C298.306 32.9038 299.586 33.4022 300.48 34.399C301.374 35.3958 301.821 36.8567 301.821 38.7816V46H298.521V39.091C298.521 37.991 298.306 37.1489 297.876 36.5645C297.464 35.9802 296.819 35.688 295.943 35.688C295.049 35.688 294.327 36.0145 293.777 36.6676C293.245 37.3207 292.978 38.2316 292.978 39.4003V46H289.678V39.091C289.678 37.991 289.464 37.1489 289.034 36.5645C288.604 35.9802 287.943 35.688 287.049 35.688C286.172 35.688 285.459 36.0145 284.909 36.6676C284.376 37.3207 284.11 38.2316 284.11 39.4003V46H280.81ZM304.954 51.6716V33.2131H307.893L308.253 35.0435C308.666 34.4763 309.207 33.9779 309.878 33.5483C310.565 33.1186 311.45 32.9038 312.533 32.9038C313.736 32.9038 314.81 33.1959 315.755 33.7803C316.701 34.3646 317.448 35.1638 317.998 36.1778C318.548 37.1918 318.823 38.3433 318.823 39.6323C318.823 40.9213 318.548 42.0728 317.998 43.0869C317.448 44.0837 316.701 44.8743 315.755 45.4586C314.81 46.0258 313.736 46.3094 312.533 46.3094C311.57 46.3094 310.728 46.1289 310.006 45.768C309.285 45.4071 308.7 44.9001 308.253 44.247V51.6716H304.954ZM311.837 43.422C312.885 43.422 313.753 43.0697 314.441 42.365C315.128 41.6604 315.472 40.7495 315.472 39.6323C315.472 38.5152 315.128 37.5957 314.441 36.8739C313.753 36.152 312.885 35.7911 311.837 35.7911C310.771 35.7911 309.895 36.152 309.207 36.8739C308.537 37.5785 308.202 38.4894 308.202 39.6066C308.202 40.7237 308.537 41.6432 309.207 42.365C309.895 43.0697 310.771 43.422 311.837 43.422ZM326.179 46.3094C325.079 46.3094 324.177 46.1375 323.473 45.7938C322.768 45.4328 322.244 44.9602 321.9 44.3759C321.556 43.7915 321.384 43.147 321.384 42.4424C321.384 41.2565 321.848 40.294 322.776 39.555C323.705 38.816 325.097 38.4465 326.953 38.4465H330.201V38.1371C330.201 37.2606 329.952 36.6161 329.453 36.2036C328.955 35.7911 328.336 35.5849 327.597 35.5849C326.927 35.5849 326.343 35.7482 325.844 36.0747C325.346 36.3841 325.037 36.8481 324.916 37.4668H321.694C321.78 36.5387 322.089 35.731 322.622 35.0435C323.172 34.356 323.876 33.8318 324.736 33.4709C325.595 33.0928 326.558 32.9038 327.623 32.9038C329.445 32.9038 330.88 33.3592 331.928 34.2701C332.977 35.181 333.501 36.47 333.501 38.1371V46H330.691L330.382 43.9376C330.003 44.6251 329.471 45.1922 328.783 45.6391C328.113 46.0859 327.245 46.3094 326.179 46.3094ZM326.927 43.7314C327.872 43.7314 328.603 43.422 329.118 42.8033C329.651 42.1846 329.986 41.4198 330.124 40.5089H327.314C326.437 40.5089 325.81 40.6721 325.432 40.9987C325.054 41.308 324.865 41.6947 324.865 42.1588C324.865 42.6572 325.054 43.0439 325.432 43.3189C325.81 43.5939 326.308 43.7314 326.927 43.7314ZM342.171 46C340.83 46 339.756 45.6735 338.949 45.0204C338.141 44.3673 337.737 43.2072 337.737 41.5401V35.9716H335.546V33.2131H337.737L338.124 29.7844H341.037V33.2131H344.491V35.9716H341.037V41.5658C341.037 42.1846 341.166 42.6142 341.423 42.8548C341.698 43.0783 342.162 43.19 342.816 43.19H344.414V46H342.171ZM349.103 31.2281C348.502 31.2281 348.003 31.0476 347.608 30.6867C347.23 30.3258 347.041 29.8703 347.041 29.3203C347.041 28.7704 347.23 28.3235 347.608 27.9798C348.003 27.6189 348.502 27.4384 349.103 27.4384C349.705 27.4384 350.195 27.6189 350.573 27.9798C350.968 28.3235 351.166 28.7704 351.166 29.3203C351.166 29.8703 350.968 30.3258 350.573 30.6867C350.195 31.0476 349.705 31.2281 349.103 31.2281ZM347.453 46V33.2131H350.753V46H347.453ZM361.777 46.3094C360.814 46.3094 359.972 46.1289 359.25 45.768C358.528 45.4071 357.944 44.9001 357.497 44.247L357.136 46H354.197V27.4384H357.497V35.0435C357.91 34.4763 358.451 33.9779 359.121 33.5483C359.809 33.1186 360.694 32.9038 361.777 32.9038C362.98 32.9038 364.054 33.1959 364.999 33.7803C365.945 34.3646 366.692 35.1638 367.242 36.1778C367.792 37.1918 368.067 38.3433 368.067 39.6323C368.067 40.9213 367.792 42.0728 367.242 43.0869C366.692 44.0837 365.945 44.8743 364.999 45.4586C364.054 46.0258 362.98 46.3094 361.777 46.3094ZM361.081 43.422C362.129 43.422 362.997 43.0697 363.684 42.365C364.372 41.6604 364.716 40.7495 364.716 39.6323C364.716 38.5152 364.372 37.5957 363.684 36.8739C362.997 36.152 362.129 35.7911 361.081 35.7911C360.015 35.7911 359.139 36.152 358.451 36.8739C357.781 37.5785 357.446 38.4894 357.446 39.6066C357.446 40.7237 357.781 41.6432 358.451 42.365C359.139 43.0697 360.015 43.422 361.081 43.422ZM371.015 46V27.4384H374.315V46H371.015ZM383.899 46.3094C382.61 46.3094 381.468 46.0344 380.471 45.4844C379.474 44.9344 378.692 44.161 378.125 43.1642C377.558 42.1674 377.274 41.0159 377.274 39.7097C377.274 38.3863 377.549 37.209 378.099 36.1778C378.666 35.1466 379.439 34.3474 380.419 33.7803C381.416 33.1959 382.585 32.9038 383.925 32.9038C385.18 32.9038 386.288 33.1787 387.251 33.7287C388.213 34.2787 388.961 35.0349 389.494 35.9974C390.044 36.9426 390.319 37.9996 390.319 39.1683C390.319 39.3574 390.31 39.555 390.293 39.7612C390.293 39.9675 390.284 40.1823 390.267 40.4057H380.548C380.617 41.4026 380.961 42.1846 381.579 42.7517C382.215 43.3189 382.98 43.6025 383.874 43.6025C384.544 43.6025 385.102 43.4564 385.549 43.1642C386.013 42.8548 386.357 42.4595 386.581 41.9783H389.932C389.691 42.7861 389.287 43.5251 388.72 44.1954C388.17 44.8485 387.483 45.3641 386.658 45.7422C385.85 46.1203 384.931 46.3094 383.899 46.3094ZM383.925 35.5849C383.117 35.5849 382.404 35.8169 381.785 36.2809C381.167 36.7278 380.771 37.4153 380.6 38.3433H386.967C386.916 37.5012 386.606 36.8309 386.039 36.3325C385.472 35.8341 384.767 35.5849 383.925 35.5849ZM401.738 46L397.999 33.2131H401.274L403.491 42.4166L406.069 33.2131H409.729L412.307 42.4166L414.55 33.2131H417.824L414.06 46H410.632L407.899 36.4356L405.166 46H401.738ZM421.685 31.2281C421.084 31.2281 420.585 31.0476 420.19 30.6867C419.812 30.3258 419.623 29.8703 419.623 29.3203C419.623 28.7704 419.812 28.3235 420.19 27.9798C420.585 27.6189 421.084 27.4384 421.685 27.4384C422.287 27.4384 422.776 27.6189 423.155 27.9798C423.55 28.3235 423.747 28.7704 423.747 29.3203C423.747 29.8703 423.55 30.3258 423.155 30.6867C422.776 31.0476 422.287 31.2281 421.685 31.2281ZM420.035 46V33.2131H423.335V46H420.035ZM432.477 46C431.136 46 430.062 45.6735 429.254 45.0204C428.446 44.3673 428.042 43.2072 428.042 41.5401V35.9716H425.851V33.2131H428.042L428.429 29.7844H431.342V33.2131H434.797V35.9716H431.342V41.5658C431.342 42.1846 431.471 42.6142 431.729 42.8548C432.004 43.0783 432.468 43.19 433.121 43.19H434.719V46H432.477ZM437.63 46V27.4384H440.93V35.1724C441.359 34.4677 441.935 33.9178 442.657 33.5225C443.396 33.11 444.238 32.9038 445.184 32.9038C446.765 32.9038 447.985 33.4022 448.844 34.399C449.721 35.3958 450.159 36.8567 450.159 38.7816V46H446.885V39.091C446.885 37.991 446.662 37.1489 446.215 36.5645C445.785 35.9802 445.098 35.688 444.152 35.688C443.224 35.688 442.451 36.0145 441.832 36.6676C441.231 37.3207 440.93 38.2316 440.93 39.4003V46H437.63ZM459.457 46V33.2131H462.371L462.628 35.3786C463.024 34.6224 463.591 34.0209 464.33 33.574C465.086 33.1272 465.971 32.9038 466.985 32.9038C468.566 32.9038 469.795 33.4022 470.672 34.399C471.548 35.3958 471.986 36.8567 471.986 38.7816V46H468.687V39.091C468.687 37.991 468.463 37.1489 468.016 36.5645C467.569 35.9802 466.873 35.688 465.928 35.688C465 35.688 464.235 36.0145 463.634 36.6676C463.049 37.3207 462.757 38.2316 462.757 39.4003V46H459.457ZM481.355 46.3094C480.066 46.3094 478.923 46.0344 477.926 45.4844C476.929 44.9344 476.147 44.161 475.58 43.1642C475.013 42.1674 474.729 41.0159 474.729 39.7097C474.729 38.3863 475.004 37.209 475.554 36.1778C476.122 35.1466 476.895 34.3474 477.875 33.7803C478.871 33.1959 480.04 32.9038 481.381 32.9038C482.635 32.9038 483.744 33.1787 484.706 33.7287C485.669 34.2787 486.416 35.0349 486.949 35.9974C487.499 36.9426 487.774 37.9996 487.774 39.1683C487.774 39.3574 487.765 39.555 487.748 39.7612C487.748 39.9675 487.74 40.1823 487.723 40.4057H478.003C478.072 41.4026 478.416 42.1846 479.035 42.7517C479.671 43.3189 480.435 43.6025 481.329 43.6025C481.999 43.6025 482.558 43.4564 483.005 43.1642C483.469 42.8548 483.813 42.4595 484.036 41.9783H487.387C487.147 42.7861 486.743 43.5251 486.176 44.1954C485.626 44.8485 484.938 45.3641 484.113 45.7422C483.306 46.1203 482.386 46.3094 481.355 46.3094ZM481.381 35.5849C480.573 35.5849 479.86 35.8169 479.241 36.2809C478.622 36.7278 478.227 37.4153 478.055 38.3433H484.423C484.371 37.5012 484.062 36.8309 483.495 36.3325C482.927 35.8341 482.223 35.5849 481.381 35.5849ZM492.547 46L488.808 33.2131H492.083L494.3 42.4166L496.878 33.2131H500.538L503.116 42.4166L505.359 33.2131H508.633L504.869 46H501.441L498.708 36.4356L495.975 46H492.547ZM517.451 46V35.9716H515.698V33.2131H517.451V31.7179C517.451 30.1711 517.838 29.0711 518.611 28.418C519.402 27.7649 520.467 27.4384 521.808 27.4384H523.226V30.2484H522.324C521.756 30.2484 521.352 30.3601 521.112 30.5836C520.871 30.807 520.751 31.1851 520.751 31.7179V33.2131H529.001V46H525.701V35.9716H520.751V46H517.451ZM527.376 31.3827C526.775 31.3827 526.276 31.2023 525.881 30.8414C525.503 30.4804 525.314 30.025 525.314 29.475C525.314 28.925 525.503 28.4782 525.881 28.1345C526.276 27.7735 526.775 27.5931 527.376 27.5931C527.978 27.5931 528.468 27.7735 528.846 28.1345C529.241 28.4782 529.439 28.925 529.439 29.475C529.439 30.025 529.241 30.4804 528.846 30.8414C528.468 31.2023 527.978 31.3827 527.376 31.3827ZM532.492 46V33.2131H535.431L535.741 35.6107C536.205 34.7857 536.832 34.1326 537.623 33.6514C538.43 33.153 539.376 32.9038 540.458 32.9038V36.3841H539.53C538.808 36.3841 538.164 36.4958 537.597 36.7192C537.03 36.9426 536.583 37.3293 536.256 37.8793C535.947 38.4293 535.792 39.1941 535.792 40.1737V46H532.492ZM542.714 46V33.2131H545.627L545.91 34.9404C546.323 34.3217 546.864 33.8318 547.535 33.4709C548.222 33.0928 549.013 32.9038 549.906 32.9038C551.883 32.9038 553.283 33.6686 554.108 35.1982C554.572 34.4935 555.191 33.935 555.965 33.5225C556.755 33.11 557.615 32.9038 558.543 32.9038C560.21 32.9038 561.49 33.4022 562.384 34.399C563.278 35.3958 563.724 36.8567 563.724 38.7816V46H560.425V39.091C560.425 37.991 560.21 37.1489 559.78 36.5645C559.368 35.9802 558.723 35.688 557.847 35.688C556.953 35.688 556.231 36.0145 555.681 36.6676C555.148 37.3207 554.882 38.2316 554.882 39.4003V46H551.582V39.091C551.582 37.991 551.367 37.1489 550.937 36.5645C550.508 35.9802 549.846 35.688 548.952 35.688C548.076 35.688 547.363 36.0145 546.813 36.6676C546.28 37.3207 546.014 38.2316 546.014 39.4003V46H542.714ZM569.358 46L565.62 33.2131H568.894L571.111 42.4166L573.689 33.2131H577.35L579.928 42.4166L582.171 33.2131H585.445L581.681 46H578.252L575.519 36.4356L572.787 46H569.358ZM591.28 46.3094C590.18 46.3094 589.278 46.1375 588.573 45.7938C587.869 45.4328 587.345 44.9602 587.001 44.3759C586.657 43.7915 586.485 43.147 586.485 42.4424C586.485 41.2565 586.949 40.294 587.877 39.555C588.805 38.816 590.198 38.4465 592.054 38.4465H595.302V38.1371C595.302 37.2606 595.053 36.6161 594.554 36.2036C594.056 35.7911 593.437 35.5849 592.698 35.5849C592.028 35.5849 591.444 35.7482 590.945 36.0747C590.447 36.3841 590.137 36.8481 590.017 37.4668H586.795C586.881 36.5387 587.19 35.731 587.723 35.0435C588.273 34.356 588.977 33.8318 589.837 33.4709C590.696 33.0928 591.658 32.9038 592.724 32.9038C594.546 32.9038 595.981 33.3592 597.029 34.2701C598.078 35.181 598.602 36.47 598.602 38.1371V46H595.792L595.483 43.9376C595.104 44.6251 594.572 45.1922 593.884 45.6391C593.214 46.0859 592.346 46.3094 591.28 46.3094ZM592.028 43.7314C592.973 43.7314 593.704 43.422 594.219 42.8033C594.752 42.1846 595.087 41.4198 595.225 40.5089H592.415C591.538 40.5089 590.911 40.6721 590.533 40.9987C590.155 41.308 589.966 41.6947 589.966 42.1588C589.966 42.6572 590.155 43.0439 590.533 43.3189C590.911 43.5939 591.409 43.7314 592.028 43.7314ZM601.751 46V33.2131H604.69L604.999 35.6107C605.463 34.7857 606.091 34.1326 606.881 33.6514C607.689 33.153 608.634 32.9038 609.717 32.9038V36.3841H608.789C608.067 36.3841 607.422 36.4958 606.855 36.7192C606.288 36.9426 605.841 37.3293 605.515 37.8793C605.205 38.4293 605.051 39.1941 605.051 40.1737V46H601.751ZM617.959 46.3094C616.67 46.3094 615.527 46.0344 614.53 45.4844C613.533 44.9344 612.751 44.161 612.184 43.1642C611.617 42.1674 611.333 41.0159 611.333 39.7097C611.333 38.3863 611.608 37.209 612.158 36.1778C612.725 35.1466 613.499 34.3474 614.478 33.7803C615.475 33.1959 616.644 32.9038 617.984 32.9038C619.239 32.9038 620.348 33.1787 621.31 33.7287C622.273 34.2787 623.02 35.0349 623.553 35.9974C624.103 36.9426 624.378 37.9996 624.378 39.1683C624.378 39.3574 624.369 39.555 624.352 39.7612C624.352 39.9675 624.344 40.1823 624.326 40.4057H614.607C614.676 41.4026 615.02 42.1846 615.638 42.7517C616.274 43.3189 617.039 43.6025 617.933 43.6025C618.603 43.6025 619.162 43.4564 619.609 43.1642C620.073 42.8548 620.416 42.4595 620.64 41.9783H623.991C623.751 42.7861 623.347 43.5251 622.78 44.1954C622.23 44.8485 621.542 45.3641 620.717 45.7422C619.909 46.1203 618.99 46.3094 617.959 46.3094ZM617.984 35.5849C617.177 35.5849 616.463 35.8169 615.845 36.2809C615.226 36.7278 614.831 37.4153 614.659 38.3433H621.027C620.975 37.5012 620.666 36.8309 620.098 36.3325C619.531 35.8341 618.827 35.5849 617.984 35.5849Z" fill="#505050"/>
<rect x="0.5" y="0.5" width="645" height="73" rx="8.5" stroke="#16B0AF"/>
<path d="M20.5929 144L27.1926 125.954H30.9049L37.5046 144H33.9985L32.5549 139.824H25.5169L24.0475 144H20.5929ZM26.4192 137.246H31.6526L29.023 129.744L26.4192 137.246ZM45.8948 144V125.438H49.1946V144H45.8948ZM58.702 144.309C57.4646 144.309 56.3475 144.026 55.3506 143.459C54.371 142.891 53.589 142.109 53.0046 141.113C52.4375 140.099 52.1539 138.93 52.1539 137.607C52.1539 136.283 52.4461 135.123 53.0304 134.126C53.6148 133.112 54.3968 132.322 55.3764 131.754C56.3732 131.187 57.4904 130.904 58.7278 130.904C59.9481 130.904 61.048 131.187 62.0276 131.754C63.0245 132.322 63.8065 133.112 64.3736 134.126C64.958 135.123 65.2501 136.283 65.2501 137.607C65.2501 138.93 64.958 140.099 64.3736 141.113C63.8065 142.109 63.0245 142.891 62.0276 143.459C61.0308 144.026 59.9223 144.309 58.702 144.309ZM58.702 141.448C59.5614 141.448 60.309 141.13 60.9449 140.494C61.5808 139.841 61.8987 138.878 61.8987 137.607C61.8987 136.335 61.5808 135.381 60.9449 134.745C60.309 134.092 59.57 133.765 58.7278 133.765C57.8513 133.765 57.0951 134.092 56.4592 134.745C55.8404 135.381 55.5311 136.335 55.5311 137.607C55.5311 138.878 55.8404 139.841 56.4592 140.494C57.0951 141.13 57.8427 141.448 58.702 141.448ZM73.3944 144C72.0539 144 70.9797 143.673 70.1719 143.02C69.3641 142.367 68.9603 141.207 68.9603 139.54V133.972H66.769V131.213H68.9603L69.347 127.784H72.2601V131.213H75.7146V133.972H72.2601V139.566C72.2601 140.185 72.389 140.614 72.6468 140.855C72.9218 141.078 73.3858 141.19 74.0389 141.19H75.6373V144H73.3944ZM90.8263 144.309C89.5889 144.309 88.4718 144.026 87.4749 143.459C86.4953 142.891 85.7133 142.109 85.1289 141.113C84.5618 140.099 84.2782 138.93 84.2782 137.607C84.2782 136.283 84.5704 135.123 85.1547 134.126C85.7391 133.112 86.5211 132.322 87.5007 131.754C88.4975 131.187 89.6147 130.904 90.8521 130.904C92.0724 130.904 93.1723 131.187 94.1519 131.754C95.1488 132.322 95.9308 133.112 96.4979 134.126C97.0823 135.123 97.3744 136.283 97.3744 137.607C97.3744 138.93 97.0823 140.099 96.4979 141.113C95.9308 142.109 95.1488 142.891 94.1519 143.459C93.1551 144.026 92.0466 144.309 90.8263 144.309ZM90.8263 141.448C91.6857 141.448 92.4333 141.13 93.0692 140.494C93.7051 139.841 94.023 138.878 94.023 137.607C94.023 136.335 93.7051 135.381 93.0692 134.745C92.4333 134.092 91.6943 133.765 90.8521 133.765C89.9756 133.765 89.2194 134.092 88.5835 134.745C87.9647 135.381 87.6554 136.335 87.6554 137.607C87.6554 138.878 87.9647 139.841 88.5835 140.494C89.2194 141.13 89.967 141.448 90.8263 141.448ZM100.918 144V133.972H99.1647V131.213H100.918V129.718C100.918 128.171 101.304 127.071 102.078 126.418C102.868 125.765 103.934 125.438 105.275 125.438H106.693V128.248H105.79C105.223 128.248 104.819 128.36 104.579 128.584C104.338 128.807 104.218 129.185 104.218 129.718V131.213H106.976V133.972H104.218V144H100.918ZM120.528 144.309C118.929 144.309 117.692 143.811 116.815 142.814C115.956 141.817 115.526 140.356 115.526 138.432V131.213H118.8V138.122C118.8 139.222 119.024 140.064 119.471 140.649C119.917 141.233 120.622 141.525 121.584 141.525C122.495 141.525 123.243 141.199 123.827 140.545C124.429 139.892 124.73 138.981 124.73 137.813V131.213H128.029V144H125.116L124.859 141.834C124.463 142.591 123.887 143.192 123.131 143.639C122.392 144.086 121.524 144.309 120.528 144.309ZM136.702 144.309C135.568 144.309 134.571 144.129 133.711 143.768C132.852 143.39 132.165 142.874 131.649 142.221C131.133 141.568 130.824 140.812 130.721 139.953H134.046C134.15 140.451 134.425 140.881 134.871 141.242C135.335 141.585 135.928 141.757 136.65 141.757C137.372 141.757 137.896 141.611 138.223 141.319C138.567 141.027 138.738 140.692 138.738 140.313C138.738 139.763 138.498 139.394 138.017 139.205C137.535 138.999 136.865 138.801 136.006 138.612C135.456 138.492 134.897 138.346 134.33 138.174C133.763 138.002 133.239 137.787 132.757 137.529C132.293 137.254 131.915 136.91 131.623 136.498C131.331 136.068 131.185 135.544 131.185 134.925C131.185 133.791 131.632 132.837 132.525 132.064C133.436 131.29 134.708 130.904 136.341 130.904C137.853 130.904 139.056 131.256 139.95 131.961C140.861 132.665 141.402 133.636 141.574 134.874H138.455C138.266 133.929 137.553 133.456 136.315 133.456C135.696 133.456 135.215 133.576 134.871 133.817C134.545 134.058 134.382 134.358 134.382 134.719C134.382 135.097 134.631 135.398 135.129 135.621C135.628 135.845 136.289 136.051 137.114 136.24C138.008 136.446 138.824 136.678 139.563 136.936C140.32 137.177 140.921 137.546 141.368 138.045C141.815 138.526 142.038 139.222 142.038 140.133C142.055 140.924 141.849 141.637 141.42 142.273C140.99 142.909 140.371 143.407 139.563 143.768C138.756 144.129 137.802 144.309 136.702 144.309ZM149.37 144.309C148.27 144.309 147.368 144.137 146.663 143.794C145.958 143.433 145.434 142.96 145.09 142.376C144.747 141.792 144.575 141.147 144.575 140.442C144.575 139.256 145.039 138.294 145.967 137.555C146.895 136.816 148.287 136.446 150.143 136.446H153.392V136.137C153.392 135.261 153.142 134.616 152.644 134.204C152.146 133.791 151.527 133.585 150.788 133.585C150.118 133.585 149.533 133.748 149.035 134.075C148.536 134.384 148.227 134.848 148.107 135.467H144.884C144.97 134.539 145.279 133.731 145.812 133.043C146.362 132.356 147.067 131.832 147.926 131.471C148.786 131.093 149.748 130.904 150.814 130.904C152.635 130.904 154.07 131.359 155.119 132.27C156.167 133.181 156.691 134.47 156.691 136.137V144H153.881L153.572 141.938C153.194 142.625 152.661 143.192 151.974 143.639C151.303 144.086 150.435 144.309 149.37 144.309ZM150.118 141.731C151.063 141.731 151.793 141.422 152.309 140.803C152.842 140.185 153.177 139.42 153.314 138.509H150.504C149.628 138.509 149 138.672 148.622 138.999C148.244 139.308 148.055 139.695 148.055 140.159C148.055 140.657 148.244 141.044 148.622 141.319C149 141.594 149.499 141.731 150.118 141.731ZM167.42 144.309C166.457 144.309 165.615 144.129 164.893 143.768C164.171 143.407 163.587 142.9 163.14 142.247L162.779 144H159.84V125.438H163.14V133.043C163.553 132.476 164.094 131.978 164.764 131.548C165.452 131.119 166.337 130.904 167.42 130.904C168.623 130.904 169.697 131.196 170.642 131.78C171.587 132.365 172.335 133.164 172.885 134.178C173.435 135.192 173.71 136.343 173.71 137.632C173.71 138.921 173.435 140.073 172.885 141.087C172.335 142.084 171.587 142.874 170.642 143.459C169.697 144.026 168.623 144.309 167.42 144.309ZM166.724 141.422C167.772 141.422 168.64 141.07 169.327 140.365C170.015 139.66 170.359 138.749 170.359 137.632C170.359 136.515 170.015 135.596 169.327 134.874C168.64 134.152 167.772 133.791 166.724 133.791C165.658 133.791 164.782 134.152 164.094 134.874C163.424 135.579 163.089 136.489 163.089 137.607C163.089 138.724 163.424 139.643 164.094 140.365C164.782 141.07 165.658 141.422 166.724 141.422ZM178.437 129.228C177.835 129.228 177.337 129.048 176.941 128.687C176.563 128.326 176.374 127.87 176.374 127.32C176.374 126.77 176.563 126.324 176.941 125.98C177.337 125.619 177.835 125.438 178.437 125.438C179.038 125.438 179.528 125.619 179.906 125.98C180.301 126.324 180.499 126.77 180.499 127.32C180.499 127.87 180.301 128.326 179.906 128.687C179.528 129.048 179.038 129.228 178.437 129.228ZM176.787 144V131.213H180.087V144H176.787ZM183.531 144V125.438H186.831V144H183.531ZM191.981 129.228C191.38 129.228 190.881 129.048 190.486 128.687C190.108 128.326 189.919 127.87 189.919 127.32C189.919 126.77 190.108 126.324 190.486 125.98C190.881 125.619 191.38 125.438 191.981 125.438C192.583 125.438 193.073 125.619 193.451 125.98C193.846 126.324 194.044 126.77 194.044 127.32C194.044 127.87 193.846 128.326 193.451 128.687C193.073 129.048 192.583 129.228 191.981 129.228ZM190.331 144V131.213H193.631V144H190.331ZM202.773 144C201.432 144 200.358 143.673 199.55 143.02C198.742 142.367 198.339 141.207 198.339 139.54V133.972H196.147V131.213H198.339L198.725 127.784H201.638V131.213H205.093V133.972H201.638V139.566C201.638 140.185 201.767 140.614 202.025 140.855C202.3 141.078 202.764 141.19 203.417 141.19H205.016V144H202.773ZM209.525 149.672L212.489 143.149H211.716L206.74 131.213H210.324L213.907 140.21L217.645 131.213H221.151L213.031 149.672H209.525ZM231.23 129.228C230.629 129.228 230.13 129.048 229.735 128.687C229.357 128.326 229.168 127.87 229.168 127.32C229.168 126.77 229.357 126.324 229.735 125.98C230.13 125.619 230.629 125.438 231.23 125.438C231.832 125.438 232.322 125.619 232.7 125.98C233.095 126.324 233.293 126.77 233.293 127.32C233.293 127.87 233.095 128.326 232.7 128.687C232.322 129.048 231.832 129.228 231.23 129.228ZM229.58 144V131.213H232.88V144H229.58ZM241.609 144.309C240.475 144.309 239.478 144.129 238.619 143.768C237.759 143.39 237.072 142.874 236.556 142.221C236.041 141.568 235.731 140.812 235.628 139.953H238.954C239.057 140.451 239.332 140.881 239.779 141.242C240.243 141.585 240.836 141.757 241.558 141.757C242.28 141.757 242.804 141.611 243.13 141.319C243.474 141.027 243.646 140.692 243.646 140.313C243.646 139.763 243.405 139.394 242.924 139.205C242.443 138.999 241.773 138.801 240.913 138.612C240.363 138.492 239.805 138.346 239.238 138.174C238.67 138.002 238.146 137.787 237.665 137.529C237.201 137.254 236.823 136.91 236.531 136.498C236.238 136.068 236.092 135.544 236.092 134.925C236.092 133.791 236.539 132.837 237.433 132.064C238.344 131.29 239.616 130.904 241.248 130.904C242.761 130.904 243.964 131.256 244.858 131.961C245.768 132.665 246.31 133.636 246.482 134.874H243.362C243.173 133.929 242.46 133.456 241.223 133.456C240.604 133.456 240.123 133.576 239.779 133.817C239.452 134.058 239.289 134.358 239.289 134.719C239.289 135.097 239.538 135.398 240.037 135.621C240.535 135.845 241.197 136.051 242.022 136.24C242.915 136.446 243.732 136.678 244.471 136.936C245.227 137.177 245.829 137.546 246.275 138.045C246.722 138.526 246.946 139.222 246.946 140.133C246.963 140.924 246.757 141.637 246.327 142.273C245.897 142.909 245.279 143.407 244.471 143.768C243.663 144.129 242.709 144.309 241.609 144.309ZM255.154 144.309C254.02 144.309 253.023 144.129 252.163 143.768C251.304 143.39 250.617 142.874 250.101 142.221C249.585 141.568 249.276 140.812 249.173 139.953H252.499C252.602 140.451 252.877 140.881 253.324 141.242C253.788 141.585 254.38 141.757 255.102 141.757C255.824 141.757 256.348 141.611 256.675 141.319C257.019 141.027 257.191 140.692 257.191 140.313C257.191 139.763 256.95 139.394 256.469 139.205C255.987 138.999 255.317 138.801 254.458 138.612C253.908 138.492 253.349 138.346 252.782 138.174C252.215 138.002 251.691 137.787 251.21 137.529C250.746 137.254 250.367 136.91 250.075 136.498C249.783 136.068 249.637 135.544 249.637 134.925C249.637 133.791 250.084 132.837 250.978 132.064C251.888 131.29 253.16 130.904 254.793 130.904C256.305 130.904 257.508 131.256 258.402 131.961C259.313 132.665 259.854 133.636 260.026 134.874H256.907C256.718 133.929 256.005 133.456 254.767 133.456C254.148 133.456 253.667 133.576 253.324 133.817C252.997 134.058 252.834 134.358 252.834 134.719C252.834 135.097 253.083 135.398 253.581 135.621C254.08 135.845 254.741 136.051 255.566 136.24C256.46 136.446 257.276 136.678 258.015 136.936C258.772 137.177 259.373 137.546 259.82 138.045C260.267 138.526 260.49 139.222 260.49 140.133C260.508 140.924 260.301 141.637 259.872 142.273C259.442 142.909 258.823 143.407 258.015 143.768C257.208 144.129 256.254 144.309 255.154 144.309ZM268.209 144.309C266.61 144.309 265.373 143.811 264.496 142.814C263.637 141.817 263.207 140.356 263.207 138.432V131.213H266.481V138.122C266.481 139.222 266.705 140.064 267.152 140.649C267.599 141.233 268.303 141.525 269.266 141.525C270.177 141.525 270.924 141.199 271.508 140.545C272.11 139.892 272.411 138.981 272.411 137.813V131.213H275.711V144H272.797L272.54 141.834C272.144 142.591 271.569 143.192 270.812 143.639C270.073 144.086 269.205 144.309 268.209 144.309ZM285.311 144.309C284.022 144.309 282.879 144.034 281.882 143.484C280.885 142.934 280.103 142.161 279.536 141.164C278.969 140.167 278.686 139.016 278.686 137.71C278.686 136.386 278.961 135.209 279.511 134.178C280.078 133.147 280.851 132.347 281.831 131.78C282.828 131.196 283.996 130.904 285.337 130.904C286.591 130.904 287.7 131.179 288.662 131.729C289.625 132.279 290.373 133.035 290.905 133.997C291.455 134.943 291.73 136 291.73 137.168C291.73 137.357 291.722 137.555 291.704 137.761C291.704 137.967 291.696 138.182 291.679 138.406H281.96C282.028 139.403 282.372 140.185 282.991 140.752C283.627 141.319 284.392 141.602 285.285 141.602C285.956 141.602 286.514 141.456 286.961 141.164C287.425 140.855 287.769 140.46 287.992 139.978H291.344C291.103 140.786 290.699 141.525 290.132 142.195C289.582 142.848 288.894 143.364 288.07 143.742C287.262 144.12 286.342 144.309 285.311 144.309ZM285.337 133.585C284.529 133.585 283.816 133.817 283.197 134.281C282.578 134.728 282.183 135.415 282.011 136.343H288.379C288.327 135.501 288.018 134.831 287.451 134.332C286.884 133.834 286.179 133.585 285.337 133.585ZM299.791 144.309C298.656 144.309 297.659 144.129 296.8 143.768C295.941 143.39 295.253 142.874 294.738 142.221C294.222 141.568 293.913 140.812 293.81 139.953H297.135C297.238 140.451 297.513 140.881 297.96 141.242C298.424 141.585 299.017 141.757 299.739 141.757C300.461 141.757 300.985 141.611 301.312 141.319C301.655 141.027 301.827 140.692 301.827 140.313C301.827 139.763 301.587 139.394 301.105 139.205C300.624 138.999 299.954 138.801 299.094 138.612C298.545 138.492 297.986 138.346 297.419 138.174C296.852 138.002 296.327 137.787 295.846 137.529C295.382 137.254 295.004 136.91 294.712 136.498C294.42 136.068 294.274 135.544 294.274 134.925C294.274 133.791 294.72 132.837 295.614 132.064C296.525 131.29 297.797 130.904 299.43 130.904C300.942 130.904 302.145 131.256 303.039 131.961C303.95 132.665 304.491 133.636 304.663 134.874H301.544C301.355 133.929 300.641 133.456 299.404 133.456C298.785 133.456 298.304 133.576 297.96 133.817C297.634 134.058 297.47 134.358 297.47 134.719C297.47 135.097 297.72 135.398 298.218 135.621C298.716 135.845 299.378 136.051 300.203 136.24C301.097 136.446 301.913 136.678 302.652 136.936C303.408 137.177 304.01 137.546 304.457 138.045C304.904 138.526 305.127 139.222 305.127 140.133C305.144 140.924 304.938 141.637 304.508 142.273C304.079 142.909 303.46 143.407 302.652 143.768C301.844 144.129 300.891 144.309 299.791 144.309Z" fill="#505050"/>
<rect x="0.5" y="98.5" width="326" height="73" rx="8.5" stroke="#16B0AF"/>
<path d="M379.714 144.309C378.39 144.309 377.196 144.052 376.13 143.536C375.065 143.003 374.214 142.204 373.578 141.138C372.959 140.073 372.65 138.724 372.65 137.091V125.954H375.95V137.117C375.95 138.526 376.285 139.574 376.955 140.262C377.643 140.949 378.588 141.293 379.791 141.293C380.977 141.293 381.914 140.949 382.601 140.262C383.288 139.574 383.632 138.526 383.632 137.117V125.954H386.932V137.091C386.932 138.724 386.605 140.073 385.952 141.138C385.299 142.204 384.423 143.003 383.323 143.536C382.24 144.052 381.037 144.309 379.714 144.309ZM390.223 144V131.213H393.136L393.394 133.379C393.789 132.622 394.357 132.021 395.096 131.574C395.852 131.127 396.737 130.904 397.751 130.904C399.332 130.904 400.561 131.402 401.438 132.399C402.314 133.396 402.752 134.857 402.752 136.782V144H399.452V137.091C399.452 135.991 399.229 135.149 398.782 134.565C398.335 133.98 397.639 133.688 396.694 133.688C395.766 133.688 395.001 134.015 394.4 134.668C393.815 135.321 393.523 136.232 393.523 137.4V144H390.223ZM416.459 144.309C415.359 144.309 414.457 144.137 413.752 143.794C413.047 143.433 412.523 142.96 412.18 142.376C411.836 141.792 411.664 141.147 411.664 140.442C411.664 139.256 412.128 138.294 413.056 137.555C413.984 136.816 415.376 136.446 417.232 136.446H420.481V136.137C420.481 135.261 420.231 134.616 419.733 134.204C419.235 133.791 418.616 133.585 417.877 133.585C417.207 133.585 416.622 133.748 416.124 134.075C415.625 134.384 415.316 134.848 415.196 135.467H411.973C412.059 134.539 412.369 133.731 412.901 133.043C413.451 132.356 414.156 131.832 415.015 131.471C415.875 131.093 416.837 130.904 417.903 130.904C419.724 130.904 421.16 131.359 422.208 132.27C423.256 133.181 423.781 134.47 423.781 136.137V144H420.971L420.661 141.938C420.283 142.625 419.75 143.192 419.063 143.639C418.393 144.086 417.525 144.309 416.459 144.309ZM417.207 141.731C418.152 141.731 418.882 141.422 419.398 140.803C419.931 140.185 420.266 139.42 420.403 138.509H417.593C416.717 138.509 416.089 138.672 415.711 138.999C415.333 139.308 415.144 139.695 415.144 140.159C415.144 140.657 415.333 141.044 415.711 141.319C416.089 141.594 416.588 141.731 417.207 141.731ZM432.451 144C431.11 144 430.036 143.673 429.228 143.02C428.42 142.367 428.016 141.207 428.016 139.54V133.972H425.825V131.213H428.016L428.403 127.784H431.316V131.213H434.771V133.972H431.316V139.566C431.316 140.185 431.445 140.614 431.703 140.855C431.978 141.078 432.442 141.19 433.095 141.19H434.694V144H432.451ZM443.301 144C441.961 144 440.887 143.673 440.079 143.02C439.271 142.367 438.867 141.207 438.867 139.54V133.972H436.676V131.213H438.867L439.254 127.784H442.167V131.213H445.622V133.972H442.167V139.566C442.167 140.185 442.296 140.614 442.554 140.855C442.829 141.078 443.293 141.19 443.946 141.19H445.544V144H443.301ZM448.455 144V131.213H451.394L451.703 133.611C452.167 132.786 452.794 132.133 453.585 131.651C454.393 131.153 455.338 130.904 456.421 130.904V134.384H455.493C454.771 134.384 454.126 134.496 453.559 134.719C452.992 134.943 452.545 135.329 452.219 135.879C451.909 136.429 451.755 137.194 451.755 138.174V144H448.455ZM463.085 144.309C461.985 144.309 461.082 144.137 460.378 143.794C459.673 143.433 459.149 142.96 458.805 142.376C458.461 141.792 458.289 141.147 458.289 140.442C458.289 139.256 458.754 138.294 459.682 137.555C460.61 136.816 462.002 136.446 463.858 136.446H467.106V136.137C467.106 135.261 466.857 134.616 466.359 134.204C465.86 133.791 465.241 133.585 464.502 133.585C463.832 133.585 463.248 133.748 462.749 134.075C462.251 134.384 461.942 134.848 461.821 135.467H458.599C458.685 134.539 458.994 133.731 459.527 133.043C460.077 132.356 460.782 131.832 461.641 131.471C462.5 131.093 463.463 130.904 464.528 130.904C466.35 130.904 467.785 131.359 468.833 132.27C469.882 133.181 470.406 134.47 470.406 136.137V144H467.596L467.287 141.938C466.909 142.625 466.376 143.192 465.688 143.639C465.018 144.086 464.15 144.309 463.085 144.309ZM463.832 141.731C464.777 141.731 465.508 141.422 466.023 140.803C466.556 140.185 466.891 139.42 467.029 138.509H464.219C463.342 138.509 462.715 138.672 462.337 138.999C461.959 139.308 461.77 139.695 461.77 140.159C461.77 140.657 461.959 141.044 462.337 141.319C462.715 141.594 463.213 141.731 463.832 141.731ZM479.82 144.309C478.513 144.309 477.362 144.026 476.365 143.459C475.368 142.891 474.578 142.101 473.993 141.087C473.426 140.073 473.143 138.913 473.143 137.607C473.143 136.3 473.426 135.14 473.993 134.126C474.578 133.112 475.368 132.322 476.365 131.754C477.362 131.187 478.513 130.904 479.82 130.904C481.452 130.904 482.827 131.333 483.944 132.193C485.062 133.035 485.775 134.204 486.084 135.699H482.604C482.432 135.08 482.088 134.599 481.573 134.255C481.074 133.894 480.481 133.714 479.794 133.714C478.883 133.714 478.11 134.058 477.474 134.745C476.838 135.432 476.52 136.386 476.52 137.607C476.52 138.827 476.838 139.781 477.474 140.468C478.11 141.156 478.883 141.499 479.794 141.499C480.481 141.499 481.074 141.327 481.573 140.984C482.088 140.64 482.432 140.15 482.604 139.514H486.084C485.775 140.958 485.062 142.118 483.944 142.995C482.827 143.871 481.452 144.309 479.82 144.309ZM494.534 144C493.194 144 492.119 143.673 491.312 143.02C490.504 142.367 490.1 141.207 490.1 139.54V133.972H487.909V131.213H490.1L490.487 127.784H493.4V131.213H496.854V133.972H493.4V139.566C493.4 140.185 493.529 140.614 493.787 140.855C494.062 141.078 494.526 141.19 495.179 141.19H496.777V144H494.534ZM501.466 129.228C500.865 129.228 500.366 129.048 499.971 128.687C499.593 128.326 499.404 127.87 499.404 127.32C499.404 126.77 499.593 126.324 499.971 125.98C500.366 125.619 500.865 125.438 501.466 125.438C502.068 125.438 502.558 125.619 502.936 125.98C503.331 126.324 503.529 126.77 503.529 127.32C503.529 127.87 503.331 128.326 502.936 128.687C502.558 129.048 502.068 129.228 501.466 129.228ZM499.816 144V131.213H503.116V144H499.816ZM510.015 144L505.323 131.213H508.778L512.026 140.881L515.274 131.213H518.729L514.011 144H510.015ZM526.394 144.309C525.105 144.309 523.962 144.034 522.965 143.484C521.968 142.934 521.186 142.161 520.619 141.164C520.052 140.167 519.768 139.016 519.768 137.71C519.768 136.386 520.043 135.209 520.593 134.178C521.16 133.147 521.934 132.347 522.913 131.78C523.91 131.196 525.079 130.904 526.419 130.904C527.674 130.904 528.783 131.179 529.745 131.729C530.707 132.279 531.455 133.035 531.988 133.997C532.538 134.943 532.813 136 532.813 137.168C532.813 137.357 532.804 137.555 532.787 137.761C532.787 137.967 532.778 138.182 532.761 138.406H523.042C523.111 139.403 523.455 140.185 524.073 140.752C524.709 141.319 525.474 141.602 526.368 141.602C527.038 141.602 527.597 141.456 528.044 141.164C528.508 140.855 528.851 140.46 529.075 139.978H532.426C532.186 140.786 531.782 141.525 531.214 142.195C530.664 142.848 529.977 143.364 529.152 143.742C528.344 144.12 527.425 144.309 526.394 144.309ZM526.419 133.585C525.612 133.585 524.898 133.817 524.28 134.281C523.661 134.728 523.266 135.415 523.094 136.343H529.461C529.41 135.501 529.1 134.831 528.533 134.332C527.966 133.834 527.262 133.585 526.419 133.585ZM548.769 144.309C547.446 144.309 546.251 144.052 545.186 143.536C544.12 143.003 543.269 142.204 542.633 141.138C542.015 140.073 541.705 138.724 541.705 137.091V125.954H545.005V137.117C545.005 138.526 545.34 139.574 546.011 140.262C546.698 140.949 547.643 141.293 548.846 141.293C550.032 141.293 550.969 140.949 551.656 140.262C552.344 139.574 552.688 138.526 552.688 137.117V125.954H555.987V137.091C555.987 138.724 555.661 140.073 555.008 141.138C554.355 142.204 553.478 143.003 552.378 143.536C551.295 144.052 550.092 144.309 548.769 144.309ZM564.563 144.309C563.429 144.309 562.432 144.129 561.573 143.768C560.714 143.39 560.026 142.874 559.511 142.221C558.995 141.568 558.686 140.812 558.583 139.953H561.908C562.011 140.451 562.286 140.881 562.733 141.242C563.197 141.585 563.79 141.757 564.512 141.757C565.234 141.757 565.758 141.611 566.085 141.319C566.428 141.027 566.6 140.692 566.6 140.313C566.6 139.763 566.359 139.394 565.878 139.205C565.397 138.999 564.727 138.801 563.867 138.612C563.317 138.492 562.759 138.346 562.192 138.174C561.625 138.002 561.1 137.787 560.619 137.529C560.155 137.254 559.777 136.91 559.485 136.498C559.193 136.068 559.047 135.544 559.047 134.925C559.047 133.791 559.493 132.837 560.387 132.064C561.298 131.29 562.57 130.904 564.203 130.904C565.715 130.904 566.918 131.256 567.812 131.961C568.723 132.665 569.264 133.636 569.436 134.874H566.317C566.127 133.929 565.414 133.456 564.177 133.456C563.558 133.456 563.077 133.576 562.733 133.817C562.407 134.058 562.243 134.358 562.243 134.719C562.243 135.097 562.492 135.398 562.991 135.621C563.489 135.845 564.151 136.051 564.976 136.24C565.87 136.446 566.686 136.678 567.425 136.936C568.181 137.177 568.783 137.546 569.23 138.045C569.677 138.526 569.9 139.222 569.9 140.133C569.917 140.924 569.711 141.637 569.281 142.273C568.852 142.909 568.233 143.407 567.425 143.768C566.617 144.129 565.663 144.309 564.563 144.309ZM579.036 144.309C577.747 144.309 576.604 144.034 575.607 143.484C574.611 142.934 573.829 142.161 573.261 141.164C572.694 140.167 572.411 139.016 572.411 137.71C572.411 136.386 572.686 135.209 573.236 134.178C573.803 133.147 574.576 132.347 575.556 131.78C576.553 131.196 577.721 130.904 579.062 130.904C580.317 130.904 581.425 131.179 582.388 131.729C583.35 132.279 584.098 133.035 584.63 133.997C585.18 134.943 585.455 136 585.455 137.168C585.455 137.357 585.447 137.555 585.43 137.761C585.43 137.967 585.421 138.182 585.404 138.406H575.685C575.753 139.403 576.097 140.185 576.716 140.752C577.352 141.319 578.117 141.602 579.01 141.602C579.681 141.602 580.239 141.456 580.686 141.164C581.15 140.855 581.494 140.46 581.717 139.978H585.069C584.828 140.786 584.424 141.525 583.857 142.195C583.307 142.848 582.62 143.364 581.795 143.742C580.987 144.12 580.067 144.309 579.036 144.309ZM579.062 133.585C578.254 133.585 577.541 133.817 576.922 134.281C576.303 134.728 575.908 135.415 575.736 136.343H582.104C582.052 135.501 581.743 134.831 581.176 134.332C580.609 133.834 579.904 133.585 579.062 133.585ZM588.231 144V131.213H591.17L591.479 133.611C591.943 132.786 592.57 132.133 593.361 131.651C594.169 131.153 595.114 130.904 596.197 130.904V134.384H595.269C594.547 134.384 593.902 134.496 593.335 134.719C592.768 134.943 592.321 135.329 591.995 135.879C591.685 136.429 591.531 137.194 591.531 138.174V144H588.231ZM604.672 144V125.954H607.972V144H604.672ZM611.392 144V131.213H614.306L614.563 133.379C614.959 132.622 615.526 132.021 616.265 131.574C617.021 131.127 617.906 130.904 618.92 130.904C620.501 130.904 621.73 131.402 622.607 132.399C623.483 133.396 623.922 134.857 623.922 136.782V144H620.622V137.091C620.622 135.991 620.398 135.149 619.951 134.565C619.505 133.98 618.809 133.688 617.863 133.688C616.935 133.688 616.17 134.015 615.569 134.668C614.984 135.321 614.692 136.232 614.692 137.4V144H611.392ZM632.774 144C631.434 144 630.36 143.673 629.552 143.02C628.744 142.367 628.34 141.207 628.34 139.54V133.972H626.149V131.213H628.34L628.727 127.784H631.64V131.213H635.095V133.972H631.64V139.566C631.64 140.185 631.769 140.614 632.027 140.855C632.302 141.078 632.766 141.19 633.419 141.19H635.017V144H632.774ZM643.813 144.309C642.524 144.309 641.382 144.034 640.385 143.484C639.388 142.934 638.606 142.161 638.039 141.164C637.472 140.167 637.188 139.016 637.188 137.71C637.188 136.386 637.463 135.209 638.013 134.178C638.58 133.147 639.353 132.347 640.333 131.78C641.33 131.196 642.499 130.904 643.839 130.904C645.094 130.904 646.202 131.179 647.165 131.729C648.127 132.279 648.875 133.035 649.408 133.997C649.958 134.943 650.233 136 650.233 137.168C650.233 137.357 650.224 137.555 650.207 137.761C650.207 137.967 650.198 138.182 650.181 138.406H640.462C640.531 139.403 640.875 140.185 641.493 140.752C642.129 141.319 642.894 141.602 643.788 141.602C644.458 141.602 645.016 141.456 645.463 141.164C645.927 140.855 646.271 140.46 646.495 139.978H649.846C649.605 140.786 649.201 141.525 648.634 142.195C648.084 142.848 647.397 143.364 646.572 143.742C645.764 144.12 644.845 144.309 643.813 144.309ZM643.839 133.585C643.031 133.585 642.318 133.817 641.699 134.281C641.081 134.728 640.685 135.415 640.514 136.343H646.881C646.83 135.501 646.52 134.831 645.953 134.332C645.386 133.834 644.681 133.585 643.839 133.585ZM653.008 144V131.213H655.947L656.256 133.611C656.72 132.786 657.348 132.133 658.138 131.651C658.946 131.153 659.891 130.904 660.974 130.904V134.384H660.046C659.324 134.384 658.68 134.496 658.112 134.719C657.545 134.943 657.098 135.329 656.772 135.879C656.463 136.429 656.308 137.194 656.308 138.174V144H653.008ZM663.822 144V133.972H662.069V131.213H663.822V129.718C663.822 128.171 664.209 127.071 664.982 126.418C665.773 125.765 666.839 125.438 668.179 125.438H669.597V128.248H668.695C668.128 128.248 667.724 128.36 667.483 128.584C667.242 128.807 667.122 129.185 667.122 129.718V131.213H669.881V133.972H667.122V144H663.822ZM676.399 144.309C675.299 144.309 674.397 144.137 673.692 143.794C672.987 143.433 672.463 142.96 672.119 142.376C671.776 141.792 671.604 141.147 671.604 140.442C671.604 139.256 672.068 138.294 672.996 137.555C673.924 136.816 675.316 136.446 677.172 136.446H680.421V136.137C680.421 135.261 680.171 134.616 679.673 134.204C679.175 133.791 678.556 133.585 677.817 133.585C677.147 133.585 676.562 133.748 676.064 134.075C675.565 134.384 675.256 134.848 675.136 135.467H671.913C671.999 134.539 672.309 133.731 672.841 133.043C673.391 132.356 674.096 131.832 674.955 131.471C675.815 131.093 676.777 130.904 677.843 130.904C679.664 130.904 681.1 131.359 682.148 132.27C683.196 133.181 683.72 134.47 683.72 136.137V144H680.91L680.601 141.938C680.223 142.625 679.69 143.192 679.003 143.639C678.332 144.086 677.465 144.309 676.399 144.309ZM677.147 141.731C678.092 141.731 678.822 141.422 679.338 140.803C679.871 140.185 680.206 139.42 680.343 138.509H677.533C676.657 138.509 676.029 138.672 675.651 138.999C675.273 139.308 675.084 139.695 675.084 140.159C675.084 140.657 675.273 141.044 675.651 141.319C676.029 141.594 676.528 141.731 677.147 141.731ZM693.134 144.309C691.828 144.309 690.676 144.026 689.679 143.459C688.683 142.891 687.892 142.101 687.308 141.087C686.741 140.073 686.457 138.913 686.457 137.607C686.457 136.3 686.741 135.14 687.308 134.126C687.892 133.112 688.683 132.322 689.679 131.754C690.676 131.187 691.828 130.904 693.134 130.904C694.767 130.904 696.142 131.333 697.259 132.193C698.376 133.035 699.089 134.204 699.399 135.699H695.918C695.746 135.08 695.403 134.599 694.887 134.255C694.389 133.894 693.796 133.714 693.108 133.714C692.197 133.714 691.424 134.058 690.788 134.745C690.152 135.432 689.834 136.386 689.834 137.607C689.834 138.827 690.152 139.781 690.788 140.468C691.424 141.156 692.197 141.499 693.108 141.499C693.796 141.499 694.389 141.327 694.887 140.984C695.403 140.64 695.746 140.15 695.918 139.514H699.399C699.089 140.958 698.376 142.118 697.259 142.995C696.142 143.871 694.767 144.309 693.134 144.309ZM708.54 144.309C707.251 144.309 706.108 144.034 705.112 143.484C704.115 142.934 703.333 142.161 702.766 141.164C702.199 140.167 701.915 139.016 701.915 137.71C701.915 136.386 702.19 135.209 702.74 134.178C703.307 133.147 704.08 132.347 705.06 131.78C706.057 131.196 707.226 130.904 708.566 130.904C709.821 130.904 710.929 131.179 711.892 131.729C712.854 132.279 713.602 133.035 714.135 133.997C714.685 134.943 714.96 136 714.96 137.168C714.96 137.357 714.951 137.555 714.934 137.761C714.934 137.967 714.925 138.182 714.908 138.406H705.189C705.258 139.403 705.601 140.185 706.22 140.752C706.856 141.319 707.621 141.602 708.515 141.602C709.185 141.602 709.743 141.456 710.19 141.164C710.654 140.855 710.998 140.46 711.222 139.978H714.573C714.332 140.786 713.928 141.525 713.361 142.195C712.811 142.848 712.124 143.364 711.299 143.742C710.491 144.12 709.572 144.309 708.54 144.309ZM708.566 133.585C707.758 133.585 707.045 133.817 706.426 134.281C705.808 134.728 705.412 135.415 705.241 136.343H711.608C711.557 135.501 711.247 134.831 710.68 134.332C710.113 133.834 709.408 133.585 708.566 133.585Z" fill="#505050"/>
<rect x="351.5" y="98.5" width="385" height="73" rx="8.5" stroke="#16B0AF"/>
</svg>
