<svg width="1347" height="677" viewBox="0 0 1347 677" fill="none" xmlns="http://www.w3.org/2000/svg">
<path d="M318.725 426.326L317.585 426.958L315.999 425.994L60.8494 404.488L60.4141 406.271L317.004 427.911L367.447 459.948L368.909 459.358L370.681 460.849L369.562 461.295L539.755 569.396L541.952 568.12L318.922 426.461L318.725 426.336" fill="white"/>
<path d="M248.206 215.618L246.558 214.664L244.371 215.939L245.801 216.768L248.206 215.618V215.618ZM467.277 342.063L250.424 216.893L248.019 218.044L462.883 342.094L410.657 372.451L411.341 372.845L412.47 372.223L414.626 373.529L413.538 374.12L644.404 508.566L646.591 507.302L415.041 372.461L467.277 342.094" fill="white"/>
<path d="M412.469 372.224L411.34 372.845L315.438 425.652L315.998 425.994L317.584 426.957L318.724 426.326L413.537 374.12L414.625 373.529L412.469 372.224Z" fill="white"/>
<path d="M1208.81 475.618L1206.53 476.831L1206.79 477.007L1209.14 475.826L1208.81 475.618ZM973.636 319.811L971.439 321.086L1204.49 475.515L1206.76 474.302L973.636 319.874V319.811ZM582.807 60.8682L580.465 62.0493L969.397 319.728L971.595 318.443L582.807 60.8682Z" fill="white"/>
<path d="M1093.96 537.151L1091.68 538.374L1093.21 539.41L1095.56 538.239L1093.96 537.203V537.151ZM864.024 383.541L861.837 384.815L981.639 464.88L982.675 464.29L984.831 465.596L983.649 466.248L1089.61 537.058L1091.89 535.845L864.003 383.49L864.024 383.541ZM462.271 115.053L459.887 116.193L859.764 383.438L861.962 382.163L462.292 115.022L462.271 115.053ZM458.84 112.711L456.498 113.882L457.866 114.804L460.25 113.653L458.84 112.711" fill="white"/>
<path d="M331.452 177.934L329.058 179.084L753.903 444.909L756.09 443.633L331.452 177.902V177.934ZM328.27 175.902L325.99 177.125L326.944 177.726L329.338 176.575L328.301 175.902" fill="white"/>
<path d="M1345.69 401.026L1344.59 401.669L1343.44 401.005L1206.74 474.261L1204.47 475.473L1091.91 535.794L1089.63 537.007L832.713 674.686L644.32 655.046L642.123 656.268L639.957 654.963L640.527 654.642L434.411 633.156L431.758 634.701L430.949 634.618V634.628L832.93 676.542L833.687 676.614L1091.68 538.374L1093.96 537.151L1206.51 476.831L1208.79 475.618L1346.74 401.689L1345.69 401.026Z" fill="white"/>
<path d="M462.291 115.022L694.525 3.38762L1085.69 252.132L971.564 318.464L969.367 319.749L861.982 382.153L859.785 383.427L756.141 443.686L753.954 444.96L646.642 507.323L644.455 508.588L542.004 568.13L539.806 569.405L430.742 632.794L347.351 624.368C347.216 624.689 347.071 625.01 346.926 625.321L343.92 624.855L344.283 624.056L173.603 606.831C173.447 607.37 173.375 607.66 173.375 607.681L170.266 607.443C170.266 607.443 170.348 607.1 170.525 606.52L3.65861 589.667L88.9675 294.584L145.899 267.202L144.862 266.59L147.112 265.357L148.252 266.051L248.05 218.064L250.454 216.913L329.089 179.105L331.483 177.954L459.939 116.183L462.322 115.043L462.291 115.022ZM694.847 0.889648L460.25 113.654L457.866 114.804L329.348 176.607L326.954 177.758L248.185 215.618L245.78 216.769L86.4594 293.382L86.0241 293.599L0.259109 590.227L0 591.108L430.95 634.638L431.758 634.721L434.411 633.177L861.837 384.785L864.024 383.51L971.419 321.106L973.616 319.832L1087.84 253.5L1343.45 401.078L1344.59 401.741L1345.69 401.099L1346.72 400.467L1088.9 251.614L694.764 0.941268" fill="white"/>
<path d="M147.081 265.336L144.821 266.569L145.827 267.18L361.395 398.767L363.644 397.523L148.221 266.03L147.081 265.336Z" fill="white"/>
<path d="M982.696 464.238L981.638 464.828L640.527 654.642L639.957 654.962L642.123 656.268L644.32 655.045L983.68 466.197L984.851 465.544L982.696 464.238Z" fill="white"/>
<path d="M368.909 459.346L367.447 459.937C351.704 466.259 228.181 516.609 202.26 550.987C178.422 582.557 171.779 602.146 170.493 606.499C170.317 607.08 170.234 607.39 170.234 607.421L173.344 607.66C173.344 607.66 173.416 607.349 173.572 606.81C174.805 602.664 181.407 583.189 205.131 551.713C213.112 541.141 230.918 528.839 252.019 516.775L250.983 516.454L252.372 514.848L254.351 515.459C300.38 489.465 360.659 464.88 369.593 461.284L370.712 460.839L368.94 459.346" fill="white"/>
<path d="M302.608 536.706C287.264 528.026 271.087 520.908 254.321 515.459L252.341 514.848L250.952 516.454L251.989 516.775C268.8 522.16 285.016 529.255 300.38 537.949C303.572 539.804 306.775 541.774 309.915 543.847C334.686 560.284 360.638 587.491 344.221 624.036L343.858 624.833L346.864 625.3C347.009 624.989 347.154 624.668 347.289 624.346C354.544 608.043 354.274 592.217 346.356 577.22C339.909 565.031 328.436 553.382 312.247 542.665C309.075 540.593 305.842 538.571 302.598 536.706" fill="white"/>
<path opacity="0.1" d="M318.651 486.958C292.803 472.044 292.657 447.832 318.34 432.908C344.023 417.983 385.812 417.983 411.619 432.908C437.427 447.832 437.613 472.044 411.93 486.968C386.247 501.893 344.458 501.893 318.651 486.968V486.958ZM434.908 419.403C396.135 397.016 333.462 397.016 294.989 419.403C256.517 441.79 256.641 478.096 295.445 500.483C334.25 522.87 396.902 522.881 435.426 500.483C473.951 478.086 473.774 441.79 434.96 419.392" fill="white"/>
<path opacity="0.19" d="M344.811 471.765C333.493 465.235 333.41 454.642 344.676 448.113C355.943 441.583 374.194 441.583 385.502 448.113C396.809 454.642 396.902 465.235 385.636 471.765C374.37 478.294 356.119 478.294 344.811 471.765ZM411.661 432.908C385.813 417.984 344.024 417.984 318.382 432.908C292.741 447.833 292.844 472.045 318.693 486.959C344.542 501.873 386.331 501.894 411.972 486.959C437.614 472.024 437.51 447.823 411.661 432.898" fill="white"/>
<path d="M385.501 448.113C374.194 441.583 355.911 441.583 344.676 448.113C333.441 454.643 333.493 465.235 344.811 471.765C356.129 478.294 374.401 478.294 385.636 471.765C396.871 465.235 396.819 454.643 385.501 448.113Z" fill="white"/>
<path opacity="0.1" d="M828.008 401.026C807.031 388.91 806.917 369.27 827.759 357.154C848.602 345.038 882.514 345.048 903.492 357.154C924.469 369.26 924.583 388.9 903.74 401.016C882.898 413.132 848.996 413.132 828.008 401.016V401.026ZM922.324 346.178C890.847 328.01 839.989 328.02 808.73 346.178C777.471 364.337 777.637 393.802 809.103 411.971C840.57 430.139 891.427 430.139 922.697 411.971C953.966 393.802 953.79 364.347 922.324 346.168" fill="white"/>
<path opacity="0.19" d="M849.233 388.692C840.061 383.386 840.019 374.794 849.14 369.498C858.261 364.202 873.082 364.202 882.306 369.498C891.53 374.794 891.541 383.386 882.42 388.692C873.299 393.999 858.458 393.989 849.254 388.692H849.233ZM903.512 357.164C882.534 345.048 848.58 345.048 827.779 357.164C806.978 369.28 807.05 388.921 828.028 401.036C849.005 413.152 882.959 413.152 903.76 401.036C924.562 388.921 924.489 369.29 903.512 357.174" fill="white"/>
<path d="M882.264 369.499C873.082 364.202 858.25 364.202 849.099 369.499C839.947 374.795 840.019 383.386 849.192 388.693C858.364 393.999 873.216 393.989 882.358 388.693C891.499 383.397 891.416 374.795 882.244 369.499" fill="white"/>
<path opacity="0.1" d="M496.358 184.411C475.37 172.295 475.256 152.665 496.109 140.549C516.962 128.433 550.853 128.433 571.841 140.549C592.829 152.665 592.922 172.295 572.08 184.411C551.237 196.527 517.335 196.527 496.358 184.411V184.411ZM590.673 129.584C559.207 111.415 508.349 111.404 477.08 129.584C445.811 147.763 445.987 177.208 477.453 195.377C508.919 213.546 559.777 213.546 591.046 195.377C622.316 177.208 622.139 147.752 590.673 129.584Z" fill="white"/>
<path opacity="0.19" d="M517.584 172.077C508.401 166.771 508.36 158.179 517.47 152.883C526.58 147.587 541.422 147.587 550.636 152.883C559.85 158.179 559.86 166.771 550.739 172.077C541.619 177.384 526.787 177.373 517.573 172.077H517.584ZM571.831 140.549C550.843 128.433 516.9 128.433 496.099 140.549C475.297 152.665 475.37 172.295 496.347 184.411C517.325 196.527 551.226 196.527 572.069 184.411C592.912 172.295 592.798 152.654 571.831 140.549Z" fill="white"/>
<path d="M550.604 152.883C541.421 147.587 526.59 147.587 517.438 152.883C508.286 158.179 508.369 166.771 517.552 172.078C526.735 177.384 541.566 177.374 550.718 172.078C559.869 166.781 559.797 158.19 550.614 152.883" fill="white"/>
<path d="M318.402 295.983C315.146 295.974 311.94 296.792 309.086 298.36C306.233 299.928 303.823 302.194 302.084 304.947C300.345 307.7 299.334 310.849 299.144 314.1C298.954 317.35 299.593 320.596 301 323.532C306.797 333.786 312.598 344.03 318.402 354.263C324.206 344.023 330.006 333.779 335.803 323.532C337.21 320.596 337.849 317.35 337.659 314.1C337.47 310.849 336.458 307.7 334.719 304.947C332.98 302.194 330.571 299.928 327.717 298.36C324.863 296.792 321.658 295.974 318.402 295.983V295.983Z" fill="white"/>
<path d="M318.402 314.786C320.738 314.786 322.631 312.892 322.631 310.557C322.631 308.221 320.738 306.328 318.402 306.328C316.067 306.328 314.174 308.221 314.174 310.557C314.174 312.892 316.067 314.786 318.402 314.786Z" fill="#0B66EB"/>
<path d="M326.954 323.822H309.863C310.49 322.058 311.648 320.53 313.179 319.45C314.709 318.37 316.536 317.79 318.409 317.79C320.282 317.79 322.109 318.37 323.639 319.45C325.169 320.53 326.327 322.058 326.954 323.822V323.822Z" fill="#0B66EB"/>
<path d="M874.968 295.983C871.712 295.974 868.507 296.792 865.653 298.36C862.799 299.928 860.39 302.194 858.651 304.947C856.912 307.7 855.9 310.849 855.71 314.1C855.521 317.35 856.159 320.596 857.566 323.532C863.364 333.786 869.164 344.03 874.968 354.263C880.772 344.023 886.573 333.779 892.37 323.532C893.777 320.596 894.416 317.35 894.226 314.1C894.036 310.849 893.025 307.7 891.286 304.947C889.547 302.194 887.137 299.928 884.283 298.36C881.43 296.792 878.224 295.974 874.968 295.983V295.983Z" fill="white"/>
<path d="M874.969 314.786C877.304 314.786 879.197 312.892 879.197 310.557C879.197 308.221 877.304 306.328 874.969 306.328C872.633 306.328 870.74 308.221 870.74 310.557C870.74 312.892 872.633 314.786 874.969 314.786Z" fill="#0B66EB"/>
<path d="M883.519 323.822H866.428C867.055 322.058 868.213 320.53 869.743 319.45C871.273 318.37 873.1 317.79 874.973 317.79C876.846 317.79 878.673 318.37 880.203 319.45C881.733 320.53 882.891 322.058 883.519 323.822V323.822Z" fill="#0B66EB"/>
<path d="M421.018 539.658V541.296H417.758V551.903H415.75V541.296H412.472V539.658H421.018ZM430.434 549.401H425.307L424.426 551.903H422.33L426.717 539.64H429.043L433.43 551.903H431.315L430.434 549.401ZM429.871 547.763L427.88 542.072L425.871 547.763H429.871ZM439.372 552.027C438.55 552.027 437.81 551.886 437.152 551.604C436.494 551.31 435.977 550.899 435.602 550.37C435.226 549.842 435.038 549.225 435.038 548.52H437.187C437.234 549.049 437.44 549.484 437.804 549.824C438.18 550.165 438.703 550.335 439.372 550.335C440.065 550.335 440.606 550.171 440.993 549.842C441.381 549.501 441.575 549.067 441.575 548.538C441.575 548.127 441.451 547.792 441.205 547.534C440.97 547.275 440.67 547.076 440.306 546.935C439.954 546.794 439.46 546.641 438.826 546.477C438.027 546.265 437.375 546.054 436.87 545.842C436.377 545.619 435.954 545.278 435.602 544.82C435.249 544.362 435.073 543.751 435.073 542.988C435.073 542.283 435.249 541.666 435.602 541.138C435.954 540.609 436.447 540.204 437.082 539.922C437.716 539.64 438.45 539.499 439.284 539.499C440.47 539.499 441.44 539.799 442.191 540.398C442.955 540.985 443.378 541.796 443.46 542.829H441.24C441.205 542.383 440.993 542.001 440.606 541.684C440.218 541.367 439.707 541.208 439.073 541.208C438.497 541.208 438.027 541.355 437.663 541.649C437.299 541.942 437.117 542.365 437.117 542.917C437.117 543.293 437.228 543.605 437.452 543.851C437.687 544.086 437.98 544.274 438.333 544.415C438.685 544.556 439.167 544.709 439.777 544.873C440.588 545.096 441.246 545.32 441.751 545.543C442.268 545.766 442.702 546.112 443.055 546.582C443.419 547.04 443.601 547.657 443.601 548.432C443.601 549.055 443.43 549.642 443.09 550.194C442.761 550.746 442.273 551.193 441.627 551.533C440.993 551.862 440.241 552.027 439.372 552.027ZM452.719 551.903L447.98 546.424V551.903H445.971V539.658H447.98V545.243L452.737 539.658H455.256L449.935 545.789L455.344 551.903H452.719ZM463.636 550.159H469.327V551.903H461.257V550.335L466.931 541.402H461.257V539.658H469.327V541.226L463.636 550.159ZM477.108 552.027C475.968 552.027 474.917 551.762 473.954 551.234C473.002 550.693 472.245 549.948 471.681 548.996C471.129 548.033 470.853 546.952 470.853 545.754C470.853 544.556 471.129 543.481 471.681 542.53C472.245 541.578 473.002 540.838 473.954 540.31C474.917 539.769 475.968 539.499 477.108 539.499C478.259 539.499 479.31 539.769 480.262 540.31C481.225 540.838 481.982 541.578 482.535 542.53C483.087 543.481 483.363 544.556 483.363 545.754C483.363 546.952 483.087 548.033 482.535 548.996C481.982 549.948 481.225 550.693 480.262 551.234C479.31 551.762 478.259 552.027 477.108 552.027ZM477.108 550.282C477.918 550.282 478.641 550.1 479.275 549.736C479.909 549.36 480.403 548.832 480.755 548.15C481.119 547.457 481.301 546.659 481.301 545.754C481.301 544.85 481.119 544.057 480.755 543.376C480.403 542.694 479.909 542.172 479.275 541.807C478.641 541.443 477.918 541.261 477.108 541.261C476.297 541.261 475.575 541.443 474.941 541.807C474.306 542.172 473.807 542.694 473.443 543.376C473.091 544.057 472.914 544.85 472.914 545.754C472.914 546.659 473.091 547.457 473.443 548.15C473.807 548.832 474.306 549.36 474.941 549.736C475.575 550.1 476.297 550.282 477.108 550.282ZM495.4 551.903H493.391L487.348 542.759V551.903H485.339V539.64H487.348L493.391 548.767V539.64H495.4V551.903ZM500.046 541.279V544.873H504.275V546.512H500.046V550.265H504.803V551.903H498.038V539.64H504.803V541.279H500.046Z" fill="white"/>
<path d="M859.43 448.452V450.09H856.17V460.697H854.162V450.09H850.884V448.452H859.43ZM868.847 458.195H863.719L862.838 460.697H860.742L865.129 448.434H867.455L871.842 460.697H869.728L868.847 458.195ZM868.283 456.557L866.292 450.866L864.283 456.557H868.283ZM877.784 460.821C876.962 460.821 876.222 460.68 875.564 460.398C874.906 460.104 874.39 459.693 874.014 459.164C873.638 458.636 873.45 458.019 873.45 457.314H875.599C875.646 457.843 875.852 458.278 876.216 458.618C876.592 458.959 877.115 459.129 877.784 459.129C878.477 459.129 879.018 458.965 879.405 458.636C879.793 458.295 879.987 457.861 879.987 457.332C879.987 456.921 879.863 456.586 879.617 456.328C879.382 456.069 879.082 455.87 878.718 455.729C878.366 455.588 877.872 455.435 877.238 455.27C876.439 455.059 875.787 454.848 875.282 454.636C874.789 454.413 874.366 454.072 874.014 453.614C873.661 453.156 873.485 452.545 873.485 451.782C873.485 451.077 873.661 450.46 874.014 449.932C874.366 449.403 874.859 448.998 875.494 448.716C876.128 448.434 876.862 448.293 877.696 448.293C878.883 448.293 879.852 448.593 880.603 449.192C881.367 449.779 881.79 450.59 881.872 451.623H879.652C879.617 451.177 879.405 450.795 879.018 450.478C878.63 450.161 878.119 450.002 877.485 450.002C876.909 450.002 876.439 450.149 876.075 450.443C875.711 450.736 875.529 451.159 875.529 451.711C875.529 452.087 875.641 452.399 875.864 452.645C876.099 452.88 876.392 453.068 876.745 453.209C877.097 453.35 877.579 453.503 878.19 453.667C879 453.89 879.658 454.113 880.163 454.337C880.68 454.56 881.114 454.906 881.467 455.376C881.831 455.834 882.013 456.451 882.013 457.226C882.013 457.849 881.843 458.436 881.502 458.988C881.173 459.54 880.686 459.987 880.04 460.327C879.405 460.656 878.653 460.821 877.784 460.821ZM891.131 460.697L886.392 455.218V460.697H884.383V448.452H886.392V454.037L891.149 448.452H893.668L888.347 454.583L893.757 460.697H891.131ZM902.048 458.953H907.739V460.697H899.669V459.129L905.343 450.196H899.669V448.452H907.739V450.02L902.048 458.953ZM915.52 460.821C914.381 460.821 913.329 460.556 912.366 460.028C911.415 459.487 910.657 458.742 910.093 457.79C909.541 456.827 909.265 455.746 909.265 454.548C909.265 453.35 909.541 452.275 910.093 451.324C910.657 450.372 911.415 449.632 912.366 449.104C913.329 448.563 914.381 448.293 915.52 448.293C916.671 448.293 917.722 448.563 918.674 449.104C919.637 449.632 920.395 450.372 920.947 451.324C921.499 452.275 921.775 453.35 921.775 454.548C921.775 455.746 921.499 456.827 920.947 457.79C920.395 458.742 919.637 459.487 918.674 460.028C917.722 460.556 916.671 460.821 915.52 460.821ZM915.52 459.076C916.33 459.076 917.053 458.894 917.687 458.53C918.321 458.154 918.815 457.626 919.167 456.944C919.531 456.251 919.713 455.453 919.713 454.548C919.713 453.644 919.531 452.851 919.167 452.169C918.815 451.488 918.321 450.965 917.687 450.601C917.053 450.237 916.33 450.055 915.52 450.055C914.709 450.055 913.987 450.237 913.353 450.601C912.718 450.965 912.219 451.488 911.855 452.169C911.503 452.851 911.326 453.644 911.326 454.548C911.326 455.453 911.503 456.251 911.855 456.944C912.219 457.626 912.718 458.154 913.353 458.53C913.987 458.894 914.709 459.076 915.52 459.076ZM933.812 460.697H931.803L925.76 451.553V460.697H923.751V448.434H925.76L931.803 457.561V448.434H933.812V460.697ZM938.458 450.073V453.667H942.687V455.306H938.458V459.059H943.216V460.697H936.45V448.434H943.216V450.073H938.458Z" fill="white"/>
<path d="M512.225 231.837V233.475H508.965V244.082H506.957V233.475H503.679V231.837H512.225ZM521.641 241.58H516.514L515.633 244.082H513.537L517.924 231.819H520.25L524.637 244.082H522.522L521.641 241.58ZM521.078 239.941L519.087 234.25L517.078 239.941H521.078ZM530.579 244.205C529.757 244.205 529.017 244.064 528.359 243.783C527.701 243.489 527.185 243.078 526.809 242.549C526.433 242.021 526.245 241.404 526.245 240.699H528.394C528.441 241.228 528.647 241.662 529.011 242.003C529.387 242.344 529.91 242.514 530.579 242.514C531.272 242.514 531.813 242.349 532.2 242.021C532.588 241.68 532.782 241.245 532.782 240.717C532.782 240.306 532.658 239.971 532.412 239.712C532.177 239.454 531.877 239.254 531.513 239.113C531.161 238.972 530.667 238.82 530.033 238.655C529.234 238.444 528.582 238.232 528.077 238.021C527.584 237.798 527.161 237.457 526.809 236.999C526.456 236.541 526.28 235.93 526.28 235.167C526.28 234.462 526.456 233.845 526.809 233.317C527.161 232.788 527.654 232.383 528.289 232.101C528.923 231.819 529.657 231.678 530.491 231.678C531.677 231.678 532.647 231.978 533.398 232.577C534.162 233.164 534.585 233.974 534.667 235.008H532.447C532.412 234.562 532.2 234.18 531.813 233.863C531.425 233.546 530.914 233.387 530.28 233.387C529.704 233.387 529.234 233.534 528.87 233.828C528.506 234.121 528.324 234.544 528.324 235.096C528.324 235.472 528.436 235.783 528.659 236.03C528.894 236.265 529.187 236.453 529.54 236.594C529.892 236.735 530.374 236.887 530.984 237.052C531.795 237.275 532.453 237.498 532.958 237.721C533.475 237.945 533.909 238.291 534.262 238.761C534.626 239.219 534.808 239.836 534.808 240.611C534.808 241.234 534.638 241.821 534.297 242.373C533.968 242.925 533.481 243.371 532.834 243.712C532.2 244.041 531.448 244.205 530.579 244.205ZM543.926 244.082L539.187 238.602V244.082H537.178V231.837H539.187V237.422L543.944 231.837H546.463L541.142 237.968L546.551 244.082H543.926ZM554.843 242.338H560.534V244.082H552.464V242.514L558.138 233.581H552.464V231.837H560.534V233.405L554.843 242.338ZM568.315 244.205C567.175 244.205 566.124 243.941 565.161 243.412C564.21 242.872 563.452 242.126 562.888 241.175C562.336 240.212 562.06 239.131 562.06 237.933C562.06 236.735 562.336 235.66 562.888 234.709C563.452 233.757 564.21 233.017 565.161 232.488C566.124 231.948 567.175 231.678 568.315 231.678C569.466 231.678 570.517 231.948 571.469 232.488C572.432 233.017 573.19 233.757 573.742 234.709C574.294 235.66 574.57 236.735 574.57 237.933C574.57 239.131 574.294 240.212 573.742 241.175C573.19 242.126 572.432 242.872 571.469 243.412C570.517 243.941 569.466 244.205 568.315 244.205ZM568.315 242.461C569.125 242.461 569.848 242.279 570.482 241.915C571.116 241.539 571.61 241.01 571.962 240.329C572.326 239.636 572.508 238.837 572.508 237.933C572.508 237.028 572.326 236.236 571.962 235.554C571.61 234.873 571.116 234.35 570.482 233.986C569.848 233.622 569.125 233.44 568.315 233.44C567.504 233.44 566.782 233.622 566.148 233.986C565.513 234.35 565.014 234.873 564.65 235.554C564.298 236.236 564.121 237.028 564.121 237.933C564.121 238.837 564.298 239.636 564.65 240.329C565.014 241.01 565.513 241.539 566.148 241.915C566.782 242.279 567.504 242.461 568.315 242.461ZM586.607 244.082H584.598L578.555 234.938V244.082H576.546V231.819H578.555L584.598 240.946V231.819H586.607V244.082ZM591.253 233.458V237.052H595.482V238.69H591.253V242.443H596.01V244.082H589.245V231.819H596.01V233.458H591.253Z" fill="white"/>
<path d="M1105.99 220.211H855.639C852.085 220.211 849.203 223.093 849.203 226.647V262.829C849.203 266.384 852.085 269.265 855.639 269.265H1105.99C1109.54 269.265 1112.43 266.384 1112.43 262.829V226.647C1112.43 223.093 1109.54 220.211 1105.99 220.211Z" fill="#28D144"/>
<path d="M781.564 7.11914H531.214C527.659 7.11914 524.777 10.0007 524.777 13.5554V49.7375C524.777 53.2921 527.659 56.1737 531.214 56.1737H781.564C785.119 56.1737 788.001 53.2921 788.001 49.7375V13.5554C788.001 10.0007 785.119 7.11914 781.564 7.11914Z" fill="#28D144"/>
<path d="M916.568 242.179V243.67H913.601V253.322H911.774V243.67H908.791V242.179H916.568ZM925.137 251.045H920.471L919.669 253.322H917.761L921.754 242.163H923.87L927.863 253.322H925.939L925.137 251.045ZM924.624 249.554L922.812 244.375L920.984 249.554H924.624ZM933.27 253.435C932.522 253.435 931.849 253.306 931.25 253.05C930.651 252.782 930.181 252.408 929.839 251.927C929.497 251.446 929.326 250.885 929.326 250.244H931.282C931.325 250.725 931.512 251.12 931.843 251.43C932.185 251.74 932.661 251.895 933.27 251.895C933.901 251.895 934.393 251.746 934.745 251.446C935.098 251.136 935.274 250.741 935.274 250.26C935.274 249.886 935.162 249.581 934.938 249.346C934.724 249.111 934.451 248.929 934.12 248.801C933.799 248.673 933.35 248.534 932.773 248.384C932.046 248.191 931.453 247.999 930.993 247.807C930.544 247.604 930.16 247.294 929.839 246.877C929.518 246.46 929.358 245.904 929.358 245.209C929.358 244.568 929.518 244.007 929.839 243.526C930.16 243.045 930.609 242.676 931.186 242.419C931.763 242.163 932.431 242.035 933.19 242.035C934.27 242.035 935.151 242.307 935.836 242.852C936.53 243.387 936.915 244.124 936.99 245.065H934.97C934.938 244.659 934.745 244.311 934.393 244.023C934.04 243.734 933.575 243.59 932.998 243.59C932.474 243.59 932.046 243.723 931.715 243.991C931.384 244.258 931.218 244.643 931.218 245.145C931.218 245.487 931.319 245.77 931.523 245.995C931.736 246.209 932.004 246.38 932.324 246.508C932.645 246.636 933.083 246.775 933.639 246.925C934.377 247.128 934.975 247.331 935.435 247.534C935.905 247.737 936.301 248.053 936.621 248.48C936.953 248.897 937.118 249.458 937.118 250.164C937.118 250.73 936.963 251.265 936.653 251.767C936.354 252.269 935.91 252.676 935.322 252.986C934.745 253.285 934.061 253.435 933.27 253.435ZM945.416 253.322L941.103 248.336V253.322H939.275V242.179H941.103V247.262L945.432 242.179H947.725L942.883 247.759L947.805 253.322H945.416ZM957.258 253.435C956.51 253.435 955.836 253.306 955.238 253.05C954.639 252.782 954.169 252.408 953.827 251.927C953.485 251.446 953.314 250.885 953.314 250.244H955.27C955.313 250.725 955.5 251.12 955.831 251.43C956.173 251.74 956.649 251.895 957.258 251.895C957.889 251.895 958.38 251.746 958.733 251.446C959.086 251.136 959.262 250.741 959.262 250.26C959.262 249.886 959.15 249.581 958.926 249.346C958.712 249.111 958.439 248.929 958.108 248.801C957.787 248.673 957.338 248.534 956.761 248.384C956.034 248.191 955.441 247.999 954.981 247.807C954.532 247.604 954.147 247.294 953.827 246.877C953.506 246.46 953.346 245.904 953.346 245.209C953.346 244.568 953.506 244.007 953.827 243.526C954.147 243.045 954.596 242.676 955.174 242.419C955.751 242.163 956.419 242.035 957.178 242.035C958.257 242.035 959.139 242.307 959.823 242.852C960.518 243.387 960.903 244.124 960.978 245.065H958.958C958.926 244.659 958.733 244.311 958.38 244.023C958.028 243.734 957.563 243.59 956.985 243.59C956.462 243.59 956.034 243.723 955.703 243.991C955.371 244.258 955.206 244.643 955.206 245.145C955.206 245.487 955.307 245.77 955.51 245.995C955.724 246.209 955.991 246.38 956.312 246.508C956.633 246.636 957.071 246.775 957.627 246.925C958.364 247.128 958.963 247.331 959.423 247.534C959.893 247.737 960.288 248.053 960.609 248.48C960.94 248.897 961.106 249.458 961.106 250.164C961.106 250.73 960.951 251.265 960.641 251.767C960.342 252.269 959.898 252.676 959.31 252.986C958.733 253.285 958.049 253.435 957.258 253.435ZM970.462 242.179V243.67H967.496V253.322H965.668V243.67H962.686V242.179H970.462ZM979.031 251.045H974.365L973.564 253.322H971.656L975.648 242.163H977.765L981.757 253.322H979.833L979.031 251.045ZM978.518 249.554L976.706 244.375L974.879 249.554H978.518ZM990.692 242.179V243.67H987.726V253.322H985.898V243.67H982.916V242.179H990.692ZM994.355 242.179V249.282C994.355 250.126 994.574 250.762 995.012 251.19C995.461 251.617 996.081 251.831 996.872 251.831C997.674 251.831 998.294 251.617 998.732 251.19C999.181 250.762 999.405 250.126 999.405 249.282V242.179H1001.23V249.25C1001.23 250.158 1001.04 250.928 1000.64 251.559C1000.24 252.189 999.715 252.66 999.053 252.97C998.39 253.28 997.658 253.435 996.856 253.435C996.054 253.435 995.322 253.28 994.66 252.97C994.007 252.66 993.489 252.189 993.104 251.559C992.719 250.928 992.527 250.158 992.527 249.25V242.179H994.355ZM1007.28 253.435C1006.54 253.435 1005.86 253.306 1005.26 253.05C1004.67 252.782 1004.2 252.408 1003.85 251.927C1003.51 251.446 1003.34 250.885 1003.34 250.244H1005.3C1005.34 250.725 1005.53 251.12 1005.86 251.43C1006.2 251.74 1006.68 251.895 1007.28 251.895C1007.92 251.895 1008.41 251.746 1008.76 251.446C1009.11 251.136 1009.29 250.741 1009.29 250.26C1009.29 249.886 1009.18 249.581 1008.95 249.346C1008.74 249.111 1008.47 248.929 1008.13 248.801C1007.81 248.673 1007.37 248.534 1006.79 248.384C1006.06 248.191 1005.47 247.999 1005.01 247.807C1004.56 247.604 1004.17 247.294 1003.85 246.877C1003.53 246.46 1003.37 245.904 1003.37 245.209C1003.37 244.568 1003.53 244.007 1003.85 243.526C1004.17 243.045 1004.62 242.676 1005.2 242.419C1005.78 242.163 1006.45 242.035 1007.2 242.035C1008.28 242.035 1009.17 242.307 1009.85 242.852C1010.55 243.387 1010.93 244.124 1011 245.065H1008.98C1008.95 244.659 1008.76 244.311 1008.41 244.023C1008.05 243.734 1007.59 243.59 1007.01 243.59C1006.49 243.59 1006.06 243.723 1005.73 243.991C1005.4 244.258 1005.23 244.643 1005.23 245.145C1005.23 245.487 1005.33 245.77 1005.54 245.995C1005.75 246.209 1006.02 246.38 1006.34 246.508C1006.66 246.636 1007.1 246.775 1007.65 246.925C1008.39 247.128 1008.99 247.331 1009.45 247.534C1009.92 247.737 1010.32 248.053 1010.64 248.48C1010.97 248.897 1011.13 249.458 1011.13 250.164C1011.13 250.73 1010.98 251.265 1010.67 251.767C1010.37 252.269 1009.93 252.676 1009.34 252.986C1008.76 253.285 1008.08 253.435 1007.28 253.435ZM1019.27 242.179V249.282C1019.27 250.126 1019.49 250.762 1019.92 251.19C1020.37 251.617 1020.99 251.831 1021.78 251.831C1022.59 251.831 1023.21 251.617 1023.64 251.19C1024.09 250.762 1024.32 250.126 1024.32 249.282V242.179H1026.14V249.25C1026.14 250.158 1025.95 250.928 1025.55 251.559C1025.16 252.189 1024.63 252.66 1023.96 252.97C1023.3 253.28 1022.57 253.435 1021.77 253.435C1020.97 253.435 1020.23 253.28 1019.57 252.97C1018.92 252.66 1018.4 252.189 1018.02 251.559C1017.63 250.928 1017.44 250.158 1017.44 249.25V242.179H1019.27ZM1036.32 245.498C1036.32 246.064 1036.18 246.599 1035.92 247.101C1035.65 247.604 1035.22 248.015 1034.63 248.336C1034.05 248.646 1033.29 248.801 1032.37 248.801H1030.35V253.322H1028.52V242.179H1032.37C1033.23 242.179 1033.95 242.329 1034.54 242.628C1035.14 242.916 1035.58 243.312 1035.87 243.814C1036.17 244.317 1036.32 244.878 1036.32 245.498ZM1032.37 247.31C1033.07 247.31 1033.59 247.155 1033.93 246.845C1034.27 246.524 1034.44 246.075 1034.44 245.498C1034.44 244.279 1033.75 243.67 1032.37 243.67H1030.35V247.31H1032.37ZM1041.7 242.179C1042.89 242.179 1043.92 242.409 1044.81 242.868C1045.71 243.317 1046.4 243.969 1046.88 244.824C1047.37 245.669 1047.62 246.658 1047.62 247.791C1047.62 248.924 1047.37 249.907 1046.88 250.741C1046.4 251.575 1045.71 252.216 1044.81 252.665C1043.92 253.103 1042.89 253.322 1041.7 253.322H1038.06V242.179H1041.7ZM1041.7 251.831C1043 251.831 1044 251.478 1044.7 250.773C1045.39 250.067 1045.74 249.073 1045.74 247.791C1045.74 246.497 1045.39 245.487 1044.7 244.76C1044 244.033 1043 243.67 1041.7 243.67H1039.89V251.831H1041.7ZM1056.15 251.045H1051.48L1050.68 253.322H1048.77L1052.76 242.163H1054.88L1058.87 253.322H1056.95L1056.15 251.045ZM1055.63 249.554L1053.82 244.375L1051.99 249.554H1055.63ZM1067.81 242.179V243.67H1064.84V253.322H1063.01V243.67H1060.03V242.179H1067.81ZM1071.49 243.654V246.925H1075.33V248.416H1071.49V251.831H1075.81V253.322H1069.66V242.163H1075.81V243.654H1071.49ZM1081.71 242.179C1082.89 242.179 1083.93 242.409 1084.82 242.868C1085.71 243.317 1086.4 243.969 1086.88 244.824C1087.38 245.669 1087.62 246.658 1087.62 247.791C1087.62 248.924 1087.38 249.907 1086.88 250.741C1086.4 251.575 1085.71 252.216 1084.82 252.665C1083.93 253.103 1082.89 253.322 1081.71 253.322H1078.07V242.179H1081.71ZM1081.71 251.831C1083.01 251.831 1084.01 251.478 1084.7 250.773C1085.4 250.067 1085.75 249.073 1085.75 247.791C1085.75 246.497 1085.4 245.487 1084.7 244.76C1084.01 244.033 1083.01 243.67 1081.71 243.67H1079.89V251.831H1081.71Z" fill="white"/>
<path d="M872.688 245.334L876.533 248.744L883.788 241.146" stroke="white" stroke-width="2.07287" stroke-miterlimit="10"/>
<path d="M878.45 257.097C885.222 257.097 890.711 251.608 890.711 244.836C890.711 238.065 885.222 232.575 878.45 232.575C871.679 232.575 866.189 238.065 866.189 244.836C866.189 251.608 871.679 257.097 878.45 257.097Z" stroke="white" stroke-width="2.07287" stroke-miterlimit="10"/>
<path d="M436.36 216.386H169.8C166.245 216.386 163.363 219.267 163.363 222.822V259.004C163.363 262.559 166.245 265.44 169.8 265.44H436.36C439.915 265.44 442.796 262.559 442.796 259.004V222.822C442.796 219.267 439.915 216.386 436.36 216.386Z" fill="#A52831"/>
<path d="M225.509 243.901C225.509 242.811 225.76 241.833 226.263 240.967C226.776 240.101 227.465 239.428 228.331 238.947C229.208 238.455 230.164 238.209 231.201 238.209C232.388 238.209 233.441 238.503 234.36 239.091C235.29 239.668 235.963 240.492 236.38 241.56H234.183C233.895 240.973 233.494 240.534 232.981 240.246C232.468 239.957 231.875 239.813 231.201 239.813C230.464 239.813 229.806 239.978 229.229 240.31C228.652 240.641 228.198 241.117 227.866 241.737C227.546 242.357 227.385 243.078 227.385 243.901C227.385 244.724 227.546 245.446 227.866 246.066C228.198 246.686 228.652 247.167 229.229 247.509C229.806 247.84 230.464 248.006 231.201 248.006C231.875 248.006 232.468 247.862 232.981 247.573C233.494 247.284 233.895 246.846 234.183 246.258H236.38C235.963 247.327 235.29 248.15 234.36 248.727C233.441 249.305 232.388 249.593 231.201 249.593C230.154 249.593 229.197 249.353 228.331 248.872C227.465 248.38 226.776 247.701 226.263 246.835C225.76 245.97 225.509 244.992 225.509 243.901ZM245.238 247.22H240.572L239.77 249.497H237.862L241.855 238.338H243.971L247.963 249.497H246.039L245.238 247.22ZM244.725 245.729L242.913 240.55L241.085 245.729H244.725ZM258.854 249.497H257.027L251.527 241.176V249.497H249.699V238.338H251.527L257.027 246.643V238.338H258.854V249.497ZM270.41 249.497H268.582L263.083 241.176V249.497H261.255V238.338H263.083L268.582 246.643V238.338H270.41V249.497ZM277.893 249.609C276.856 249.609 275.899 249.369 275.023 248.888C274.157 248.396 273.468 247.717 272.955 246.852C272.452 245.975 272.201 244.992 272.201 243.901C272.201 242.811 272.452 241.833 272.955 240.967C273.468 240.101 274.157 239.428 275.023 238.947C275.899 238.455 276.856 238.209 277.893 238.209C278.94 238.209 279.897 238.455 280.763 238.947C281.639 239.428 282.329 240.101 282.831 240.967C283.334 241.833 283.585 242.811 283.585 243.901C283.585 244.992 283.334 245.975 282.831 246.852C282.329 247.717 281.639 248.396 280.763 248.888C279.897 249.369 278.94 249.609 277.893 249.609ZM277.893 248.022C278.63 248.022 279.288 247.856 279.865 247.525C280.442 247.183 280.891 246.702 281.212 246.082C281.543 245.451 281.709 244.724 281.709 243.901C281.709 243.078 281.543 242.357 281.212 241.737C280.891 241.117 280.442 240.641 279.865 240.31C279.288 239.978 278.63 239.813 277.893 239.813C277.155 239.813 276.498 239.978 275.921 240.31C275.344 240.641 274.889 241.117 274.558 241.737C274.237 242.357 274.077 243.078 274.077 243.901C274.077 244.724 274.237 245.451 274.558 246.082C274.889 246.702 275.344 247.183 275.921 247.525C276.498 247.856 277.155 248.022 277.893 248.022ZM292.583 238.354V239.845H289.616V249.497H287.789V239.845H284.806V238.354H292.583ZM300.411 238.354V245.457C300.411 246.301 300.63 246.937 301.068 247.365C301.517 247.792 302.137 248.006 302.928 248.006C303.73 248.006 304.349 247.792 304.788 247.365C305.237 246.937 305.461 246.301 305.461 245.457V238.354H307.289V245.425C307.289 246.333 307.091 247.103 306.696 247.733C306.3 248.364 305.771 248.834 305.108 249.144C304.446 249.454 303.713 249.609 302.912 249.609C302.11 249.609 301.378 249.454 300.715 249.144C300.063 248.834 299.545 248.364 299.16 247.733C298.775 247.103 298.583 246.333 298.583 245.425V238.354H300.411ZM317.461 241.673C317.461 242.239 317.328 242.774 317.06 243.276C316.793 243.778 316.366 244.19 315.778 244.511C315.19 244.821 314.436 244.976 313.517 244.976H311.497V249.497H309.669V238.354H313.517C314.372 238.354 315.094 238.503 315.681 238.803C316.28 239.091 316.724 239.487 317.012 239.989C317.312 240.492 317.461 241.053 317.461 241.673ZM313.517 243.484C314.212 243.484 314.73 243.329 315.072 243.019C315.414 242.699 315.585 242.25 315.585 241.673C315.585 240.454 314.896 239.845 313.517 239.845H311.497V243.484H313.517ZM322.844 238.354C324.031 238.354 325.067 238.584 325.955 239.043C326.853 239.492 327.542 240.144 328.023 240.999C328.515 241.844 328.761 242.832 328.761 243.965C328.761 245.099 328.515 246.082 328.023 246.916C327.542 247.749 326.853 248.391 325.955 248.84C325.067 249.278 324.031 249.497 322.844 249.497H319.204V238.354H322.844ZM322.844 248.006C324.148 248.006 325.148 247.653 325.842 246.948C326.537 246.242 326.885 245.248 326.885 243.965C326.885 242.672 326.537 241.662 325.842 240.935C325.148 240.208 324.148 239.845 322.844 239.845H321.032V248.006H322.844ZM337.29 247.22H332.624L331.823 249.497H329.915L333.907 238.338H336.024L340.016 249.497H338.092L337.29 247.22ZM336.777 245.729L334.965 240.55L333.137 245.729H336.777ZM348.951 238.354V239.845H345.985V249.497H344.157V239.845H341.175V238.354H348.951ZM352.63 239.829V243.1H356.478V244.591H352.63V248.006H356.959V249.497H350.802V238.338H356.959V239.829H352.63ZM367.047 249.609C366.299 249.609 365.625 249.481 365.027 249.224C364.428 248.957 363.958 248.583 363.616 248.102C363.274 247.621 363.103 247.06 363.103 246.419H365.059C365.102 246.9 365.289 247.295 365.62 247.605C365.962 247.915 366.438 248.07 367.047 248.07C367.678 248.07 368.169 247.92 368.522 247.621C368.875 247.311 369.051 246.916 369.051 246.435C369.051 246.061 368.939 245.756 368.715 245.521C368.501 245.286 368.228 245.104 367.897 244.976C367.576 244.847 367.127 244.708 366.55 244.559C365.823 244.366 365.23 244.174 364.77 243.981C364.321 243.778 363.936 243.468 363.616 243.052C363.295 242.635 363.135 242.079 363.135 241.384C363.135 240.743 363.295 240.182 363.616 239.701C363.936 239.22 364.385 238.851 364.963 238.594C365.54 238.338 366.208 238.209 366.967 238.209C368.046 238.209 368.928 238.482 369.612 239.027C370.307 239.562 370.692 240.299 370.767 241.24H368.747C368.715 240.834 368.522 240.486 368.169 240.198C367.817 239.909 367.352 239.765 366.774 239.765C366.251 239.765 365.823 239.898 365.492 240.165C365.16 240.433 364.995 240.818 364.995 241.32C364.995 241.662 365.096 241.945 365.299 242.17C365.513 242.383 365.78 242.555 366.101 242.683C366.422 242.811 366.86 242.95 367.416 243.1C368.153 243.303 368.752 243.506 369.212 243.709C369.682 243.912 370.077 244.227 370.398 244.655C370.729 245.072 370.895 245.633 370.895 246.338C370.895 246.905 370.74 247.439 370.43 247.942C370.131 248.444 369.687 248.85 369.099 249.16C368.522 249.46 367.838 249.609 367.047 249.609ZM380.251 238.354V239.845H377.285V249.497H375.457V239.845H372.475V238.354H380.251ZM388.82 247.22H384.154L383.353 249.497H381.445L385.437 238.338H387.554L391.546 249.497H389.622L388.82 247.22ZM388.307 245.729L386.495 240.55L384.667 245.729H388.307ZM400.481 238.354V239.845H397.515V249.497H395.687V239.845H392.705V238.354H400.481ZM404.144 238.354V245.457C404.144 246.301 404.363 246.937 404.801 247.365C405.25 247.792 405.87 248.006 406.661 248.006C407.463 248.006 408.083 247.792 408.521 247.365C408.97 246.937 409.194 246.301 409.194 245.457V238.354H411.022V245.425C411.022 246.333 410.825 247.103 410.429 247.733C410.034 248.364 409.504 248.834 408.842 249.144C408.179 249.454 407.447 249.609 406.645 249.609C405.843 249.609 405.111 249.454 404.448 249.144C403.796 248.834 403.278 248.364 402.893 247.733C402.508 247.103 402.316 246.333 402.316 245.425V238.354H404.144ZM417.074 249.609C416.326 249.609 415.652 249.481 415.054 249.224C414.455 248.957 413.985 248.583 413.643 248.102C413.301 247.621 413.13 247.06 413.13 246.419H415.086C415.128 246.9 415.315 247.295 415.647 247.605C415.989 247.915 416.465 248.07 417.074 248.07C417.704 248.07 418.196 247.92 418.549 247.621C418.902 247.311 419.078 246.916 419.078 246.435C419.078 246.061 418.966 245.756 418.741 245.521C418.528 245.286 418.255 245.104 417.924 244.976C417.603 244.847 417.154 244.708 416.577 244.559C415.85 244.366 415.257 244.174 414.797 243.981C414.348 243.778 413.963 243.468 413.643 243.052C413.322 242.635 413.162 242.079 413.162 241.384C413.162 240.743 413.322 240.182 413.643 239.701C413.963 239.22 414.412 238.851 414.989 238.594C415.567 238.338 416.235 238.209 416.994 238.209C418.073 238.209 418.955 238.482 419.639 239.027C420.334 239.562 420.719 240.299 420.794 241.24H418.773C418.741 240.834 418.549 240.486 418.196 240.198C417.843 239.909 417.378 239.765 416.801 239.765C416.278 239.765 415.85 239.898 415.519 240.165C415.187 240.433 415.022 240.818 415.022 241.32C415.022 241.662 415.123 241.945 415.326 242.17C415.54 242.383 415.807 242.555 416.128 242.683C416.449 242.811 416.887 242.95 417.443 243.1C418.18 243.303 418.779 243.506 419.238 243.709C419.709 243.912 420.104 244.227 420.425 244.655C420.756 245.072 420.922 245.633 420.922 246.338C420.922 246.905 420.767 247.439 420.457 247.942C420.158 248.444 419.714 248.85 419.126 249.16C418.549 249.46 417.865 249.609 417.074 249.609Z" fill="white"/>
<path d="M192.652 253.086C199.423 253.086 204.913 247.596 204.913 240.825C204.913 234.053 199.423 228.563 192.652 228.563C185.88 228.563 180.391 234.053 180.391 240.825C180.391 247.596 185.88 253.086 192.652 253.086Z" stroke="white" stroke-width="2.07287" stroke-miterlimit="10"/>
<path d="M196.259 237.219L189.046 244.432" stroke="white" stroke-width="2.07287" stroke-miterlimit="10"/>
<path d="M189.046 237.219L196.259 244.432" stroke="white" stroke-width="2.07287" stroke-miterlimit="10"/>
<path d="M531.908 82.4786C528.651 82.4694 525.446 83.2875 522.592 84.8551C519.738 86.4227 517.329 88.6892 515.59 91.4421C513.851 94.195 512.839 97.3443 512.65 100.595C512.46 103.846 513.099 107.091 514.506 110.027C520.303 120.281 526.104 130.525 531.908 140.758C537.712 130.518 543.512 120.274 549.309 110.027C550.716 107.091 551.355 103.846 551.165 100.595C550.976 97.3443 549.964 94.195 548.225 91.4421C546.486 88.6892 544.077 86.4227 541.223 84.8551C538.369 83.2875 535.164 82.4694 531.908 82.4786V82.4786Z" fill="white"/>
<path d="M531.908 101.28C534.244 101.28 536.137 99.3864 536.137 97.051C536.137 94.7156 534.244 92.8223 531.908 92.8223C529.573 92.8223 527.68 94.7156 527.68 97.051C527.68 99.3864 529.573 101.28 531.908 101.28Z" fill="#0B66EB"/>
<path d="M540.46 110.318H523.369C523.996 108.553 525.154 107.025 526.684 105.945C528.215 104.865 530.042 104.285 531.915 104.285C533.787 104.285 535.614 104.865 537.145 105.945C538.675 107.025 539.833 108.553 540.46 110.318V110.318Z" fill="#0B66EB"/>
<path d="M589.581 29.0763V30.5675H586.615V40.2197H584.787V30.5675H581.805V29.0763H589.581ZM598.151 37.9429H593.485L592.683 40.2197H590.775L594.767 29.0603H596.884L600.876 40.2197H598.952L598.151 37.9429ZM597.637 36.4518L595.826 31.273L593.998 36.4518H597.637ZM606.284 40.332C605.536 40.332 604.862 40.2037 604.264 39.9472C603.665 39.6799 603.195 39.3058 602.853 38.8248C602.511 38.3438 602.34 37.7826 602.34 37.1413H604.296C604.338 37.6223 604.526 38.0178 604.857 38.3278C605.199 38.6377 605.675 38.7927 606.284 38.7927C606.915 38.7927 607.406 38.6431 607.759 38.3438C608.112 38.0338 608.288 37.6383 608.288 37.1573C608.288 36.7832 608.176 36.4785 607.951 36.2434C607.738 36.0082 607.465 35.8265 607.134 35.6982C606.813 35.57 606.364 35.431 605.787 35.2814C605.06 35.089 604.467 34.8966 604.007 34.7042C603.558 34.5011 603.173 34.1911 602.853 33.7742C602.532 33.3573 602.372 32.8015 602.372 32.1067C602.372 31.4654 602.532 30.9042 602.853 30.4232C603.173 29.9422 603.622 29.5734 604.199 29.3168C604.777 29.0603 605.445 28.932 606.204 28.932C607.283 28.932 608.165 29.2046 608.849 29.7498C609.544 30.2842 609.929 31.0218 610.004 31.9624H607.983C607.951 31.5562 607.759 31.2088 607.406 30.9202C607.053 30.6316 606.589 30.4873 606.011 30.4873C605.488 30.4873 605.06 30.6209 604.729 30.8881C604.397 31.1554 604.232 31.5402 604.232 32.0426C604.232 32.3846 604.333 32.6679 604.536 32.8924C604.75 33.1061 605.017 33.2772 605.338 33.4054C605.659 33.5337 606.097 33.6727 606.653 33.8223C607.39 34.0254 607.989 34.2285 608.448 34.4316C608.919 34.6347 609.314 34.95 609.635 35.3776C609.966 35.7944 610.132 36.3556 610.132 37.0611C610.132 37.6276 609.977 38.1621 609.667 38.6645C609.368 39.1669 608.924 39.573 608.336 39.883C607.759 40.1823 607.075 40.332 606.284 40.332ZM618.43 40.2197L614.117 35.2333V40.2197H612.289V29.0763H614.117V34.159L618.446 29.0763H620.738L615.896 34.6561L620.819 40.2197H618.43ZM630.272 40.332C629.523 40.332 628.85 40.2037 628.251 39.9472C627.653 39.6799 627.183 39.3058 626.84 38.8248C626.498 38.3438 626.327 37.7826 626.327 37.1413H628.284C628.326 37.6223 628.513 38.0178 628.845 38.3278C629.187 38.6377 629.662 38.7927 630.272 38.7927C630.902 38.7927 631.394 38.6431 631.747 38.3438C632.1 38.0338 632.276 37.6383 632.276 37.1573C632.276 36.7832 632.164 36.4785 631.939 36.2434C631.725 36.0082 631.453 35.8265 631.121 35.6982C630.801 35.57 630.352 35.431 629.775 35.2814C629.048 35.089 628.455 34.8966 627.995 34.7042C627.546 34.5011 627.161 34.1911 626.84 33.7742C626.52 33.3573 626.359 32.8015 626.359 32.1067C626.359 31.4654 626.52 30.9042 626.84 30.4232C627.161 29.9422 627.61 29.5734 628.187 29.3168C628.765 29.0603 629.433 28.932 630.192 28.932C631.271 28.932 632.153 29.2046 632.837 29.7498C633.532 30.2842 633.917 31.0218 633.992 31.9624H631.971C631.939 31.5562 631.747 31.2088 631.394 30.9202C631.041 30.6316 630.576 30.4873 629.999 30.4873C629.475 30.4873 629.048 30.6209 628.716 30.8881C628.385 31.1554 628.219 31.5402 628.219 32.0426C628.219 32.3846 628.321 32.6679 628.524 32.8924C628.738 33.1061 629.005 33.2772 629.326 33.4054C629.646 33.5337 630.085 33.6727 630.64 33.8223C631.378 34.0254 631.977 34.2285 632.436 34.4316C632.907 34.6347 633.302 34.95 633.623 35.3776C633.954 35.7944 634.12 36.3556 634.12 37.0611C634.12 37.6276 633.965 38.1621 633.655 38.6645C633.356 39.1669 632.912 39.573 632.324 39.883C631.747 40.1823 631.063 40.332 630.272 40.332ZM643.476 29.0763V30.5675H640.509V40.2197H638.682V30.5675H635.699V29.0763H643.476ZM652.045 37.9429H647.379L646.577 40.2197H644.669L648.662 29.0603H650.778L654.771 40.2197H652.847L652.045 37.9429ZM651.532 36.4518L649.72 31.273L647.892 36.4518H651.532ZM663.706 29.0763V30.5675H660.739V40.2197H658.912V30.5675H655.929V29.0763H663.706ZM667.369 29.0763V36.1792C667.369 37.0237 667.588 37.6597 668.026 38.0873C668.475 38.5148 669.095 38.7286 669.886 38.7286C670.688 38.7286 671.307 38.5148 671.746 38.0873C672.195 37.6597 672.419 37.0237 672.419 36.1792V29.0763H674.247V36.1472C674.247 37.0558 674.049 37.8254 673.654 38.456C673.258 39.0867 672.729 39.557 672.066 39.867C671.404 40.177 670.671 40.332 669.87 40.332C669.068 40.332 668.336 40.177 667.673 39.867C667.021 39.557 666.503 39.0867 666.118 38.456C665.733 37.8254 665.541 37.0558 665.541 36.1472V29.0763H667.369ZM680.299 40.332C679.55 40.332 678.877 40.2037 678.278 39.9472C677.68 39.6799 677.209 39.3058 676.867 38.8248C676.525 38.3438 676.354 37.7826 676.354 37.1413H678.31C678.353 37.6223 678.54 38.0178 678.872 38.3278C679.214 38.6377 679.689 38.7927 680.299 38.7927C680.929 38.7927 681.421 38.6431 681.774 38.3438C682.126 38.0338 682.303 37.6383 682.303 37.1573C682.303 36.7832 682.191 36.4785 681.966 36.2434C681.752 36.0082 681.48 35.8265 681.148 35.6982C680.828 35.57 680.379 35.431 679.802 35.2814C679.075 35.089 678.481 34.8966 678.022 34.7042C677.573 34.5011 677.188 34.1911 676.867 33.7742C676.547 33.3573 676.386 32.8015 676.386 32.1067C676.386 31.4654 676.547 30.9042 676.867 30.4232C677.188 29.9422 677.637 29.5734 678.214 29.3168C678.791 29.0603 679.459 28.932 680.218 28.932C681.298 28.932 682.18 29.2046 682.864 29.7498C683.559 30.2842 683.944 31.0218 684.018 31.9624H681.998C681.966 31.5562 681.774 31.2088 681.421 30.9202C681.068 30.6316 680.603 30.4873 680.026 30.4873C679.502 30.4873 679.075 30.6209 678.743 30.8881C678.412 31.1554 678.246 31.5402 678.246 32.0426C678.246 32.3846 678.348 32.6679 678.551 32.8924C678.765 33.1061 679.032 33.2772 679.353 33.4054C679.673 33.5337 680.111 33.6727 680.667 33.8223C681.405 34.0254 682.003 34.2285 682.463 34.4316C682.933 34.6347 683.329 34.95 683.65 35.3776C683.981 35.7944 684.147 36.3556 684.147 37.0611C684.147 37.6276 683.992 38.1621 683.682 38.6645C683.382 39.1669 682.939 39.573 682.351 39.883C681.774 40.1823 681.09 40.332 680.299 40.332ZM692.28 29.0763V36.1792C692.28 37.0237 692.499 37.6597 692.938 38.0873C693.387 38.5148 694.006 38.7286 694.797 38.7286C695.599 38.7286 696.219 38.5148 696.657 38.0873C697.106 37.6597 697.331 37.0237 697.331 36.1792V29.0763H699.159V36.1472C699.159 37.0558 698.961 37.8254 698.565 38.456C698.17 39.0867 697.641 39.557 696.978 39.867C696.315 40.177 695.583 40.332 694.781 40.332C693.98 40.332 693.248 40.177 692.585 39.867C691.933 39.557 691.414 39.0867 691.03 38.456C690.645 37.8254 690.452 37.0558 690.452 36.1472V29.0763H692.28ZM709.331 32.3953C709.331 32.9618 709.197 33.4963 708.93 33.9987C708.663 34.5011 708.235 34.9126 707.647 35.2333C707.059 35.5432 706.306 35.6982 705.387 35.6982H703.366V40.2197H701.538V29.0763H705.387C706.242 29.0763 706.963 29.226 707.551 29.5253C708.15 29.8139 708.593 30.2094 708.882 30.7118C709.181 31.2142 709.331 31.7753 709.331 32.3953ZM705.387 34.2071C706.081 34.2071 706.6 34.0521 706.942 33.7421C707.284 33.4215 707.455 32.9725 707.455 32.3953C707.455 31.1768 706.765 30.5675 705.387 30.5675H703.366V34.2071H705.387ZM714.714 29.0763C715.9 29.0763 716.937 29.3062 717.824 29.7658C718.722 30.2147 719.412 30.8668 719.893 31.7219C720.384 32.5663 720.63 33.5551 720.63 34.6881C720.63 35.8212 720.384 36.8046 719.893 37.6383C719.412 38.4721 718.722 39.1134 717.824 39.5623C716.937 40.0006 715.9 40.2197 714.714 40.2197H711.074V29.0763H714.714ZM714.714 38.7286C716.018 38.7286 717.017 38.3759 717.712 37.6704C718.407 36.9649 718.754 35.9708 718.754 34.6881C718.754 33.3947 718.407 32.3846 717.712 31.6578C717.017 30.9309 716.018 30.5675 714.714 30.5675H712.902V38.7286H714.714ZM729.16 37.9429H724.494L723.692 40.2197H721.784L725.777 29.0603H727.893L731.886 40.2197H729.961L729.16 37.9429ZM728.647 36.4518L726.835 31.273L725.007 36.4518H728.647ZM740.821 29.0763V30.5675H737.854V40.2197H736.026V30.5675H733.044V29.0763H740.821ZM744.5 30.5514V33.8223H748.348V35.3134H744.5V38.7286H748.829V40.2197H742.672V29.0603H748.829V30.5514H744.5ZM754.72 29.0763C755.906 29.0763 756.943 29.3062 757.83 29.7658C758.728 30.2147 759.417 30.8668 759.898 31.7219C760.39 32.5663 760.636 33.5551 760.636 34.6881C760.636 35.8212 760.39 36.8046 759.898 37.6383C759.417 38.4721 758.728 39.1134 757.83 39.5623C756.943 40.0006 755.906 40.2197 754.72 40.2197H751.08V29.0763H754.72ZM754.72 38.7286C756.024 38.7286 757.023 38.3759 757.718 37.6704C758.413 36.9649 758.76 35.9708 758.76 34.6881C758.76 33.3947 758.413 32.3846 757.718 31.6578C757.023 30.9309 756.024 30.5675 754.72 30.5675H752.908V38.7286H754.72Z" fill="white"/>
<path d="M545.713 32.2419L549.548 35.6518L556.803 28.0547" stroke="white" stroke-width="2.07287" stroke-miterlimit="10"/>
<path d="M551.466 44.0066C558.238 44.0066 563.727 38.5171 563.727 31.7455C563.727 24.9739 558.238 19.4844 551.466 19.4844C544.695 19.4844 539.205 24.9739 539.205 31.7455C539.205 38.5171 544.695 44.0066 551.466 44.0066Z" stroke="white" stroke-width="2.07287" stroke-miterlimit="10"/>
</svg>
