<svg width="792" height="438" viewBox="0 0 792 438" fill="none" xmlns="http://www.w3.org/2000/svg">
<path d="M1 8.9736L4.39472 11.323L8.86145 10.611L13.1495 13.3876L14.9362 1L19.0456 13.3876L21.3683 11.323H26.5497L31.9098 8.19048L37.4485 11.323L40.8432 8.9736L44.0593 11.323L49.2407 10.611L52.4567 13.3876L55.1368 1L58.5315 13.3876L62.2299 10.611L66.7503 8.9736" stroke="#38B1D2" stroke-width="1.13548"/>
<path d="M66.75 8.9736L70.2088 11.323L74.7598 10.611L79.1287 13.3876L80.9491 1L85.1361 13.3876L87.5026 11.323H92.7818L98.243 8.19048L103.886 11.323L107.345 8.9736L110.622 11.323L115.901 10.611L119.178 13.3876L121.908 1L125.367 13.3876L129.135 10.611L133.741 8.9736" stroke="#38B1D2" stroke-width="1.13548"/>
<path d="M132.082 8.9736L135.477 11.323L139.943 10.611L144.232 13.3876L146.018 1L150.128 13.3876L152.45 11.323H157.632L162.992 8.19048L168.531 11.323L171.925 8.9736L175.141 11.323L180.323 10.611L183.539 13.3876L186.219 1L189.614 13.3876L193.312 10.611L197.832 8.9736" stroke="#38B1D2" stroke-width="1.13548"/>
<path d="M197.832 8.9736L201.291 11.323L205.842 10.611L210.211 13.3876L212.031 1L216.218 13.3876L218.585 11.323H223.864L229.325 8.19048L234.968 11.323L238.427 8.9736L241.704 11.323L246.983 10.611L250.26 13.3876L252.99 1L256.449 13.3876L260.217 10.611L264.823 8.9736" stroke="#38B1D2" stroke-width="1.13548"/>
<path d="M1 129.94L4.39472 132.29L8.86145 131.578L13.1495 134.354L14.9362 121.967L19.0456 134.354L21.3683 132.29H26.5497L31.9098 129.157L37.4485 132.29L40.8432 129.94L44.0593 132.29L49.2407 131.578L52.4567 134.354L55.1368 121.967L58.5315 134.354L62.2299 131.578L66.7503 129.94" stroke="#38B1D2" stroke-width="1.13548"/>
<path d="M66.7505 129.94L70.2093 132.29L74.7603 131.578L79.1292 134.354L80.9496 121.967L85.1366 134.354L87.5031 132.29H92.7823L98.2435 129.157L103.887 132.29L107.345 129.94L110.622 132.29L115.901 131.578L119.178 134.354L121.909 121.967L125.367 134.354L129.136 131.578L133.741 129.94" stroke="#38B1D2" stroke-width="1.13548"/>
<path d="M132.082 129.94L135.477 132.29L139.943 131.578L144.232 134.354L146.018 121.967L150.128 134.354L152.45 132.29H157.632L162.992 129.157L168.531 132.29L171.925 129.94L175.141 132.29L180.323 131.578L183.539 134.354L186.219 121.967L189.614 134.354L193.312 131.578L197.832 129.94" stroke="#38B1D2" stroke-width="1.13548"/>
<path d="M197.832 129.94L201.291 132.29L205.842 131.578L210.211 134.354L212.031 121.967L216.218 134.354L218.585 132.29H223.864L229.325 129.157L234.968 132.29L238.427 129.94L241.704 132.29L246.983 131.578L250.26 134.354L252.99 121.967L256.449 134.354L260.217 131.578L264.823 129.94" stroke="#38B1D2" stroke-width="1.13548"/>
<path d="M1 190.424L4.39472 192.773L8.86145 192.061L13.1495 194.838L14.9362 182.45L19.0456 194.838L21.3683 192.773H26.5497L31.9098 189.64L37.4485 192.773L40.8432 190.424L44.0593 192.773L49.2407 192.061L52.4567 194.838L55.1368 182.45L58.5315 194.838L62.2299 192.061L66.7503 190.424" stroke="#38B1D2" stroke-width="1.13548"/>
<path d="M66.7505 190.424L70.2093 192.773L74.7603 192.061L79.1292 194.838L80.9496 182.45L85.1366 194.838L87.5031 192.773H92.7823L98.2435 189.64L103.887 192.773L107.345 190.424L110.622 192.773L115.901 192.061L119.178 194.838L121.909 182.45L125.367 194.838L129.136 192.061L133.741 190.424" stroke="#38B1D2" stroke-width="1.13548"/>
<path d="M197.832 190.424L201.291 192.773L205.842 192.061L210.211 194.838L212.031 182.45L216.218 194.838L218.585 192.773H223.864L229.325 189.64L234.968 192.773L238.427 190.424L241.704 192.773L246.983 192.061L250.26 194.838L252.99 182.45L256.449 194.838L260.217 192.061L264.823 190.424" stroke="#38B1D2" stroke-width="1.13548"/>
<path d="M132.933 191.018L136.351 193.974L140.849 193.078L145.166 196.571L147.94 169.009L151.103 196.571L153.442 193.974L159.435 201.419L164.057 190.033L170.046 212.692L173.052 191.018L176.291 193.974L179.772 180.987L184.747 196.571L187.445 180.987L190.863 196.571L194.588 193.078L199.139 191.018" stroke="#38B1D2" stroke-width="1.13548"/>
<path d="M1 250.907L4.39472 253.256L8.86145 252.544L13.1495 255.321L14.9362 242.933L19.0456 255.321L21.3683 253.256H26.5497L31.9098 250.124L37.4485 253.256L40.8432 250.907L44.0593 253.256L49.2407 252.544L52.4567 255.321L55.1368 242.933L58.5315 255.321L62.2299 252.544L66.7503 250.907" stroke="#38B1D2" stroke-width="1.13548"/>
<path d="M66.7505 250.907L70.2093 253.256L74.7603 252.544L79.1292 255.321L80.9496 242.933L85.1366 255.321L87.5031 253.256H92.7823L98.2435 250.124L103.887 253.256L107.345 250.907L110.622 253.256L115.901 252.544L119.178 255.321L121.909 242.933L125.367 255.321L129.136 252.544L133.741 250.907" stroke="#38B1D2" stroke-width="1.13548"/>
<path d="M132.082 250.907L135.477 253.256L139.943 252.544L144.232 255.321L146.018 242.933L150.128 255.321L152.45 253.256H157.632L162.992 250.124L168.531 253.256L171.925 250.907L175.141 253.256L180.323 252.544L183.539 255.321L186.219 242.933L189.614 255.321L193.312 252.544L197.832 250.907" stroke="#38B1D2" stroke-width="1.13548"/>
<path d="M197.832 250.907L201.291 253.256L205.842 252.544L210.211 255.321L212.031 242.933L216.218 255.321L218.585 253.256H223.864L229.325 250.124L234.968 253.256L238.427 250.907L241.704 253.256L246.983 252.544L250.26 255.321L252.99 242.933L256.449 255.321L260.217 252.544L264.823 250.907" stroke="#38B1D2" stroke-width="1.13548"/>
<path d="M1 311.39L4.39472 313.74L8.86145 313.028L13.1495 315.804L14.9362 303.417L19.0456 315.804L21.3683 313.74H26.5497L31.9098 310.607L38.096 334.219L40.8432 311.39L44.3588 317.418L48.8322 308.457L52.4567 315.804L55.9897 289.976L58.5315 315.804L66.7503 330.298V311.39" stroke="#38B1D2" stroke-width="1.13548"/>
<path d="M66.7505 311.39L70.2093 313.74L74.7603 313.028L79.1292 315.804L81.9358 293.896L85.1366 315.804L87.5031 313.74L93.5667 319.658L98.2435 310.607L104.303 328.618L107.345 311.39L110.622 313.74L114.144 303.417L119.178 315.804L121.909 303.417L125.367 315.804L129.136 313.028L133.741 311.39" stroke="#38B1D2" stroke-width="1.13548"/>
<path d="M132.082 311.39L135.477 313.74L139.943 313.028L144.232 315.804L146.018 303.417L150.128 315.804L152.45 313.74H157.632L162.992 310.607L168.531 313.74L171.925 311.39L175.141 313.74L180.323 313.028L183.539 315.804L186.219 303.417L189.614 315.804L193.312 313.028L197.832 311.39" stroke="#38B1D2" stroke-width="1.13548"/>
<path d="M197.832 311.39L201.291 313.74L205.842 313.028L210.211 315.804L212.031 303.417L216.218 315.804L218.585 313.74H223.864L229.325 310.607L234.968 313.74L238.427 311.39L241.704 313.74L246.983 313.028L250.26 315.804L252.99 303.417L256.449 315.804L260.217 313.028L264.823 311.39" stroke="#38B1D2" stroke-width="1.13548"/>
<path d="M1 371.874L4.39472 374.223L8.86145 373.511L13.1495 376.288L14.9362 363.9L19.0456 376.288L21.3683 374.223H26.5497L31.9098 371.091L37.4485 374.223L40.8432 371.874L44.0593 374.223L49.2407 373.511L52.4567 376.288L55.1368 363.9L58.5315 376.288L62.2299 373.511L66.7503 371.874" stroke="#38B1D2" stroke-width="1.13548"/>
<path d="M66.7505 371.874L70.2093 374.223L74.7603 373.511L79.1292 376.288L80.9496 363.9L85.1366 376.288L87.5031 374.223H92.7823L98.2435 371.091L103.887 374.223L107.345 371.874L110.622 374.223L115.901 373.511L119.178 376.288L121.909 363.9L125.367 376.288L129.136 373.511L133.741 371.874" stroke="#38B1D2" stroke-width="1.13548"/>
<path d="M132.082 371.874L135.477 374.223L139.943 373.511L144.232 376.288L146.018 363.9L150.128 376.288L152.45 374.223H157.632L162.992 371.091L168.531 374.223L171.925 371.874L175.141 374.223L180.323 373.511L183.539 376.288L186.219 363.9L189.614 376.288L193.312 373.511L197.832 371.874" stroke="#38B1D2" stroke-width="1.13548"/>
<path d="M197.832 371.874L201.291 374.223L205.842 373.511L210.211 376.288L212.031 363.9L216.218 376.288L218.585 374.223H223.864L229.325 371.091L234.968 374.223L238.427 371.874L241.704 374.223L246.983 373.511L250.26 376.288L252.99 363.9L256.449 376.288L260.217 373.511L264.823 371.874" stroke="#38B1D2" stroke-width="1.13548"/>
<path d="M1 432.357L4.39472 434.707L8.86145 433.995L13.1495 436.771L14.9362 424.384L19.0456 436.771L21.3683 434.707H26.5497L31.9098 431.574L37.4485 434.707L40.8432 432.357L44.0593 434.707L49.2407 433.995L52.4567 436.771L55.1368 424.384L58.5315 436.771L62.2299 433.995L66.7503 432.357" stroke="#38B1D2" stroke-width="1.13548"/>
<path d="M66.7505 432.357L70.2093 434.707L74.7603 433.995L79.1292 436.771L80.9496 424.384L85.1366 436.771L87.5031 434.707H92.7823L98.2435 431.574L103.887 434.707L107.345 432.357L110.622 434.707L115.901 433.995L119.178 436.771L121.909 424.384L125.367 436.771L129.136 433.995L133.741 432.357" stroke="#38B1D2" stroke-width="1.13548"/>
<path d="M132.082 432.357L135.477 434.707L139.943 433.995L144.232 436.771L146.018 424.384L150.128 436.771L152.45 434.707H157.632L162.992 431.574L168.531 434.707L171.925 432.357L175.141 434.707L180.323 433.995L183.539 436.771L186.219 424.384L189.614 436.771L193.312 433.995L197.832 432.357" stroke="#38B1D2" stroke-width="1.13548"/>
<path d="M197.832 432.357L201.291 434.707L205.842 433.995L210.211 436.771L212.031 424.384L216.218 436.771L218.585 434.707H223.864L229.325 431.574L234.968 434.707L238.427 432.357L241.704 434.707L246.983 433.995L250.26 436.771L252.99 424.384L256.449 436.771L260.217 433.995L264.823 432.357" stroke="#38B1D2" stroke-width="1.13548"/>
<path d="M1 69.457L4.39472 71.8064L8.86145 71.0944L13.1495 73.871L14.9362 61.4834L19.0456 73.871L21.3683 71.8064H26.5497L31.9098 68.6739L37.4485 71.8064L40.8432 69.457L44.0593 71.8064L49.2407 71.0944L52.4567 73.871L55.1368 61.4834L58.5315 73.871L62.2299 71.0944L66.7503 69.457" stroke="#38B1D2" stroke-width="1.13548"/>
<path d="M66.7256 69.5127L70.1439 72.8473L74.6416 71.8368L78.9594 75.7777L81.7332 44.6824L84.8964 75.7777L87.2353 72.8473L93.2279 81.247L97.8499 68.4012L103.838 93.9651L106.845 69.5127L110.084 72.8473L113.565 58.1954L118.54 75.7777L121.238 58.1954L124.656 75.7777L128.381 71.8368L132.932 69.5127" stroke="#38B1D2" stroke-width="1.13548"/>
<path d="M132.082 69.457L135.477 71.8064L139.943 71.0944L144.232 73.871L146.018 61.4834L150.128 73.871L152.45 71.8064H157.632L162.992 68.6739L168.531 71.8064L171.925 69.457L175.141 71.8064L180.323 71.0944L183.539 73.871L186.219 61.4834L189.614 73.871L193.312 71.0944L197.832 69.457" stroke="#38B1D2" stroke-width="1.13548"/>
<path d="M197.833 69.457L201.291 71.8064L205.842 71.0944L210.211 73.871L212.032 61.4834L216.219 73.871L218.585 71.8064H223.864L229.326 68.6739L234.969 71.8064L238.428 69.457L241.704 71.8064L246.983 71.0944L250.26 73.871L252.991 61.4834L256.45 73.871L260.218 71.0944L264.823 69.457" stroke="#38B1D2" stroke-width="1.13548"/>
<path d="M264.3 8.9736L267.695 11.323L272.161 10.611L276.449 13.3876L278.236 1L282.345 13.3876L284.668 11.323H289.85L295.21 8.19048L300.748 11.323L304.143 8.9736L307.359 11.323L312.54 10.611L315.757 13.3876L318.437 1L321.831 13.3876L325.53 10.611L330.05 8.9736" stroke="#38B1D2" stroke-width="1.13548"/>
<path d="M330.05 8.9736L333.509 11.323L338.06 10.611L342.429 13.3876L344.249 1L348.436 13.3876L350.803 11.323H356.082L361.543 8.19048L367.187 11.323L370.645 8.9736L373.922 11.323L379.201 10.611L382.478 13.3876L385.209 1L388.667 13.3876L392.436 10.611L397.041 8.9736" stroke="#38B1D2" stroke-width="1.13548"/>
<path d="M395.382 8.9736L398.777 11.323L403.243 10.611L407.531 13.3876L409.318 1L413.427 13.3876L415.75 11.323H420.932L426.292 8.19048L431.83 11.323L435.225 8.9736L438.441 11.323L443.623 10.611L446.839 13.3876L449.519 1L452.913 13.3876L456.612 10.611L461.132 8.9736" stroke="#38B1D2" stroke-width="1.13548"/>
<path d="M461.132 8.9736L464.591 11.323L469.142 10.611L473.511 13.3876L475.331 1L479.518 13.3876L481.885 11.323H487.164L492.625 8.19048L498.269 11.323L501.727 8.9736L505.004 11.323L510.283 10.611L513.56 13.3876L516.291 1L519.749 13.3876L523.518 10.611L528.123 8.9736" stroke="#38B1D2" stroke-width="1.13548"/>
<path d="M527.599 8.9736L530.993 11.323L535.46 10.611L539.748 13.3876L541.535 1L545.644 13.3876L547.967 11.323H553.148L558.508 8.19048L564.047 11.323L567.442 8.9736L570.658 11.323L575.839 10.611L579.055 13.3876L581.735 1L585.13 13.3876L588.829 10.611L593.349 8.9736" stroke="#38B1D2" stroke-width="1.13548"/>
<path d="M593.349 8.9736L596.808 11.323L601.359 10.611L605.728 13.3876L607.548 1L611.735 13.3876L614.102 11.323H619.381L624.842 8.19048L630.485 11.323L633.944 8.9736L637.221 11.323L642.5 10.611L645.777 13.3876L648.507 1L651.966 13.3876L655.734 10.611L660.34 8.9736" stroke="#38B1D2" stroke-width="1.13548"/>
<path d="M658.681 8.9736L662.075 11.323L666.542 10.611L670.83 13.3876L672.617 1L676.726 13.3876L679.049 11.323H684.23L689.59 8.19048L695.129 11.323L698.524 8.9736L701.74 11.323L706.921 10.611L710.137 13.3876L712.817 1L716.212 13.3876L719.911 10.611L724.431 8.9736" stroke="#38B1D2" stroke-width="1.13548"/>
<path d="M724.431 8.9736L727.889 11.323L732.44 10.611L736.809 13.3876L738.63 1L742.817 13.3876L745.183 11.323H750.462L755.924 8.19048L761.567 11.323L765.026 8.9736L768.302 11.323L773.582 10.611L776.858 13.3876L779.589 1L783.048 13.3876L786.816 10.611L791.422 8.9736" stroke="#38B1D2" stroke-width="1.13548"/>
<path d="M264.3 129.94L267.695 132.29L272.161 131.578L276.449 134.354L278.236 121.967L282.345 134.354L284.668 132.29H289.85L295.21 129.157L300.748 132.29L304.143 129.94L307.359 132.29L312.54 131.578L315.757 134.354L318.437 121.967L321.831 134.354L325.53 131.578L330.05 129.94" stroke="#38B1D2" stroke-width="1.13548"/>
<path d="M330.05 129.94L333.509 132.29L338.06 131.578L342.429 134.354L344.249 121.967L348.436 134.354L350.803 132.29H356.082L361.543 129.157L367.187 132.29L370.645 129.94L373.922 132.29L379.201 131.578L382.478 134.354L385.209 121.967L388.667 134.354L392.436 131.578L397.041 129.94" stroke="#38B1D2" stroke-width="1.13548"/>
<path d="M395.382 129.94L398.777 132.29L403.243 131.578L407.531 134.354L409.318 121.967L413.427 134.354L415.75 132.29H420.932L426.292 129.157L431.83 132.29L435.225 129.94L438.441 132.29L443.623 131.578L446.839 134.354L449.519 121.967L452.913 134.354L456.612 131.578L461.132 129.94" stroke="#38B1D2" stroke-width="1.13548"/>
<path d="M461.132 129.94L464.591 132.29L469.142 131.578L473.511 134.354L475.331 121.967L479.518 134.354L481.885 132.29H487.164L492.625 129.157L498.269 132.29L501.727 129.94L505.004 132.29L510.283 131.578L513.56 134.354L516.291 121.967L519.749 134.354L523.518 131.578L528.123 129.94" stroke="#38B1D2" stroke-width="1.13548"/>
<path d="M527.599 129.94L530.993 132.29L535.46 131.578L539.748 134.354L541.535 121.967L545.644 134.354L547.967 132.29H553.148L558.508 129.157L564.047 132.29L567.442 129.94L570.658 132.29L575.839 131.578L579.055 134.354L581.735 121.967L585.13 134.354L588.829 131.578L593.349 129.94" stroke="#38B1D2" stroke-width="1.13548"/>
<path d="M593.349 129.94L596.808 132.29L601.359 131.578L605.728 134.354L607.548 121.967L611.735 134.354L614.102 132.29H619.381L624.842 129.157L630.485 132.29L633.944 129.94L637.221 132.29L642.5 131.578L645.777 134.354L648.507 121.967L651.966 134.354L655.734 131.578L660.34 129.94" stroke="#38B1D2" stroke-width="1.13548"/>
<path d="M658.681 129.94L662.075 132.29L666.542 131.578L670.83 134.354L672.617 121.967L676.726 134.354L679.049 132.29H684.23L689.59 129.157L695.129 132.29L698.524 129.94L701.74 132.29L706.921 131.578L710.137 134.354L712.817 121.967L716.212 134.354L719.911 131.578L724.431 129.94" stroke="#38B1D2" stroke-width="1.13548"/>
<path d="M724.431 129.94L727.889 132.29L732.44 131.578L736.809 134.354L738.63 121.967L742.817 134.354L745.183 132.29H750.462L755.924 129.157L761.567 132.29L765.026 129.94L768.302 132.29L773.582 131.578L776.858 134.354L779.589 121.967L783.048 134.354L786.816 131.578L791.422 129.94" stroke="#38B1D2" stroke-width="1.13548"/>
<path d="M264.3 190.424L267.695 192.773L272.161 192.061L276.449 194.838L278.236 182.45L282.345 194.838L284.668 192.773H289.85L295.21 189.64L300.748 192.773L304.143 190.424L307.359 192.773L312.54 192.061L315.757 194.838L318.437 182.45L321.831 194.838L325.53 192.061L330.05 190.424" stroke="#38B1D2" stroke-width="1.13548"/>
<path d="M330.05 190.424L333.509 192.773L338.06 192.061L342.429 194.838L344.249 182.45L348.436 194.838L350.803 192.773H356.082L361.543 189.64L367.187 192.773L370.645 190.424L373.922 192.773L379.201 192.061L382.478 194.838L385.209 182.45L388.667 194.838L392.436 192.061L397.041 190.424" stroke="#38B1D2" stroke-width="1.13548"/>
<path d="M395.382 190.424L398.777 192.773L403.243 192.061L407.531 194.838L409.318 182.45L413.427 194.838L415.75 192.773H420.932L426.292 189.64L431.83 192.773L435.225 190.424L438.441 192.773L443.623 192.061L446.839 194.838L449.519 182.45L452.913 194.838L456.612 192.061L461.132 190.424" stroke="#38B1D2" stroke-width="1.13548"/>
<path d="M461.132 190.424L464.591 192.773L469.142 192.061L473.511 194.838L475.331 182.45L479.518 194.838L481.885 192.773H487.164L492.625 189.64L498.269 192.773L501.727 190.424L505.004 192.773L510.283 192.061L513.56 194.838L516.291 182.45L519.749 194.838L523.518 192.061L528.123 190.424" stroke="#38B1D2" stroke-width="1.13548"/>
<path d="M527.599 190.424L530.993 192.773L535.46 192.061L539.748 194.838L541.535 182.45L545.644 194.838L547.967 192.773H553.148L558.508 189.64L564.047 192.773L567.442 190.424L570.658 192.773L575.839 192.061L579.055 194.838L581.735 182.45L585.13 194.838L588.829 192.061L593.349 190.424" stroke="#38B1D2" stroke-width="1.13548"/>
<path d="M593.349 190.424L596.808 192.773L601.359 192.061L605.728 194.838L607.548 182.45L611.735 194.838L614.102 192.773H619.381L624.842 189.64L630.485 192.773L633.944 190.424L637.221 192.773L642.5 192.061L645.777 194.838L648.507 182.45L651.966 194.838L655.734 192.061L660.34 190.424" stroke="#38B1D2" stroke-width="1.13548"/>
<path d="M658.681 190.424L662.075 192.773L666.542 192.061L670.83 194.838L672.617 182.45L676.726 194.838L679.049 192.773H684.23L689.59 189.64L695.129 192.773L698.524 190.424L701.74 192.773L706.921 192.061L710.137 194.838L712.817 182.45L716.212 194.838L719.911 192.061L724.431 190.424" stroke="#38B1D2" stroke-width="1.13548"/>
<path d="M724.431 190.424L727.889 192.773L732.44 192.061L736.809 194.838L738.63 182.45L742.817 194.838L745.183 192.773H750.462L755.924 189.64L761.567 192.773L765.026 190.424L768.302 192.773L773.582 192.061L776.858 194.838L779.589 182.45L783.048 194.838L786.816 192.061L791.422 190.424" stroke="#38B1D2" stroke-width="1.13548"/>
<path d="M264.3 250.907L267.695 253.256L272.161 252.544L276.449 255.321L278.236 242.933L282.345 255.321L284.668 253.256H289.85L295.21 250.124L300.748 253.256L304.143 250.907L307.359 253.256L312.54 252.544L315.757 255.321L318.437 242.933L321.831 255.321L325.53 252.544L330.05 250.907" stroke="#38B1D2" stroke-width="1.13548"/>
<path d="M330.05 250.907L333.509 253.256L338.06 252.544L342.429 255.321L344.249 242.933L348.436 255.321L350.803 253.256H356.082L361.543 250.124L367.187 253.256L370.645 250.907L373.922 253.256L379.201 252.544L382.478 255.321L385.209 242.933L388.667 255.321L392.436 252.544L397.041 250.907" stroke="#38B1D2" stroke-width="1.13548"/>
<path d="M395.382 250.907L398.777 253.256L403.243 252.544L407.531 255.321L409.318 242.933L413.427 255.321L415.75 253.256H420.932L426.292 250.124L431.83 253.256L435.225 250.907L438.441 253.256L443.623 252.544L446.839 255.321L449.519 242.933L452.913 255.321L456.612 252.544L461.132 250.907" stroke="#38B1D2" stroke-width="1.13548"/>
<path d="M461.132 250.907L464.591 253.256L469.142 252.544L473.511 255.321L475.331 242.933L479.518 255.321L481.885 253.256H487.164L492.625 250.124L498.269 253.256L501.727 250.907L505.004 253.256L510.283 252.544L513.56 255.321L516.291 242.933L519.749 255.321L523.518 252.544L528.123 250.907" stroke="#38B1D2" stroke-width="1.13548"/>
<path d="M527.599 250.907L530.993 253.256L535.46 252.544L539.748 255.321L541.535 242.933L545.644 255.321L547.967 253.256H553.148L558.508 250.124L564.047 253.256L567.442 250.907L570.658 253.256L575.839 252.544L579.055 255.321L581.735 242.933L585.13 255.321L588.829 252.544L593.349 250.907" stroke="#38B1D2" stroke-width="1.13548"/>
<path d="M593.349 250.907L596.808 253.256L601.359 252.544L605.728 255.321L607.548 242.933L611.735 255.321L614.102 253.256H619.381L624.842 250.124L630.485 253.256L633.944 250.907L637.221 253.256L642.5 252.544L645.777 255.321L648.507 242.933L651.966 255.321L655.734 252.544L660.34 250.907" stroke="#38B1D2" stroke-width="1.13548"/>
<path d="M658.681 250.907L662.075 253.256L666.542 252.544L670.83 255.321L672.617 242.933L676.726 255.321L679.049 253.256H684.23L689.59 250.124L695.129 253.256L698.524 250.907L701.74 253.256L706.921 252.544L710.137 255.321L712.817 242.933L716.212 255.321L719.911 252.544L724.431 250.907" stroke="#38B1D2" stroke-width="1.13548"/>
<path d="M724.431 250.907L727.889 253.256L732.44 252.544L736.809 255.321L738.63 242.933L742.817 255.321L745.183 253.256H750.462L755.924 250.124L761.567 253.256L765.026 250.907L768.302 253.256L773.582 252.544L776.858 255.321L779.589 242.933L783.048 255.321L786.816 252.544L791.422 250.907" stroke="#38B1D2" stroke-width="1.13548"/>
<path d="M264.3 311.39L267.695 313.74L272.161 313.028L276.449 315.804L278.236 303.417L282.345 315.804L284.668 313.74H289.85L295.21 310.607L300.748 313.74L304.143 311.39L307.359 313.74L312.54 313.028L315.757 315.804L318.437 303.417L321.831 315.804L325.53 313.028L330.05 311.39" stroke="#38B1D2" stroke-width="1.13548"/>
<path d="M330.05 311.39L333.509 313.74L338.06 313.028L342.429 315.804L344.249 303.417L348.436 315.804L350.803 313.74H356.082L361.543 310.607L367.187 313.74L370.645 311.39L373.922 313.74L379.201 313.028L382.478 315.804L385.209 303.417L388.667 315.804L392.436 313.028L397.041 311.39" stroke="#38B1D2" stroke-width="1.13548"/>
<path d="M395.382 311.39L398.777 313.74L403.243 313.028L407.531 315.804L409.318 303.417L413.427 315.804L415.75 313.74H420.932L426.292 310.607L431.83 313.74L435.225 311.39L438.441 313.74L443.623 313.028L446.839 315.804L449.519 303.417L452.913 315.804L456.612 313.028L461.132 311.39" stroke="#38B1D2" stroke-width="1.13548"/>
<path d="M461.132 311.39L464.591 313.74L469.142 313.028L473.511 315.804L475.331 303.417L479.518 315.804L481.885 313.74H487.164L492.625 310.607L498.269 313.74L501.727 311.39L505.004 313.74L510.283 313.028L513.56 315.804L516.291 303.417L519.749 315.804L523.518 313.028L528.123 311.39" stroke="#38B1D2" stroke-width="1.13548"/>
<path d="M527.599 311.39L530.993 313.74L535.46 313.028L539.748 315.804L541.535 303.417L545.644 315.804L547.967 313.74H553.148L558.508 310.607L564.047 313.74L567.442 311.39L570.658 313.74L575.839 313.028L579.055 315.804L581.735 303.417L585.13 315.804L588.829 313.028L593.349 311.39" stroke="#38B1D2" stroke-width="1.13548"/>
<path d="M593.349 311.39L596.808 313.74L601.359 313.028L605.728 315.804L607.548 303.417L611.735 315.804L614.102 313.74H619.381L624.842 310.607L630.485 313.74L633.944 311.39L637.221 313.74L642.5 313.028L645.777 315.804L648.507 303.417L651.966 315.804L655.734 313.028L660.34 311.39" stroke="#38B1D2" stroke-width="1.13548"/>
<path d="M658.681 311.39L662.075 313.74L666.542 313.028L670.83 315.804L672.617 303.417L676.726 315.804L679.049 313.74H684.23L689.59 310.607L695.129 313.74L698.524 311.39L701.74 313.74L706.921 313.028L710.137 315.804L712.817 303.417L716.212 315.804L719.911 313.028L724.431 311.39" stroke="#38B1D2" stroke-width="1.13548"/>
<path d="M724.431 311.39L727.889 313.74L732.44 313.028L736.809 315.804L738.63 303.417L742.817 315.804L745.183 313.74H750.462L755.924 310.607L761.567 313.74L765.026 311.39L768.302 313.74L773.582 313.028L776.858 315.804L779.589 303.417L783.048 315.804L786.816 313.028L791.422 311.39" stroke="#38B1D2" stroke-width="1.13548"/>
<path d="M264.3 371.874L267.695 374.223L272.161 373.511L276.449 376.288L278.236 363.9L282.345 376.288L284.668 374.223H289.85L295.21 371.091L300.748 374.223L304.143 371.874L307.359 374.223L312.54 373.511L315.757 376.288L318.437 363.9L321.831 376.288L325.53 373.511L330.05 371.874" stroke="#38B1D2" stroke-width="1.13548"/>
<path d="M330.05 371.874L333.509 374.223L338.06 373.511L342.429 376.288L344.249 363.9L348.436 376.288L350.803 374.223H356.082L361.543 371.091L367.187 374.223L370.645 371.874L373.922 374.223L379.201 373.511L382.478 376.288L385.209 363.9L388.667 376.288L392.436 373.511L397.041 371.874" stroke="#38B1D2" stroke-width="1.13548"/>
<path d="M395.382 371.874L398.777 374.223L403.243 373.511L407.531 376.288L409.318 363.9L413.427 376.288L415.75 374.223H420.932L426.292 371.091L431.83 374.223L435.225 371.874L438.441 374.223L443.623 373.511L446.839 376.288L449.519 363.9L452.913 376.288L456.612 373.511L461.132 371.874" stroke="#38B1D2" stroke-width="1.13548"/>
<path d="M461.132 371.874L464.591 374.223L469.142 373.511L473.511 376.288L475.331 363.9L479.518 376.288L481.885 374.223H487.164L492.625 371.091L498.269 374.223L501.727 371.874L505.004 374.223L510.283 373.511L513.56 376.288L516.291 363.9L519.749 376.288L523.518 373.511L528.123 371.874" stroke="#38B1D2" stroke-width="1.13548"/>
<path d="M527.599 371.874L530.993 374.223L535.46 373.511L539.748 376.288L541.535 363.9L545.644 376.288L547.967 374.223H553.148L558.508 371.091L564.047 374.223L567.442 371.874L570.658 374.223L575.839 373.511L579.055 376.288L581.735 363.9L585.13 376.288L588.829 373.511L593.349 371.874" stroke="#38B1D2" stroke-width="1.13548"/>
<path d="M593.349 371.874L596.808 374.223L601.359 373.511L605.728 376.288L607.548 363.9L611.735 376.288L614.102 374.223H619.381L624.842 371.091L630.485 374.223L633.944 371.874L637.221 374.223L642.5 373.511L645.777 376.288L648.507 363.9L651.966 376.288L655.734 373.511L660.34 371.874" stroke="#38B1D2" stroke-width="1.13548"/>
<path d="M658.681 371.874L662.075 374.223L666.542 373.511L670.83 376.288L672.617 363.9L676.726 376.288L679.049 374.223H684.23L689.59 371.091L695.129 374.223L698.524 371.874L701.74 374.223L706.921 373.511L710.137 376.288L712.817 363.9L716.212 376.288L719.911 373.511L724.431 371.874" stroke="#38B1D2" stroke-width="1.13548"/>
<path d="M724.431 371.874L727.889 374.223L732.44 373.511L736.809 376.288L738.63 363.9L742.817 376.288L745.183 374.223H750.462L755.924 371.091L761.567 374.223L765.026 371.874L768.302 374.223L773.582 373.511L776.858 376.288L779.589 363.9L783.048 376.288L786.816 373.511L791.422 371.874" stroke="#38B1D2" stroke-width="1.13548"/>
<path d="M264.3 432.357L267.695 434.707L272.161 433.995L276.449 436.771L278.236 424.384L282.345 436.771L284.668 434.707H289.85L295.21 431.574L300.748 434.707L304.143 432.357L307.359 434.707L312.54 433.995L315.757 436.771L318.437 424.384L321.831 436.771L325.53 433.995L330.05 432.357" stroke="#38B1D2" stroke-width="1.13548"/>
<path d="M330.05 432.357L333.509 434.707L338.06 433.995L342.429 436.771L344.249 424.384L348.436 436.771L350.803 434.707H356.082L361.543 431.574L367.187 434.707L370.645 432.357L373.922 434.707L379.201 433.995L382.478 436.771L385.209 424.384L388.667 436.771L392.436 433.995L397.041 432.357" stroke="#38B1D2" stroke-width="1.13548"/>
<path d="M395.382 432.357L398.777 434.707L403.243 433.995L407.531 436.771L409.318 424.384L413.427 436.771L415.75 434.707H420.932L426.292 431.574L431.83 434.707L435.225 432.357L438.441 434.707L443.623 433.995L446.839 436.771L449.519 424.384L452.913 436.771L456.612 433.995L461.132 432.357" stroke="#38B1D2" stroke-width="1.13548"/>
<path d="M461.132 432.357L464.591 434.707L469.142 433.995L473.511 436.771L475.331 424.384L479.518 436.771L481.885 434.707H487.164L492.625 431.574L498.269 434.707L501.727 432.357L505.004 434.707L510.283 433.995L513.56 436.771L516.291 424.384L519.749 436.771L523.518 433.995L528.123 432.357" stroke="#38B1D2" stroke-width="1.13548"/>
<path d="M527.599 432.357L530.993 434.707L535.46 433.995L539.748 436.771L541.535 424.384L545.644 436.771L547.967 434.707H553.148L558.508 431.574L564.047 434.707L567.442 432.357L570.658 434.707L575.839 433.995L579.055 436.771L581.735 424.384L585.13 436.771L588.829 433.995L593.349 432.357" stroke="#38B1D2" stroke-width="1.13548"/>
<path d="M593.349 432.357L596.808 434.707L601.359 433.995L605.728 436.771L607.548 424.384L611.735 436.771L614.102 434.707H619.381L624.842 431.574L630.485 434.707L633.944 432.357L637.221 434.707L642.5 433.995L645.777 436.771L648.507 424.384L651.966 436.771L655.734 433.995L660.34 432.357" stroke="#38B1D2" stroke-width="1.13548"/>
<path d="M658.681 432.357L662.075 434.707L666.542 433.995L670.83 436.771L672.617 424.384L676.726 436.771L679.049 434.707H684.23L689.59 431.574L695.129 434.707L698.524 432.357L701.74 434.707L706.921 433.995L710.137 436.771L712.817 424.384L716.212 436.771L719.911 433.995L724.431 432.357" stroke="#38B1D2" stroke-width="1.13548"/>
<path d="M724.431 432.357L727.889 434.707L732.44 433.995L736.809 436.771L738.63 424.384L742.817 436.771L745.183 434.707H750.462L755.924 431.574L761.567 434.707L765.026 432.357L768.302 434.707L773.582 433.995L776.858 436.771L779.589 424.384L783.048 436.771L786.816 433.995L791.422 432.357" stroke="#38B1D2" stroke-width="1.13548"/>
<path d="M264.3 69.457L267.695 71.8064L272.161 71.0944L276.449 73.871L278.236 61.4834L282.345 73.871L284.668 71.8064H289.85L295.21 68.6739L300.748 71.8064L304.143 69.457L307.359 71.8064L312.54 71.0944L315.757 73.871L318.437 61.4834L321.831 73.871L325.53 71.0944L330.05 69.457" stroke="#38B1D2" stroke-width="1.13548"/>
<path d="M330.05 69.457L333.509 71.8064L338.06 71.0944L342.429 73.871L344.249 61.4834L348.436 73.871L350.802 71.8064H356.082L361.543 68.6739L367.186 71.8064L370.645 69.457L373.922 71.8064L379.201 71.0944L382.477 73.871L385.208 61.4834L388.667 73.871L392.435 71.0944L397.041 69.457" stroke="#38B1D2" stroke-width="1.13548"/>
<path d="M395.382 69.457L398.777 71.8064L403.243 71.0944L407.531 73.871L409.318 61.4834L413.427 73.871L415.75 71.8064H420.932L426.292 68.6739L431.83 71.8064L435.225 69.457L438.441 71.8064L443.623 71.0944L446.839 73.871L449.519 61.4834L452.913 73.871L456.612 71.0944L461.132 69.457" stroke="#38B1D2" stroke-width="1.13548"/>
<path d="M461.132 69.457L464.591 71.8064L469.142 71.0944L473.511 73.871L475.331 61.4834L479.518 73.871L481.885 71.8064H487.164L492.625 68.6739L498.269 71.8064L501.727 69.457L505.004 71.8064L510.283 71.0944L513.56 73.871L516.291 61.4834L519.749 73.871L523.518 71.0944L528.123 69.457" stroke="#38B1D2" stroke-width="1.13548"/>
<path d="M527.599 69.457L530.993 71.8064L535.46 71.0944L539.748 73.871L541.535 61.4834L545.644 73.871L547.967 71.8064H553.148L558.508 68.6739L564.047 71.8064L567.442 69.457L570.658 71.8064L575.839 71.0944L579.055 73.871L581.735 61.4834L585.13 73.871L588.829 71.0944L593.349 69.457" stroke="#38B1D2" stroke-width="1.13548"/>
<path d="M593.349 69.457L596.807 71.8064L601.358 71.0944L605.727 73.871L607.548 61.4834L611.735 73.871L614.101 71.8064H619.38L624.842 68.6739L630.485 71.8064L633.944 69.457L637.22 71.8064L642.5 71.0944L645.776 73.871L648.507 61.4834L651.966 73.871L655.734 71.0944L660.339 69.457" stroke="#38B1D2" stroke-width="1.13548"/>
<path d="M658.681 69.457L662.075 71.8064L666.542 71.0944L670.83 73.871L672.617 61.4834L676.726 73.871L679.049 71.8064H684.23L689.59 68.6739L695.129 71.8064L698.524 69.457L701.74 71.8064L706.921 71.0944L710.137 73.871L712.817 61.4834L716.212 73.871L719.911 71.0944L724.431 69.457" stroke="#38B1D2" stroke-width="1.13548"/>
<path d="M724.431 69.457L727.89 71.8064L732.441 71.0944L736.81 73.871L738.63 61.4834L742.817 73.871L745.184 71.8064H750.463L755.924 68.6739L761.567 71.8064L765.026 69.457L768.303 71.8064L773.582 71.0944L776.859 73.871L779.589 61.4834L783.048 73.871L786.816 71.0944L791.422 69.457" stroke="#38B1D2" stroke-width="1.13548"/>
</svg>
