<svg width="671" height="270" viewBox="0 0 671 270" fill="none" xmlns="http://www.w3.org/2000/svg">
<path d="M21.753 46V27.954H25.0529L33.5345 40.6635V27.954H36.8343V46H33.5345L25.0529 33.3162V46H21.753ZM46.4684 46.3094C45.1794 46.3094 44.0365 46.0344 43.0397 45.4844C42.0428 44.9344 41.2608 44.161 40.6937 43.1642C40.1265 42.1674 39.8429 41.0159 39.8429 39.7097C39.8429 38.3863 40.1179 37.209 40.6679 36.1778C41.2351 35.1466 42.0085 34.3474 42.9881 33.7803C43.9849 33.1959 45.1536 32.9038 46.4942 32.9038C47.7488 32.9038 48.8574 33.1787 49.8198 33.7287C50.7823 34.2787 51.5299 35.0349 52.0627 35.9974C52.6126 36.9426 52.8876 37.9996 52.8876 39.1683C52.8876 39.3574 52.879 39.555 52.8618 39.7612C52.8618 39.9675 52.8533 40.1823 52.8361 40.4057H43.117C43.1858 41.4026 43.5295 42.1846 44.1482 42.7517C44.7841 43.3189 45.5489 43.6025 46.4426 43.6025C47.1129 43.6025 47.6715 43.4564 48.1183 43.1642C48.5824 42.8548 48.9261 42.4595 49.1495 41.9783H52.5009C52.2603 42.7861 51.8564 43.5251 51.2893 44.1954C50.7393 44.8485 50.0518 45.3641 49.2269 45.7422C48.4191 46.1203 47.4996 46.3094 46.4684 46.3094ZM46.4942 35.5849C45.6864 35.5849 44.9732 35.8169 44.3544 36.2809C43.7357 36.7278 43.3404 37.4153 43.1686 38.3433H49.5362C49.4847 37.5012 49.1753 36.8309 48.6081 36.3325C48.041 35.8341 47.3363 35.5849 46.4942 35.5849ZM57.6602 46L53.9221 33.2131H57.1961L59.4132 42.4166L61.9912 33.2131H65.652L68.23 42.4166L70.4728 33.2131H73.7469L69.983 46H66.5543L63.8216 36.4356L61.0889 46H57.6602ZM89.551 46.3094C88.5886 46.3094 87.7464 46.1289 87.0246 45.768C86.3027 45.4071 85.7184 44.9001 85.2715 44.247L84.9106 46H81.9717V27.4384H85.2715V35.0435C85.684 34.4763 86.2254 33.9779 86.8957 33.5483C87.5831 33.1186 88.4683 32.9038 89.551 32.9038C90.7541 32.9038 91.8283 33.1959 92.7735 33.7803C93.7188 34.3646 94.4664 35.1638 95.0164 36.1778C95.5664 37.1918 95.8413 38.3433 95.8413 39.6323C95.8413 40.9213 95.5664 42.0728 95.0164 43.0869C94.4664 44.0837 93.7188 44.8743 92.7735 45.4586C91.8283 46.0258 90.7541 46.3094 89.551 46.3094ZM88.855 43.422C89.9033 43.422 90.7713 43.0697 91.4587 42.365C92.1462 41.6604 92.4899 40.7495 92.4899 39.6323C92.4899 38.5152 92.1462 37.5957 91.4587 36.8739C90.7713 36.152 89.9033 35.7911 88.855 35.7911C87.7894 35.7911 86.9129 36.152 86.2254 36.8739C85.5551 37.5785 85.22 38.4894 85.22 39.6066C85.22 40.7237 85.5551 41.6432 86.2254 42.365C86.9129 43.0697 87.7894 43.422 88.855 43.422ZM103.584 46.3094C101.986 46.3094 100.748 45.8109 99.8719 44.8141C99.0125 43.8173 98.5829 42.3564 98.5829 40.4315V33.2131H101.857V40.1222C101.857 41.2221 102.08 42.0643 102.527 42.6486C102.974 43.2329 103.679 43.5251 104.641 43.5251C105.552 43.5251 106.3 43.1986 106.884 42.5455C107.486 41.8924 107.786 40.9815 107.786 39.8128V33.2131H111.086V46H108.173L107.915 43.8345C107.52 44.5907 106.944 45.1922 106.188 45.6391C105.449 46.0859 104.581 46.3094 103.584 46.3094ZM119.759 46.3094C118.624 46.3094 117.627 46.1289 116.768 45.768C115.909 45.3899 115.221 44.8743 114.706 44.2212C114.19 43.5681 113.881 42.8119 113.778 41.9525H117.103C117.206 42.451 117.481 42.8806 117.928 43.2415C118.392 43.5853 118.985 43.7571 119.707 43.7571C120.429 43.7571 120.953 43.6111 121.28 43.3189C121.623 43.0267 121.795 42.6916 121.795 42.3135C121.795 41.7635 121.555 41.394 121.073 41.2049C120.592 40.9987 119.922 40.801 119.062 40.612C118.513 40.4917 117.954 40.3456 117.387 40.1737C116.82 40.0019 116.295 39.787 115.814 39.5292C115.35 39.2542 114.972 38.9105 114.68 38.498C114.388 38.0684 114.242 37.5442 114.242 36.9254C114.242 35.7911 114.688 34.8373 115.582 34.0639C116.493 33.2905 117.765 32.9038 119.398 32.9038C120.91 32.9038 122.113 33.2561 123.007 33.9607C123.918 34.6654 124.459 35.6364 124.631 36.8739H121.512C121.323 35.9286 120.609 35.456 119.372 35.456C118.753 35.456 118.272 35.5763 117.928 35.8169C117.602 36.0575 117.438 36.3583 117.438 36.7192C117.438 37.0973 117.688 37.3981 118.186 37.6215C118.684 37.8449 119.346 38.0512 120.171 38.2402C121.065 38.4465 121.881 38.6785 122.62 38.9363C123.376 39.1769 123.978 39.5464 124.425 40.0448C124.872 40.526 125.095 41.2221 125.095 42.133C125.112 42.9236 124.906 43.6368 124.476 44.2727C124.047 44.9086 123.428 45.4071 122.62 45.768C121.812 46.1289 120.858 46.3094 119.759 46.3094ZM129.797 31.2281C129.195 31.2281 128.697 31.0476 128.302 30.6867C127.924 30.3258 127.735 29.8703 127.735 29.3203C127.735 28.7704 127.924 28.3235 128.302 27.9798C128.697 27.6189 129.195 27.4384 129.797 27.4384C130.399 27.4384 130.888 27.6189 131.266 27.9798C131.662 28.3235 131.859 28.7704 131.859 29.3203C131.859 29.8703 131.662 30.3258 131.266 30.6867C130.888 31.0476 130.399 31.2281 129.797 31.2281ZM128.147 46V33.2131H131.447V46H128.147ZM134.891 46V33.2131H137.804L138.062 35.3786C138.457 34.6224 139.025 34.0209 139.764 33.574C140.52 33.1272 141.405 32.9038 142.419 32.9038C144 32.9038 145.229 33.4022 146.105 34.399C146.982 35.3958 147.42 36.8567 147.42 38.7816V46H144.12V39.091C144.12 37.991 143.897 37.1489 143.45 36.5645C143.003 35.9802 142.307 35.688 141.362 35.688C140.434 35.688 139.669 36.0145 139.068 36.6676C138.483 37.3207 138.191 38.2316 138.191 39.4003V46H134.891ZM156.789 46.3094C155.5 46.3094 154.357 46.0344 153.36 45.4844C152.363 44.9344 151.581 44.161 151.014 43.1642C150.447 42.1674 150.163 41.0159 150.163 39.7097C150.163 38.3863 150.438 37.209 150.988 36.1778C151.555 35.1466 152.329 34.3474 153.308 33.7803C154.305 33.1959 155.474 32.9038 156.814 32.9038C158.069 32.9038 159.178 33.1787 160.14 33.7287C161.103 34.2787 161.85 35.0349 162.383 35.9974C162.933 36.9426 163.208 37.9996 163.208 39.1683C163.208 39.3574 163.199 39.555 163.182 39.7612C163.182 39.9675 163.174 40.1823 163.156 40.4057H153.437C153.506 41.4026 153.85 42.1846 154.468 42.7517C155.104 43.3189 155.869 43.6025 156.763 43.6025C157.433 43.6025 157.992 43.4564 158.439 43.1642C158.903 42.8548 159.246 42.4595 159.47 41.9783H162.821C162.581 42.7861 162.177 43.5251 161.61 44.1954C161.06 44.8485 160.372 45.3641 159.547 45.7422C158.739 46.1203 157.82 46.3094 156.789 46.3094ZM156.814 35.5849C156.007 35.5849 155.293 35.8169 154.675 36.2809C154.056 36.7278 153.661 37.4153 153.489 38.3433H159.857C159.805 37.5012 159.496 36.8309 158.928 36.3325C158.361 35.8341 157.657 35.5849 156.814 35.5849ZM171.268 46.3094C170.134 46.3094 169.137 46.1289 168.278 45.768C167.418 45.3899 166.731 44.8743 166.215 44.2212C165.7 43.5681 165.39 42.8119 165.287 41.9525H168.613C168.716 42.451 168.991 42.8806 169.438 43.2415C169.902 43.5853 170.495 43.7571 171.217 43.7571C171.938 43.7571 172.463 43.6111 172.789 43.3189C173.133 43.0267 173.305 42.6916 173.305 42.3135C173.305 41.7635 173.064 41.394 172.583 41.2049C172.102 40.9987 171.431 40.801 170.572 40.612C170.022 40.4917 169.464 40.3456 168.896 40.1737C168.329 40.0019 167.805 39.787 167.324 39.5292C166.86 39.2542 166.482 38.9105 166.19 38.498C165.897 38.0684 165.751 37.5442 165.751 36.9254C165.751 35.7911 166.198 34.8373 167.092 34.0639C168.003 33.2905 169.275 32.9038 170.907 32.9038C172.42 32.9038 173.623 33.2561 174.516 33.9607C175.427 34.6654 175.969 35.6364 176.141 36.8739H173.021C172.832 35.9286 172.119 35.456 170.881 35.456C170.263 35.456 169.782 35.5763 169.438 35.8169C169.111 36.0575 168.948 36.3583 168.948 36.7192C168.948 37.0973 169.197 37.3981 169.696 37.6215C170.194 37.8449 170.856 38.0512 171.681 38.2402C172.574 38.4465 173.391 38.6785 174.13 38.9363C174.886 39.1769 175.488 39.5464 175.934 40.0448C176.381 40.526 176.605 41.2221 176.605 42.133C176.622 42.9236 176.416 43.6368 175.986 44.2727C175.556 44.9086 174.938 45.4071 174.13 45.768C173.322 46.1289 172.368 46.3094 171.268 46.3094ZM184.813 46.3094C183.678 46.3094 182.682 46.1289 181.822 45.768C180.963 45.3899 180.275 44.8743 179.76 44.2212C179.244 43.5681 178.935 42.8119 178.832 41.9525H182.157C182.261 42.451 182.536 42.8806 182.982 43.2415C183.446 43.5853 184.039 43.7571 184.761 43.7571C185.483 43.7571 186.007 43.6111 186.334 43.3189C186.678 43.0267 186.849 42.6916 186.849 42.3135C186.849 41.7635 186.609 41.394 186.128 41.2049C185.646 40.9987 184.976 40.801 184.117 40.612C183.567 40.4917 183.008 40.3456 182.441 40.1737C181.874 40.0019 181.35 39.787 180.868 39.5292C180.404 39.2542 180.026 38.9105 179.734 38.498C179.442 38.0684 179.296 37.5442 179.296 36.9254C179.296 35.7911 179.743 34.8373 180.636 34.0639C181.547 33.2905 182.819 32.9038 184.452 32.9038C185.964 32.9038 187.167 33.2561 188.061 33.9607C188.972 34.6654 189.513 35.6364 189.685 36.8739H186.566C186.377 35.9286 185.663 35.456 184.426 35.456C183.807 35.456 183.326 35.5763 182.982 35.8169C182.656 36.0575 182.493 36.3583 182.493 36.7192C182.493 37.0973 182.742 37.3981 183.24 37.6215C183.739 37.8449 184.4 38.0512 185.225 38.2402C186.119 38.4465 186.935 38.6785 187.674 38.9363C188.431 39.1769 189.032 39.5464 189.479 40.0448C189.926 40.526 190.149 41.2221 190.149 42.133C190.166 42.9236 189.96 43.6368 189.53 44.2727C189.101 44.9086 188.482 45.4071 187.674 45.768C186.867 46.1289 185.913 46.3094 184.813 46.3094ZM205.48 46.3094C204.174 46.3094 203.022 46.0258 202.025 45.4586C201.029 44.8915 200.238 44.1009 199.654 43.0869C199.086 42.0728 198.803 40.9127 198.803 39.6066C198.803 38.3004 199.086 37.1403 199.654 36.1263C200.238 35.1122 201.029 34.3217 202.025 33.7545C203.022 33.1873 204.174 32.9038 205.48 32.9038C207.113 32.9038 208.488 33.3334 209.605 34.1928C210.722 35.0349 211.435 36.2036 211.744 37.6988H208.264C208.092 37.0801 207.748 36.5989 207.233 36.2552C206.734 35.8942 206.142 35.7138 205.454 35.7138C204.543 35.7138 203.77 36.0575 203.134 36.745C202.498 37.4324 202.18 38.3863 202.18 39.6066C202.18 40.8268 202.498 41.7807 203.134 42.4681C203.77 43.1556 204.543 43.4993 205.454 43.4993C206.142 43.4993 206.734 43.3275 207.233 42.9837C207.748 42.64 208.092 42.1502 208.264 41.5143H211.744C211.435 42.958 210.722 44.1181 209.605 44.9946C208.488 45.8711 207.113 46.3094 205.48 46.3094ZM220.809 46.3094C219.571 46.3094 218.454 46.0258 217.457 45.4586C216.478 44.8915 215.696 44.1095 215.112 43.1126C214.544 42.0986 214.261 40.9299 214.261 39.6066C214.261 38.2832 214.553 37.1231 215.137 36.1263C215.722 35.1122 216.504 34.3217 217.483 33.7545C218.48 33.1873 219.597 32.9038 220.835 32.9038C222.055 32.9038 223.155 33.1873 224.135 33.7545C225.131 34.3217 225.913 35.1122 226.48 36.1263C227.065 37.1231 227.357 38.2832 227.357 39.6066C227.357 40.9299 227.065 42.0986 226.48 43.1126C225.913 44.1095 225.131 44.8915 224.135 45.4586C223.138 46.0258 222.029 46.3094 220.809 46.3094ZM220.809 43.4478C221.668 43.4478 222.416 43.1298 223.052 42.4939C223.688 41.8408 224.006 40.8784 224.006 39.6066C224.006 38.3347 223.688 37.3809 223.052 36.745C222.416 36.0919 221.677 35.7653 220.835 35.7653C219.958 35.7653 219.202 36.0919 218.566 36.745C217.947 37.3809 217.638 38.3347 217.638 39.6066C217.638 40.8784 217.947 41.8408 218.566 42.4939C219.202 43.1298 219.95 43.4478 220.809 43.4478ZM230.307 46V33.2131H233.221L233.478 35.3786C233.874 34.6224 234.441 34.0209 235.18 33.574C235.936 33.1272 236.821 32.9038 237.835 32.9038C239.416 32.9038 240.645 33.4022 241.522 34.399C242.398 35.3958 242.836 36.8567 242.836 38.7816V46H239.537V39.091C239.537 37.991 239.313 37.1489 238.866 36.5645C238.42 35.9802 237.723 35.688 236.778 35.688C235.85 35.688 235.085 36.0145 234.484 36.6676C233.899 37.3207 233.607 38.2316 233.607 39.4003V46H230.307ZM251.277 46.3094C250.143 46.3094 249.146 46.1289 248.286 45.768C247.427 45.3899 246.74 44.8743 246.224 44.2212C245.708 43.5681 245.399 42.8119 245.296 41.9525H248.621C248.725 42.451 249 42.8806 249.446 43.2415C249.91 43.5853 250.503 43.7571 251.225 43.7571C251.947 43.7571 252.471 43.6111 252.798 43.3189C253.142 43.0267 253.313 42.6916 253.313 42.3135C253.313 41.7635 253.073 41.394 252.592 41.2049C252.11 40.9987 251.44 40.801 250.581 40.612C250.031 40.4917 249.472 40.3456 248.905 40.1737C248.338 40.0019 247.814 39.787 247.332 39.5292C246.868 39.2542 246.49 38.9105 246.198 38.498C245.906 38.0684 245.76 37.5442 245.76 36.9254C245.76 35.7911 246.207 34.8373 247.1 34.0639C248.011 33.2905 249.283 32.9038 250.916 32.9038C252.428 32.9038 253.631 33.2561 254.525 33.9607C255.436 34.6654 255.977 35.6364 256.149 36.8739H253.03C252.841 35.9286 252.128 35.456 250.89 35.456C250.271 35.456 249.79 35.5763 249.446 35.8169C249.12 36.0575 248.957 36.3583 248.957 36.7192C248.957 37.0973 249.206 37.3981 249.704 37.6215C250.203 37.8449 250.864 38.0512 251.689 38.2402C252.583 38.4465 253.399 38.6785 254.138 38.9363C254.895 39.1769 255.496 39.5464 255.943 40.0448C256.39 40.526 256.613 41.2221 256.613 42.133C256.63 42.9236 256.424 43.6368 255.995 44.2727C255.565 44.9086 254.946 45.4071 254.138 45.768C253.331 46.1289 252.377 46.3094 251.277 46.3094ZM264.831 46C263.49 46 262.416 45.6735 261.609 45.0204C260.801 44.3673 260.397 43.2072 260.397 41.5401V35.9716H258.206V33.2131H260.397L260.784 29.7844H263.697V33.2131H267.151V35.9716H263.697V41.5658C263.697 42.1846 263.826 42.6142 264.083 42.8548C264.358 43.0783 264.822 43.19 265.476 43.19H267.074V46H264.831ZM269.984 46V33.2131H272.923L273.233 35.6107C273.697 34.7857 274.324 34.1326 275.115 33.6514C275.922 33.153 276.868 32.9038 277.95 32.9038V36.3841H277.022C276.301 36.3841 275.656 36.4958 275.089 36.7192C274.522 36.9426 274.075 37.3293 273.748 37.8793C273.439 38.4293 273.284 39.1941 273.284 40.1737V46H269.984ZM284.614 46.3094C283.514 46.3094 282.612 46.1375 281.907 45.7938C281.203 45.4328 280.678 44.9602 280.335 44.3759C279.991 43.7915 279.819 43.147 279.819 42.4424C279.819 41.2565 280.283 40.294 281.211 39.555C282.139 38.816 283.531 38.4465 285.388 38.4465H288.636V38.1371C288.636 37.2606 288.387 36.6161 287.888 36.2036C287.39 35.7911 286.771 35.5849 286.032 35.5849C285.362 35.5849 284.777 35.7482 284.279 36.0747C283.781 36.3841 283.471 36.8481 283.351 37.4668H280.128C280.214 36.5387 280.524 35.731 281.057 35.0435C281.607 34.356 282.311 33.8318 283.171 33.4709C284.03 33.0928 284.992 32.9038 286.058 32.9038C287.88 32.9038 289.315 33.3592 290.363 34.2701C291.412 35.181 291.936 36.47 291.936 38.1371V46H289.126L288.816 43.9376C288.438 44.6251 287.905 45.1922 287.218 45.6391C286.548 46.0859 285.68 46.3094 284.614 46.3094ZM285.362 43.7314C286.307 43.7314 287.038 43.422 287.553 42.8033C288.086 42.1846 288.421 41.4198 288.559 40.5089H285.749C284.872 40.5089 284.245 40.6721 283.867 40.9987C283.488 41.308 283.299 41.6947 283.299 42.1588C283.299 42.6572 283.488 43.0439 283.867 43.3189C284.245 43.5939 284.743 43.7314 285.362 43.7314ZM296.864 31.2281C296.262 31.2281 295.764 31.0476 295.368 30.6867C294.99 30.3258 294.801 29.8703 294.801 29.3203C294.801 28.7704 294.99 28.3235 295.368 27.9798C295.764 27.6189 296.262 27.4384 296.864 27.4384C297.465 27.4384 297.955 27.6189 298.333 27.9798C298.728 28.3235 298.926 28.7704 298.926 29.3203C298.926 29.8703 298.728 30.3258 298.333 30.6867C297.955 31.0476 297.465 31.2281 296.864 31.2281ZM295.214 46V33.2131H298.513V46H295.214ZM301.958 46V33.2131H304.871L305.129 35.3786C305.524 34.6224 306.091 34.0209 306.83 33.574C307.586 33.1272 308.471 32.9038 309.485 32.9038C311.067 32.9038 312.295 33.4022 313.172 34.399C314.049 35.3958 314.487 36.8567 314.487 38.7816V46H311.187V39.091C311.187 37.991 310.963 37.1489 310.517 36.5645C310.07 35.9802 309.374 35.688 308.428 35.688C307.5 35.688 306.736 36.0145 306.134 36.6676C305.55 37.3207 305.258 38.2316 305.258 39.4003V46H301.958ZM322.927 46.3094C321.793 46.3094 320.796 46.1289 319.937 45.768C319.077 45.3899 318.39 44.8743 317.874 44.2212C317.359 43.5681 317.049 42.8119 316.946 41.9525H320.272C320.375 42.451 320.65 42.8806 321.097 43.2415C321.561 43.5853 322.154 43.7571 322.876 43.7571C323.597 43.7571 324.122 43.6111 324.448 43.3189C324.792 43.0267 324.964 42.6916 324.964 42.3135C324.964 41.7635 324.723 41.394 324.242 41.2049C323.761 40.9987 323.09 40.801 322.231 40.612C321.681 40.4917 321.122 40.3456 320.555 40.1737C319.988 40.0019 319.464 39.787 318.983 39.5292C318.519 39.2542 318.141 38.9105 317.848 38.498C317.556 38.0684 317.41 37.5442 317.41 36.9254C317.41 35.7911 317.857 34.8373 318.751 34.0639C319.662 33.2905 320.933 32.9038 322.566 32.9038C324.079 32.9038 325.282 33.2561 326.175 33.9607C327.086 34.6654 327.628 35.6364 327.8 36.8739H324.68C324.491 35.9286 323.778 35.456 322.54 35.456C321.922 35.456 321.44 35.5763 321.097 35.8169C320.77 36.0575 320.607 36.3583 320.607 36.7192C320.607 37.0973 320.856 37.3981 321.355 37.6215C321.853 37.8449 322.515 38.0512 323.34 38.2402C324.233 38.4465 325.05 38.6785 325.789 38.9363C326.545 39.1769 327.146 39.5464 327.593 40.0448C328.04 40.526 328.264 41.2221 328.264 42.133C328.281 42.9236 328.074 43.6368 327.645 44.2727C327.215 44.9086 326.596 45.4071 325.789 45.768C324.981 46.1289 324.027 46.3094 322.927 46.3094ZM337.33 46V33.2131H340.243L340.501 35.3786C340.896 34.6224 341.463 34.0209 342.202 33.574C342.958 33.1272 343.843 32.9038 344.857 32.9038C346.439 32.9038 347.667 33.4022 348.544 34.399C349.42 35.3958 349.859 36.8567 349.859 38.7816V46H346.559V39.091C346.559 37.991 346.335 37.1489 345.889 36.5645C345.442 35.9802 344.746 35.688 343.8 35.688C342.872 35.688 342.108 36.0145 341.506 36.6676C340.922 37.3207 340.63 38.2316 340.63 39.4003V46H337.33ZM359.227 46.3094C357.938 46.3094 356.795 46.0344 355.798 45.4844C354.802 44.9344 354.02 44.161 353.452 43.1642C352.885 42.1674 352.602 41.0159 352.602 39.7097C352.602 38.3863 352.877 37.209 353.427 36.1778C353.994 35.1466 354.767 34.3474 355.747 33.7803C356.744 33.1959 357.912 32.9038 359.253 32.9038C360.508 32.9038 361.616 33.1787 362.579 33.7287C363.541 34.2787 364.289 35.0349 364.821 35.9974C365.371 36.9426 365.646 37.9996 365.646 39.1683C365.646 39.3574 365.638 39.555 365.621 39.7612C365.621 39.9675 365.612 40.1823 365.595 40.4057H355.876C355.944 41.4026 356.288 42.1846 356.907 42.7517C357.543 43.3189 358.308 43.6025 359.201 43.6025C359.872 43.6025 360.43 43.4564 360.877 43.1642C361.341 42.8548 361.685 42.4595 361.908 41.9783H365.26C365.019 42.7861 364.615 43.5251 364.048 44.1954C363.498 44.8485 362.811 45.3641 361.986 45.7422C361.178 46.1203 360.258 46.3094 359.227 46.3094ZM359.253 35.5849C358.445 35.5849 357.732 35.8169 357.113 36.2809C356.494 36.7278 356.099 37.4153 355.927 38.3433H362.295C362.243 37.5012 361.934 36.8309 361.367 36.3325C360.8 35.8341 360.095 35.5849 359.253 35.5849ZM374.635 46.3094C373.346 46.3094 372.203 46.0344 371.206 45.4844C370.209 44.9344 369.427 44.161 368.86 43.1642C368.293 42.1674 368.009 41.0159 368.009 39.7097C368.009 38.3863 368.284 37.209 368.834 36.1778C369.401 35.1466 370.175 34.3474 371.154 33.7803C372.151 33.1959 373.32 32.9038 374.661 32.9038C375.915 32.9038 377.024 33.1787 377.986 33.7287C378.949 34.2787 379.696 35.0349 380.229 35.9974C380.779 36.9426 381.054 37.9996 381.054 39.1683C381.054 39.3574 381.045 39.555 381.028 39.7612C381.028 39.9675 381.02 40.1823 381.002 40.4057H371.283C371.352 41.4026 371.696 42.1846 372.315 42.7517C372.95 43.3189 373.715 43.6025 374.609 43.6025C375.279 43.6025 375.838 43.4564 376.285 43.1642C376.749 42.8548 377.092 42.4595 377.316 41.9783H380.667C380.427 42.7861 380.023 43.5251 379.456 44.1954C378.906 44.8485 378.218 45.3641 377.393 45.7422C376.585 46.1203 375.666 46.3094 374.635 46.3094ZM374.661 35.5849C373.853 35.5849 373.14 35.8169 372.521 36.2809C371.902 36.7278 371.507 37.4153 371.335 38.3433H377.703C377.651 37.5012 377.342 36.8309 376.774 36.3325C376.207 35.8341 375.503 35.5849 374.661 35.5849ZM389.707 46.3094C388.504 46.3094 387.43 46.0172 386.485 45.4328C385.539 44.8485 384.792 44.0493 384.242 43.0353C383.692 42.0213 383.417 40.8698 383.417 39.5808C383.417 38.2918 383.692 37.1489 384.242 36.152C384.792 35.138 385.539 34.3474 386.485 33.7803C387.43 33.1959 388.504 32.9038 389.707 32.9038C390.67 32.9038 391.512 33.0842 392.234 33.4451C392.955 33.8061 393.54 34.3131 393.987 34.9662V27.4384H397.286V46H394.348L393.987 44.1696C393.574 44.7368 393.024 45.2352 392.337 45.6649C391.666 46.0945 390.79 46.3094 389.707 46.3094ZM390.403 43.422C391.469 43.422 392.337 43.0697 393.007 42.365C393.694 41.6432 394.038 40.7237 394.038 39.6066C394.038 38.4894 393.694 37.5785 393.007 36.8739C392.337 36.152 391.469 35.7911 390.403 35.7911C389.355 35.7911 388.487 36.1434 387.799 36.8481C387.112 37.5528 386.768 38.4636 386.768 39.5808C386.768 40.6979 387.112 41.6174 387.799 42.3392C388.487 43.0611 389.355 43.422 390.403 43.422ZM405.932 46.3094C404.797 46.3094 403.8 46.1289 402.941 45.768C402.082 45.3899 401.394 44.8743 400.879 44.2212C400.363 43.5681 400.054 42.8119 399.951 41.9525H403.276C403.379 42.451 403.654 42.8806 404.101 43.2415C404.565 43.5853 405.158 43.7571 405.88 43.7571C406.602 43.7571 407.126 43.6111 407.453 43.3189C407.796 43.0267 407.968 42.6916 407.968 42.3135C407.968 41.7635 407.728 41.394 407.246 41.2049C406.765 40.9987 406.095 40.801 405.236 40.612C404.686 40.4917 404.127 40.3456 403.56 40.1737C402.993 40.0019 402.469 39.787 401.987 39.5292C401.523 39.2542 401.145 38.9105 400.853 38.498C400.561 38.0684 400.415 37.5442 400.415 36.9254C400.415 35.7911 400.862 34.8373 401.755 34.0639C402.666 33.2905 403.938 32.9038 405.571 32.9038C407.083 32.9038 408.286 33.2561 409.18 33.9607C410.091 34.6654 410.632 35.6364 410.804 36.8739H407.685C407.496 35.9286 406.782 35.456 405.545 35.456C404.926 35.456 404.445 35.5763 404.101 35.8169C403.775 36.0575 403.611 36.3583 403.611 36.7192C403.611 37.0973 403.861 37.3981 404.359 37.6215C404.857 37.8449 405.519 38.0512 406.344 38.2402C407.238 38.4465 408.054 38.6785 408.793 38.9363C409.549 39.1769 410.151 39.5464 410.598 40.0448C411.045 40.526 411.268 41.2221 411.268 42.133C411.285 42.9236 411.079 43.6368 410.649 44.2727C410.22 44.9086 409.601 45.4071 408.793 45.768C407.985 46.1289 407.032 46.3094 405.932 46.3094ZM424.743 46.3094C423.643 46.3094 422.74 46.1375 422.036 45.7938C421.331 45.4328 420.807 44.9602 420.463 44.3759C420.119 43.7915 419.948 43.147 419.948 42.4424C419.948 41.2565 420.412 40.294 421.34 39.555C422.268 38.816 423.66 38.4465 425.516 38.4465H428.764V38.1371C428.764 37.2606 428.515 36.6161 428.017 36.2036C427.518 35.7911 426.9 35.5849 426.16 35.5849C425.49 35.5849 424.906 35.7482 424.407 36.0747C423.909 36.3841 423.6 36.8481 423.479 37.4668H420.257C420.343 36.5387 420.652 35.731 421.185 35.0435C421.735 34.356 422.44 33.8318 423.299 33.4709C424.158 33.0928 425.121 32.9038 426.186 32.9038C428.008 32.9038 429.443 33.3592 430.492 34.2701C431.54 35.181 432.064 36.47 432.064 38.1371V46H429.254L428.945 43.9376C428.567 44.6251 428.034 45.1922 427.346 45.6391C426.676 46.0859 425.808 46.3094 424.743 46.3094ZM425.49 43.7314C426.435 43.7314 427.166 43.422 427.682 42.8033C428.214 42.1846 428.549 41.4198 428.687 40.5089H425.877C425 40.5089 424.373 40.6721 423.995 40.9987C423.617 41.308 423.428 41.6947 423.428 42.1588C423.428 42.6572 423.617 43.0439 423.995 43.3189C424.373 43.5939 424.871 43.7314 425.49 43.7314ZM435.213 51.6716V33.2131H438.152L438.513 35.0435C438.925 34.4763 439.467 33.9779 440.137 33.5483C440.825 33.1186 441.71 32.9038 442.792 32.9038C443.996 32.9038 445.07 33.1959 446.015 33.7803C446.96 34.3646 447.708 35.1638 448.258 36.1778C448.808 37.1918 449.083 38.3433 449.083 39.6323C449.083 40.9213 448.808 42.0728 448.258 43.0869C447.708 44.0837 446.96 44.8743 446.015 45.4586C445.07 46.0258 443.996 46.3094 442.792 46.3094C441.83 46.3094 440.988 46.1289 440.266 45.768C439.544 45.4071 438.96 44.9001 438.513 44.247V51.6716H435.213ZM442.096 43.422C443.145 43.422 444.013 43.0697 444.7 42.365C445.388 41.6604 445.731 40.7495 445.731 39.6323C445.731 38.5152 445.388 37.5957 444.7 36.8739C444.013 36.152 443.145 35.7911 442.096 35.7911C441.031 35.7911 440.154 36.152 439.467 36.8739C438.797 37.5785 438.461 38.4894 438.461 39.6066C438.461 40.7237 438.797 41.6432 439.467 42.365C440.154 43.0697 441.031 43.422 442.096 43.422ZM452.031 51.6716V33.2131H454.969L455.33 35.0435C455.743 34.4763 456.284 33.9779 456.955 33.5483C457.642 33.1186 458.527 32.9038 459.61 32.9038C460.813 32.9038 461.887 33.1959 462.832 33.7803C463.778 34.3646 464.525 35.1638 465.075 36.1778C465.625 37.1918 465.9 38.3433 465.9 39.6323C465.9 40.9213 465.625 42.0728 465.075 43.0869C464.525 44.0837 463.778 44.8743 462.832 45.4586C461.887 46.0258 460.813 46.3094 459.61 46.3094C458.647 46.3094 457.805 46.1289 457.083 45.768C456.362 45.4071 455.777 44.9001 455.33 44.247V51.6716H452.031ZM458.914 43.422C459.962 43.422 460.83 43.0697 461.518 42.365C462.205 41.6604 462.549 40.7495 462.549 39.6323C462.549 38.5152 462.205 37.5957 461.518 36.8739C460.83 36.152 459.962 35.7911 458.914 35.7911C457.848 35.7911 456.972 36.152 456.284 36.8739C455.614 37.5785 455.279 38.4894 455.279 39.6066C455.279 40.7237 455.614 41.6432 456.284 42.365C456.972 43.0697 457.848 43.422 458.914 43.422ZM480.688 46C479.348 46 478.273 45.6735 477.466 45.0204C476.658 44.3673 476.254 43.2072 476.254 41.5401V35.9716H474.063V33.2131H476.254L476.641 29.7844H479.554V33.2131H483.008V35.9716H479.554V41.5658C479.554 42.1846 479.683 42.6142 479.941 42.8548C480.216 43.0783 480.68 43.19 481.333 43.19H482.931V46H480.688ZM491.65 46.3094C490.413 46.3094 489.295 46.0258 488.299 45.4586C487.319 44.8915 486.537 44.1095 485.953 43.1126C485.385 42.0986 485.102 40.9299 485.102 39.6066C485.102 38.2832 485.394 37.1231 485.978 36.1263C486.563 35.1122 487.345 34.3217 488.324 33.7545C489.321 33.1873 490.438 32.9038 491.676 32.9038C492.896 32.9038 493.996 33.1873 494.976 33.7545C495.972 34.3217 496.754 35.1122 497.322 36.1263C497.906 37.1231 498.198 38.2832 498.198 39.6066C498.198 40.9299 497.906 42.0986 497.322 43.1126C496.754 44.1095 495.972 44.8915 494.976 45.4586C493.979 46.0258 492.87 46.3094 491.65 46.3094ZM491.65 43.4478C492.509 43.4478 493.257 43.1298 493.893 42.4939C494.529 41.8408 494.847 40.8784 494.847 39.6066C494.847 38.3347 494.529 37.3809 493.893 36.745C493.257 36.0919 492.518 35.7653 491.676 35.7653C490.799 35.7653 490.043 36.0919 489.407 36.745C488.788 37.3809 488.479 38.3347 488.479 39.6066C488.479 40.8784 488.788 41.8408 489.407 42.4939C490.043 43.1298 490.791 43.4478 491.65 43.4478ZM514.871 46.3094C513.908 46.3094 513.066 46.1289 512.344 45.768C511.622 45.4071 511.038 44.9001 510.591 44.247L510.23 46H507.291V27.4384H510.591V35.0435C511.004 34.4763 511.545 33.9779 512.215 33.5483C512.903 33.1186 513.788 32.9038 514.871 32.9038C516.074 32.9038 517.148 33.1959 518.093 33.7803C519.038 34.3646 519.786 35.1638 520.336 36.1778C520.886 37.1918 521.161 38.3433 521.161 39.6323C521.161 40.9213 520.886 42.0728 520.336 43.0869C519.786 44.0837 519.038 44.8743 518.093 45.4586C517.148 46.0258 516.074 46.3094 514.871 46.3094ZM514.175 43.422C515.223 43.422 516.091 43.0697 516.778 42.365C517.466 41.6604 517.81 40.7495 517.81 39.6323C517.81 38.5152 517.466 37.5957 516.778 36.8739C516.091 36.152 515.223 35.7911 514.175 35.7911C513.109 35.7911 512.233 36.152 511.545 36.8739C510.875 37.5785 510.54 38.4894 510.54 39.6066C510.54 40.7237 510.875 41.6432 511.545 42.365C512.233 43.0697 513.109 43.422 514.175 43.422ZM530.322 46.3094C529.033 46.3094 527.89 46.0344 526.893 45.4844C525.896 44.9344 525.114 44.161 524.547 43.1642C523.98 42.1674 523.696 41.0159 523.696 39.7097C523.696 38.3863 523.971 37.209 524.521 36.1778C525.088 35.1466 525.862 34.3474 526.841 33.7803C527.838 33.1959 529.007 32.9038 530.348 32.9038C531.602 32.9038 532.711 33.1787 533.673 33.7287C534.636 34.2787 535.383 35.0349 535.916 35.9974C536.466 36.9426 536.741 37.9996 536.741 39.1683C536.741 39.3574 536.732 39.555 536.715 39.7612C536.715 39.9675 536.707 40.1823 536.689 40.4057H526.97C527.039 41.4026 527.383 42.1846 528.002 42.7517C528.637 43.3189 529.402 43.6025 530.296 43.6025C530.966 43.6025 531.525 43.4564 531.972 43.1642C532.436 42.8548 532.779 42.4595 533.003 41.9783H536.354C536.114 42.7861 535.71 43.5251 535.143 44.1954C534.593 44.8485 533.905 45.3641 533.08 45.7422C532.272 46.1203 531.353 46.3094 530.322 46.3094ZM530.348 35.5849C529.54 35.5849 528.827 35.8169 528.208 36.2809C527.589 36.7278 527.194 37.4153 527.022 38.3433H533.39C533.338 37.5012 533.029 36.8309 532.461 36.3325C531.894 35.8341 531.19 35.5849 530.348 35.5849ZM550.454 46.3094C548.856 46.3094 547.619 45.8109 546.742 44.8141C545.883 43.8173 545.453 42.3564 545.453 40.4315V33.2131H548.727V40.1222C548.727 41.2221 548.951 42.0643 549.397 42.6486C549.844 43.2329 550.549 43.5251 551.511 43.5251C552.422 43.5251 553.17 43.1986 553.754 42.5455C554.356 41.8924 554.657 40.9815 554.657 39.8128V33.2131H557.956V46H555.043L554.785 43.8345C554.39 44.5907 553.814 45.1922 553.058 45.6391C552.319 46.0859 551.451 46.3094 550.454 46.3094ZM561.344 51.6716V33.2131H564.283L564.644 35.0435C565.056 34.4763 565.597 33.9779 566.268 33.5483C566.955 33.1186 567.84 32.9038 568.923 32.9038C570.126 32.9038 571.2 33.1959 572.146 33.7803C573.091 34.3646 573.838 35.1638 574.388 36.1778C574.938 37.1918 575.213 38.3433 575.213 39.6323C575.213 40.9213 574.938 42.0728 574.388 43.0869C573.838 44.0837 573.091 44.8743 572.146 45.4586C571.2 46.0258 570.126 46.3094 568.923 46.3094C567.961 46.3094 567.119 46.1289 566.397 45.768C565.675 45.4071 565.09 44.9001 564.644 44.247V51.6716H561.344ZM568.227 43.422C569.275 43.422 570.143 43.0697 570.831 42.365C571.518 41.6604 571.862 40.7495 571.862 39.6323C571.862 38.5152 571.518 37.5957 570.831 36.8739C570.143 36.152 569.275 35.7911 568.227 35.7911C567.161 35.7911 566.285 36.152 565.597 36.8739C564.927 37.5785 564.592 38.4894 564.592 39.6066C564.592 40.7237 564.927 41.6432 565.597 42.365C566.285 43.0697 567.161 43.422 568.227 43.422ZM584.039 46.3094C582.836 46.3094 581.762 46.0172 580.817 45.4328C579.871 44.8485 579.124 44.0493 578.574 43.0353C578.024 42.0213 577.749 40.8698 577.749 39.5808C577.749 38.2918 578.024 37.1489 578.574 36.152C579.124 35.138 579.871 34.3474 580.817 33.7803C581.762 33.1959 582.836 32.9038 584.039 32.9038C585.001 32.9038 585.844 33.0842 586.565 33.4451C587.287 33.8061 587.872 34.3131 588.318 34.9662V27.4384H591.618V46H588.679L588.318 44.1696C587.906 44.7368 587.356 45.2352 586.669 45.6649C585.998 46.0945 585.122 46.3094 584.039 46.3094ZM584.735 43.422C585.801 43.422 586.669 43.0697 587.339 42.365C588.026 41.6432 588.37 40.7237 588.37 39.6066C588.37 38.4894 588.026 37.5785 587.339 36.8739C586.669 36.152 585.801 35.7911 584.735 35.7911C583.687 35.7911 582.819 36.1434 582.131 36.8481C581.444 37.5528 581.1 38.4636 581.1 39.5808C581.1 40.6979 581.444 41.6174 582.131 42.3392C582.819 43.0611 583.687 43.422 584.735 43.422ZM599.387 46.3094C598.287 46.3094 597.385 46.1375 596.68 45.7938C595.975 45.4328 595.451 44.9602 595.108 44.3759C594.764 43.7915 594.592 43.147 594.592 42.4424C594.592 41.2565 595.056 40.294 595.984 39.555C596.912 38.816 598.304 38.4465 600.16 38.4465H603.409V38.1371C603.409 37.2606 603.159 36.6161 602.661 36.2036C602.163 35.7911 601.544 35.5849 600.805 35.5849C600.135 35.5849 599.55 35.7482 599.052 36.0747C598.553 36.3841 598.244 36.8481 598.124 37.4668H594.901C594.987 36.5387 595.297 35.731 595.829 35.0435C596.379 34.356 597.084 33.8318 597.943 33.4709C598.803 33.0928 599.765 32.9038 600.831 32.9038C602.652 32.9038 604.088 33.3592 605.136 34.2701C606.184 35.181 606.709 36.47 606.709 38.1371V46H603.898L603.589 43.9376C603.211 44.6251 602.678 45.1922 601.991 45.6391C601.32 46.0859 600.453 46.3094 599.387 46.3094ZM600.135 43.7314C601.08 43.7314 601.81 43.422 602.326 42.8033C602.859 42.1846 603.194 41.4198 603.331 40.5089H600.521C599.645 40.5089 599.017 40.6721 598.639 40.9987C598.261 41.308 598.072 41.6947 598.072 42.1588C598.072 42.6572 598.261 43.0439 598.639 43.3189C599.017 43.5939 599.516 43.7314 600.135 43.7314ZM615.379 46C614.038 46 612.964 45.6735 612.156 45.0204C611.348 44.3673 610.944 43.2072 610.944 41.5401V35.9716H608.753V33.2131H610.944L611.331 29.7844H614.244V33.2131H617.699V35.9716H614.244V41.5658C614.244 42.1846 614.373 42.6142 614.631 42.8548C614.906 43.0783 615.37 43.19 616.023 43.19H617.621V46H615.379ZM626.418 46.3094C625.129 46.3094 623.986 46.0344 622.989 45.4844C621.992 44.9344 621.21 44.161 620.643 43.1642C620.076 42.1674 619.792 41.0159 619.792 39.7097C619.792 38.3863 620.067 37.209 620.617 36.1778C621.184 35.1466 621.958 34.3474 622.937 33.7803C623.934 33.1959 625.103 32.9038 626.444 32.9038C627.698 32.9038 628.807 33.1787 629.769 33.7287C630.732 34.2787 631.479 35.0349 632.012 35.9974C632.562 36.9426 632.837 37.9996 632.837 39.1683C632.837 39.3574 632.828 39.555 632.811 39.7612C632.811 39.9675 632.803 40.1823 632.785 40.4057H623.066C623.135 41.4026 623.479 42.1846 624.098 42.7517C624.733 43.3189 625.498 43.6025 626.392 43.6025C627.062 43.6025 627.621 43.4564 628.068 43.1642C628.532 42.8548 628.875 42.4595 629.099 41.9783H632.45C632.21 42.7861 631.806 43.5251 631.239 44.1954C630.689 44.8485 630.001 45.3641 629.176 45.7422C628.368 46.1203 627.449 46.3094 626.418 46.3094ZM626.444 35.5849C625.636 35.5849 624.922 35.8169 624.304 36.2809C623.685 36.7278 623.29 37.4153 623.118 38.3433H629.486C629.434 37.5012 629.125 36.8309 628.557 36.3325C627.99 35.8341 627.286 35.5849 626.444 35.5849ZM641.49 46.3094C640.287 46.3094 639.213 46.0172 638.268 45.4328C637.322 44.8485 636.575 44.0493 636.025 43.0353C635.475 42.0213 635.2 40.8698 635.2 39.5808C635.2 38.2918 635.475 37.1489 636.025 36.152C636.575 35.138 637.322 34.3474 638.268 33.7803C639.213 33.1959 640.287 32.9038 641.49 32.9038C642.453 32.9038 643.295 33.0842 644.017 33.4451C644.738 33.8061 645.323 34.3131 645.77 34.9662V27.4384H649.07V46H646.131L645.77 44.1696C645.357 44.7368 644.807 45.2352 644.12 45.6649C643.449 46.0945 642.573 46.3094 641.49 46.3094ZM642.186 43.422C643.252 43.422 644.12 43.0697 644.79 42.365C645.477 41.6432 645.821 40.7237 645.821 39.6066C645.821 38.4894 645.477 37.5785 644.79 36.8739C644.12 36.152 643.252 35.7911 642.186 35.7911C641.138 35.7911 640.27 36.1434 639.582 36.8481C638.895 37.5528 638.551 38.4636 638.551 39.5808C638.551 40.6979 638.895 41.6174 639.582 42.3392C640.27 43.0611 641.138 43.422 642.186 43.422Z" fill="#505050"/>
<rect x="0.5" y="0.5" width="670" height="73" rx="8.5" stroke="#16B0AF"/>
<path d="M25.9552 144V128.609H20.6961V125.954H34.5399V128.609H29.255V144H25.9552ZM36.907 144V125.438H40.2069V133.172C40.6366 132.468 41.2123 131.918 41.9341 131.522C42.6732 131.11 43.5153 130.904 44.4606 130.904C46.0418 130.904 47.262 131.402 48.1213 132.399C48.9979 133.396 49.4361 134.857 49.4361 136.782V144H46.1621V137.091C46.1621 135.991 45.9386 135.149 45.4918 134.565C45.0621 133.98 44.3747 133.688 43.4294 133.688C42.5013 133.688 41.7279 134.015 41.1092 134.668C40.5077 135.321 40.2069 136.232 40.2069 137.4V144H36.907ZM58.8045 144.309C57.5155 144.309 56.3726 144.034 55.3758 143.484C54.379 142.934 53.597 142.161 53.0298 141.164C52.4627 140.167 52.1791 139.016 52.1791 137.71C52.1791 136.386 52.4541 135.209 53.004 134.178C53.5712 133.147 54.3446 132.347 55.3242 131.78C56.3211 131.196 57.4898 130.904 58.8303 130.904C60.0849 130.904 61.1935 131.179 62.1559 131.729C63.1184 132.279 63.866 133.035 64.3988 133.997C64.9488 134.943 65.2238 136 65.2238 137.168C65.2238 137.357 65.2152 137.555 65.198 137.761C65.198 137.967 65.1894 138.182 65.1722 138.406H55.4531C55.5219 139.403 55.8656 140.185 56.4843 140.752C57.1202 141.319 57.8851 141.602 58.7788 141.602C59.449 141.602 60.0076 141.456 60.4545 141.164C60.9185 140.855 61.2622 140.46 61.4857 139.978H64.8371C64.5964 140.786 64.1926 141.525 63.6254 142.195C63.0754 142.848 62.388 143.364 61.563 143.742C60.7552 144.12 59.8357 144.309 58.8045 144.309ZM58.8303 133.585C58.0225 133.585 57.3093 133.817 56.6906 134.281C56.0719 134.728 55.6766 135.415 55.5047 136.343H61.8724C61.8208 135.501 61.5114 134.831 60.9443 134.332C60.3771 133.834 59.6725 133.585 58.8303 133.585ZM78.5504 144.309C77.4505 144.309 76.5482 144.137 75.8435 143.794C75.1389 143.433 74.6147 142.96 74.2709 142.376C73.9272 141.792 73.7553 141.147 73.7553 140.442C73.7553 139.256 74.2194 138.294 75.1475 137.555C76.0755 136.816 77.4677 136.446 79.3238 136.446H82.5721V136.137C82.5721 135.261 82.3229 134.616 81.8245 134.204C81.3261 133.791 80.7073 133.585 79.9683 133.585C79.298 133.585 78.7137 133.748 78.2153 134.075C77.7169 134.384 77.4075 134.848 77.2872 135.467H74.0647C74.1506 134.539 74.46 133.731 74.9928 133.043C75.5427 132.356 76.2474 131.832 77.1067 131.471C77.9661 131.093 78.9285 130.904 79.9941 130.904C81.8159 130.904 83.251 131.359 84.2994 132.27C85.3477 133.181 85.8719 134.47 85.8719 136.137V144H83.0619L82.7526 141.938C82.3744 142.625 81.8417 143.192 81.1542 143.639C80.4839 144.086 79.616 144.309 78.5504 144.309ZM79.298 141.731C80.2433 141.731 80.9737 141.422 81.4893 140.803C82.0221 140.185 82.3573 139.42 82.4948 138.509H79.6847C78.8082 138.509 78.1809 138.672 77.8028 138.999C77.4247 139.308 77.2356 139.695 77.2356 140.159C77.2356 140.657 77.4247 141.044 77.8028 141.319C78.1809 141.594 78.6793 141.731 79.298 141.731ZM89.0209 149.672V131.213H91.9598L92.3208 133.043C92.7332 132.476 93.2746 131.978 93.9449 131.548C94.6324 131.119 95.5175 130.904 96.6002 130.904C97.8033 130.904 98.8775 131.196 99.8227 131.78C100.768 132.365 101.516 133.164 102.066 134.178C102.616 135.192 102.891 136.343 102.891 137.632C102.891 138.921 102.616 140.073 102.066 141.087C101.516 142.084 100.768 142.874 99.8227 143.459C98.8775 144.026 97.8033 144.309 96.6002 144.309C95.6378 144.309 94.7956 144.129 94.0738 143.768C93.352 143.407 92.7676 142.9 92.3208 142.247V149.672H89.0209ZM95.9042 141.422C96.9526 141.422 97.8205 141.07 98.508 140.365C99.1954 139.66 99.5392 138.749 99.5392 137.632C99.5392 136.515 99.1954 135.596 98.508 134.874C97.8205 134.152 96.9526 133.791 95.9042 133.791C94.8386 133.791 93.9621 134.152 93.2746 134.874C92.6043 135.579 92.2692 136.489 92.2692 137.607C92.2692 138.724 92.6043 139.643 93.2746 140.365C93.9621 141.07 94.8386 141.422 95.9042 141.422ZM105.838 149.672V131.213H108.777L109.138 133.043C109.551 132.476 110.092 131.978 110.762 131.548C111.45 131.119 112.335 130.904 113.418 130.904C114.621 130.904 115.695 131.196 116.64 131.78C117.585 132.365 118.333 133.164 118.883 134.178C119.433 135.192 119.708 136.343 119.708 137.632C119.708 138.921 119.433 140.073 118.883 141.087C118.333 142.084 117.585 142.874 116.64 143.459C115.695 144.026 114.621 144.309 113.418 144.309C112.455 144.309 111.613 144.129 110.891 143.768C110.169 143.407 109.585 142.9 109.138 142.247V149.672H105.838ZM112.722 141.422C113.77 141.422 114.638 141.07 115.325 140.365C116.013 139.66 116.357 138.749 116.357 137.632C116.357 136.515 116.013 135.596 115.325 134.874C114.638 134.152 113.77 133.791 112.722 133.791C111.656 133.791 110.78 134.152 110.092 134.874C109.422 135.579 109.087 136.489 109.087 137.607C109.087 138.724 109.422 139.643 110.092 140.365C110.78 141.07 111.656 141.422 112.722 141.422ZM128.799 144V125.438H132.098V133.172C132.528 132.468 133.104 131.918 133.826 131.522C134.565 131.11 135.407 130.904 136.352 130.904C137.933 130.904 139.154 131.402 140.013 132.399C140.889 133.396 141.328 134.857 141.328 136.782V144H138.054V137.091C138.054 135.991 137.83 135.149 137.383 134.565C136.954 133.98 136.266 133.688 135.321 133.688C134.393 133.688 133.62 134.015 133.001 134.668C132.399 135.321 132.098 136.232 132.098 137.4V144H128.799ZM148.892 144.309C147.792 144.309 146.889 144.137 146.185 143.794C145.48 143.433 144.956 142.96 144.612 142.376C144.268 141.792 144.096 141.147 144.096 140.442C144.096 139.256 144.561 138.294 145.489 137.555C146.417 136.816 147.809 136.446 149.665 136.446H152.913V136.137C152.913 135.261 152.664 134.616 152.166 134.204C151.667 133.791 151.048 133.585 150.309 133.585C149.639 133.585 149.055 133.748 148.556 134.075C148.058 134.384 147.749 134.848 147.628 135.467H144.406C144.492 134.539 144.801 133.731 145.334 133.043C145.884 132.356 146.589 131.832 147.448 131.471C148.307 131.093 149.27 130.904 150.335 130.904C152.157 130.904 153.592 131.359 154.64 132.27C155.689 133.181 156.213 134.47 156.213 136.137V144H153.403L153.094 141.938C152.716 142.625 152.183 143.192 151.495 143.639C150.825 144.086 149.957 144.309 148.892 144.309ZM149.639 141.731C150.584 141.731 151.315 141.422 151.83 140.803C152.363 140.185 152.698 139.42 152.836 138.509H150.026C149.149 138.509 148.522 138.672 148.144 138.999C147.766 139.308 147.577 139.695 147.577 140.159C147.577 140.657 147.766 141.044 148.144 141.319C148.522 141.594 149.02 141.731 149.639 141.731ZM164.647 144.309C163.513 144.309 162.516 144.129 161.656 143.768C160.797 143.39 160.11 142.874 159.594 142.221C159.078 141.568 158.769 140.812 158.666 139.953H161.992C162.095 140.451 162.37 140.881 162.817 141.242C163.281 141.585 163.874 141.757 164.595 141.757C165.317 141.757 165.841 141.611 166.168 141.319C166.512 141.027 166.684 140.692 166.684 140.313C166.684 139.763 166.443 139.394 165.962 139.205C165.481 138.999 164.81 138.801 163.951 138.612C163.401 138.492 162.842 138.346 162.275 138.174C161.708 138.002 161.184 137.787 160.703 137.529C160.239 137.254 159.86 136.91 159.568 136.498C159.276 136.068 159.13 135.544 159.13 134.925C159.13 133.791 159.577 132.837 160.471 132.064C161.381 131.29 162.653 130.904 164.286 130.904C165.798 130.904 167.002 131.256 167.895 131.961C168.806 132.665 169.348 133.636 169.519 134.874H166.4C166.211 133.929 165.498 133.456 164.26 133.456C163.642 133.456 163.16 133.576 162.817 133.817C162.49 134.058 162.327 134.358 162.327 134.719C162.327 135.097 162.576 135.398 163.074 135.621C163.573 135.845 164.234 136.051 165.059 136.24C165.953 136.446 166.77 136.678 167.509 136.936C168.265 137.177 168.866 137.546 169.313 138.045C169.76 138.526 169.983 139.222 169.983 140.133C170.001 140.924 169.794 141.637 169.365 142.273C168.935 142.909 168.316 143.407 167.509 143.768C166.701 144.129 165.747 144.309 164.647 144.309ZM184.747 144C183.406 144 182.332 143.673 181.524 143.02C180.717 142.367 180.313 141.207 180.313 139.54V133.972H178.121V131.213H180.313L180.699 127.784H183.613V131.213H187.067V133.972H183.613V139.566C183.613 140.185 183.741 140.614 183.999 140.855C184.274 141.078 184.738 141.19 185.391 141.19H186.99V144H184.747ZM195.709 144.309C194.471 144.309 193.354 144.026 192.357 143.459C191.378 142.891 190.596 142.109 190.011 141.113C189.444 140.099 189.161 138.93 189.161 137.607C189.161 136.283 189.453 135.123 190.037 134.126C190.621 133.112 191.403 132.322 192.383 131.754C193.38 131.187 194.497 130.904 195.734 130.904C196.955 130.904 198.055 131.187 199.034 131.754C200.031 132.322 200.813 133.112 201.38 134.126C201.965 135.123 202.257 136.283 202.257 137.607C202.257 138.93 201.965 140.099 201.38 141.113C200.813 142.109 200.031 142.891 199.034 143.459C198.037 144.026 196.929 144.309 195.709 144.309ZM195.709 141.448C196.568 141.448 197.316 141.13 197.951 140.494C198.587 139.841 198.905 138.878 198.905 137.607C198.905 136.335 198.587 135.381 197.951 134.745C197.316 134.092 196.577 133.765 195.734 133.765C194.858 133.765 194.102 134.092 193.466 134.745C192.847 135.381 192.538 136.335 192.538 137.607C192.538 138.878 192.847 139.841 193.466 140.494C194.102 141.13 194.849 141.448 195.709 141.448ZM218.929 144.309C217.967 144.309 217.125 144.129 216.403 143.768C215.681 143.407 215.097 142.9 214.65 142.247L214.289 144H211.35V125.438H214.65V133.043C215.062 132.476 215.604 131.978 216.274 131.548C216.961 131.119 217.847 130.904 218.929 130.904C220.132 130.904 221.207 131.196 222.152 131.78C223.097 132.365 223.845 133.164 224.395 134.178C224.945 135.192 225.22 136.343 225.22 137.632C225.22 138.921 224.945 140.073 224.395 141.087C223.845 142.084 223.097 142.874 222.152 143.459C221.207 144.026 220.132 144.309 218.929 144.309ZM218.233 141.422C219.282 141.422 220.15 141.07 220.837 140.365C221.525 139.66 221.868 138.749 221.868 137.632C221.868 136.515 221.525 135.596 220.837 134.874C220.15 134.152 219.282 133.791 218.233 133.791C217.168 133.791 216.291 134.152 215.604 134.874C214.933 135.579 214.598 136.489 214.598 137.607C214.598 138.724 214.933 139.643 215.604 140.365C216.291 141.07 217.168 141.422 218.233 141.422ZM234.38 144.309C233.091 144.309 231.949 144.034 230.952 143.484C229.955 142.934 229.173 142.161 228.606 141.164C228.039 140.167 227.755 139.016 227.755 137.71C227.755 136.386 228.03 135.209 228.58 134.178C229.147 133.147 229.921 132.347 230.9 131.78C231.897 131.196 233.066 130.904 234.406 130.904C235.661 130.904 236.769 131.179 237.732 131.729C238.694 132.279 239.442 133.035 239.975 133.997C240.525 134.943 240.8 136 240.8 137.168C240.8 137.357 240.791 137.555 240.774 137.761C240.774 137.967 240.765 138.182 240.748 138.406H231.029C231.098 139.403 231.442 140.185 232.06 140.752C232.696 141.319 233.461 141.602 234.355 141.602C235.025 141.602 235.584 141.456 236.03 141.164C236.494 140.855 236.838 140.46 237.062 139.978H240.413C240.172 140.786 239.768 141.525 239.201 142.195C238.651 142.848 237.964 143.364 237.139 143.742C236.331 144.12 235.412 144.309 234.38 144.309ZM234.406 133.585C233.598 133.585 232.885 133.817 232.266 134.281C231.648 134.728 231.252 135.415 231.081 136.343H237.448C237.397 135.501 237.087 134.831 236.52 134.332C235.953 133.834 235.248 133.585 234.406 133.585ZM255.982 144.309C254.676 144.309 253.525 144.026 252.528 143.459C251.531 142.891 250.741 142.101 250.156 141.087C249.589 140.073 249.305 138.913 249.305 137.607C249.305 136.3 249.589 135.14 250.156 134.126C250.741 133.112 251.531 132.322 252.528 131.754C253.525 131.187 254.676 130.904 255.982 130.904C257.615 130.904 258.99 131.333 260.107 132.193C261.224 133.035 261.938 134.204 262.247 135.699H258.767C258.595 135.08 258.251 134.599 257.736 134.255C257.237 133.894 256.644 133.714 255.957 133.714C255.046 133.714 254.272 134.058 253.636 134.745C253.001 135.432 252.683 136.386 252.683 137.607C252.683 138.827 253.001 139.781 253.636 140.468C254.272 141.156 255.046 141.499 255.957 141.499C256.644 141.499 257.237 141.327 257.736 140.984C258.251 140.64 258.595 140.15 258.767 139.514H262.247C261.938 140.958 261.224 142.118 260.107 142.995C258.99 143.871 257.615 144.309 255.982 144.309ZM271.312 144.309C270.074 144.309 268.957 144.026 267.96 143.459C266.98 142.891 266.198 142.109 265.614 141.113C265.047 140.099 264.763 138.93 264.763 137.607C264.763 136.283 265.056 135.123 265.64 134.126C266.224 133.112 267.006 132.322 267.986 131.754C268.983 131.187 270.1 130.904 271.337 130.904C272.558 130.904 273.657 131.187 274.637 131.754C275.634 132.322 276.416 133.112 276.983 134.126C277.567 135.123 277.86 136.283 277.86 137.607C277.86 138.93 277.567 140.099 276.983 141.113C276.416 142.109 275.634 142.891 274.637 143.459C273.64 144.026 272.532 144.309 271.312 144.309ZM271.312 141.448C272.171 141.448 272.918 141.13 273.554 140.494C274.19 139.841 274.508 138.878 274.508 137.607C274.508 136.335 274.19 135.381 273.554 134.745C272.918 134.092 272.179 133.765 271.337 133.765C270.461 133.765 269.705 134.092 269.069 134.745C268.45 135.381 268.141 136.335 268.141 137.607C268.141 138.878 268.45 139.841 269.069 140.494C269.705 141.13 270.452 141.448 271.312 141.448ZM280.81 144V131.213H283.723L284.007 132.94C284.419 132.322 284.961 131.832 285.631 131.471C286.318 131.093 287.109 130.904 288.003 130.904C289.979 130.904 291.38 131.669 292.205 133.198C292.669 132.494 293.288 131.935 294.061 131.522C294.852 131.11 295.711 130.904 296.639 130.904C298.306 130.904 299.586 131.402 300.48 132.399C301.374 133.396 301.821 134.857 301.821 136.782V144H298.521V137.091C298.521 135.991 298.306 135.149 297.876 134.565C297.464 133.98 296.819 133.688 295.943 133.688C295.049 133.688 294.327 134.015 293.777 134.668C293.245 135.321 292.978 136.232 292.978 137.4V144H289.678V137.091C289.678 135.991 289.464 135.149 289.034 134.565C288.604 133.98 287.943 133.688 287.049 133.688C286.172 133.688 285.459 134.015 284.909 134.668C284.376 135.321 284.11 136.232 284.11 137.4V144H280.81ZM304.954 149.672V131.213H307.893L308.253 133.043C308.666 132.476 309.207 131.978 309.878 131.548C310.565 131.119 311.45 130.904 312.533 130.904C313.736 130.904 314.81 131.196 315.755 131.78C316.701 132.365 317.448 133.164 317.998 134.178C318.548 135.192 318.823 136.343 318.823 137.632C318.823 138.921 318.548 140.073 317.998 141.087C317.448 142.084 316.701 142.874 315.755 143.459C314.81 144.026 313.736 144.309 312.533 144.309C311.57 144.309 310.728 144.129 310.006 143.768C309.285 143.407 308.7 142.9 308.253 142.247V149.672H304.954ZM311.837 141.422C312.885 141.422 313.753 141.07 314.441 140.365C315.128 139.66 315.472 138.749 315.472 137.632C315.472 136.515 315.128 135.596 314.441 134.874C313.753 134.152 312.885 133.791 311.837 133.791C310.771 133.791 309.895 134.152 309.207 134.874C308.537 135.579 308.202 136.489 308.202 137.607C308.202 138.724 308.537 139.643 309.207 140.365C309.895 141.07 310.771 141.422 311.837 141.422ZM326.179 144.309C325.079 144.309 324.177 144.137 323.473 143.794C322.768 143.433 322.244 142.96 321.9 142.376C321.556 141.792 321.384 141.147 321.384 140.442C321.384 139.256 321.848 138.294 322.776 137.555C323.705 136.816 325.097 136.446 326.953 136.446H330.201V136.137C330.201 135.261 329.952 134.616 329.453 134.204C328.955 133.791 328.336 133.585 327.597 133.585C326.927 133.585 326.343 133.748 325.844 134.075C325.346 134.384 325.037 134.848 324.916 135.467H321.694C321.78 134.539 322.089 133.731 322.622 133.043C323.172 132.356 323.876 131.832 324.736 131.471C325.595 131.093 326.558 130.904 327.623 130.904C329.445 130.904 330.88 131.359 331.928 132.27C332.977 133.181 333.501 134.47 333.501 136.137V144H330.691L330.382 141.938C330.003 142.625 329.471 143.192 328.783 143.639C328.113 144.086 327.245 144.309 326.179 144.309ZM326.927 141.731C327.872 141.731 328.603 141.422 329.118 140.803C329.651 140.185 329.986 139.42 330.124 138.509H327.314C326.437 138.509 325.81 138.672 325.432 138.999C325.054 139.308 324.865 139.695 324.865 140.159C324.865 140.657 325.054 141.044 325.432 141.319C325.81 141.594 326.308 141.731 326.927 141.731ZM342.171 144C340.83 144 339.756 143.673 338.949 143.02C338.141 142.367 337.737 141.207 337.737 139.54V133.972H335.546V131.213H337.737L338.124 127.784H341.037V131.213H344.491V133.972H341.037V139.566C341.037 140.185 341.166 140.614 341.423 140.855C341.698 141.078 342.162 141.19 342.816 141.19H344.414V144H342.171ZM349.103 129.228C348.502 129.228 348.003 129.048 347.608 128.687C347.23 128.326 347.041 127.87 347.041 127.32C347.041 126.77 347.23 126.324 347.608 125.98C348.003 125.619 348.502 125.438 349.103 125.438C349.705 125.438 350.195 125.619 350.573 125.98C350.968 126.324 351.166 126.77 351.166 127.32C351.166 127.87 350.968 128.326 350.573 128.687C350.195 129.048 349.705 129.228 349.103 129.228ZM347.453 144V131.213H350.753V144H347.453ZM361.777 144.309C360.814 144.309 359.972 144.129 359.25 143.768C358.528 143.407 357.944 142.9 357.497 142.247L357.136 144H354.197V125.438H357.497V133.043C357.91 132.476 358.451 131.978 359.121 131.548C359.809 131.119 360.694 130.904 361.777 130.904C362.98 130.904 364.054 131.196 364.999 131.78C365.945 132.365 366.692 133.164 367.242 134.178C367.792 135.192 368.067 136.343 368.067 137.632C368.067 138.921 367.792 140.073 367.242 141.087C366.692 142.084 365.945 142.874 364.999 143.459C364.054 144.026 362.98 144.309 361.777 144.309ZM361.081 141.422C362.129 141.422 362.997 141.07 363.684 140.365C364.372 139.66 364.716 138.749 364.716 137.632C364.716 136.515 364.372 135.596 363.684 134.874C362.997 134.152 362.129 133.791 361.081 133.791C360.015 133.791 359.139 134.152 358.451 134.874C357.781 135.579 357.446 136.489 357.446 137.607C357.446 138.724 357.781 139.643 358.451 140.365C359.139 141.07 360.015 141.422 361.081 141.422ZM371.015 144V125.438H374.315V144H371.015ZM383.899 144.309C382.61 144.309 381.468 144.034 380.471 143.484C379.474 142.934 378.692 142.161 378.125 141.164C377.558 140.167 377.274 139.016 377.274 137.71C377.274 136.386 377.549 135.209 378.099 134.178C378.666 133.147 379.439 132.347 380.419 131.78C381.416 131.196 382.585 130.904 383.925 130.904C385.18 130.904 386.288 131.179 387.251 131.729C388.213 132.279 388.961 133.035 389.494 133.997C390.044 134.943 390.319 136 390.319 137.168C390.319 137.357 390.31 137.555 390.293 137.761C390.293 137.967 390.284 138.182 390.267 138.406H380.548C380.617 139.403 380.961 140.185 381.579 140.752C382.215 141.319 382.98 141.602 383.874 141.602C384.544 141.602 385.102 141.456 385.549 141.164C386.013 140.855 386.357 140.46 386.581 139.978H389.932C389.691 140.786 389.287 141.525 388.72 142.195C388.17 142.848 387.483 143.364 386.658 143.742C385.85 144.12 384.931 144.309 383.899 144.309ZM383.925 133.585C383.117 133.585 382.404 133.817 381.785 134.281C381.167 134.728 380.771 135.415 380.6 136.343H386.967C386.916 135.501 386.606 134.831 386.039 134.332C385.472 133.834 384.767 133.585 383.925 133.585ZM401.738 144L397.999 131.213H401.274L403.491 140.417L406.069 131.213H409.729L412.307 140.417L414.55 131.213H417.824L414.06 144H410.632L407.899 134.436L405.166 144H401.738ZM421.685 129.228C421.084 129.228 420.585 129.048 420.19 128.687C419.812 128.326 419.623 127.87 419.623 127.32C419.623 126.77 419.812 126.324 420.19 125.98C420.585 125.619 421.084 125.438 421.685 125.438C422.287 125.438 422.776 125.619 423.155 125.98C423.55 126.324 423.747 126.77 423.747 127.32C423.747 127.87 423.55 128.326 423.155 128.687C422.776 129.048 422.287 129.228 421.685 129.228ZM420.035 144V131.213H423.335V144H420.035ZM432.477 144C431.136 144 430.062 143.673 429.254 143.02C428.446 142.367 428.042 141.207 428.042 139.54V133.972H425.851V131.213H428.042L428.429 127.784H431.342V131.213H434.797V133.972H431.342V139.566C431.342 140.185 431.471 140.614 431.729 140.855C432.004 141.078 432.468 141.19 433.121 141.19H434.719V144H432.477ZM437.63 144V125.438H440.93V133.172C441.359 132.468 441.935 131.918 442.657 131.522C443.396 131.11 444.238 130.904 445.184 130.904C446.765 130.904 447.985 131.402 448.844 132.399C449.721 133.396 450.159 134.857 450.159 136.782V144H446.885V137.091C446.885 135.991 446.662 135.149 446.215 134.565C445.785 133.98 445.098 133.688 444.152 133.688C443.224 133.688 442.451 134.015 441.832 134.668C441.231 135.321 440.93 136.232 440.93 137.4V144H437.63ZM459.457 144V131.213H462.371L462.628 133.379C463.024 132.622 463.591 132.021 464.33 131.574C465.086 131.127 465.971 130.904 466.985 130.904C468.566 130.904 469.795 131.402 470.672 132.399C471.548 133.396 471.986 134.857 471.986 136.782V144H468.687V137.091C468.687 135.991 468.463 135.149 468.016 134.565C467.569 133.98 466.873 133.688 465.928 133.688C465 133.688 464.235 134.015 463.634 134.668C463.049 135.321 462.757 136.232 462.757 137.4V144H459.457ZM481.355 144.309C480.066 144.309 478.923 144.034 477.926 143.484C476.929 142.934 476.147 142.161 475.58 141.164C475.013 140.167 474.729 139.016 474.729 137.71C474.729 136.386 475.004 135.209 475.554 134.178C476.122 133.147 476.895 132.347 477.875 131.78C478.871 131.196 480.04 130.904 481.381 130.904C482.635 130.904 483.744 131.179 484.706 131.729C485.669 132.279 486.416 133.035 486.949 133.997C487.499 134.943 487.774 136 487.774 137.168C487.774 137.357 487.765 137.555 487.748 137.761C487.748 137.967 487.74 138.182 487.723 138.406H478.003C478.072 139.403 478.416 140.185 479.035 140.752C479.671 141.319 480.435 141.602 481.329 141.602C481.999 141.602 482.558 141.456 483.005 141.164C483.469 140.855 483.813 140.46 484.036 139.978H487.387C487.147 140.786 486.743 141.525 486.176 142.195C485.626 142.848 484.938 143.364 484.113 143.742C483.306 144.12 482.386 144.309 481.355 144.309ZM481.381 133.585C480.573 133.585 479.86 133.817 479.241 134.281C478.622 134.728 478.227 135.415 478.055 136.343H484.423C484.371 135.501 484.062 134.831 483.495 134.332C482.927 133.834 482.223 133.585 481.381 133.585ZM492.547 144L488.808 131.213H492.083L494.3 140.417L496.878 131.213H500.538L503.116 140.417L505.359 131.213H508.633L504.869 144H501.441L498.708 134.436L495.975 144H492.547ZM517.451 144V133.972H515.698V131.213H517.451V129.718C517.451 128.171 517.838 127.071 518.611 126.418C519.402 125.765 520.467 125.438 521.808 125.438H523.226V128.248H522.324C521.756 128.248 521.352 128.36 521.112 128.584C520.871 128.807 520.751 129.185 520.751 129.718V131.213H529.001V144H525.701V133.972H520.751V144H517.451ZM527.376 129.383C526.775 129.383 526.276 129.202 525.881 128.841C525.503 128.48 525.314 128.025 525.314 127.475C525.314 126.925 525.503 126.478 525.881 126.134C526.276 125.774 526.775 125.593 527.376 125.593C527.978 125.593 528.468 125.774 528.846 126.134C529.241 126.478 529.439 126.925 529.439 127.475C529.439 128.025 529.241 128.48 528.846 128.841C528.468 129.202 527.978 129.383 527.376 129.383ZM532.492 144V131.213H535.431L535.741 133.611C536.205 132.786 536.832 132.133 537.623 131.651C538.43 131.153 539.376 130.904 540.458 130.904V134.384H539.53C538.808 134.384 538.164 134.496 537.597 134.719C537.03 134.943 536.583 135.329 536.256 135.879C535.947 136.429 535.792 137.194 535.792 138.174V144H532.492ZM542.714 144V131.213H545.627L545.91 132.94C546.323 132.322 546.864 131.832 547.535 131.471C548.222 131.093 549.013 130.904 549.906 130.904C551.883 130.904 553.283 131.669 554.108 133.198C554.572 132.494 555.191 131.935 555.965 131.522C556.755 131.11 557.615 130.904 558.543 130.904C560.21 130.904 561.49 131.402 562.384 132.399C563.278 133.396 563.724 134.857 563.724 136.782V144H560.425V137.091C560.425 135.991 560.21 135.149 559.78 134.565C559.368 133.98 558.723 133.688 557.847 133.688C556.953 133.688 556.231 134.015 555.681 134.668C555.148 135.321 554.882 136.232 554.882 137.4V144H551.582V137.091C551.582 135.991 551.367 135.149 550.937 134.565C550.508 133.98 549.846 133.688 548.952 133.688C548.076 133.688 547.363 134.015 546.813 134.668C546.28 135.321 546.014 136.232 546.014 137.4V144H542.714ZM569.358 144L565.62 131.213H568.894L571.111 140.417L573.689 131.213H577.35L579.928 140.417L582.171 131.213H585.445L581.681 144H578.252L575.519 134.436L572.787 144H569.358ZM591.28 144.309C590.18 144.309 589.278 144.137 588.573 143.794C587.869 143.433 587.345 142.96 587.001 142.376C586.657 141.792 586.485 141.147 586.485 140.442C586.485 139.256 586.949 138.294 587.877 137.555C588.805 136.816 590.198 136.446 592.054 136.446H595.302V136.137C595.302 135.261 595.053 134.616 594.554 134.204C594.056 133.791 593.437 133.585 592.698 133.585C592.028 133.585 591.444 133.748 590.945 134.075C590.447 134.384 590.137 134.848 590.017 135.467H586.795C586.881 134.539 587.19 133.731 587.723 133.043C588.273 132.356 588.977 131.832 589.837 131.471C590.696 131.093 591.658 130.904 592.724 130.904C594.546 130.904 595.981 131.359 597.029 132.27C598.078 133.181 598.602 134.47 598.602 136.137V144H595.792L595.483 141.938C595.104 142.625 594.572 143.192 593.884 143.639C593.214 144.086 592.346 144.309 591.28 144.309ZM592.028 141.731C592.973 141.731 593.704 141.422 594.219 140.803C594.752 140.185 595.087 139.42 595.225 138.509H592.415C591.538 138.509 590.911 138.672 590.533 138.999C590.155 139.308 589.966 139.695 589.966 140.159C589.966 140.657 590.155 141.044 590.533 141.319C590.911 141.594 591.409 141.731 592.028 141.731ZM601.751 144V131.213H604.69L604.999 133.611C605.463 132.786 606.091 132.133 606.881 131.651C607.689 131.153 608.634 130.904 609.717 130.904V134.384H608.789C608.067 134.384 607.422 134.496 606.855 134.719C606.288 134.943 605.841 135.329 605.515 135.879C605.205 136.429 605.051 137.194 605.051 138.174V144H601.751ZM617.959 144.309C616.67 144.309 615.527 144.034 614.53 143.484C613.533 142.934 612.751 142.161 612.184 141.164C611.617 140.167 611.333 139.016 611.333 137.71C611.333 136.386 611.608 135.209 612.158 134.178C612.725 133.147 613.499 132.347 614.478 131.78C615.475 131.196 616.644 130.904 617.984 130.904C619.239 130.904 620.348 131.179 621.31 131.729C622.273 132.279 623.02 133.035 623.553 133.997C624.103 134.943 624.378 136 624.378 137.168C624.378 137.357 624.369 137.555 624.352 137.761C624.352 137.967 624.344 138.182 624.326 138.406H614.607C614.676 139.403 615.02 140.185 615.638 140.752C616.274 141.319 617.039 141.602 617.933 141.602C618.603 141.602 619.162 141.456 619.609 141.164C620.073 140.855 620.416 140.46 620.64 139.978H623.991C623.751 140.786 623.347 141.525 622.78 142.195C622.23 142.848 621.542 143.364 620.717 143.742C619.909 144.12 618.99 144.309 617.959 144.309ZM617.984 133.585C617.177 133.585 616.463 133.817 615.845 134.281C615.226 134.728 614.831 135.415 614.659 136.343H621.027C620.975 135.501 620.666 134.831 620.098 134.332C619.531 133.834 618.827 133.585 617.984 133.585Z" fill="#505050"/>
<rect x="0.5" y="98.5" width="645" height="73" rx="8.5" stroke="#16B0AF"/>
<path d="M20.5929 242L27.1926 223.954H30.9049L37.5046 242H33.9985L32.5549 237.824H25.5169L24.0475 242H20.5929ZM26.4192 235.246H31.6526L29.023 227.744L26.4192 235.246ZM45.8948 242V223.438H49.1946V242H45.8948ZM58.702 242.309C57.4646 242.309 56.3475 242.026 55.3506 241.459C54.371 240.891 53.589 240.109 53.0046 239.113C52.4375 238.099 52.1539 236.93 52.1539 235.607C52.1539 234.283 52.4461 233.123 53.0304 232.126C53.6148 231.112 54.3968 230.322 55.3764 229.754C56.3732 229.187 57.4904 228.904 58.7278 228.904C59.9481 228.904 61.048 229.187 62.0276 229.754C63.0245 230.322 63.8065 231.112 64.3736 232.126C64.958 233.123 65.2501 234.283 65.2501 235.607C65.2501 236.93 64.958 238.099 64.3736 239.113C63.8065 240.109 63.0245 240.891 62.0276 241.459C61.0308 242.026 59.9223 242.309 58.702 242.309ZM58.702 239.448C59.5614 239.448 60.309 239.13 60.9449 238.494C61.5808 237.841 61.8987 236.878 61.8987 235.607C61.8987 234.335 61.5808 233.381 60.9449 232.745C60.309 232.092 59.57 231.765 58.7278 231.765C57.8513 231.765 57.0951 232.092 56.4592 232.745C55.8404 233.381 55.5311 234.335 55.5311 235.607C55.5311 236.878 55.8404 237.841 56.4592 238.494C57.0951 239.13 57.8427 239.448 58.702 239.448ZM73.3944 242C72.0539 242 70.9797 241.673 70.1719 241.02C69.3641 240.367 68.9603 239.207 68.9603 237.54V231.972H66.769V229.213H68.9603L69.347 225.784H72.2601V229.213H75.7146V231.972H72.2601V237.566C72.2601 238.185 72.389 238.614 72.6468 238.855C72.9218 239.078 73.3858 239.19 74.0389 239.19H75.6373V242H73.3944ZM90.8263 242.309C89.5889 242.309 88.4718 242.026 87.4749 241.459C86.4953 240.891 85.7133 240.109 85.1289 239.113C84.5618 238.099 84.2782 236.93 84.2782 235.607C84.2782 234.283 84.5704 233.123 85.1547 232.126C85.7391 231.112 86.5211 230.322 87.5007 229.754C88.4975 229.187 89.6147 228.904 90.8521 228.904C92.0724 228.904 93.1723 229.187 94.1519 229.754C95.1488 230.322 95.9308 231.112 96.4979 232.126C97.0823 233.123 97.3744 234.283 97.3744 235.607C97.3744 236.93 97.0823 238.099 96.4979 239.113C95.9308 240.109 95.1488 240.891 94.1519 241.459C93.1551 242.026 92.0466 242.309 90.8263 242.309ZM90.8263 239.448C91.6857 239.448 92.4333 239.13 93.0692 238.494C93.7051 237.841 94.023 236.878 94.023 235.607C94.023 234.335 93.7051 233.381 93.0692 232.745C92.4333 232.092 91.6943 231.765 90.8521 231.765C89.9756 231.765 89.2194 232.092 88.5835 232.745C87.9647 233.381 87.6554 234.335 87.6554 235.607C87.6554 236.878 87.9647 237.841 88.5835 238.494C89.2194 239.13 89.967 239.448 90.8263 239.448ZM100.918 242V231.972H99.1647V229.213H100.918V227.718C100.918 226.171 101.304 225.071 102.078 224.418C102.868 223.765 103.934 223.438 105.275 223.438H106.693V226.248H105.79C105.223 226.248 104.819 226.36 104.579 226.584C104.338 226.807 104.218 227.185 104.218 227.718V229.213H106.976V231.972H104.218V242H100.918ZM120.528 242.309C118.929 242.309 117.692 241.811 116.815 240.814C115.956 239.817 115.526 238.356 115.526 236.432V229.213H118.8V236.122C118.8 237.222 119.024 238.064 119.471 238.649C119.917 239.233 120.622 239.525 121.584 239.525C122.495 239.525 123.243 239.199 123.827 238.545C124.429 237.892 124.73 236.981 124.73 235.813V229.213H128.029V242H125.116L124.859 239.834C124.463 240.591 123.887 241.192 123.131 241.639C122.392 242.086 121.524 242.309 120.528 242.309ZM136.702 242.309C135.568 242.309 134.571 242.129 133.711 241.768C132.852 241.39 132.165 240.874 131.649 240.221C131.133 239.568 130.824 238.812 130.721 237.953H134.046C134.15 238.451 134.425 238.881 134.871 239.242C135.335 239.585 135.928 239.757 136.65 239.757C137.372 239.757 137.896 239.611 138.223 239.319C138.567 239.027 138.738 238.692 138.738 238.313C138.738 237.763 138.498 237.394 138.017 237.205C137.535 236.999 136.865 236.801 136.006 236.612C135.456 236.492 134.897 236.346 134.33 236.174C133.763 236.002 133.239 235.787 132.757 235.529C132.293 235.254 131.915 234.91 131.623 234.498C131.331 234.068 131.185 233.544 131.185 232.925C131.185 231.791 131.632 230.837 132.525 230.064C133.436 229.29 134.708 228.904 136.341 228.904C137.853 228.904 139.056 229.256 139.95 229.961C140.861 230.665 141.402 231.636 141.574 232.874H138.455C138.266 231.929 137.553 231.456 136.315 231.456C135.696 231.456 135.215 231.576 134.871 231.817C134.545 232.058 134.382 232.358 134.382 232.719C134.382 233.097 134.631 233.398 135.129 233.621C135.628 233.845 136.289 234.051 137.114 234.24C138.008 234.446 138.824 234.678 139.563 234.936C140.32 235.177 140.921 235.546 141.368 236.045C141.815 236.526 142.038 237.222 142.038 238.133C142.055 238.924 141.849 239.637 141.42 240.273C140.99 240.909 140.371 241.407 139.563 241.768C138.756 242.129 137.802 242.309 136.702 242.309ZM149.37 242.309C148.27 242.309 147.368 242.137 146.663 241.794C145.958 241.433 145.434 240.96 145.09 240.376C144.747 239.792 144.575 239.147 144.575 238.442C144.575 237.256 145.039 236.294 145.967 235.555C146.895 234.816 148.287 234.446 150.143 234.446H153.392V234.137C153.392 233.261 153.142 232.616 152.644 232.204C152.146 231.791 151.527 231.585 150.788 231.585C150.118 231.585 149.533 231.748 149.035 232.075C148.536 232.384 148.227 232.848 148.107 233.467H144.884C144.97 232.539 145.279 231.731 145.812 231.043C146.362 230.356 147.067 229.832 147.926 229.471C148.786 229.093 149.748 228.904 150.814 228.904C152.635 228.904 154.07 229.359 155.119 230.27C156.167 231.181 156.691 232.47 156.691 234.137V242H153.881L153.572 239.938C153.194 240.625 152.661 241.192 151.974 241.639C151.303 242.086 150.435 242.309 149.37 242.309ZM150.118 239.731C151.063 239.731 151.793 239.422 152.309 238.803C152.842 238.185 153.177 237.42 153.314 236.509H150.504C149.628 236.509 149 236.672 148.622 236.999C148.244 237.308 148.055 237.695 148.055 238.159C148.055 238.657 148.244 239.044 148.622 239.319C149 239.594 149.499 239.731 150.118 239.731ZM167.42 242.309C166.457 242.309 165.615 242.129 164.893 241.768C164.171 241.407 163.587 240.9 163.14 240.247L162.779 242H159.84V223.438H163.14V231.043C163.553 230.476 164.094 229.978 164.764 229.548C165.452 229.119 166.337 228.904 167.42 228.904C168.623 228.904 169.697 229.196 170.642 229.78C171.587 230.365 172.335 231.164 172.885 232.178C173.435 233.192 173.71 234.343 173.71 235.632C173.71 236.921 173.435 238.073 172.885 239.087C172.335 240.084 171.587 240.874 170.642 241.459C169.697 242.026 168.623 242.309 167.42 242.309ZM166.724 239.422C167.772 239.422 168.64 239.07 169.327 238.365C170.015 237.66 170.359 236.749 170.359 235.632C170.359 234.515 170.015 233.596 169.327 232.874C168.64 232.152 167.772 231.791 166.724 231.791C165.658 231.791 164.782 232.152 164.094 232.874C163.424 233.579 163.089 234.489 163.089 235.607C163.089 236.724 163.424 237.643 164.094 238.365C164.782 239.07 165.658 239.422 166.724 239.422ZM178.437 227.228C177.835 227.228 177.337 227.048 176.941 226.687C176.563 226.326 176.374 225.87 176.374 225.32C176.374 224.77 176.563 224.324 176.941 223.98C177.337 223.619 177.835 223.438 178.437 223.438C179.038 223.438 179.528 223.619 179.906 223.98C180.301 224.324 180.499 224.77 180.499 225.32C180.499 225.87 180.301 226.326 179.906 226.687C179.528 227.048 179.038 227.228 178.437 227.228ZM176.787 242V229.213H180.087V242H176.787ZM183.531 242V223.438H186.831V242H183.531ZM191.981 227.228C191.38 227.228 190.881 227.048 190.486 226.687C190.108 226.326 189.919 225.87 189.919 225.32C189.919 224.77 190.108 224.324 190.486 223.98C190.881 223.619 191.38 223.438 191.981 223.438C192.583 223.438 193.073 223.619 193.451 223.98C193.846 224.324 194.044 224.77 194.044 225.32C194.044 225.87 193.846 226.326 193.451 226.687C193.073 227.048 192.583 227.228 191.981 227.228ZM190.331 242V229.213H193.631V242H190.331ZM202.773 242C201.432 242 200.358 241.673 199.55 241.02C198.742 240.367 198.339 239.207 198.339 237.54V231.972H196.147V229.213H198.339L198.725 225.784H201.638V229.213H205.093V231.972H201.638V237.566C201.638 238.185 201.767 238.614 202.025 238.855C202.3 239.078 202.764 239.19 203.417 239.19H205.016V242H202.773ZM209.525 247.672L212.489 241.149H211.716L206.74 229.213H210.324L213.907 238.21L217.645 229.213H221.151L213.031 247.672H209.525ZM231.23 227.228C230.629 227.228 230.13 227.048 229.735 226.687C229.357 226.326 229.168 225.87 229.168 225.32C229.168 224.77 229.357 224.324 229.735 223.98C230.13 223.619 230.629 223.438 231.23 223.438C231.832 223.438 232.322 223.619 232.7 223.98C233.095 224.324 233.293 224.77 233.293 225.32C233.293 225.87 233.095 226.326 232.7 226.687C232.322 227.048 231.832 227.228 231.23 227.228ZM229.58 242V229.213H232.88V242H229.58ZM241.609 242.309C240.475 242.309 239.478 242.129 238.619 241.768C237.759 241.39 237.072 240.874 236.556 240.221C236.041 239.568 235.731 238.812 235.628 237.953H238.954C239.057 238.451 239.332 238.881 239.779 239.242C240.243 239.585 240.836 239.757 241.558 239.757C242.28 239.757 242.804 239.611 243.13 239.319C243.474 239.027 243.646 238.692 243.646 238.313C243.646 237.763 243.405 237.394 242.924 237.205C242.443 236.999 241.773 236.801 240.913 236.612C240.363 236.492 239.805 236.346 239.238 236.174C238.67 236.002 238.146 235.787 237.665 235.529C237.201 235.254 236.823 234.91 236.531 234.498C236.238 234.068 236.092 233.544 236.092 232.925C236.092 231.791 236.539 230.837 237.433 230.064C238.344 229.29 239.616 228.904 241.248 228.904C242.761 228.904 243.964 229.256 244.858 229.961C245.768 230.665 246.31 231.636 246.482 232.874H243.362C243.173 231.929 242.46 231.456 241.223 231.456C240.604 231.456 240.123 231.576 239.779 231.817C239.452 232.058 239.289 232.358 239.289 232.719C239.289 233.097 239.538 233.398 240.037 233.621C240.535 233.845 241.197 234.051 242.022 234.24C242.915 234.446 243.732 234.678 244.471 234.936C245.227 235.177 245.829 235.546 246.275 236.045C246.722 236.526 246.946 237.222 246.946 238.133C246.963 238.924 246.757 239.637 246.327 240.273C245.897 240.909 245.279 241.407 244.471 241.768C243.663 242.129 242.709 242.309 241.609 242.309ZM255.154 242.309C254.02 242.309 253.023 242.129 252.163 241.768C251.304 241.39 250.617 240.874 250.101 240.221C249.585 239.568 249.276 238.812 249.173 237.953H252.499C252.602 238.451 252.877 238.881 253.324 239.242C253.788 239.585 254.38 239.757 255.102 239.757C255.824 239.757 256.348 239.611 256.675 239.319C257.019 239.027 257.191 238.692 257.191 238.313C257.191 237.763 256.95 237.394 256.469 237.205C255.987 236.999 255.317 236.801 254.458 236.612C253.908 236.492 253.349 236.346 252.782 236.174C252.215 236.002 251.691 235.787 251.21 235.529C250.746 235.254 250.367 234.91 250.075 234.498C249.783 234.068 249.637 233.544 249.637 232.925C249.637 231.791 250.084 230.837 250.978 230.064C251.888 229.29 253.16 228.904 254.793 228.904C256.305 228.904 257.508 229.256 258.402 229.961C259.313 230.665 259.854 231.636 260.026 232.874H256.907C256.718 231.929 256.005 231.456 254.767 231.456C254.148 231.456 253.667 231.576 253.324 231.817C252.997 232.058 252.834 232.358 252.834 232.719C252.834 233.097 253.083 233.398 253.581 233.621C254.08 233.845 254.741 234.051 255.566 234.24C256.46 234.446 257.276 234.678 258.015 234.936C258.772 235.177 259.373 235.546 259.82 236.045C260.267 236.526 260.49 237.222 260.49 238.133C260.508 238.924 260.301 239.637 259.872 240.273C259.442 240.909 258.823 241.407 258.015 241.768C257.208 242.129 256.254 242.309 255.154 242.309ZM268.209 242.309C266.61 242.309 265.373 241.811 264.496 240.814C263.637 239.817 263.207 238.356 263.207 236.432V229.213H266.481V236.122C266.481 237.222 266.705 238.064 267.152 238.649C267.599 239.233 268.303 239.525 269.266 239.525C270.177 239.525 270.924 239.199 271.508 238.545C272.11 237.892 272.411 236.981 272.411 235.813V229.213H275.711V242H272.797L272.54 239.834C272.144 240.591 271.569 241.192 270.812 241.639C270.073 242.086 269.205 242.309 268.209 242.309ZM285.311 242.309C284.022 242.309 282.879 242.034 281.882 241.484C280.885 240.934 280.103 240.161 279.536 239.164C278.969 238.167 278.686 237.016 278.686 235.71C278.686 234.386 278.961 233.209 279.511 232.178C280.078 231.147 280.851 230.347 281.831 229.78C282.828 229.196 283.996 228.904 285.337 228.904C286.591 228.904 287.7 229.179 288.662 229.729C289.625 230.279 290.373 231.035 290.905 231.997C291.455 232.943 291.73 234 291.73 235.168C291.73 235.357 291.722 235.555 291.704 235.761C291.704 235.967 291.696 236.182 291.679 236.406H281.96C282.028 237.403 282.372 238.185 282.991 238.752C283.627 239.319 284.392 239.602 285.285 239.602C285.956 239.602 286.514 239.456 286.961 239.164C287.425 238.855 287.769 238.46 287.992 237.978H291.344C291.103 238.786 290.699 239.525 290.132 240.195C289.582 240.848 288.894 241.364 288.07 241.742C287.262 242.12 286.342 242.309 285.311 242.309ZM285.337 231.585C284.529 231.585 283.816 231.817 283.197 232.281C282.578 232.728 282.183 233.415 282.011 234.343H288.379C288.327 233.501 288.018 232.831 287.451 232.332C286.884 231.834 286.179 231.585 285.337 231.585ZM299.791 242.309C298.656 242.309 297.659 242.129 296.8 241.768C295.941 241.39 295.253 240.874 294.738 240.221C294.222 239.568 293.913 238.812 293.81 237.953H297.135C297.238 238.451 297.513 238.881 297.96 239.242C298.424 239.585 299.017 239.757 299.739 239.757C300.461 239.757 300.985 239.611 301.312 239.319C301.655 239.027 301.827 238.692 301.827 238.313C301.827 237.763 301.587 237.394 301.105 237.205C300.624 236.999 299.954 236.801 299.094 236.612C298.545 236.492 297.986 236.346 297.419 236.174C296.852 236.002 296.327 235.787 295.846 235.529C295.382 235.254 295.004 234.91 294.712 234.498C294.42 234.068 294.274 233.544 294.274 232.925C294.274 231.791 294.72 230.837 295.614 230.064C296.525 229.29 297.797 228.904 299.43 228.904C300.942 228.904 302.145 229.256 303.039 229.961C303.95 230.665 304.491 231.636 304.663 232.874H301.544C301.355 231.929 300.641 231.456 299.404 231.456C298.785 231.456 298.304 231.576 297.96 231.817C297.634 232.058 297.47 232.358 297.47 232.719C297.47 233.097 297.72 233.398 298.218 233.621C298.716 233.845 299.378 234.051 300.203 234.24C301.097 234.446 301.913 234.678 302.652 234.936C303.408 235.177 304.01 235.546 304.457 236.045C304.904 236.526 305.127 237.222 305.127 238.133C305.144 238.924 304.938 239.637 304.508 240.273C304.079 240.909 303.46 241.407 302.652 241.768C301.844 242.129 300.891 242.309 299.791 242.309Z" fill="#505050"/>
<rect x="0.5" y="196.5" width="326" height="73" rx="8.5" stroke="#16B0AF"/>
<path d="M379.714 242.309C378.39 242.309 377.196 242.052 376.13 241.536C375.065 241.003 374.214 240.204 373.578 239.138C372.959 238.073 372.65 236.724 372.65 235.091V223.954H375.95V235.117C375.95 236.526 376.285 237.574 376.955 238.262C377.643 238.949 378.588 239.293 379.791 239.293C380.977 239.293 381.914 238.949 382.601 238.262C383.288 237.574 383.632 236.526 383.632 235.117V223.954H386.932V235.091C386.932 236.724 386.605 238.073 385.952 239.138C385.299 240.204 384.423 241.003 383.323 241.536C382.24 242.052 381.037 242.309 379.714 242.309ZM395.637 238.185C395.018 238.185 394.443 238.116 393.91 237.978L392.956 238.932C393.248 239.087 393.643 239.216 394.142 239.319C394.64 239.422 395.448 239.525 396.565 239.628C398.267 239.783 399.504 240.187 400.277 240.84C401.051 241.493 401.438 242.395 401.438 243.547C401.438 244.303 401.231 245.016 400.819 245.687C400.406 246.374 399.77 246.924 398.911 247.336C398.052 247.766 396.952 247.981 395.611 247.981C393.789 247.981 392.32 247.637 391.203 246.95C390.086 246.279 389.527 245.265 389.527 243.908C389.527 242.756 390.086 241.759 391.203 240.917C390.859 240.763 390.558 240.599 390.301 240.427C390.06 240.256 389.845 240.075 389.656 239.886V239.293L391.899 236.921C390.902 236.045 390.404 234.919 390.404 233.544C390.404 232.685 390.61 231.903 391.022 231.198C391.452 230.494 392.054 229.935 392.827 229.522C393.6 229.11 394.537 228.904 395.637 228.904C396.359 228.904 397.029 229.007 397.648 229.213H402.495V231.224L400.303 231.379C400.647 232.032 400.819 232.754 400.819 233.544C400.819 234.403 400.613 235.185 400.2 235.89C399.788 236.595 399.186 237.153 398.395 237.566C397.622 237.978 396.703 238.185 395.637 238.185ZM395.637 235.658C396.307 235.658 396.857 235.478 397.287 235.117C397.734 234.756 397.957 234.24 397.957 233.57C397.957 232.9 397.734 232.384 397.287 232.023C396.857 231.662 396.307 231.482 395.637 231.482C394.932 231.482 394.365 231.662 393.936 232.023C393.506 232.384 393.291 232.9 393.291 233.57C393.291 234.24 393.506 234.756 393.936 235.117C394.365 235.478 394.932 235.658 395.637 235.658ZM392.543 243.573C392.543 244.208 392.836 244.681 393.42 244.99C394.021 245.317 394.752 245.48 395.611 245.48C396.436 245.48 397.106 245.308 397.622 244.965C398.138 244.638 398.395 244.191 398.395 243.624C398.395 243.16 398.224 242.773 397.88 242.464C397.553 242.155 396.892 241.966 395.895 241.897C395.19 241.845 394.537 241.768 393.936 241.665C393.437 241.94 393.076 242.241 392.853 242.567C392.647 242.894 392.543 243.229 392.543 243.573ZM404.901 242V223.438H408.201V242H404.901ZM413.171 247.672L416.135 241.149H415.362L410.386 229.213H413.97L417.553 238.21L421.291 229.213H424.797L416.677 247.672H413.171ZM440.136 242.309C438.812 242.309 437.618 242.052 436.552 241.536C435.487 241.003 434.636 240.204 434 239.138C433.381 238.073 433.072 236.724 433.072 235.091V223.954H436.372V235.117C436.372 236.526 436.707 237.574 437.377 238.262C438.065 238.949 439.01 239.293 440.213 239.293C441.399 239.293 442.335 238.949 443.023 238.262C443.71 237.574 444.054 236.526 444.054 235.117V223.954H447.354V235.091C447.354 236.724 447.027 238.073 446.374 239.138C445.721 240.204 444.845 241.003 443.745 241.536C442.662 242.052 441.459 242.309 440.136 242.309ZM455.93 242.309C454.796 242.309 453.799 242.129 452.94 241.768C452.08 241.39 451.393 240.874 450.877 240.221C450.362 239.568 450.052 238.812 449.949 237.953H453.275C453.378 238.451 453.653 238.881 454.1 239.242C454.564 239.585 455.157 239.757 455.878 239.757C456.6 239.757 457.124 239.611 457.451 239.319C457.795 239.027 457.967 238.692 457.967 238.313C457.967 237.763 457.726 237.394 457.245 237.205C456.764 236.999 456.093 236.801 455.234 236.612C454.684 236.492 454.125 236.346 453.558 236.174C452.991 236.002 452.467 235.787 451.986 235.529C451.522 235.254 451.144 234.91 450.851 234.498C450.559 234.068 450.413 233.544 450.413 232.925C450.413 231.791 450.86 230.837 451.754 230.064C452.665 229.29 453.936 228.904 455.569 228.904C457.082 228.904 458.285 229.256 459.178 229.961C460.089 230.665 460.631 231.636 460.802 232.874H457.683C457.494 231.929 456.781 231.456 455.543 231.456C454.925 231.456 454.443 231.576 454.1 231.817C453.773 232.058 453.61 232.358 453.61 232.719C453.61 233.097 453.859 233.398 454.357 233.621C454.856 233.845 455.518 234.051 456.342 234.24C457.236 234.446 458.053 234.678 458.792 234.936C459.548 235.177 460.149 235.546 460.596 236.045C461.043 236.526 461.266 237.222 461.266 238.133C461.284 238.924 461.077 239.637 460.648 240.273C460.218 240.909 459.599 241.407 458.792 241.768C457.984 242.129 457.03 242.309 455.93 242.309ZM470.403 242.309C469.114 242.309 467.971 242.034 466.974 241.484C465.977 240.934 465.195 240.161 464.628 239.164C464.061 238.167 463.777 237.016 463.777 235.71C463.777 234.386 464.052 233.209 464.602 232.178C465.169 231.147 465.943 230.347 466.922 229.78C467.919 229.196 469.088 228.904 470.428 228.904C471.683 228.904 472.792 229.179 473.754 229.729C474.717 230.279 475.464 231.035 475.997 231.997C476.547 232.943 476.822 234 476.822 235.168C476.822 235.357 476.813 235.555 476.796 235.761C476.796 235.967 476.787 236.182 476.77 236.406H467.051C467.12 237.403 467.464 238.185 468.082 238.752C468.718 239.319 469.483 239.602 470.377 239.602C471.047 239.602 471.606 239.456 472.053 239.164C472.517 238.855 472.86 238.46 473.084 237.978H476.435C476.195 238.786 475.791 239.525 475.224 240.195C474.674 240.848 473.986 241.364 473.161 241.742C472.353 242.12 471.434 242.309 470.403 242.309ZM470.428 231.585C469.621 231.585 468.907 231.817 468.289 232.281C467.67 232.728 467.275 233.415 467.103 234.343H473.47C473.419 233.501 473.11 232.831 472.542 232.332C471.975 231.834 471.271 231.585 470.428 231.585ZM479.597 242V229.213H482.536L482.846 231.611C483.31 230.786 483.937 230.133 484.727 229.651C485.535 229.153 486.481 228.904 487.563 228.904V232.384H486.635C485.913 232.384 485.269 232.496 484.702 232.719C484.135 232.943 483.688 233.329 483.361 233.879C483.052 234.429 482.897 235.194 482.897 236.174V242H479.597ZM496.039 242V223.954H499.339V242H496.039ZM502.759 242V229.213H505.672L505.93 231.379C506.325 230.622 506.892 230.021 507.631 229.574C508.388 229.127 509.273 228.904 510.287 228.904C511.868 228.904 513.097 229.402 513.973 230.399C514.85 231.396 515.288 232.857 515.288 234.782V242H511.988V235.091C511.988 233.991 511.765 233.149 511.318 232.565C510.871 231.98 510.175 231.688 509.23 231.688C508.302 231.688 507.537 232.015 506.935 232.668C506.351 233.321 506.059 234.232 506.059 235.4V242H502.759ZM524.141 242C522.8 242 521.726 241.673 520.918 241.02C520.111 240.367 519.707 239.207 519.707 237.54V231.972H517.515V229.213H519.707L520.093 225.784H523.007V229.213H526.461V231.972H523.007V237.566C523.007 238.185 523.135 238.614 523.393 238.855C523.668 239.078 524.132 239.19 524.785 239.19H526.384V242H524.141ZM535.18 242.309C533.891 242.309 532.748 242.034 531.751 241.484C530.754 240.934 529.972 240.161 529.405 239.164C528.838 238.167 528.554 237.016 528.554 235.71C528.554 234.386 528.829 233.209 529.379 232.178C529.947 231.147 530.72 230.347 531.7 229.78C532.696 229.196 533.865 228.904 535.206 228.904C536.46 228.904 537.569 229.179 538.531 229.729C539.494 230.279 540.241 231.035 540.774 231.997C541.324 232.943 541.599 234 541.599 235.168C541.599 235.357 541.591 235.555 541.573 235.761C541.573 235.967 541.565 236.182 541.548 236.406H531.829C531.897 237.403 532.241 238.185 532.86 238.752C533.496 239.319 534.26 239.602 535.154 239.602C535.824 239.602 536.383 239.456 536.83 239.164C537.294 238.855 537.638 238.46 537.861 237.978H541.212C540.972 238.786 540.568 239.525 540.001 240.195C539.451 240.848 538.763 241.364 537.938 241.742C537.131 242.12 536.211 242.309 535.18 242.309ZM535.206 231.585C534.398 231.585 533.685 231.817 533.066 232.281C532.447 232.728 532.052 233.415 531.88 234.343H538.248C538.196 233.501 537.887 232.831 537.32 232.332C536.753 231.834 536.048 231.585 535.206 231.585ZM544.375 242V229.213H547.313L547.623 231.611C548.087 230.786 548.714 230.133 549.505 229.651C550.313 229.153 551.258 228.904 552.341 228.904V232.384H551.412C550.691 232.384 550.046 232.496 549.479 232.719C548.912 232.943 548.465 233.329 548.138 233.879C547.829 234.429 547.674 235.194 547.674 236.174V242H544.375ZM555.189 242V231.972H553.436V229.213H555.189V227.718C555.189 226.171 555.576 225.071 556.349 224.418C557.14 223.765 558.205 223.438 559.546 223.438H560.964V226.248H560.061C559.494 226.248 559.09 226.36 558.85 226.584C558.609 226.807 558.489 227.185 558.489 227.718V229.213H561.247V231.972H558.489V242H555.189ZM567.765 242.309C566.665 242.309 565.763 242.137 565.059 241.794C564.354 241.433 563.83 240.96 563.486 240.376C563.142 239.792 562.97 239.147 562.97 238.442C562.97 237.256 563.434 236.294 564.362 235.555C565.291 234.816 566.683 234.446 568.539 234.446H571.787V234.137C571.787 233.261 571.538 232.616 571.04 232.204C570.541 231.791 569.922 231.585 569.183 231.585C568.513 231.585 567.929 231.748 567.43 232.075C566.932 232.384 566.623 232.848 566.502 233.467H563.28C563.366 232.539 563.675 231.731 564.208 231.043C564.758 230.356 565.462 229.832 566.322 229.471C567.181 229.093 568.144 228.904 569.209 228.904C571.031 228.904 572.466 229.359 573.514 230.27C574.563 231.181 575.087 232.47 575.087 234.137V242H572.277L571.968 239.938C571.589 240.625 571.057 241.192 570.369 241.639C569.699 242.086 568.831 242.309 567.765 242.309ZM568.513 239.731C569.458 239.731 570.189 239.422 570.704 238.803C571.237 238.185 571.572 237.42 571.71 236.509H568.9C568.023 236.509 567.396 236.672 567.018 236.999C566.64 237.308 566.451 237.695 566.451 238.159C566.451 238.657 566.64 239.044 567.018 239.319C567.396 239.594 567.894 239.731 568.513 239.731ZM584.5 242.309C583.194 242.309 582.043 242.026 581.046 241.459C580.049 240.891 579.259 240.101 578.674 239.087C578.107 238.073 577.823 236.913 577.823 235.607C577.823 234.3 578.107 233.14 578.674 232.126C579.259 231.112 580.049 230.322 581.046 229.754C582.043 229.187 583.194 228.904 584.5 228.904C586.133 228.904 587.508 229.333 588.625 230.193C589.742 231.035 590.456 232.204 590.765 233.699H587.285C587.113 233.08 586.769 232.599 586.254 232.255C585.755 231.894 585.162 231.714 584.475 231.714C583.564 231.714 582.79 232.058 582.155 232.745C581.519 233.432 581.201 234.386 581.201 235.607C581.201 236.827 581.519 237.781 582.155 238.468C582.79 239.156 583.564 239.499 584.475 239.499C585.162 239.499 585.755 239.327 586.254 238.984C586.769 238.64 587.113 238.15 587.285 237.514H590.765C590.456 238.958 589.742 240.118 588.625 240.995C587.508 241.871 586.133 242.309 584.5 242.309ZM599.907 242.309C598.618 242.309 597.475 242.034 596.478 241.484C595.481 240.934 594.699 240.161 594.132 239.164C593.565 238.167 593.281 237.016 593.281 235.71C593.281 234.386 593.556 233.209 594.106 232.178C594.674 231.147 595.447 230.347 596.427 229.78C597.423 229.196 598.592 228.904 599.933 228.904C601.187 228.904 602.296 229.179 603.258 229.729C604.221 230.279 604.968 231.035 605.501 231.997C606.051 232.943 606.326 234 606.326 235.168C606.326 235.357 606.317 235.555 606.3 235.761C606.3 235.967 606.292 236.182 606.275 236.406H596.555C596.624 237.403 596.968 238.185 597.587 238.752C598.223 239.319 598.987 239.602 599.881 239.602C600.551 239.602 601.11 239.456 601.557 239.164C602.021 238.855 602.365 238.46 602.588 237.978H605.939C605.699 238.786 605.295 239.525 604.728 240.195C604.178 240.848 603.49 241.364 602.665 241.742C601.858 242.12 600.938 242.309 599.907 242.309ZM599.933 231.585C599.125 231.585 598.412 231.817 597.793 232.281C597.174 232.728 596.779 233.415 596.607 234.343H602.975C602.923 233.501 602.614 232.831 602.047 232.332C601.479 231.834 600.775 231.585 599.933 231.585Z" fill="#505050"/>
<rect x="351.5" y="196.5" width="276" height="73" rx="8.5" stroke="#16B0AF"/>
</svg>
