<svg width="499" height="172" viewBox="0 0 499 172" fill="none" xmlns="http://www.w3.org/2000/svg">
<path d="M21.753 46V27.954H25.6716L31.4205 39.4003L37.0921 27.954H41.0107V46H37.7109V33.5483L32.6838 43.422H30.08L25.0529 33.5483V46H21.753ZM48.843 46.3094C47.743 46.3094 46.8407 46.1375 46.1361 45.7938C45.4314 45.4328 44.9072 44.9602 44.5635 44.3759C44.2198 43.7915 44.0479 43.147 44.0479 42.4424C44.0479 41.2565 44.5119 40.294 45.44 39.555C46.3681 38.816 47.7602 38.4465 49.6164 38.4465H52.8647V38.1371C52.8647 37.2606 52.6155 36.6161 52.117 36.2036C51.6186 35.7911 50.9999 35.5849 50.2609 35.5849C49.5906 35.5849 49.0063 35.7482 48.5078 36.0747C48.0094 36.3841 47.7001 36.8481 47.5798 37.4668H44.3573C44.4432 36.5387 44.7526 35.731 45.2853 35.0435C45.8353 34.356 46.54 33.8318 47.3993 33.4709C48.2586 33.0928 49.2211 32.9038 50.2867 32.9038C52.1085 32.9038 53.5435 33.3592 54.5919 34.2701C55.6403 35.181 56.1645 36.47 56.1645 38.1371V46H53.3545L53.0451 43.9376C52.667 44.6251 52.1342 45.1922 51.4468 45.6391C50.7765 46.0859 49.9086 46.3094 48.843 46.3094ZM49.5906 43.7314C50.5359 43.7314 51.2663 43.422 51.7819 42.8033C52.3147 42.1846 52.6498 41.4198 52.7873 40.5089H49.9773C49.1008 40.5089 48.4735 40.6721 48.0954 40.9987C47.7173 41.308 47.5282 41.6947 47.5282 42.1588C47.5282 42.6572 47.7173 43.0439 48.0954 43.3189C48.4735 43.5939 48.9719 43.7314 49.5906 43.7314ZM61.1439 31.2281C60.5423 31.2281 60.0439 31.0476 59.6486 30.6867C59.2705 30.3258 59.0815 29.8703 59.0815 29.3203C59.0815 28.7704 59.2705 28.3235 59.6486 27.9798C60.0439 27.6189 60.5423 27.4384 61.1439 27.4384C61.7454 27.4384 62.2352 27.6189 62.6133 27.9798C63.0086 28.3235 63.2063 28.7704 63.2063 29.3203C63.2063 29.8703 63.0086 30.3258 62.6133 30.6867C62.2352 31.0476 61.7454 31.2281 61.1439 31.2281ZM56.8902 51.6716V48.8616H57.8956C58.4628 48.8616 58.8666 48.7499 59.1073 48.5264C59.3479 48.303 59.4682 47.9249 59.4682 47.3921V33.2131H62.768V47.3921C62.768 48.9389 62.3727 50.0389 61.5821 50.692C60.8087 51.3451 59.7518 51.6716 58.4112 51.6716H56.8902ZM72.3473 46.3094C71.1099 46.3094 69.9927 46.0258 68.9959 45.4586C68.0163 44.8915 67.2343 44.1095 66.6499 43.1126C66.0828 42.0986 65.7992 40.9299 65.7992 39.6066C65.7992 38.2832 66.0914 37.1231 66.6757 36.1263C67.26 35.1122 68.042 34.3217 69.0217 33.7545C70.0185 33.1873 71.1356 32.9038 72.3731 32.9038C73.5933 32.9038 74.6933 33.1873 75.6729 33.7545C76.6697 34.3217 77.4517 35.1122 78.0189 36.1263C78.6032 37.1231 78.8954 38.2832 78.8954 39.6066C78.8954 40.9299 78.6032 42.0986 78.0189 43.1126C77.4517 44.1095 76.6697 44.8915 75.6729 45.4586C74.6761 46.0258 73.5676 46.3094 72.3473 46.3094ZM72.3473 43.4478C73.2066 43.4478 73.9543 43.1298 74.5902 42.4939C75.2261 41.8408 75.544 40.8784 75.544 39.6066C75.544 38.3347 75.2261 37.3809 74.5902 36.745C73.9543 36.0919 73.2152 35.7653 72.3731 35.7653C71.4966 35.7653 70.7403 36.0919 70.1044 36.745C69.4857 37.3809 69.1764 38.3347 69.1764 39.6066C69.1764 40.8784 69.4857 41.8408 70.1044 42.4939C70.7403 43.1298 71.488 43.4478 72.3473 43.4478ZM81.8458 46V33.2131H84.7847L85.0941 35.6107C85.5581 34.7857 86.1855 34.1326 86.976 33.6514C87.7838 33.153 88.7291 32.9038 89.8118 32.9038V36.3841H88.8838C88.1619 36.3841 87.5174 36.4958 86.9503 36.7192C86.3831 36.9426 85.9362 37.3293 85.6097 37.8793C85.3003 38.4293 85.1457 39.1941 85.1457 40.1737V46H81.8458ZM105.248 46.3094C103.925 46.3094 102.73 46.0516 101.665 45.536C100.599 45.0032 99.7483 44.204 99.1124 43.1384C98.4937 42.0728 98.1843 40.7237 98.1843 39.091V27.954H101.484V39.1167C101.484 40.526 101.819 41.5744 102.49 42.2619C103.177 42.9494 104.122 43.2931 105.325 43.2931C106.511 43.2931 107.448 42.9494 108.135 42.2619C108.823 41.5744 109.167 40.526 109.167 39.1167V27.954H112.466V39.091C112.466 40.7237 112.14 42.0728 111.487 43.1384C110.834 44.204 109.957 45.0032 108.857 45.536C107.774 46.0516 106.571 46.3094 105.248 46.3094ZM115.835 46V27.954H119.135V46H115.835ZM136.948 46.3094C135.126 46.3094 133.562 45.9227 132.256 45.1493C130.949 44.3587 129.944 43.2673 129.239 41.8752C128.535 40.4659 128.182 38.8418 128.182 37.0028C128.182 35.1638 128.535 33.5397 129.239 32.1304C129.944 30.7211 130.949 29.6211 132.256 28.8305C133.562 28.0399 135.126 27.6446 136.948 27.6446C139.113 27.6446 140.883 28.186 142.258 29.2688C143.65 30.3344 144.518 31.8382 144.862 33.7803H141.227C141.004 32.8006 140.522 32.0358 139.783 31.4859C139.062 30.9187 138.099 30.6351 136.896 30.6351C135.229 30.6351 133.923 31.2023 132.977 32.3366C132.032 33.4709 131.56 35.0263 131.56 37.0028C131.56 38.9792 132.032 40.5346 132.977 41.669C133.923 42.7861 135.229 43.3447 136.896 43.3447C138.099 43.3447 139.062 43.0869 139.783 42.5713C140.522 42.0385 141.004 41.308 141.227 40.38H144.862C144.518 42.2361 143.65 43.6884 142.258 44.7368C140.883 45.7852 139.113 46.3094 136.948 46.3094ZM147.706 46V27.4384H151.006V35.1724C151.435 34.4677 152.011 33.9178 152.733 33.5225C153.472 33.11 154.314 32.9038 155.259 32.9038C156.84 32.9038 158.061 33.4022 158.92 34.399C159.796 35.3958 160.235 36.8567 160.235 38.7816V46H156.961V39.091C156.961 37.991 156.737 37.1489 156.29 36.5645C155.861 35.9802 155.173 35.688 154.228 35.688C153.3 35.688 152.527 36.0145 151.908 36.6676C151.306 37.3207 151.006 38.2316 151.006 39.4003V46H147.706ZM167.799 46.3094C166.699 46.3094 165.796 46.1375 165.092 45.7938C164.387 45.4328 163.863 44.9602 163.519 44.3759C163.175 43.7915 163.003 43.147 163.003 42.4424C163.003 41.2565 163.468 40.294 164.396 39.555C165.324 38.816 166.716 38.4465 168.572 38.4465H171.82V38.1371C171.82 37.2606 171.571 36.6161 171.073 36.2036C170.574 35.7911 169.955 35.5849 169.216 35.5849C168.546 35.5849 167.962 35.7482 167.463 36.0747C166.965 36.3841 166.656 36.8481 166.535 37.4668H163.313C163.399 36.5387 163.708 35.731 164.241 35.0435C164.791 34.356 165.496 33.8318 166.355 33.4709C167.214 33.0928 168.177 32.9038 169.242 32.9038C171.064 32.9038 172.499 33.3592 173.547 34.2701C174.596 35.181 175.12 36.47 175.12 38.1371V46H172.31L172.001 43.9376C171.623 44.6251 171.09 45.1922 170.402 45.6391C169.732 46.0859 168.864 46.3094 167.799 46.3094ZM168.546 43.7314C169.491 43.7314 170.222 43.422 170.737 42.8033C171.27 42.1846 171.605 41.4198 171.743 40.5089H168.933C168.056 40.5089 167.429 40.6721 167.051 40.9987C166.673 41.308 166.484 41.6947 166.484 42.1588C166.484 42.6572 166.673 43.0439 167.051 43.3189C167.429 43.5939 167.927 43.7314 168.546 43.7314ZM178.269 46V33.2131H181.182L181.44 35.3786C181.835 34.6224 182.402 34.0209 183.141 33.574C183.898 33.1272 184.783 32.9038 185.797 32.9038C187.378 32.9038 188.607 33.4022 189.483 34.399C190.36 35.3958 190.798 36.8567 190.798 38.7816V46H187.498V39.091C187.498 37.991 187.275 37.1489 186.828 36.5645C186.381 35.9802 185.685 35.688 184.74 35.688C183.812 35.688 183.047 36.0145 182.445 36.6676C181.861 37.3207 181.569 38.2316 181.569 39.4003V46H178.269ZM199.367 42.1846C198.749 42.1846 198.173 42.1158 197.64 41.9783L196.686 42.9322C196.978 43.0869 197.374 43.2158 197.872 43.3189C198.371 43.422 199.178 43.5251 200.295 43.6282C201.997 43.7829 203.234 44.1868 204.008 44.8399C204.781 45.493 205.168 46.3953 205.168 47.5468C205.168 48.303 204.962 49.0163 204.549 49.6865C204.137 50.374 203.501 50.924 202.641 51.3365C201.782 51.7661 200.682 51.981 199.342 51.981C197.52 51.981 196.05 51.6372 194.933 50.9498C193.816 50.2795 193.258 49.2655 193.258 47.9077C193.258 46.7562 193.816 45.7594 194.933 44.9172C194.589 44.7626 194.289 44.5993 194.031 44.4274C193.79 44.2556 193.575 44.0751 193.386 43.886V43.2931L195.629 40.9213C194.632 40.0448 194.134 38.9191 194.134 37.5442C194.134 36.6848 194.34 35.9028 194.753 35.1982C195.182 34.4935 195.784 33.935 196.557 33.5225C197.331 33.11 198.267 32.9038 199.367 32.9038C200.089 32.9038 200.759 33.0069 201.378 33.2131H206.225V35.224L204.034 35.3786C204.377 36.0317 204.549 36.7536 204.549 37.5442C204.549 38.4035 204.343 39.1855 203.93 39.8901C203.518 40.5948 202.916 41.1534 202.126 41.5658C201.352 41.9783 200.433 42.1846 199.367 42.1846ZM199.367 39.6581C200.038 39.6581 200.588 39.4777 201.017 39.1167C201.464 38.7558 201.688 38.2402 201.688 37.5699C201.688 36.8997 201.464 36.3841 201.017 36.0231C200.588 35.6622 200.038 35.4818 199.367 35.4818C198.663 35.4818 198.096 35.6622 197.666 36.0231C197.236 36.3841 197.021 36.8997 197.021 37.5699C197.021 38.2402 197.236 38.7558 197.666 39.1167C198.096 39.4777 198.663 39.6581 199.367 39.6581ZM196.274 47.5726C196.274 48.2085 196.566 48.6811 197.15 48.9905C197.752 49.317 198.482 49.4803 199.342 49.4803C200.167 49.4803 200.837 49.3084 201.352 48.9647C201.868 48.6382 202.126 48.1913 202.126 47.6241C202.126 47.1601 201.954 46.7734 201.61 46.464C201.284 46.1547 200.622 45.9656 199.625 45.8969C198.921 45.8453 198.267 45.768 197.666 45.6649C197.167 45.9398 196.807 46.2406 196.583 46.5672C196.377 46.8937 196.274 47.2288 196.274 47.5726ZM214.341 46.3094C213.052 46.3094 211.909 46.0344 210.912 45.4844C209.915 44.9344 209.133 44.161 208.566 43.1642C207.999 42.1674 207.715 41.0159 207.715 39.7097C207.715 38.3863 207.99 37.209 208.54 36.1778C209.107 35.1466 209.881 34.3474 210.86 33.7803C211.857 33.1959 213.026 32.9038 214.366 32.9038C215.621 32.9038 216.729 33.1787 217.692 33.7287C218.654 34.2787 219.402 35.0349 219.935 35.9974C220.485 36.9426 220.76 37.9996 220.76 39.1683C220.76 39.3574 220.751 39.555 220.734 39.7612C220.734 39.9675 220.725 40.1823 220.708 40.4057H210.989C211.058 41.4026 211.402 42.1846 212.02 42.7517C212.656 43.3189 213.421 43.6025 214.315 43.6025C214.985 43.6025 215.544 43.4564 215.99 43.1642C216.454 42.8548 216.798 42.4595 217.022 41.9783H220.373C220.132 42.7861 219.729 43.5251 219.161 44.1954C218.611 44.8485 217.924 45.3641 217.099 45.7422C216.291 46.1203 215.372 46.3094 214.341 46.3094ZM214.366 35.5849C213.559 35.5849 212.845 35.8169 212.227 36.2809C211.608 36.7278 211.213 37.4153 211.041 38.3433H217.408C217.357 37.5012 217.047 36.8309 216.48 36.3325C215.913 35.8341 215.208 35.5849 214.366 35.5849ZM229.394 39.9159V37.1575H240.196V39.9159H229.394ZM257.665 46.3094C255.844 46.3094 254.28 45.9227 252.973 45.1493C251.667 44.3587 250.662 43.2673 249.957 41.8752C249.253 40.4659 248.9 38.8418 248.9 37.0028C248.9 35.1638 249.253 33.5397 249.957 32.1304C250.662 30.7211 251.667 29.6211 252.973 28.8305C254.28 28.0399 255.844 27.6446 257.665 27.6446C259.831 27.6446 261.601 28.186 262.976 29.2688C264.368 30.3344 265.236 31.8382 265.58 33.7803H261.945C261.721 32.8006 261.24 32.0358 260.501 31.4859C259.779 30.9187 258.817 30.6351 257.614 30.6351C255.947 30.6351 254.641 31.2023 253.695 32.3366C252.75 33.4709 252.277 35.0263 252.277 37.0028C252.277 38.9792 252.75 40.5346 253.695 41.669C254.641 42.7861 255.947 43.3447 257.614 43.3447C258.817 43.3447 259.779 43.0869 260.501 42.5713C261.24 42.0385 261.721 41.308 261.945 40.38H265.58C265.236 42.2361 264.368 43.6884 262.976 44.7368C261.601 45.7852 259.831 46.3094 257.665 46.3094ZM274.559 46.3094C273.322 46.3094 272.205 46.0258 271.208 45.4586C270.228 44.8915 269.446 44.1095 268.862 43.1126C268.295 42.0986 268.011 40.9299 268.011 39.6066C268.011 38.2832 268.303 37.1231 268.888 36.1263C269.472 35.1122 270.254 34.3217 271.234 33.7545C272.23 33.1873 273.348 32.9038 274.585 32.9038C275.805 32.9038 276.905 33.1873 277.885 33.7545C278.882 34.3217 279.664 35.1122 280.231 36.1263C280.815 37.1231 281.107 38.2832 281.107 39.6066C281.107 40.9299 280.815 42.0986 280.231 43.1126C279.664 44.1095 278.882 44.8915 277.885 45.4586C276.888 46.0258 275.779 46.3094 274.559 46.3094ZM274.559 43.4478C275.419 43.4478 276.166 43.1298 276.802 42.4939C277.438 41.8408 277.756 40.8784 277.756 39.6066C277.756 38.3347 277.438 37.3809 276.802 36.745C276.166 36.0919 275.427 35.7653 274.585 35.7653C273.708 35.7653 272.952 36.0919 272.316 36.745C271.698 37.3809 271.388 38.3347 271.388 39.6066C271.388 40.8784 271.698 41.8408 272.316 42.4939C272.952 43.1298 273.7 43.4478 274.559 43.4478ZM284.058 46V33.2131H286.971L287.254 34.9404C287.667 34.3217 288.208 33.8318 288.879 33.4709C289.566 33.0928 290.357 32.9038 291.25 32.9038C293.227 32.9038 294.627 33.6686 295.452 35.1982C295.916 34.4935 296.535 33.935 297.309 33.5225C298.099 33.11 298.959 32.9038 299.887 32.9038C301.554 32.9038 302.834 33.4022 303.728 34.399C304.622 35.3958 305.068 36.8567 305.068 38.7816V46H301.769V39.091C301.769 37.991 301.554 37.1489 301.124 36.5645C300.712 35.9802 300.067 35.688 299.191 35.688C298.297 35.688 297.575 36.0145 297.025 36.6676C296.492 37.3207 296.226 38.2316 296.226 39.4003V46H292.926V39.091C292.926 37.991 292.711 37.1489 292.282 36.5645C291.852 35.9802 291.19 35.688 290.296 35.688C289.42 35.688 288.707 36.0145 288.157 36.6676C287.624 37.3207 287.358 38.2316 287.358 39.4003V46H284.058ZM308.201 51.6716V33.2131H311.14L311.501 35.0435C311.914 34.4763 312.455 33.9779 313.125 33.5483C313.813 33.1186 314.698 32.9038 315.781 32.9038C316.984 32.9038 318.058 33.1959 319.003 33.7803C319.948 34.3646 320.696 35.1638 321.246 36.1778C321.796 37.1918 322.071 38.3433 322.071 39.6323C322.071 40.9213 321.796 42.0728 321.246 43.0869C320.696 44.0837 319.948 44.8743 319.003 45.4586C318.058 46.0258 316.984 46.3094 315.781 46.3094C314.818 46.3094 313.976 46.1289 313.254 45.768C312.532 45.4071 311.948 44.9001 311.501 44.247V51.6716H308.201ZM315.085 43.422C316.133 43.422 317.001 43.0697 317.688 42.365C318.376 41.6604 318.72 40.7495 318.72 39.6323C318.72 38.5152 318.376 37.5957 317.688 36.8739C317.001 36.152 316.133 35.7911 315.085 35.7911C314.019 35.7911 313.142 36.152 312.455 36.8739C311.785 37.5785 311.45 38.4894 311.45 39.6066C311.45 40.7237 311.785 41.6432 312.455 42.365C313.142 43.0697 314.019 43.422 315.085 43.422ZM325.019 46V27.4384H328.319V46H325.019ZM337.903 46.3094C336.614 46.3094 335.471 46.0344 334.475 45.4844C333.478 44.9344 332.696 44.161 332.129 43.1642C331.561 42.1674 331.278 41.0159 331.278 39.7097C331.278 38.3863 331.553 37.209 332.103 36.1778C332.67 35.1466 333.443 34.3474 334.423 33.7803C335.42 33.1959 336.588 32.9038 337.929 32.9038C339.184 32.9038 340.292 33.1787 341.255 33.7287C342.217 34.2787 342.965 35.0349 343.498 35.9974C344.048 36.9426 344.322 37.9996 344.322 39.1683C344.322 39.3574 344.314 39.555 344.297 39.7612C344.297 39.9675 344.288 40.1823 344.271 40.4057H334.552C334.621 41.4026 334.964 42.1846 335.583 42.7517C336.219 43.3189 336.984 43.6025 337.877 43.6025C338.548 43.6025 339.106 43.4564 339.553 43.1642C340.017 42.8548 340.361 42.4595 340.584 41.9783H343.936C343.695 42.7861 343.291 43.5251 342.724 44.1954C342.174 44.8485 341.487 45.3641 340.662 45.7422C339.854 46.1203 338.934 46.3094 337.903 46.3094ZM337.929 35.5849C337.121 35.5849 336.408 35.8169 335.789 36.2809C335.171 36.7278 334.775 37.4153 334.603 38.3433H340.971C340.92 37.5012 340.61 36.8309 340.043 36.3325C339.476 35.8341 338.771 35.5849 337.929 35.5849ZM352.569 46C351.228 46 350.154 45.6735 349.346 45.0204C348.538 44.3673 348.135 43.2072 348.135 41.5401V35.9716H345.943V33.2131H348.135L348.521 29.7844H351.434V33.2131H354.889V35.9716H351.434V41.5658C351.434 42.1846 351.563 42.6142 351.821 42.8548C352.096 43.0783 352.56 43.19 353.213 43.19H354.812V46H352.569ZM363.608 46.3094C362.319 46.3094 361.176 46.0344 360.179 45.4844C359.182 44.9344 358.4 44.161 357.833 43.1642C357.266 42.1674 356.982 41.0159 356.982 39.7097C356.982 38.3863 357.257 37.209 357.807 36.1778C358.374 35.1466 359.148 34.3474 360.127 33.7803C361.124 33.1959 362.293 32.9038 363.634 32.9038C364.888 32.9038 365.997 33.1787 366.959 33.7287C367.922 34.2787 368.669 35.0349 369.202 35.9974C369.752 36.9426 370.027 37.9996 370.027 39.1683C370.027 39.3574 370.018 39.555 370.001 39.7612C370.001 39.9675 369.993 40.1823 369.975 40.4057H360.256C360.325 41.4026 360.669 42.1846 361.288 42.7517C361.923 43.3189 362.688 43.6025 363.582 43.6025C364.252 43.6025 364.811 43.4564 365.258 43.1642C365.722 42.8548 366.065 42.4595 366.289 41.9783H369.64C369.4 42.7861 368.996 43.5251 368.429 44.1954C367.879 44.8485 367.191 45.3641 366.366 45.7422C365.558 46.1203 364.639 46.3094 363.608 46.3094ZM363.634 35.5849C362.826 35.5849 362.112 35.8169 361.494 36.2809C360.875 36.7278 360.48 37.4153 360.308 38.3433H366.676C366.624 37.5012 366.315 36.8309 365.747 36.3325C365.18 35.8341 364.476 35.5849 363.634 35.5849ZM378.945 46V33.2131H381.884L382.194 35.6107C382.658 34.7857 383.285 34.1326 384.075 33.6514C384.883 33.153 385.828 32.9038 386.911 32.9038V36.3841H385.983C385.261 36.3841 384.617 36.4958 384.05 36.7192C383.483 36.9426 383.036 37.3293 382.709 37.8793C382.4 38.4293 382.245 39.1941 382.245 40.1737V46H378.945ZM395.153 46.3094C393.864 46.3094 392.721 46.0344 391.724 45.4844C390.727 44.9344 389.945 44.161 389.378 43.1642C388.811 42.1674 388.528 41.0159 388.528 39.7097C388.528 38.3863 388.803 37.209 389.352 36.1778C389.92 35.1466 390.693 34.3474 391.673 33.7803C392.67 33.1959 393.838 32.9038 395.179 32.9038C396.433 32.9038 397.542 33.1787 398.504 33.7287C399.467 34.2787 400.214 35.0349 400.747 35.9974C401.297 36.9426 401.572 37.9996 401.572 39.1683C401.572 39.3574 401.564 39.555 401.546 39.7612C401.546 39.9675 401.538 40.1823 401.521 40.4057H391.802C391.87 41.4026 392.214 42.1846 392.833 42.7517C393.469 43.3189 394.234 43.6025 395.127 43.6025C395.797 43.6025 396.356 43.4564 396.803 43.1642C397.267 42.8548 397.611 42.4595 397.834 41.9783H401.186C400.945 42.7861 400.541 43.5251 399.974 44.1954C399.424 44.8485 398.736 45.3641 397.911 45.7422C397.104 46.1203 396.184 46.3094 395.153 46.3094ZM395.179 35.5849C394.371 35.5849 393.658 35.8169 393.039 36.2809C392.42 36.7278 392.025 37.4153 391.853 38.3433H398.221C398.169 37.5012 397.86 36.8309 397.293 36.3325C396.726 35.8341 396.021 35.5849 395.179 35.5849ZM406.345 46L402.607 33.2131H405.881L408.098 42.4166L410.676 33.2131H414.337L416.915 42.4166L419.157 33.2131H422.431L418.668 46H415.239L412.506 36.4356L409.773 46H406.345ZM428.267 46.3094C427.167 46.3094 426.265 46.1375 425.56 45.7938C424.856 45.4328 424.331 44.9602 423.988 44.3759C423.644 43.7915 423.472 43.147 423.472 42.4424C423.472 41.2565 423.936 40.294 424.864 39.555C425.792 38.816 427.184 38.4465 429.041 38.4465H432.289V38.1371C432.289 37.2606 432.04 36.6161 431.541 36.2036C431.043 35.7911 430.424 35.5849 429.685 35.5849C429.015 35.5849 428.43 35.7482 427.932 36.0747C427.434 36.3841 427.124 36.8481 427.004 37.4668H423.781C423.867 36.5387 424.177 35.731 424.71 35.0435C425.26 34.356 425.964 33.8318 426.824 33.4709C427.683 33.0928 428.645 32.9038 429.711 32.9038C431.533 32.9038 432.968 33.3592 434.016 34.2701C435.065 35.181 435.589 36.47 435.589 38.1371V46H432.779L432.469 43.9376C432.091 44.6251 431.558 45.1922 430.871 45.6391C430.201 46.0859 429.333 46.3094 428.267 46.3094ZM429.015 43.7314C429.96 43.7314 430.691 43.422 431.206 42.8033C431.739 42.1846 432.074 41.4198 432.212 40.5089H429.402C428.525 40.5089 427.898 40.6721 427.52 40.9987C427.141 41.308 426.952 41.6947 426.952 42.1588C426.952 42.6572 427.141 43.0439 427.52 43.3189C427.898 43.5939 428.396 43.7314 429.015 43.7314ZM438.738 46V33.2131H441.651L441.934 34.9404C442.347 34.3217 442.888 33.8318 443.559 33.4709C444.246 33.0928 445.037 32.9038 445.93 32.9038C447.907 32.9038 449.308 33.6686 450.132 35.1982C450.597 34.4935 451.215 33.935 451.989 33.5225C452.779 33.11 453.639 32.9038 454.567 32.9038C456.234 32.9038 457.514 33.4022 458.408 34.399C459.302 35.3958 459.748 36.8567 459.748 38.7816V46H456.449V39.091C456.449 37.991 456.234 37.1489 455.804 36.5645C455.392 35.9802 454.747 35.688 453.871 35.688C452.977 35.688 452.255 36.0145 451.705 36.6676C451.172 37.3207 450.906 38.2316 450.906 39.4003V46H447.606V39.091C447.606 37.991 447.391 37.1489 446.962 36.5645C446.532 35.9802 445.87 35.688 444.976 35.688C444.1 35.688 443.387 36.0145 442.837 36.6676C442.304 37.3207 442.038 38.2316 442.038 39.4003V46H438.738ZM462.881 51.6716V33.2131H465.82L466.181 35.0435C466.594 34.4763 467.135 33.9779 467.805 33.5483C468.493 33.1186 469.378 32.9038 470.461 32.9038C471.664 32.9038 472.738 33.1959 473.683 33.7803C474.628 34.3646 475.376 35.1638 475.926 36.1778C476.476 37.1918 476.751 38.3433 476.751 39.6323C476.751 40.9213 476.476 42.0728 475.926 43.0869C475.376 44.0837 474.628 44.8743 473.683 45.4586C472.738 46.0258 471.664 46.3094 470.461 46.3094C469.498 46.3094 468.656 46.1289 467.934 45.768C467.212 45.4071 466.628 44.9001 466.181 44.247V51.6716H462.881ZM469.765 43.422C470.813 43.422 471.681 43.0697 472.368 42.365C473.056 41.6604 473.4 40.7495 473.4 39.6323C473.4 38.5152 473.056 37.5957 472.368 36.8739C471.681 36.152 470.813 35.7911 469.765 35.7911C468.699 35.7911 467.822 36.152 467.135 36.8739C466.465 37.5785 466.13 38.4894 466.13 39.6066C466.13 40.7237 466.465 41.6432 467.135 42.365C467.822 43.0697 468.699 43.422 469.765 43.422Z" fill="#505050"/>
<rect x="0.5" y="0.5" width="498" height="73" rx="8.5" stroke="#16B0AF"/>
<path d="M21.753 144V125.954H25.6716L31.4205 137.4L37.0921 125.954H41.0107V144H37.7109V131.548L32.6838 141.422H30.08L25.0529 131.548V144H21.753ZM50.5702 144.309C49.3328 144.309 48.2157 144.026 47.2188 143.459C46.2392 142.891 45.4572 142.109 44.8729 141.113C44.3057 140.099 44.0221 138.93 44.0221 137.607C44.0221 136.283 44.3143 135.123 44.8986 134.126C45.483 133.112 46.265 132.322 47.2446 131.754C48.2415 131.187 49.3586 130.904 50.596 130.904C51.8163 130.904 52.9162 131.187 53.8959 131.754C54.8927 132.322 55.6747 133.112 56.2418 134.126C56.8262 135.123 57.1184 136.283 57.1184 137.607C57.1184 138.93 56.8262 140.099 56.2418 141.113C55.6747 142.109 54.8927 142.891 53.8959 143.459C52.899 144.026 51.7905 144.309 50.5702 144.309ZM50.5702 141.448C51.4296 141.448 52.1772 141.13 52.8131 140.494C53.449 139.841 53.767 138.878 53.767 137.607C53.767 136.335 53.449 135.381 52.8131 134.745C52.1772 134.092 51.4382 133.765 50.596 133.765C49.7195 133.765 48.9633 134.092 48.3274 134.745C47.7087 135.381 47.3993 136.335 47.3993 137.607C47.3993 138.878 47.7087 139.841 48.3274 140.494C48.9633 141.13 49.7109 141.448 50.5702 141.448ZM65.9466 144.309C64.7435 144.309 63.6694 144.017 62.7241 143.433C61.7788 142.848 61.0312 142.049 60.4812 141.035C59.9313 140.021 59.6563 138.87 59.6563 137.581C59.6563 136.292 59.9313 135.149 60.4812 134.152C61.0312 133.138 61.7788 132.347 62.7241 131.78C63.6694 131.196 64.7435 130.904 65.9466 130.904C66.9091 130.904 67.7512 131.084 68.473 131.445C69.1949 131.806 69.7792 132.313 70.2261 132.966V125.438H73.5259V144H70.587L70.2261 142.17C69.8136 142.737 69.2636 143.235 68.5762 143.665C67.9059 144.095 67.0294 144.309 65.9466 144.309ZM66.6427 141.422C67.7082 141.422 68.5762 141.07 69.2464 140.365C69.9339 139.643 70.2776 138.724 70.2776 137.607C70.2776 136.489 69.9339 135.579 69.2464 134.874C68.5762 134.152 67.7082 133.791 66.6427 133.791C65.5943 133.791 64.7264 134.143 64.0389 134.848C63.3514 135.553 63.0077 136.464 63.0077 137.581C63.0077 138.698 63.3514 139.617 64.0389 140.339C64.7264 141.061 65.5943 141.422 66.6427 141.422ZM83.0992 144.309C81.8102 144.309 80.6673 144.034 79.6704 143.484C78.6736 142.934 77.8916 142.161 77.3245 141.164C76.7573 140.167 76.4737 139.016 76.4737 137.71C76.4737 136.386 76.7487 135.209 77.2987 134.178C77.8658 133.147 78.6392 132.347 79.6189 131.78C80.6157 131.196 81.7844 130.904 83.125 130.904C84.3796 130.904 85.4881 131.179 86.4506 131.729C87.413 132.279 88.1606 133.035 88.6934 133.997C89.2434 134.943 89.5184 136 89.5184 137.168C89.5184 137.357 89.5098 137.555 89.4926 137.761C89.4926 137.967 89.484 138.182 89.4668 138.406H79.7478C79.8165 139.403 80.1603 140.185 80.779 140.752C81.4149 141.319 82.1797 141.602 83.0734 141.602C83.7437 141.602 84.3022 141.456 84.7491 141.164C85.2131 140.855 85.5569 140.46 85.7803 139.978H89.1317C88.8911 140.786 88.4872 141.525 87.92 142.195C87.3701 142.848 86.6826 143.364 85.8576 143.742C85.0499 144.12 84.1304 144.309 83.0992 144.309ZM83.125 133.585C82.3172 133.585 81.6039 133.817 80.9852 134.281C80.3665 134.728 79.9712 135.415 79.7993 136.343H86.167C86.1154 135.501 85.8061 134.831 85.2389 134.332C84.6718 133.834 83.9671 133.585 83.125 133.585ZM92.2938 144V131.213H95.2327L95.5421 133.611C96.0061 132.786 96.6334 132.133 97.424 131.651C98.2318 131.153 99.177 130.904 100.26 130.904V134.384H99.3317C98.6099 134.384 97.9654 134.496 97.3982 134.719C96.8311 134.943 96.3842 135.329 96.0577 135.879C95.7483 136.429 95.5936 137.194 95.5936 138.174V144H92.2938ZM106.924 144.309C105.824 144.309 104.921 144.137 104.217 143.794C103.512 143.433 102.988 142.96 102.644 142.376C102.3 141.792 102.128 141.147 102.128 140.442C102.128 139.256 102.592 138.294 103.521 137.555C104.449 136.816 105.841 136.446 107.697 136.446H110.945V136.137C110.945 135.261 110.696 134.616 110.198 134.204C109.699 133.791 109.08 133.585 108.341 133.585C107.671 133.585 107.087 133.748 106.588 134.075C106.09 134.384 105.781 134.848 105.66 135.467H102.438C102.524 134.539 102.833 133.731 103.366 133.043C103.916 132.356 104.621 131.832 105.48 131.471C106.339 131.093 107.302 130.904 108.367 130.904C110.189 130.904 111.624 131.359 112.672 132.27C113.721 133.181 114.245 134.47 114.245 136.137V144H111.435L111.126 141.938C110.748 142.625 110.215 143.192 109.527 143.639C108.857 144.086 107.989 144.309 106.924 144.309ZM107.671 141.731C108.616 141.731 109.347 141.422 109.862 140.803C110.395 140.185 110.73 139.42 110.868 138.509H108.058C107.181 138.509 106.554 138.672 106.176 138.999C105.798 139.308 105.609 139.695 105.609 140.159C105.609 140.657 105.798 141.044 106.176 141.319C106.554 141.594 107.052 141.731 107.671 141.731ZM122.915 144C121.575 144 120.5 143.673 119.693 143.02C118.885 142.367 118.481 141.207 118.481 139.54V133.972H116.29V131.213H118.481L118.868 127.784H121.781V131.213H125.235V133.972H121.781V139.566C121.781 140.185 121.91 140.614 122.168 140.855C122.443 141.078 122.907 141.19 123.56 141.19H125.158V144H122.915ZM133.954 144.309C132.665 144.309 131.522 144.034 130.526 143.484C129.529 142.934 128.747 142.161 128.18 141.164C127.612 140.167 127.329 139.016 127.329 137.71C127.329 136.386 127.604 135.209 128.154 134.178C128.721 133.147 129.494 132.347 130.474 131.78C131.471 131.196 132.639 130.904 133.98 130.904C135.235 130.904 136.343 131.179 137.306 131.729C138.268 132.279 139.016 133.035 139.549 133.997C140.098 134.943 140.373 136 140.373 137.168C140.373 137.357 140.365 137.555 140.348 137.761C140.348 137.967 140.339 138.182 140.322 138.406H130.603C130.672 139.403 131.015 140.185 131.634 140.752C132.27 141.319 133.035 141.602 133.928 141.602C134.599 141.602 135.157 141.456 135.604 141.164C136.068 140.855 136.412 140.46 136.635 139.978H139.987C139.746 140.786 139.342 141.525 138.775 142.195C138.225 142.848 137.538 143.364 136.713 143.742C135.905 144.12 134.985 144.309 133.954 144.309ZM133.98 133.585C133.172 133.585 132.459 133.817 131.84 134.281C131.222 134.728 130.826 135.415 130.654 136.343H137.022C136.971 135.501 136.661 134.831 136.094 134.332C135.527 133.834 134.822 133.585 133.98 133.585ZM149.885 144V133.972H148.132V131.213H149.885V129.718C149.885 128.171 150.271 127.071 151.045 126.418C151.835 125.765 152.901 125.438 154.242 125.438H155.659V128.248H154.757C154.19 128.248 153.786 128.36 153.545 128.584C153.305 128.807 153.185 129.185 153.185 129.718V131.213H155.943V133.972H153.185V144H149.885ZM163.352 144.309C161.753 144.309 160.516 143.811 159.639 142.814C158.78 141.817 158.35 140.356 158.35 138.432V131.213H161.624V138.122C161.624 139.222 161.848 140.064 162.295 140.649C162.741 141.233 163.446 141.525 164.408 141.525C165.319 141.525 166.067 141.199 166.651 140.545C167.253 139.892 167.554 138.981 167.554 137.813V131.213H170.853V144H167.94L167.683 141.834C167.287 142.591 166.711 143.192 165.955 143.639C165.216 144.086 164.348 144.309 163.352 144.309ZM174.241 144V131.213H177.154L177.412 133.379C177.807 132.622 178.374 132.021 179.113 131.574C179.87 131.127 180.755 130.904 181.769 130.904C183.35 130.904 184.579 131.402 185.455 132.399C186.332 133.396 186.77 134.857 186.77 136.782V144H183.47V137.091C183.47 135.991 183.247 135.149 182.8 134.565C182.353 133.98 181.657 133.688 180.712 133.688C179.784 133.688 179.019 134.015 178.417 134.668C177.833 135.321 177.541 136.232 177.541 137.4V144H174.241ZM196.19 144.309C194.884 144.309 193.732 144.026 192.735 143.459C191.739 142.891 190.948 142.101 190.364 141.087C189.797 140.073 189.513 138.913 189.513 137.607C189.513 136.3 189.797 135.14 190.364 134.126C190.948 133.112 191.739 132.322 192.735 131.754C193.732 131.187 194.884 130.904 196.19 130.904C197.823 130.904 199.198 131.333 200.315 132.193C201.432 133.035 202.145 134.204 202.455 135.699H198.974C198.802 135.08 198.459 134.599 197.943 134.255C197.445 133.894 196.852 133.714 196.164 133.714C195.253 133.714 194.48 134.058 193.844 134.745C193.208 135.432 192.89 136.386 192.89 137.607C192.89 138.827 193.208 139.781 193.844 140.468C194.48 141.156 195.253 141.499 196.164 141.499C196.852 141.499 197.445 141.327 197.943 140.984C198.459 140.64 198.802 140.15 198.974 139.514H202.455C202.145 140.958 201.432 142.118 200.315 142.995C199.198 143.871 197.823 144.309 196.19 144.309ZM210.905 144C209.564 144 208.49 143.673 207.682 143.02C206.874 142.367 206.47 141.207 206.47 139.54V133.972H204.279V131.213H206.47L206.857 127.784H209.77V131.213H213.225V133.972H209.77V139.566C209.77 140.185 209.899 140.614 210.157 140.855C210.432 141.078 210.896 141.19 211.549 141.19H213.147V144H210.905ZM217.837 129.228C217.235 129.228 216.737 129.048 216.341 128.687C215.963 128.326 215.774 127.87 215.774 127.32C215.774 126.77 215.963 126.324 216.341 125.98C216.737 125.619 217.235 125.438 217.837 125.438C218.438 125.438 218.928 125.619 219.306 125.98C219.701 126.324 219.899 126.77 219.899 127.32C219.899 127.87 219.701 128.326 219.306 128.687C218.928 129.048 218.438 129.228 217.837 129.228ZM216.187 144V131.213H219.487V144H216.187ZM229.067 144.309C227.829 144.309 226.712 144.026 225.715 143.459C224.736 142.891 223.954 142.109 223.369 141.113C222.802 140.099 222.518 138.93 222.518 137.607C222.518 136.283 222.811 135.123 223.395 134.126C223.979 133.112 224.761 132.322 225.741 131.754C226.738 131.187 227.855 130.904 229.092 130.904C230.313 130.904 231.413 131.187 232.392 131.754C233.389 132.322 234.171 133.112 234.738 134.126C235.322 135.123 235.615 136.283 235.615 137.607C235.615 138.93 235.322 140.099 234.738 141.113C234.171 142.109 233.389 142.891 232.392 143.459C231.395 144.026 230.287 144.309 229.067 144.309ZM229.067 141.448C229.926 141.448 230.673 141.13 231.309 140.494C231.945 139.841 232.263 138.878 232.263 137.607C232.263 136.335 231.945 135.381 231.309 134.745C230.673 134.092 229.934 133.765 229.092 133.765C228.216 133.765 227.46 134.092 226.824 134.745C226.205 135.381 225.896 136.335 225.896 137.607C225.896 138.878 226.205 139.841 226.824 140.494C227.46 141.13 228.207 141.448 229.067 141.448ZM238.565 144V131.213H241.478L241.736 133.379C242.131 132.622 242.698 132.021 243.437 131.574C244.194 131.127 245.079 130.904 246.093 130.904C247.674 130.904 248.903 131.402 249.779 132.399C250.656 133.396 251.094 134.857 251.094 136.782V144H247.794V137.091C247.794 135.991 247.571 135.149 247.124 134.565C246.677 133.98 245.981 133.688 245.036 133.688C244.108 133.688 243.343 134.015 242.741 134.668C242.157 135.321 241.865 136.232 241.865 137.4V144H238.565ZM258.658 144.309C257.558 144.309 256.656 144.137 255.951 143.794C255.246 143.433 254.722 142.96 254.378 142.376C254.035 141.792 253.863 141.147 253.863 140.442C253.863 139.256 254.327 138.294 255.255 137.555C256.183 136.816 257.575 136.446 259.431 136.446H262.68V136.137C262.68 135.261 262.43 134.616 261.932 134.204C261.434 133.791 260.815 133.585 260.076 133.585C259.406 133.585 258.821 133.748 258.323 134.075C257.824 134.384 257.515 134.848 257.395 135.467H254.172C254.258 134.539 254.568 133.731 255.1 133.043C255.65 132.356 256.355 131.832 257.214 131.471C258.074 131.093 259.036 130.904 260.102 130.904C261.923 130.904 263.359 131.359 264.407 132.27C265.455 133.181 265.979 134.47 265.979 136.137V144H263.169L262.86 141.938C262.482 142.625 261.949 143.192 261.262 143.639C260.591 144.086 259.724 144.309 258.658 144.309ZM259.406 141.731C260.351 141.731 261.081 141.422 261.597 140.803C262.13 140.185 262.465 139.42 262.602 138.509H259.792C258.916 138.509 258.288 138.672 257.91 138.999C257.532 139.308 257.343 139.695 257.343 140.159C257.343 140.657 257.532 141.044 257.91 141.319C258.288 141.594 258.787 141.731 259.406 141.731ZM269.128 144V125.438H272.428V144H269.128ZM277.579 129.228C276.977 129.228 276.479 129.048 276.084 128.687C275.706 128.326 275.516 127.87 275.516 127.32C275.516 126.77 275.706 126.324 276.084 125.98C276.479 125.619 276.977 125.438 277.579 125.438C278.18 125.438 278.67 125.619 279.048 125.98C279.444 126.324 279.641 126.77 279.641 127.32C279.641 127.87 279.444 128.326 279.048 128.687C278.67 129.048 278.18 129.228 277.579 129.228ZM275.929 144V131.213H279.229V144H275.929ZM288.37 144C287.03 144 285.956 143.673 285.148 143.02C284.34 142.367 283.936 141.207 283.936 139.54V133.972H281.745V131.213H283.936L284.323 127.784H287.236V131.213H290.691V133.972H287.236V139.566C287.236 140.185 287.365 140.614 287.623 140.855C287.898 141.078 288.362 141.19 289.015 141.19H290.613V144H288.37ZM295.122 149.672L298.087 143.149H297.313L292.338 131.213H295.921L299.505 140.21L303.243 131.213H306.749L298.628 149.672H295.122ZM321.314 144.309C320.007 144.309 318.856 144.026 317.859 143.459C316.862 142.891 316.072 142.101 315.487 141.087C314.92 140.073 314.637 138.913 314.637 137.607C314.637 136.3 314.92 135.14 315.487 134.126C316.072 133.112 316.862 132.322 317.859 131.754C318.856 131.187 320.007 130.904 321.314 130.904C322.946 130.904 324.321 131.333 325.438 132.193C326.556 133.035 327.269 134.204 327.578 135.699H324.098C323.926 135.08 323.582 134.599 323.067 134.255C322.568 133.894 321.975 133.714 321.288 133.714C320.377 133.714 319.604 134.058 318.968 134.745C318.332 135.432 318.014 136.386 318.014 137.607C318.014 138.827 318.332 139.781 318.968 140.468C319.604 141.156 320.377 141.499 321.288 141.499C321.975 141.499 322.568 141.327 323.067 140.984C323.582 140.64 323.926 140.15 324.098 139.514H327.578C327.269 140.958 326.556 142.118 325.438 142.995C324.321 143.871 322.946 144.309 321.314 144.309ZM330.507 144V125.438H333.807V133.172C334.237 132.468 334.812 131.918 335.534 131.522C336.273 131.11 337.115 130.904 338.061 130.904C339.642 130.904 340.862 131.402 341.721 132.399C342.598 133.396 343.036 134.857 343.036 136.782V144H339.762V137.091C339.762 135.991 339.539 135.149 339.092 134.565C338.662 133.98 337.975 133.688 337.029 133.688C336.101 133.688 335.328 134.015 334.709 134.668C334.108 135.321 333.807 136.232 333.807 137.4V144H330.507ZM350.6 144.309C349.5 144.309 348.598 144.137 347.893 143.794C347.188 143.433 346.664 142.96 346.32 142.376C345.977 141.792 345.805 141.147 345.805 140.442C345.805 139.256 346.269 138.294 347.197 137.555C348.125 136.816 349.517 136.446 351.373 136.446H354.622V136.137C354.622 135.261 354.372 134.616 353.874 134.204C353.376 133.791 352.757 133.585 352.018 133.585C351.348 133.585 350.763 133.748 350.265 134.075C349.766 134.384 349.457 134.848 349.337 135.467H346.114C346.2 134.539 346.509 133.731 347.042 133.043C347.592 132.356 348.297 131.832 349.156 131.471C350.016 131.093 350.978 130.904 352.044 130.904C353.865 130.904 355.3 131.359 356.349 132.27C357.397 133.181 357.921 134.47 357.921 136.137V144H355.111L354.802 141.938C354.424 142.625 353.891 143.192 353.204 143.639C352.533 144.086 351.665 144.309 350.6 144.309ZM351.348 141.731C352.293 141.731 353.023 141.422 353.539 140.803C354.072 140.185 354.407 139.42 354.544 138.509H351.734C350.858 138.509 350.23 138.672 349.852 138.999C349.474 139.308 349.285 139.695 349.285 140.159C349.285 140.657 349.474 141.044 349.852 141.319C350.23 141.594 350.729 141.731 351.348 141.731ZM361.07 144V131.213H363.984L364.241 133.379C364.637 132.622 365.204 132.021 365.943 131.574C366.699 131.127 367.584 130.904 368.598 130.904C370.179 130.904 371.408 131.402 372.285 132.399C373.161 133.396 373.599 134.857 373.599 136.782V144H370.3V137.091C370.3 135.991 370.076 135.149 369.629 134.565C369.183 133.98 368.486 133.688 367.541 133.688C366.613 133.688 365.848 134.015 365.247 134.668C364.662 135.321 364.37 136.232 364.37 137.4V144H361.07ZM382.169 140.185C381.55 140.185 380.974 140.116 380.441 139.978L379.488 140.932C379.78 141.087 380.175 141.216 380.673 141.319C381.172 141.422 381.98 141.525 383.097 141.628C384.798 141.783 386.036 142.187 386.809 142.84C387.583 143.493 387.969 144.395 387.969 145.547C387.969 146.303 387.763 147.016 387.351 147.687C386.938 148.374 386.302 148.924 385.443 149.336C384.583 149.766 383.484 149.981 382.143 149.981C380.321 149.981 378.852 149.637 377.735 148.95C376.617 148.279 376.059 147.265 376.059 145.908C376.059 144.756 376.617 143.759 377.735 142.917C377.391 142.763 377.09 142.599 376.832 142.427C376.592 142.256 376.377 142.075 376.188 141.886V141.293L378.431 138.921C377.434 138.045 376.935 136.919 376.935 135.544C376.935 134.685 377.142 133.903 377.554 133.198C377.984 132.494 378.585 131.935 379.359 131.522C380.132 131.11 381.069 130.904 382.169 130.904C382.891 130.904 383.561 131.007 384.18 131.213H389.026V133.224L386.835 133.379C387.179 134.032 387.351 134.754 387.351 135.544C387.351 136.403 387.144 137.185 386.732 137.89C386.319 138.595 385.718 139.153 384.927 139.566C384.154 139.978 383.234 140.185 382.169 140.185ZM382.169 137.658C382.839 137.658 383.389 137.478 383.819 137.117C384.265 136.756 384.489 136.24 384.489 135.57C384.489 134.9 384.265 134.384 383.819 134.023C383.389 133.662 382.839 133.482 382.169 133.482C381.464 133.482 380.897 133.662 380.467 134.023C380.038 134.384 379.823 134.9 379.823 135.57C379.823 136.24 380.038 136.756 380.467 137.117C380.897 137.478 381.464 137.658 382.169 137.658ZM379.075 145.573C379.075 146.208 379.367 146.681 379.952 146.99C380.553 147.317 381.284 147.48 382.143 147.48C382.968 147.48 383.638 147.308 384.154 146.965C384.669 146.638 384.927 146.191 384.927 145.624C384.927 145.16 384.755 144.773 384.412 144.464C384.085 144.155 383.423 143.966 382.427 143.897C381.722 143.845 381.069 143.768 380.467 143.665C379.969 143.94 379.608 144.241 379.384 144.567C379.178 144.894 379.075 145.229 379.075 145.573ZM397.142 144.309C395.853 144.309 394.71 144.034 393.713 143.484C392.716 142.934 391.934 142.161 391.367 141.164C390.8 140.167 390.516 139.016 390.516 137.71C390.516 136.386 390.791 135.209 391.341 134.178C391.909 133.147 392.682 132.347 393.662 131.78C394.658 131.196 395.827 130.904 397.168 130.904C398.422 130.904 399.531 131.179 400.493 131.729C401.456 132.279 402.203 133.035 402.736 133.997C403.286 134.943 403.561 136 403.561 137.168C403.561 137.357 403.553 137.555 403.535 137.761C403.535 137.967 403.527 138.182 403.51 138.406H393.79C393.859 139.403 394.203 140.185 394.822 140.752C395.458 141.319 396.222 141.602 397.116 141.602C397.786 141.602 398.345 141.456 398.792 141.164C399.256 140.855 399.6 140.46 399.823 139.978H403.174C402.934 140.786 402.53 141.525 401.963 142.195C401.413 142.848 400.725 143.364 399.9 143.742C399.093 144.12 398.173 144.309 397.142 144.309ZM397.168 133.585C396.36 133.585 395.647 133.817 395.028 134.281C394.409 134.728 394.014 135.415 393.842 136.343H400.21C400.158 135.501 399.849 134.831 399.282 134.332C398.714 133.834 398.01 133.585 397.168 133.585ZM411.621 144.309C410.487 144.309 409.49 144.129 408.631 143.768C407.772 143.39 407.084 142.874 406.568 142.221C406.053 141.568 405.744 140.812 405.64 139.953H408.966C409.069 140.451 409.344 140.881 409.791 141.242C410.255 141.585 410.848 141.757 411.57 141.757C412.292 141.757 412.816 141.611 413.142 141.319C413.486 141.027 413.658 140.692 413.658 140.313C413.658 139.763 413.417 139.394 412.936 139.205C412.455 138.999 411.785 138.801 410.925 138.612C410.375 138.492 409.817 138.346 409.25 138.174C408.682 138.002 408.158 137.787 407.677 137.529C407.213 137.254 406.835 136.91 406.543 136.498C406.251 136.068 406.104 135.544 406.104 134.925C406.104 133.791 406.551 132.837 407.445 132.064C408.356 131.29 409.628 130.904 411.26 130.904C412.773 130.904 413.976 131.256 414.87 131.961C415.781 132.665 416.322 133.636 416.494 134.874H413.374C413.185 133.929 412.472 133.456 411.235 133.456C410.616 133.456 410.135 133.576 409.791 133.817C409.464 134.058 409.301 134.358 409.301 134.719C409.301 135.097 409.55 135.398 410.049 135.621C410.547 135.845 411.209 136.051 412.034 136.24C412.928 136.446 413.744 136.678 414.483 136.936C415.239 137.177 415.841 137.546 416.288 138.045C416.734 138.526 416.958 139.222 416.958 140.133C416.975 140.924 416.769 141.637 416.339 142.273C415.909 142.909 415.291 143.407 414.483 143.768C413.675 144.129 412.721 144.309 411.621 144.309Z" fill="#505050"/>
<rect x="0.5" y="98.5" width="438" height="73" rx="8.5" stroke="#16B0AF"/>
</svg>
