<svg width="807" height="141" viewBox="0 0 807 141" fill="none" xmlns="http://www.w3.org/2000/svg">
<path d="M38.7593 53.2755C37.5808 53.2755 36.5172 53.0459 35.5683 52.5868C34.6195 52.1124 33.8619 51.4007 33.2956 50.4518C32.7447 49.503 32.4692 48.3016 32.4692 46.8477V36.9305H35.4076V46.8706C35.4076 48.1256 35.7061 49.0592 36.3029 49.6713C36.9151 50.2835 37.7568 50.5896 38.8281 50.5896C39.8841 50.5896 40.7182 50.2835 41.3304 49.6713C41.9425 49.0592 42.2486 48.1256 42.2486 46.8706V36.9305H45.187V46.8477C45.187 48.3016 44.8963 49.503 44.3147 50.4518C43.7331 51.4007 42.9526 52.1124 41.9731 52.5868C41.009 53.0459 39.9377 53.2755 38.7593 53.2755ZM52.8238 53.2755C51.8137 53.2755 50.9261 53.1148 50.1609 52.7934C49.3956 52.4567 48.7835 51.9976 48.3243 51.416C47.8652 50.8344 47.5897 50.1611 47.4979 49.3959H50.4593C50.5511 49.8397 50.796 50.2223 51.1939 50.5437C51.6071 50.8498 52.1351 51.0028 52.7779 51.0028C53.4207 51.0028 53.8874 50.8727 54.1782 50.6125C54.4843 50.3524 54.6373 50.0539 54.6373 49.7172C54.6373 49.2275 54.4231 48.8985 53.9946 48.7301C53.566 48.5465 52.9692 48.3705 52.204 48.2021C51.7142 48.095 51.2168 47.9649 50.7118 47.8119C50.2068 47.6588 49.74 47.4675 49.3115 47.238C48.8983 46.9931 48.5616 46.687 48.3014 46.3197C48.0412 45.9371 47.9111 45.4703 47.9111 44.9194C47.9111 43.9093 48.309 43.0599 49.1049 42.3712C49.916 41.6825 51.0485 41.3382 52.5024 41.3382C53.8492 41.3382 54.9205 41.6519 55.7163 42.2794C56.5274 42.9068 57.0095 43.7715 57.1625 44.8734H54.3848C54.2165 44.0317 53.5814 43.6108 52.4794 43.6108C51.9285 43.6108 51.5 43.718 51.1939 43.9322C50.9031 44.1465 50.7577 44.4143 50.7577 44.7357C50.7577 45.0724 50.9796 45.3402 51.4235 45.5392C51.8673 45.7381 52.4565 45.9218 53.1911 46.0901C53.9869 46.2738 54.7139 46.4804 55.372 46.71C56.0453 46.9242 56.581 47.2533 56.9789 47.6971C57.3768 48.1256 57.5758 48.7454 57.5758 49.5565C57.5911 50.2605 57.4074 50.8957 57.0248 51.4619C56.6422 52.0282 56.0913 52.472 55.372 52.7934C54.6527 53.1148 53.8033 53.2755 52.8238 53.2755ZM65.7113 53.2755C64.5635 53.2755 63.5457 53.0306 62.6581 52.5409C61.7704 52.0511 61.0741 51.3624 60.5691 50.4748C60.064 49.5872 59.8115 48.5618 59.8115 47.3986C59.8115 46.2202 60.0564 45.1719 60.5461 44.2536C61.0511 43.3354 61.7398 42.6237 62.6122 42.1187C63.4998 41.5983 64.5405 41.3382 65.7342 41.3382C66.8514 41.3382 67.8386 41.583 68.6956 42.0728C69.5526 42.5625 70.2184 43.2359 70.6928 44.0929C71.1826 44.9347 71.4274 45.8759 71.4274 46.9166C71.4274 47.0849 71.4198 47.2609 71.4045 47.4446C71.4045 47.6282 71.3968 47.8195 71.3815 48.0185H62.727C62.7882 48.9061 63.0943 49.6025 63.6452 50.1075C64.2115 50.6125 64.8925 50.8651 65.6883 50.8651C66.2852 50.8651 66.7826 50.735 67.1805 50.4748C67.5937 50.1993 67.8998 49.8473 68.0987 49.4188H71.0831C70.8688 50.1381 70.5092 50.7962 70.0041 51.3931C69.5144 51.9746 68.9022 52.4337 68.1676 52.7704C67.4483 53.1071 66.6295 53.2755 65.7113 53.2755ZM65.7342 43.7256C65.0149 43.7256 64.3798 43.9322 63.8289 44.3454C63.2779 44.7434 62.9259 45.3555 62.7729 46.182H68.4431C68.3972 45.4321 68.1217 44.8352 67.6167 44.3914C67.1116 43.9475 66.4841 43.7256 65.7342 43.7256ZM73.8988 53V41.6136H76.5158L76.7913 43.7486C77.2045 43.014 77.7631 42.4324 78.4671 42.0039C79.1864 41.5601 80.0282 41.3382 80.9923 41.3382V44.4373H80.1659C79.5231 44.4373 78.9492 44.5368 78.4442 44.7357C77.9391 44.9347 77.5412 45.279 77.2504 45.7687C76.975 46.2585 76.8372 46.9395 76.8372 47.8119V53H73.8988ZM94.7378 53.2755C93.5594 53.2755 92.4957 53.0459 91.5469 52.5868C90.598 52.1124 89.8405 51.4007 89.2742 50.4518C88.7232 49.503 88.4478 48.3016 88.4478 46.8477V36.9305H91.3862V46.8706C91.3862 48.1256 91.6846 49.0592 92.2815 49.6713C92.8937 50.2835 93.7354 50.5896 94.8067 50.5896C95.8627 50.5896 96.6968 50.2835 97.3089 49.6713C97.9211 49.0592 98.2272 48.1256 98.2272 46.8706V36.9305H101.166V46.8477C101.166 48.3016 100.875 49.503 100.293 50.4518C99.7117 51.4007 98.9312 52.1124 97.9517 52.5868C96.9875 53.0459 95.9162 53.2755 94.7378 53.2755ZM104.096 58.0504V41.6136H106.713L107.035 43.2435C107.402 42.7385 107.884 42.2947 108.481 41.9121C109.093 41.5295 109.881 41.3382 110.845 41.3382C111.917 41.3382 112.873 41.5983 113.715 42.1187C114.557 42.639 115.222 43.3507 115.712 44.2536C116.202 45.1566 116.447 46.182 116.447 47.3298C116.447 48.4776 116.202 49.503 115.712 50.4059C115.222 51.2936 114.557 51.9976 113.715 52.5179C112.873 53.023 111.917 53.2755 110.845 53.2755C109.988 53.2755 109.239 53.1148 108.596 52.7934C107.953 52.472 107.433 52.0205 107.035 51.439V58.0504H104.096ZM110.226 50.7044C111.159 50.7044 111.932 50.3906 112.544 49.7632C113.156 49.1357 113.463 48.3246 113.463 47.3298C113.463 46.335 113.156 45.5162 112.544 44.8734C111.932 44.2307 111.159 43.9093 110.226 43.9093C109.277 43.9093 108.496 44.2307 107.884 44.8734C107.287 45.5009 106.989 46.312 106.989 47.3068C106.989 48.3016 107.287 49.1204 107.884 49.7632C108.496 50.3906 109.277 50.7044 110.226 50.7044ZM119.072 53V36.4714H122.01V53H119.072ZM130.476 53.2755C129.374 53.2755 128.38 53.023 127.492 52.5179C126.62 52.0129 125.923 51.3165 125.403 50.4289C124.898 49.5259 124.645 48.4852 124.645 47.3068C124.645 46.1284 124.905 45.0954 125.426 44.2077C125.946 43.3048 126.643 42.6008 127.515 42.0957C128.402 41.5907 129.397 41.3382 130.499 41.3382C131.586 41.3382 132.565 41.5907 133.438 42.0957C134.325 42.6008 135.022 43.3048 135.527 44.2077C136.047 45.0954 136.307 46.1284 136.307 47.3068C136.307 48.4852 136.047 49.5259 135.527 50.4289C135.022 51.3165 134.325 52.0129 133.438 52.5179C132.55 53.023 131.563 53.2755 130.476 53.2755ZM130.476 50.7273C131.241 50.7273 131.907 50.4442 132.473 49.8779C133.04 49.2964 133.323 48.4393 133.323 47.3068C133.323 46.1743 133.04 45.3249 132.473 44.7587C131.907 44.1771 131.249 43.8863 130.499 43.8863C129.719 43.8863 129.045 44.1771 128.479 44.7587C127.928 45.3249 127.653 46.1743 127.653 47.3068C127.653 48.4393 127.928 49.2964 128.479 49.8779C129.045 50.4442 129.711 50.7273 130.476 50.7273ZM142.86 53.2755C141.88 53.2755 141.077 53.1224 140.449 52.8163C139.822 52.495 139.355 52.0741 139.049 51.5537C138.743 51.0334 138.59 50.4595 138.59 49.832C138.59 48.776 139.003 47.919 139.83 47.2609C140.656 46.6028 141.896 46.2738 143.549 46.2738H146.441V45.9983C146.441 45.2178 146.219 44.6439 145.775 44.2766C145.332 43.9093 144.781 43.7256 144.123 43.7256C143.526 43.7256 143.005 43.871 142.561 44.1618C142.118 44.4373 141.842 44.8505 141.735 45.4014H138.866C138.942 44.575 139.218 43.8557 139.692 43.2435C140.182 42.6314 140.809 42.1646 141.574 41.8432C142.34 41.5065 143.197 41.3382 144.145 41.3382C145.768 41.3382 147.046 41.7437 147.979 42.5549C148.913 43.366 149.38 44.5138 149.38 45.9983V53H146.877L146.602 51.1635C146.265 51.7757 145.791 52.2807 145.179 52.6786C144.582 53.0765 143.809 53.2755 142.86 53.2755ZM143.526 50.9798C144.367 50.9798 145.018 50.7044 145.477 50.1534C145.951 49.6025 146.25 48.9214 146.372 48.1103H143.87C143.089 48.1103 142.531 48.2557 142.194 48.5465C141.857 48.8219 141.689 49.1663 141.689 49.5795C141.689 50.0233 141.857 50.3677 142.194 50.6125C142.531 50.8574 142.975 50.9798 143.526 50.9798ZM157.418 53.2755C156.346 53.2755 155.39 53.0153 154.548 52.495C153.706 51.9746 153.041 51.263 152.551 50.36C152.061 49.4571 151.816 48.4317 151.816 47.2839C151.816 46.136 152.061 45.1183 152.551 44.2307C153.041 43.3277 153.706 42.6237 154.548 42.1187C155.39 41.5983 156.346 41.3382 157.418 41.3382C158.275 41.3382 159.025 41.4989 159.667 41.8202C160.31 42.1416 160.831 42.5931 161.228 43.1747V36.4714H164.167V53H161.55L161.228 51.3701C160.861 51.8751 160.371 52.319 159.759 52.7016C159.162 53.0842 158.382 53.2755 157.418 53.2755ZM158.037 50.7044C158.986 50.7044 159.759 50.3906 160.356 49.7632C160.968 49.1204 161.274 48.3016 161.274 47.3068C161.274 46.312 160.968 45.5009 160.356 44.8734C159.759 44.2307 158.986 43.9093 158.037 43.9093C157.104 43.9093 156.331 44.223 155.719 44.8505C155.107 45.478 154.801 46.2891 154.801 47.2839C154.801 48.2786 155.107 49.0974 155.719 49.7402C156.331 50.383 157.104 50.7044 158.037 50.7044ZM171.865 53.2755C170.855 53.2755 169.967 53.1148 169.202 52.7934C168.437 52.4567 167.825 51.9976 167.366 51.416C166.907 50.8344 166.631 50.1611 166.539 49.3959H169.501C169.592 49.8397 169.837 50.2223 170.235 50.5437C170.648 50.8498 171.176 51.0028 171.819 51.0028C172.462 51.0028 172.929 50.8727 173.22 50.6125C173.526 50.3524 173.679 50.0539 173.679 49.7172C173.679 49.2275 173.464 48.8985 173.036 48.7301C172.607 48.5465 172.011 48.3705 171.245 48.2021C170.756 48.095 170.258 47.9649 169.753 47.8119C169.248 47.6588 168.781 47.4675 168.353 47.238C167.94 46.9931 167.603 46.687 167.343 46.3197C167.083 45.9371 166.952 45.4703 166.952 44.9194C166.952 43.9093 167.35 43.0599 168.146 42.3712C168.957 41.6825 170.09 41.3382 171.544 41.3382C172.891 41.3382 173.962 41.6519 174.758 42.2794C175.569 42.9068 176.051 43.7715 176.204 44.8734H173.426C173.258 44.0317 172.623 43.6108 171.521 43.6108C170.97 43.6108 170.541 43.718 170.235 43.9322C169.944 44.1465 169.799 44.4143 169.799 44.7357C169.799 45.0724 170.021 45.3402 170.465 45.5392C170.909 45.7381 171.498 45.9218 172.232 46.0901C173.028 46.2738 173.755 46.4804 174.413 46.71C175.087 46.9242 175.622 47.2533 176.02 47.6971C176.418 48.1256 176.617 48.7454 176.617 49.5565C176.632 50.2605 176.449 50.8957 176.066 51.4619C175.684 52.0282 175.133 52.472 174.413 52.7934C173.694 53.1148 172.845 53.2755 171.865 53.2755ZM189.396 53.2755C188.386 53.2755 187.499 53.1148 186.733 52.7934C185.968 52.4567 185.356 51.9976 184.897 51.416C184.438 50.8344 184.162 50.1611 184.07 49.3959H187.032C187.124 49.8397 187.368 50.2223 187.766 50.5437C188.18 50.8498 188.708 51.0028 189.35 51.0028C189.993 51.0028 190.46 50.8727 190.751 50.6125C191.057 50.3524 191.21 50.0539 191.21 49.7172C191.21 49.2275 190.996 48.8985 190.567 48.7301C190.139 48.5465 189.542 48.3705 188.776 48.2021C188.287 48.095 187.789 47.9649 187.284 47.8119C186.779 47.6588 186.312 47.4675 185.884 47.238C185.471 46.9931 185.134 46.687 184.874 46.3197C184.614 45.9371 184.484 45.4703 184.484 44.9194C184.484 43.9093 184.881 43.0599 185.677 42.3712C186.488 41.6825 187.621 41.3382 189.075 41.3382C190.422 41.3382 191.493 41.6519 192.289 42.2794C193.1 42.9068 193.582 43.7715 193.735 44.8734H190.957C190.789 44.0317 190.154 43.6108 189.052 43.6108C188.501 43.6108 188.072 43.718 187.766 43.9322C187.476 44.1465 187.33 44.4143 187.33 44.7357C187.33 45.0724 187.552 45.3402 187.996 45.5392C188.44 45.7381 189.029 45.9218 189.764 46.0901C190.559 46.2738 191.286 46.4804 191.944 46.71C192.618 46.9242 193.153 47.2533 193.551 47.6971C193.949 48.1256 194.148 48.7454 194.148 49.5565C194.164 50.2605 193.98 50.8957 193.597 51.4619C193.215 52.0282 192.664 52.472 191.944 52.7934C191.225 53.1148 190.376 53.2755 189.396 53.2755ZM196.751 53V36.4714H199.69V53H196.751ZM208.225 53.2755C207.077 53.2755 206.059 53.0306 205.171 52.5409C204.284 52.0511 203.587 51.3624 203.082 50.4748C202.577 49.5872 202.325 48.5618 202.325 47.3986C202.325 46.2202 202.57 45.1719 203.059 44.2536C203.564 43.3354 204.253 42.6237 205.125 42.1187C206.013 41.5983 207.054 41.3382 208.248 41.3382C209.365 41.3382 210.352 41.583 211.209 42.0728C212.066 42.5625 212.732 43.2359 213.206 44.0929C213.696 44.9347 213.941 45.8759 213.941 46.9166C213.941 47.0849 213.933 47.2609 213.918 47.4446C213.918 47.6282 213.91 47.8195 213.895 48.0185H205.24C205.301 48.9061 205.608 49.6025 206.159 50.1075C206.725 50.6125 207.406 50.8651 208.202 50.8651C208.798 50.8651 209.296 50.735 209.694 50.4748C210.107 50.1993 210.413 49.8473 210.612 49.4188H213.596C213.382 50.1381 213.022 50.7962 212.517 51.3931C212.028 51.9746 211.416 52.4337 210.681 52.7704C209.962 53.1071 209.143 53.2755 208.225 53.2755ZM208.248 43.7256C207.528 43.7256 206.893 43.9322 206.342 44.3454C205.791 44.7434 205.439 45.3555 205.286 46.182H210.956C210.91 45.4321 210.635 44.8352 210.13 44.3914C209.625 43.9475 208.997 43.7256 208.248 43.7256ZM221.945 53.2755C220.797 53.2755 219.779 53.0306 218.891 52.5409C218.004 52.0511 217.307 51.3624 216.802 50.4748C216.297 49.5872 216.045 48.5618 216.045 47.3986C216.045 46.2202 216.29 45.1719 216.779 44.2536C217.284 43.3354 217.973 42.6237 218.845 42.1187C219.733 41.5983 220.774 41.3382 221.968 41.3382C223.085 41.3382 224.072 41.583 224.929 42.0728C225.786 42.5625 226.452 43.2359 226.926 44.0929C227.416 44.9347 227.661 45.8759 227.661 46.9166C227.661 47.0849 227.653 47.2609 227.638 47.4446C227.638 47.6282 227.63 47.8195 227.615 48.0185H218.96C219.021 48.9061 219.328 49.6025 219.879 50.1075C220.445 50.6125 221.126 50.8651 221.922 50.8651C222.519 50.8651 223.016 50.735 223.414 50.4748C223.827 50.1993 224.133 49.8473 224.332 49.4188H227.316C227.102 50.1381 226.742 50.7962 226.237 51.3931C225.748 51.9746 225.136 52.4337 224.401 52.7704C223.682 53.1071 222.863 53.2755 221.945 53.2755ZM221.968 43.7256C221.248 43.7256 220.613 43.9322 220.062 44.3454C219.511 44.7434 219.159 45.3555 219.006 46.182H224.676C224.63 45.4321 224.355 44.8352 223.85 44.3914C223.345 43.9475 222.717 43.7256 221.968 43.7256ZM230.132 58.0504V41.6136H232.749L233.071 43.2435C233.438 42.7385 233.92 42.2947 234.517 41.9121C235.129 41.5295 235.917 41.3382 236.881 41.3382C237.953 41.3382 238.909 41.5983 239.751 42.1187C240.593 42.639 241.258 43.3507 241.748 44.2536C242.238 45.1566 242.483 46.182 242.483 47.3298C242.483 48.4776 242.238 49.503 241.748 50.4059C241.258 51.2936 240.593 51.9976 239.751 52.5179C238.909 53.023 237.953 53.2755 236.881 53.2755C236.024 53.2755 235.274 53.1148 234.632 52.7934C233.989 52.472 233.468 52.0205 233.071 51.439V58.0504H230.132ZM236.261 50.7044C237.195 50.7044 237.968 50.3906 238.58 49.7632C239.192 49.1357 239.498 48.3246 239.498 47.3298C239.498 46.335 239.192 45.5162 238.58 44.8734C237.968 44.2307 237.195 43.9093 236.261 43.9093C235.313 43.9093 234.532 44.2307 233.92 44.8734C233.323 45.5009 233.025 46.312 233.025 47.3068C233.025 48.3016 233.323 49.1204 233.92 49.7632C234.532 50.3906 235.313 50.7044 236.261 50.7044ZM255.812 53.2755C254.74 53.2755 253.784 53.0153 252.942 52.495C252.1 51.9746 251.435 51.263 250.945 50.36C250.455 49.4571 250.21 48.4317 250.21 47.2839C250.21 46.136 250.455 45.1183 250.945 44.2307C251.435 43.3277 252.1 42.6237 252.942 42.1187C253.784 41.5983 254.74 41.3382 255.812 41.3382C256.669 41.3382 257.419 41.4989 258.061 41.8202C258.704 42.1416 259.225 42.5931 259.622 43.1747V36.4714H262.561V53H259.944L259.622 51.3701C259.255 51.8751 258.765 52.319 258.153 52.7016C257.556 53.0842 256.776 53.2755 255.812 53.2755ZM256.432 50.7044C257.38 50.7044 258.153 50.3906 258.75 49.7632C259.362 49.1204 259.668 48.3016 259.668 47.3068C259.668 46.312 259.362 45.5009 258.75 44.8734C258.153 44.2307 257.38 43.9093 256.432 43.9093C255.498 43.9093 254.725 44.223 254.113 44.8505C253.501 45.478 253.195 46.2891 253.195 47.2839C253.195 48.2786 253.501 49.0974 254.113 49.7402C254.725 50.383 255.498 50.7044 256.432 50.7044ZM269.479 53.2755C268.499 53.2755 267.696 53.1224 267.068 52.8163C266.441 52.495 265.974 52.0741 265.668 51.5537C265.362 51.0334 265.209 50.4595 265.209 49.832C265.209 48.776 265.622 47.919 266.448 47.2609C267.275 46.6028 268.514 46.2738 270.167 46.2738H273.06V45.9983C273.06 45.2178 272.838 44.6439 272.394 44.2766C271.95 43.9093 271.399 43.7256 270.741 43.7256C270.144 43.7256 269.624 43.871 269.18 44.1618C268.736 44.4373 268.461 44.8505 268.354 45.4014H265.484C265.561 44.575 265.836 43.8557 266.311 43.2435C266.8 42.6314 267.428 42.1646 268.193 41.8432C268.958 41.5065 269.815 41.3382 270.764 41.3382C272.386 41.3382 273.664 41.7437 274.598 42.5549C275.531 43.366 275.998 44.5138 275.998 45.9983V53H273.496L273.221 51.1635C272.884 51.7757 272.409 52.2807 271.797 52.6786C271.2 53.0765 270.427 53.2755 269.479 53.2755ZM270.144 50.9798C270.986 50.9798 271.637 50.7044 272.096 50.1534C272.57 49.6025 272.869 48.9214 272.991 48.1103H270.489C269.708 48.1103 269.15 48.2557 268.813 48.5465C268.476 48.8219 268.308 49.1663 268.308 49.5795C268.308 50.0233 268.476 50.3677 268.813 50.6125C269.15 50.8574 269.593 50.9798 270.144 50.9798ZM283.719 53C282.525 53 281.569 52.7092 280.849 52.1277C280.13 51.5461 279.77 50.5131 279.77 49.0285V44.07H277.819V41.6136H279.77L280.115 38.5604H282.709V41.6136H285.785V44.07H282.709V49.0515C282.709 49.6025 282.823 49.9851 283.053 50.1993C283.298 50.3983 283.711 50.4978 284.293 50.4978H285.716V53H283.719ZM292.233 53.2755C291.254 53.2755 290.45 53.1224 289.823 52.8163C289.195 52.495 288.729 52.0741 288.422 51.5537C288.116 51.0334 287.963 50.4595 287.963 49.832C287.963 48.776 288.377 47.919 289.203 47.2609C290.029 46.6028 291.269 46.2738 292.922 46.2738H295.814V45.9983C295.814 45.2178 295.593 44.6439 295.149 44.2766C294.705 43.9093 294.154 43.7256 293.496 43.7256C292.899 43.7256 292.379 43.871 291.935 44.1618C291.491 44.4373 291.216 44.8505 291.108 45.4014H288.239C288.315 44.575 288.591 43.8557 289.065 43.2435C289.555 42.6314 290.182 42.1646 290.948 41.8432C291.713 41.5065 292.57 41.3382 293.519 41.3382C295.141 41.3382 296.419 41.7437 297.353 42.5549C298.286 43.366 298.753 44.5138 298.753 45.9983V53H296.251L295.975 51.1635C295.638 51.7757 295.164 52.2807 294.552 52.6786C293.955 53.0765 293.182 53.2755 292.233 53.2755ZM292.899 50.9798C293.741 50.9798 294.391 50.7044 294.85 50.1534C295.325 49.6025 295.623 48.9214 295.746 48.1103H293.243C292.463 48.1103 291.904 48.2557 291.568 48.5465C291.231 48.8219 291.062 49.1663 291.062 49.5795C291.062 50.0233 291.231 50.3677 291.568 50.6125C291.904 50.8574 292.348 50.9798 292.899 50.9798ZM312.1 53C310.907 53 309.95 52.7092 309.231 52.1277C308.512 51.5461 308.152 50.5131 308.152 49.0285V44.07H306.201V41.6136H308.152L308.496 38.5604H311.09V41.6136H314.166V44.07H311.09V49.0515C311.09 49.6025 311.205 49.9851 311.435 50.1993C311.68 50.3983 312.093 50.4978 312.674 50.4978H314.098V53H312.1ZM321.861 53.2755C320.76 53.2755 319.765 53.023 318.877 52.5179C318.005 52.0129 317.308 51.3165 316.788 50.4289C316.283 49.5259 316.031 48.4852 316.031 47.3068C316.031 46.1284 316.291 45.0954 316.811 44.2077C317.331 43.3048 318.028 42.6008 318.9 42.0957C319.788 41.5907 320.783 41.3382 321.884 41.3382C322.971 41.3382 323.951 41.5907 324.823 42.0957C325.71 42.6008 326.407 43.3048 326.912 44.2077C327.432 45.0954 327.692 46.1284 327.692 47.3068C327.692 48.4852 327.432 49.5259 326.912 50.4289C326.407 51.3165 325.71 52.0129 324.823 52.5179C323.935 53.023 322.948 53.2755 321.861 53.2755ZM321.861 50.7273C322.627 50.7273 323.292 50.4442 323.859 49.8779C324.425 49.2964 324.708 48.4393 324.708 47.3068C324.708 46.1743 324.425 45.3249 323.859 44.7587C323.292 44.1771 322.634 43.8863 321.884 43.8863C321.104 43.8863 320.431 44.1771 319.864 44.7587C319.313 45.3249 319.038 46.1743 319.038 47.3068C319.038 48.4393 319.313 49.2964 319.864 49.8779C320.431 50.4442 321.096 50.7273 321.861 50.7273ZM37.5655 83C36.3718 83 35.4153 82.7092 34.696 82.1277C33.9767 81.5461 33.617 80.5131 33.617 79.0285V74.07H31.6657V71.6136H33.617L33.9614 68.5604H36.5554V71.6136H39.6316V74.07H36.5554V79.0515C36.5554 79.6025 36.6702 79.9851 36.8998 80.1993C37.1447 80.3983 37.5579 80.4978 38.1394 80.4978H39.5627V83H37.5655ZM42.1545 83V66.4714H45.0929V73.3583C45.4755 72.7309 45.9882 72.2411 46.631 71.8891C47.289 71.5218 48.0389 71.3382 48.8807 71.3382C50.2887 71.3382 51.3753 71.782 52.1405 72.6696C52.921 73.5573 53.3113 74.8581 53.3113 76.5722V83H50.3958V76.8477C50.3958 75.8682 50.1968 75.1183 49.7989 74.598C49.4163 74.0776 48.8042 73.8175 47.9624 73.8175C47.136 73.8175 46.4473 74.1082 45.8964 74.6898C45.3607 75.2714 45.0929 76.0825 45.0929 77.1232V83H42.1545ZM61.6536 83.2755C60.5057 83.2755 59.488 83.0306 58.6004 82.5409C57.7127 82.0511 57.0164 81.3624 56.5113 80.4748C56.0063 79.5872 55.7538 78.5618 55.7538 77.3986C55.7538 76.2202 55.9986 75.1719 56.4884 74.2536C56.9934 73.3354 57.6821 72.6237 58.5545 72.1187C59.4421 71.5983 60.4828 71.3382 61.6765 71.3382C62.7937 71.3382 63.7809 71.583 64.6379 72.0728C65.4949 72.5625 66.1607 73.2359 66.6351 74.0929C67.1248 74.9347 67.3697 75.8759 67.3697 76.9166C67.3697 77.0849 67.362 77.2609 67.3467 77.4446C67.3467 77.6282 67.3391 77.8195 67.3238 78.0185H58.6692C58.7305 78.9061 59.0365 79.6025 59.5875 80.1075C60.1538 80.6125 60.8348 80.8651 61.6306 80.8651C62.2275 80.8651 62.7249 80.735 63.1228 80.4748C63.536 80.1993 63.8421 79.8473 64.041 79.4188H67.0254C66.8111 80.1381 66.4514 80.7962 65.9464 81.3931C65.4567 81.9746 64.8445 82.4337 64.1099 82.7704C63.3906 83.1071 62.5718 83.2755 61.6536 83.2755ZM61.6765 73.7256C60.9572 73.7256 60.3221 73.9322 59.7711 74.3454C59.2202 74.7434 58.8682 75.3555 58.7152 76.182H64.3854C64.3395 75.4321 64.064 74.8352 63.5589 74.3914C63.0539 73.9475 62.4264 73.7256 61.6765 73.7256ZM75.3112 88.0504V71.6136H77.9282L78.2496 73.2435C78.6169 72.7385 79.099 72.2947 79.6958 71.9121C80.308 71.5295 81.0962 71.3382 82.0603 71.3382C83.1316 71.3382 84.0882 71.5983 84.9299 72.1187C85.7716 72.639 86.4374 73.3507 86.9271 74.2536C87.4168 75.1566 87.6617 76.182 87.6617 77.3298C87.6617 78.4776 87.4168 79.503 86.9271 80.4059C86.4374 81.2936 85.7716 81.9976 84.9299 82.5179C84.0882 83.023 83.1316 83.2755 82.0603 83.2755C81.2033 83.2755 80.4534 83.1148 79.8106 82.7934C79.1678 82.472 78.6475 82.0205 78.2496 81.439V88.0504H75.3112ZM81.4405 80.7044C82.3741 80.7044 83.1469 80.3906 83.7591 79.7632C84.3713 79.1357 84.6774 78.3246 84.6774 77.3298C84.6774 76.335 84.3713 75.5162 83.7591 74.8734C83.1469 74.2307 82.3741 73.9093 81.4405 73.9093C80.4917 73.9093 79.7111 74.2307 79.099 74.8734C78.5021 75.5009 78.2037 76.312 78.2037 77.3068C78.2037 78.3016 78.5021 79.1204 79.099 79.7632C79.7111 80.3906 80.4917 80.7044 81.4405 80.7044ZM95.7502 83.2755C94.6483 83.2755 93.6535 83.023 92.7659 82.5179C91.8936 82.0129 91.1972 81.3165 90.6769 80.4289C90.1718 79.5259 89.9193 78.4852 89.9193 77.3068C89.9193 76.1284 90.1795 75.0954 90.6998 74.2077C91.2202 73.3048 91.9165 72.6008 92.7889 72.0957C93.6765 71.5907 94.6713 71.3382 95.7732 71.3382C96.8598 71.3382 97.8393 71.5907 98.7116 72.0957C99.5992 72.6008 100.296 73.3048 100.801 74.2077C101.321 75.0954 101.581 76.1284 101.581 77.3068C101.581 78.4852 101.321 79.5259 100.801 80.4289C100.296 81.3165 99.5992 82.0129 98.7116 82.5179C97.824 83.023 96.8368 83.2755 95.7502 83.2755ZM95.7502 80.7273C96.5154 80.7273 97.1812 80.4442 97.7474 79.8779C98.3137 79.2964 98.5968 78.4393 98.5968 77.3068C98.5968 76.1743 98.3137 75.3249 97.7474 74.7587C97.1812 74.1771 96.5231 73.8863 95.7732 73.8863C94.9927 73.8863 94.3193 74.1771 93.753 74.7587C93.2021 75.3249 92.9266 76.1743 92.9266 77.3068C92.9266 78.4393 93.2021 79.2964 93.753 79.8779C94.3193 80.4442 94.985 80.7273 95.7502 80.7273ZM104.208 83V71.6136H106.825L107.101 73.7486C107.514 73.014 108.073 72.4324 108.777 72.0039C109.496 71.5601 110.338 71.3382 111.302 71.3382V74.4373H110.475C109.833 74.4373 109.259 74.5368 108.754 74.7357C108.249 74.9347 107.851 75.279 107.56 75.7687C107.285 76.2585 107.147 76.9395 107.147 77.8119V83H104.208ZM118.384 83C117.19 83 116.233 82.7092 115.514 82.1277C114.795 81.5461 114.435 80.5131 114.435 79.0285V74.07H112.484V71.6136H114.435L114.779 68.5604H117.374V71.6136H120.45V74.07H117.374V79.0515C117.374 79.6025 117.488 79.9851 117.718 80.1993C117.963 80.3983 118.376 80.4978 118.958 80.4978H120.381V83H118.384ZM126.898 83.2755C125.919 83.2755 125.115 83.1224 124.488 82.8163C123.86 82.495 123.393 82.0741 123.087 81.5537C122.781 81.0334 122.628 80.4595 122.628 79.832C122.628 78.776 123.041 77.919 123.868 77.2609C124.694 76.6028 125.934 76.2738 127.587 76.2738H130.479V75.9983C130.479 75.2178 130.257 74.6439 129.814 74.2766C129.37 73.9093 128.819 73.7256 128.161 73.7256C127.564 73.7256 127.043 73.871 126.6 74.1618C126.156 74.4373 125.88 74.8505 125.773 75.4014H122.904C122.98 74.575 123.256 73.8557 123.73 73.2435C124.22 72.6314 124.847 72.1646 125.613 71.8432C126.378 71.5065 127.235 71.3382 128.184 71.3382C129.806 71.3382 131.084 71.7437 132.017 72.5549C132.951 73.366 133.418 74.5138 133.418 75.9983V83H130.915L130.64 81.1635C130.303 81.7757 129.829 82.2807 129.217 82.6786C128.62 83.0765 127.847 83.2755 126.898 83.2755ZM127.564 80.9798C128.406 80.9798 129.056 80.7044 129.515 80.1534C129.99 79.6025 130.288 78.9214 130.41 78.1103H127.908C127.128 78.1103 126.569 78.2557 126.232 78.5465C125.896 78.8219 125.727 79.1663 125.727 79.5795C125.727 80.0233 125.896 80.3677 126.232 80.6125C126.569 80.8574 127.013 80.9798 127.564 80.9798ZM136.222 83V66.4714H139.16V83H136.222ZM151.558 83.2755C150.579 83.2755 149.775 83.1224 149.148 82.8163C148.52 82.495 148.054 82.0741 147.747 81.5537C147.441 81.0334 147.288 80.4595 147.288 79.832C147.288 78.776 147.702 77.919 148.528 77.2609C149.354 76.6028 150.594 76.2738 152.247 76.2738H155.139V75.9983C155.139 75.2178 154.918 74.6439 154.474 74.2766C154.03 73.9093 153.479 73.7256 152.821 73.7256C152.224 73.7256 151.704 73.871 151.26 74.1618C150.816 74.4373 150.541 74.8505 150.433 75.4014H147.564C147.64 74.575 147.916 73.8557 148.39 73.2435C148.88 72.6314 149.507 72.1646 150.273 71.8432C151.038 71.5065 151.895 71.3382 152.844 71.3382C154.466 71.3382 155.744 71.7437 156.678 72.5549C157.611 73.366 158.078 74.5138 158.078 75.9983V83H155.576L155.3 81.1635C154.963 81.7757 154.489 82.2807 153.877 82.6786C153.28 83.0765 152.507 83.2755 151.558 83.2755ZM152.224 80.9798C153.066 80.9798 153.716 80.7044 154.175 80.1534C154.65 79.6025 154.948 78.9214 155.071 78.1103H152.568C151.788 78.1103 151.229 78.2557 150.893 78.5465C150.556 78.8219 150.387 79.1663 150.387 79.5795C150.387 80.0233 150.556 80.3677 150.893 80.6125C151.229 80.8574 151.673 80.9798 152.224 80.9798ZM160.882 83V71.6136H163.476L163.706 73.542C164.058 72.8686 164.563 72.3329 165.221 71.935C165.894 71.5371 166.682 71.3382 167.585 71.3382C168.993 71.3382 170.087 71.782 170.868 72.6696C171.648 73.5573 172.039 74.8581 172.039 76.5722V83H169.1V76.8477C169.1 75.8682 168.901 75.1183 168.503 74.598C168.106 74.0776 167.486 73.8175 166.644 73.8175C165.818 73.8175 165.136 74.1082 164.601 74.6898C164.081 75.2714 163.82 76.0825 163.82 77.1232V83H160.882ZM180.083 83.2755C179.011 83.2755 178.055 83.0153 177.213 82.495C176.371 81.9746 175.706 81.263 175.216 80.36C174.726 79.4571 174.481 78.4317 174.481 77.2839C174.481 76.136 174.726 75.1183 175.216 74.2307C175.706 73.3277 176.371 72.6237 177.213 72.1187C178.055 71.5983 179.011 71.3382 180.083 71.3382C180.94 71.3382 181.69 71.4989 182.332 71.8202C182.975 72.1416 183.495 72.5931 183.893 73.1747V66.4714H186.832V83H184.215L183.893 81.3701C183.526 81.8751 183.036 82.319 182.424 82.7016C181.827 83.0842 181.047 83.2755 180.083 83.2755ZM180.702 80.7044C181.651 80.7044 182.424 80.3906 183.021 79.7632C183.633 79.1204 183.939 78.3016 183.939 77.3068C183.939 76.312 183.633 75.5009 183.021 74.8734C182.424 74.2307 181.651 73.9093 180.702 73.9093C179.769 73.9093 178.996 74.223 178.384 74.8505C177.772 75.478 177.466 76.2891 177.466 77.2839C177.466 78.2786 177.772 79.0974 178.384 79.7402C178.996 80.383 179.769 80.7044 180.702 80.7044ZM200.528 83.2755C199.457 83.2755 198.5 83.0153 197.659 82.495C196.817 81.9746 196.151 81.263 195.661 80.36C195.172 79.4571 194.927 78.4317 194.927 77.2839C194.927 76.136 195.172 75.1183 195.661 74.2307C196.151 73.3277 196.817 72.6237 197.659 72.1187C198.5 71.5983 199.457 71.3382 200.528 71.3382C201.385 71.3382 202.135 71.4989 202.778 71.8202C203.421 72.1416 203.941 72.5931 204.339 73.1747V66.4714H207.277V83H204.66L204.339 81.3701C203.972 81.8751 203.482 82.319 202.87 82.7016C202.273 83.0842 201.492 83.2755 200.528 83.2755ZM201.148 80.7044C202.097 80.7044 202.87 80.3906 203.467 79.7632C204.079 79.1204 204.385 78.3016 204.385 77.3068C204.385 76.312 204.079 75.5009 203.467 74.8734C202.87 74.2307 202.097 73.9093 201.148 73.9093C200.214 73.9093 199.442 74.223 198.829 74.8505C198.217 75.478 197.911 76.2891 197.911 77.2839C197.911 78.2786 198.217 79.0974 198.829 79.7402C199.442 80.383 200.214 80.7044 201.148 80.7044ZM215.733 83.2755C214.631 83.2755 213.636 83.023 212.749 82.5179C211.876 82.0129 211.18 81.3165 210.66 80.4289C210.155 79.5259 209.902 78.4852 209.902 77.3068C209.902 76.1284 210.162 75.0954 210.683 74.2077C211.203 73.3048 211.899 72.6008 212.772 72.0957C213.659 71.5907 214.654 71.3382 215.756 71.3382C216.843 71.3382 217.822 71.5907 218.694 72.0957C219.582 72.6008 220.278 73.3048 220.784 74.2077C221.304 75.0954 221.564 76.1284 221.564 77.3068C221.564 78.4852 221.304 79.5259 220.784 80.4289C220.278 81.3165 219.582 82.0129 218.694 82.5179C217.807 83.023 216.82 83.2755 215.733 83.2755ZM215.733 80.7273C216.498 80.7273 217.164 80.4442 217.73 79.8779C218.297 79.2964 218.58 78.4393 218.58 77.3068C218.58 76.1743 218.297 75.3249 217.73 74.7587C217.164 74.1771 216.506 73.8863 215.756 73.8863C214.976 73.8863 214.302 74.1771 213.736 74.7587C213.185 75.3249 212.909 76.1743 212.909 77.3068C212.909 78.4393 213.185 79.2964 213.736 79.8779C214.302 80.4442 214.968 80.7273 215.733 80.7273ZM229.724 83.2755C228.576 83.2755 227.558 83.0306 226.671 82.5409C225.783 82.0511 225.087 81.3624 224.582 80.4748C224.077 79.5872 223.824 78.5618 223.824 77.3986C223.824 76.2202 224.069 75.1719 224.559 74.2536C225.064 73.3354 225.752 72.6237 226.625 72.1187C227.512 71.5983 228.553 71.3382 229.747 71.3382C230.864 71.3382 231.851 71.583 232.708 72.0728C233.565 72.5625 234.231 73.2359 234.705 74.0929C235.195 74.9347 235.44 75.8759 235.44 76.9166C235.44 77.0849 235.432 77.2609 235.417 77.4446C235.417 77.6282 235.409 77.8195 235.394 78.0185H226.739C226.801 78.9061 227.107 79.6025 227.658 80.1075C228.224 80.6125 228.905 80.8651 229.701 80.8651C230.298 80.8651 230.795 80.735 231.193 80.4748C231.606 80.1993 231.912 79.8473 232.111 79.4188H235.096C234.881 80.1381 234.522 80.7962 234.017 81.3931C233.527 81.9746 232.915 82.4337 232.18 82.7704C231.461 83.1071 230.642 83.2755 229.724 83.2755ZM229.747 73.7256C229.027 73.7256 228.392 73.9322 227.841 74.3454C227.29 74.7434 226.938 75.3555 226.785 76.182H232.456C232.41 75.4321 232.134 74.8352 231.629 74.3914C231.124 73.9475 230.497 73.7256 229.747 73.7256ZM242.617 83.2755C241.607 83.2755 240.72 83.1148 239.954 82.7934C239.189 82.4567 238.577 81.9976 238.118 81.416C237.659 80.8344 237.383 80.1611 237.291 79.3959H240.253C240.345 79.8397 240.59 80.2223 240.987 80.5437C241.401 80.8498 241.929 81.0028 242.571 81.0028C243.214 81.0028 243.681 80.8727 243.972 80.6125C244.278 80.3524 244.431 80.0539 244.431 79.7172C244.431 79.2275 244.217 78.8985 243.788 78.7301C243.36 78.5465 242.763 78.3705 241.998 78.2021C241.508 78.095 241.01 77.9649 240.505 77.8119C240 77.6588 239.534 77.4675 239.105 77.238C238.692 76.9931 238.355 76.687 238.095 76.3197C237.835 75.9371 237.705 75.4703 237.705 74.9194C237.705 73.9093 238.103 73.0599 238.898 72.3712C239.71 71.6825 240.842 71.3382 242.296 71.3382C243.643 71.3382 244.714 71.6519 245.51 72.2794C246.321 72.9068 246.803 73.7715 246.956 74.8734H244.178C244.01 74.0317 243.375 73.6108 242.273 73.6108C241.722 73.6108 241.294 73.718 240.987 73.9322C240.697 74.1465 240.551 74.4143 240.551 74.7357C240.551 75.0724 240.773 75.3402 241.217 75.5392C241.661 75.7381 242.25 75.9218 242.985 76.0901C243.78 76.2738 244.507 76.4804 245.166 76.71C245.839 76.9242 246.375 77.2533 246.772 77.6971C247.17 78.1256 247.369 78.7454 247.369 79.5565C247.385 80.2605 247.201 80.8957 246.818 81.4619C246.436 82.0282 245.885 82.472 245.166 82.7934C244.446 83.1148 243.597 83.2755 242.617 83.2755ZM260.516 83C259.322 83 258.366 82.7092 257.646 82.1277C256.927 81.5461 256.567 80.5131 256.567 79.0285V74.07H254.616V71.6136H256.567L256.912 68.5604H259.506V71.6136H262.582V74.07H259.506V79.0515C259.506 79.6025 259.62 79.9851 259.85 80.1993C260.095 80.3983 260.508 80.4978 261.09 80.4978H262.513V83H260.516ZM265.105 83V66.4714H268.043V73.3583C268.426 72.7309 268.938 72.2411 269.581 71.8891C270.239 71.5218 270.989 71.3382 271.831 71.3382C273.239 71.3382 274.326 71.782 275.091 72.6696C275.871 73.5573 276.262 74.8581 276.262 76.5722V83H273.346V76.8477C273.346 75.8682 273.147 75.1183 272.749 74.598C272.367 74.0776 271.754 73.8175 270.913 73.8175C270.086 73.8175 269.398 74.1082 268.847 74.6898C268.311 75.2714 268.043 76.0825 268.043 77.1232V83H265.105ZM284.604 83.2755C283.456 83.2755 282.438 83.0306 281.551 82.5409C280.663 82.0511 279.967 81.3624 279.462 80.4748C278.957 79.5872 278.704 78.5618 278.704 77.3986C278.704 76.2202 278.949 75.1719 279.439 74.2536C279.944 73.3354 280.632 72.6237 281.505 72.1187C282.392 71.5983 283.433 71.3382 284.627 71.3382C285.744 71.3382 286.731 71.583 287.588 72.0728C288.445 72.5625 289.111 73.2359 289.585 74.0929C290.075 74.9347 290.32 75.8759 290.32 76.9166C290.32 77.0849 290.312 77.2609 290.297 77.4446C290.297 77.6282 290.289 77.8195 290.274 78.0185H281.62C281.681 78.9061 281.987 79.6025 282.538 80.1075C283.104 80.6125 283.785 80.8651 284.581 80.8651C285.178 80.8651 285.675 80.735 286.073 80.4748C286.486 80.1993 286.792 79.8473 286.991 79.4188H289.976C289.761 80.1381 289.402 80.7962 288.897 81.3931C288.407 81.9746 287.795 82.4337 287.06 82.7704C286.341 83.1071 285.522 83.2755 284.604 83.2755ZM284.627 73.7256C283.907 73.7256 283.272 73.9322 282.721 74.3454C282.17 74.7434 281.818 75.3555 281.665 76.182H287.336C287.29 75.4321 287.014 74.8352 286.509 74.3914C286.004 73.9475 285.377 73.7256 284.627 73.7256ZM37.9558 113.275C36.8539 113.275 35.8591 113.023 34.9715 112.518C34.0991 112.013 33.4028 111.317 32.8824 110.429C32.3774 109.526 32.1249 108.485 32.1249 107.307C32.1249 106.128 32.385 105.095 32.9054 104.208C33.4257 103.305 34.1221 102.601 34.9944 102.096C35.8821 101.591 36.8768 101.338 37.9787 101.338C39.0653 101.338 40.0448 101.591 40.9172 102.096C41.8048 102.601 42.5011 103.305 43.0062 104.208C43.5265 105.095 43.7867 106.128 43.7867 107.307C43.7867 108.485 43.5265 109.526 43.0062 110.429C42.5011 111.317 41.8048 112.013 40.9172 112.518C40.0295 113.023 39.0424 113.275 37.9558 113.275ZM37.9558 110.727C38.721 110.727 39.3867 110.444 39.953 109.878C40.5192 109.296 40.8024 108.439 40.8024 107.307C40.8024 106.174 40.5192 105.325 39.953 104.759C39.3867 104.177 38.7286 103.886 37.9787 103.886C37.1982 103.886 36.5248 104.177 35.9586 104.759C35.4076 105.325 35.1321 106.174 35.1321 107.307C35.1321 108.439 35.4076 109.296 35.9586 109.878C36.5248 110.444 37.1906 110.727 37.9558 110.727ZM46.4139 113V101.614H49.008L49.2376 103.542C49.5896 102.869 50.0946 102.333 50.7527 101.935C51.4261 101.537 52.2143 101.338 53.1172 101.338C54.5252 101.338 55.6194 101.782 56.4 102.67C57.1805 103.557 57.5707 104.858 57.5707 106.572V113H54.6323V106.848C54.6323 105.868 54.4334 105.118 54.0355 104.598C53.6375 104.078 53.0177 103.817 52.176 103.817C51.3496 103.817 50.6685 104.108 50.1329 104.69C49.6125 105.271 49.3524 106.082 49.3524 107.123V113H46.4139ZM65.9131 113.275C64.7652 113.275 63.7475 113.031 62.8599 112.541C61.9722 112.051 61.2759 111.362 60.7708 110.475C60.2658 109.587 60.0133 108.562 60.0133 107.399C60.0133 106.22 60.2581 105.172 60.7479 104.254C61.2529 103.335 61.9416 102.624 62.8139 102.119C63.7016 101.598 64.7423 101.338 65.936 101.338C67.0532 101.338 68.0403 101.583 68.8974 102.073C69.7544 102.563 70.4201 103.236 70.8946 104.093C71.3843 104.935 71.6292 105.876 71.6292 106.917C71.6292 107.085 71.6215 107.261 71.6062 107.445C71.6062 107.628 71.5986 107.82 71.5833 108.018H62.9287C62.9899 108.906 63.296 109.602 63.847 110.107C64.4132 110.613 65.0943 110.865 65.8901 110.865C66.487 110.865 66.9843 110.735 67.3823 110.475C67.7955 110.199 68.1016 109.847 68.3005 109.419H71.2848C71.0706 110.138 70.7109 110.796 70.2059 111.393C69.7162 111.975 69.104 112.434 68.3694 112.77C67.6501 113.107 66.8313 113.275 65.9131 113.275ZM65.936 103.726C65.2167 103.726 64.5816 103.932 64.0306 104.345C63.4797 104.743 63.1277 105.356 62.9746 106.182H68.6449C68.5989 105.432 68.3235 104.835 67.8184 104.391C67.3134 103.948 66.6859 103.726 65.936 103.726ZM84.644 113C83.4503 113 82.4938 112.709 81.7745 112.128C81.0552 111.546 80.6955 110.513 80.6955 109.029V104.07H78.7442V101.614H80.6955L81.0399 98.5604H83.6339V101.614H86.7101V104.07H83.6339V109.052C83.6339 109.602 83.7487 109.985 83.9783 110.199C84.2231 110.398 84.6364 110.498 85.2179 110.498H86.6412V113H84.644ZM90.8169 99.846C90.2813 99.846 89.8375 99.6853 89.4855 99.3639C89.1488 99.0425 88.9804 98.637 88.9804 98.1472C88.9804 97.6575 89.1488 97.2596 89.4855 96.9535C89.8375 96.6321 90.2813 96.4714 90.8169 96.4714C91.3526 96.4714 91.7888 96.6321 92.1255 96.9535C92.4775 97.2596 92.6535 97.6575 92.6535 98.1472C92.6535 98.637 92.4775 99.0425 92.1255 99.3639C91.7888 99.6853 91.3526 99.846 90.8169 99.846ZM89.3477 113V101.614H92.2861V113H89.3477ZM95.3532 113V101.614H97.9472L98.1997 103.152C98.567 102.601 99.0491 102.165 99.646 101.843C100.258 101.507 100.962 101.338 101.758 101.338C103.518 101.338 104.765 102.019 105.5 103.381C105.913 102.754 106.464 102.256 107.153 101.889C107.857 101.522 108.622 101.338 109.448 101.338C110.933 101.338 112.073 101.782 112.869 102.67C113.665 103.557 114.063 104.858 114.063 106.572V113H111.124V106.848C111.124 105.868 110.933 105.118 110.55 104.598C110.183 104.078 109.609 103.817 108.829 103.817C108.033 103.817 107.39 104.108 106.9 104.69C106.426 105.271 106.189 106.082 106.189 107.123V113H103.25V106.848C103.25 105.868 103.059 105.118 102.676 104.598C102.294 104.078 101.704 103.817 100.909 103.817C100.128 103.817 99.493 104.108 99.0032 104.69C98.5288 105.271 98.2916 106.082 98.2916 107.123V113H95.3532ZM122.385 113.275C121.237 113.275 120.219 113.031 119.332 112.541C118.444 112.051 117.748 111.362 117.243 110.475C116.738 109.587 116.485 108.562 116.485 107.399C116.485 106.22 116.73 105.172 117.22 104.254C117.725 103.335 118.413 102.624 119.286 102.119C120.173 101.598 121.214 101.338 122.408 101.338C123.525 101.338 124.512 101.583 125.369 102.073C126.226 102.563 126.892 103.236 127.366 104.093C127.856 104.935 128.101 105.876 128.101 106.917C128.101 107.085 128.093 107.261 128.078 107.445C128.078 107.628 128.07 107.82 128.055 108.018H119.4C119.462 108.906 119.768 109.602 120.319 110.107C120.885 110.613 121.566 110.865 122.362 110.865C122.959 110.865 123.456 110.735 123.854 110.475C124.267 110.199 124.573 109.847 124.772 109.419H127.757C127.542 110.138 127.183 110.796 126.678 111.393C126.188 111.975 125.576 112.434 124.841 112.77C124.122 113.107 123.303 113.275 122.385 113.275ZM122.408 103.726C121.688 103.726 121.053 103.932 120.502 104.345C119.951 104.743 119.599 105.356 119.446 106.182H125.117C125.071 105.432 124.795 104.835 124.29 104.391C123.785 103.948 123.158 103.726 122.408 103.726ZM141.621 113.275C140.458 113.275 139.432 113.023 138.545 112.518C137.657 112.013 136.953 111.309 136.433 110.406C135.928 109.503 135.675 108.47 135.675 107.307C135.675 106.144 135.928 105.111 136.433 104.208C136.953 103.305 137.657 102.601 138.545 102.096C139.432 101.591 140.458 101.338 141.621 101.338C143.075 101.338 144.299 101.721 145.294 102.486C146.289 103.236 146.924 104.277 147.199 105.608H144.1C143.947 105.057 143.641 104.629 143.182 104.322C142.738 104.001 142.21 103.84 141.598 103.84C140.787 103.84 140.098 104.146 139.532 104.759C138.966 105.371 138.682 106.22 138.682 107.307C138.682 108.393 138.966 109.243 139.532 109.855C140.098 110.467 140.787 110.773 141.598 110.773C142.21 110.773 142.738 110.62 143.182 110.314C143.641 110.008 143.947 109.572 144.1 109.006H147.199C146.924 110.291 146.289 111.324 145.294 112.105C144.299 112.885 143.075 113.275 141.621 113.275ZM155.271 113.275C154.169 113.275 153.174 113.023 152.287 112.518C151.414 112.013 150.718 111.317 150.198 110.429C149.692 109.526 149.44 108.485 149.44 107.307C149.44 106.128 149.7 105.095 150.22 104.208C150.741 103.305 151.437 102.601 152.31 102.096C153.197 101.591 154.192 101.338 155.294 101.338C156.38 101.338 157.36 101.591 158.232 102.096C159.12 102.601 159.816 103.305 160.321 104.208C160.842 105.095 161.102 106.128 161.102 107.307C161.102 108.485 160.842 109.526 160.321 110.429C159.816 111.317 159.12 112.013 158.232 112.518C157.345 113.023 156.357 113.275 155.271 113.275ZM155.271 110.727C156.036 110.727 156.702 110.444 157.268 109.878C157.834 109.296 158.117 108.439 158.117 107.307C158.117 106.174 157.834 105.325 157.268 104.759C156.702 104.177 156.044 103.886 155.294 103.886C154.513 103.886 153.84 104.177 153.274 104.759C152.723 105.325 152.447 106.174 152.447 107.307C152.447 108.439 152.723 109.296 153.274 109.878C153.84 110.444 154.506 110.727 155.271 110.727ZM163.729 113V101.614H166.323L166.553 103.542C166.905 102.869 167.41 102.333 168.068 101.935C168.741 101.537 169.529 101.338 170.432 101.338C171.84 101.338 172.935 101.782 173.715 102.67C174.496 103.557 174.886 104.858 174.886 106.572V113H171.947V106.848C171.947 105.868 171.748 105.118 171.351 104.598C170.953 104.078 170.333 103.817 169.491 103.817C168.665 103.817 167.984 104.108 167.448 104.69C166.928 105.271 166.667 106.082 166.667 107.123V113H163.729ZM178.224 113V104.07H176.663V101.614H178.224V100.282C178.224 98.9048 178.568 97.9253 179.257 97.3438C179.961 96.7622 180.91 96.4714 182.103 96.4714H183.366V98.9737H182.562C182.057 98.9737 181.698 99.0731 181.483 99.2721C181.269 99.471 181.162 99.8077 181.162 100.282V101.614H188.508V113H185.57V104.07H181.162V113H178.224ZM187.062 99.9837C186.526 99.9837 186.082 99.823 185.73 99.5017C185.394 99.1803 185.225 98.7747 185.225 98.285C185.225 97.7952 185.394 97.3973 185.73 97.0912C186.082 96.7698 186.526 96.6092 187.062 96.6092C187.598 96.6092 188.034 96.7698 188.37 97.0912C188.722 97.3973 188.898 97.7952 188.898 98.285C188.898 98.7747 188.722 99.1803 188.37 99.5017C188.034 99.823 187.598 99.9837 187.062 99.9837ZM196.438 109.602C195.887 109.602 195.375 109.541 194.9 109.419L194.051 110.268C194.311 110.406 194.663 110.521 195.107 110.613C195.551 110.704 196.27 110.796 197.265 110.888C198.78 111.026 199.882 111.385 200.57 111.967C201.259 112.549 201.603 113.352 201.603 114.377C201.603 115.051 201.42 115.686 201.053 116.283C200.685 116.895 200.119 117.385 199.354 117.752C198.589 118.135 197.609 118.326 196.415 118.326C194.793 118.326 193.485 118.02 192.49 117.408C191.495 116.811 190.998 115.908 190.998 114.699C190.998 113.673 191.495 112.786 192.49 112.036C192.184 111.898 191.916 111.753 191.686 111.6C191.472 111.447 191.281 111.286 191.112 111.118V110.59L193.11 108.478C192.222 107.697 191.778 106.695 191.778 105.47C191.778 104.705 191.962 104.009 192.329 103.381C192.712 102.754 193.247 102.256 193.936 101.889C194.625 101.522 195.459 101.338 196.438 101.338C197.081 101.338 197.678 101.43 198.229 101.614H202.545V103.404L200.593 103.542C200.899 104.124 201.053 104.766 201.053 105.47C201.053 106.236 200.869 106.932 200.502 107.559C200.134 108.187 199.599 108.684 198.895 109.052C198.206 109.419 197.387 109.602 196.438 109.602ZM196.438 107.353C197.035 107.353 197.525 107.192 197.907 106.871C198.305 106.549 198.504 106.09 198.504 105.493C198.504 104.896 198.305 104.437 197.907 104.116C197.525 103.794 197.035 103.634 196.438 103.634C195.811 103.634 195.306 103.794 194.923 104.116C194.541 104.437 194.349 104.896 194.349 105.493C194.349 106.09 194.541 106.549 194.923 106.871C195.306 107.192 195.811 107.353 196.438 107.353ZM193.684 114.4C193.684 114.967 193.944 115.387 194.464 115.663C195 115.954 195.65 116.099 196.415 116.099C197.15 116.099 197.747 115.946 198.206 115.64C198.665 115.349 198.895 114.951 198.895 114.446C198.895 114.033 198.742 113.689 198.435 113.413C198.145 113.138 197.556 112.969 196.668 112.908C196.04 112.862 195.459 112.793 194.923 112.702C194.479 112.946 194.158 113.214 193.959 113.505C193.775 113.796 193.684 114.094 193.684 114.4ZM208.957 113.275C207.534 113.275 206.432 112.832 205.652 111.944C204.886 111.056 204.504 109.755 204.504 108.041V101.614H207.419V107.766C207.419 108.745 207.618 109.495 208.016 110.016C208.414 110.536 209.041 110.796 209.898 110.796C210.71 110.796 211.375 110.505 211.896 109.924C212.431 109.342 212.699 108.531 212.699 107.49V101.614H215.638V113H213.043L212.814 111.072C212.462 111.745 211.949 112.281 211.276 112.679C210.618 113.077 209.845 113.275 208.957 113.275ZM218.654 113V101.614H221.271L221.546 103.749C221.96 103.014 222.518 102.432 223.222 102.004C223.942 101.56 224.783 101.338 225.747 101.338V104.437H224.921C224.278 104.437 223.704 104.537 223.199 104.736C222.694 104.935 222.296 105.279 222.006 105.769C221.73 106.258 221.592 106.94 221.592 107.812V113H218.654ZM231.681 113.275C230.702 113.275 229.898 113.122 229.271 112.816C228.643 112.495 228.177 112.074 227.871 111.554C227.565 111.033 227.411 110.459 227.411 109.832C227.411 108.776 227.825 107.919 228.651 107.261C229.478 106.603 230.717 106.274 232.37 106.274H235.263V105.998C235.263 105.218 235.041 104.644 234.597 104.277C234.153 103.909 233.602 103.726 232.944 103.726C232.347 103.726 231.827 103.871 231.383 104.162C230.939 104.437 230.664 104.85 230.556 105.401H227.687C227.763 104.575 228.039 103.856 228.513 103.244C229.003 102.631 229.631 102.165 230.396 101.843C231.161 101.507 232.018 101.338 232.967 101.338C234.589 101.338 235.867 101.744 236.801 102.555C237.734 103.366 238.201 104.514 238.201 105.998V113H235.699L235.423 111.163C235.087 111.776 234.612 112.281 234 112.679C233.403 113.077 232.63 113.275 231.681 113.275ZM232.347 110.98C233.189 110.98 233.839 110.704 234.298 110.153C234.773 109.602 235.071 108.921 235.194 108.11H232.691C231.911 108.11 231.352 108.256 231.016 108.546C230.679 108.822 230.511 109.166 230.511 109.58C230.511 110.023 230.679 110.368 231.016 110.613C231.352 110.857 231.796 110.98 232.347 110.98ZM245.921 113C244.728 113 243.771 112.709 243.052 112.128C242.333 111.546 241.973 110.513 241.973 109.029V104.07H240.022V101.614H241.973L242.317 98.5604H244.911V101.614H247.988V104.07H244.911V109.052C244.911 109.602 245.026 109.985 245.256 110.199C245.501 110.398 245.914 110.498 246.495 110.498H247.919V113H245.921ZM252.094 99.846C251.559 99.846 251.115 99.6853 250.763 99.3639C250.426 99.0425 250.258 98.637 250.258 98.1472C250.258 97.6575 250.426 97.2596 250.763 96.9535C251.115 96.6321 251.559 96.4714 252.094 96.4714C252.63 96.4714 253.066 96.6321 253.403 96.9535C253.755 97.2596 253.931 97.6575 253.931 98.1472C253.931 98.637 253.755 99.0425 253.403 99.3639C253.066 99.6853 252.63 99.846 252.094 99.846ZM250.625 113V101.614H253.564V113H250.625ZM262.094 113.275C260.992 113.275 259.998 113.023 259.11 112.518C258.238 112.013 257.541 111.317 257.021 110.429C256.516 109.526 256.263 108.485 256.263 107.307C256.263 106.128 256.523 105.095 257.044 104.208C257.564 103.305 258.261 102.601 259.133 102.096C260.02 101.591 261.015 101.338 262.117 101.338C263.204 101.338 264.183 101.591 265.056 102.096C265.943 102.601 266.64 103.305 267.145 104.208C267.665 105.095 267.925 106.128 267.925 107.307C267.925 108.485 267.665 109.526 267.145 110.429C266.64 111.317 265.943 112.013 265.056 112.518C264.168 113.023 263.181 113.275 262.094 113.275ZM262.094 110.727C262.859 110.727 263.525 110.444 264.091 109.878C264.658 109.296 264.941 108.439 264.941 107.307C264.941 106.174 264.658 105.325 264.091 104.759C263.525 104.177 262.867 103.886 262.117 103.886C261.337 103.886 260.663 104.177 260.097 104.759C259.546 105.325 259.271 106.174 259.271 107.307C259.271 108.439 259.546 109.296 260.097 109.878C260.663 110.444 261.329 110.727 262.094 110.727ZM270.552 113V101.614H273.146L273.376 103.542C273.728 102.869 274.233 102.333 274.891 101.935C275.565 101.537 276.353 101.338 277.256 101.338C278.664 101.338 279.758 101.782 280.538 102.67C281.319 103.557 281.709 104.858 281.709 106.572V113H278.771V106.848C278.771 105.868 278.572 105.118 278.174 104.598C277.776 104.078 277.156 103.817 276.314 103.817C275.488 103.817 274.807 104.108 274.271 104.69C273.751 105.271 273.491 106.082 273.491 107.123V113H270.552Z" fill="black"/>
<path d="M640.938 67.2755C639.76 67.2755 638.696 67.0459 637.748 66.5868C636.799 66.1124 636.041 65.4007 635.475 64.4518C634.924 63.503 634.648 62.3016 634.648 60.8477V50.9305H637.587V60.8706C637.587 62.1256 637.885 63.0592 638.482 63.6713C639.094 64.2835 639.936 64.5896 641.007 64.5896C642.063 64.5896 642.897 64.2835 643.51 63.6713C644.122 63.0592 644.428 62.1256 644.428 60.8706V50.9305H647.366V60.8477C647.366 62.3016 647.075 63.503 646.494 64.4518C645.912 65.4007 645.132 66.1124 644.152 66.5868C643.188 67.0459 642.117 67.2755 640.938 67.2755ZM655.003 67.2755C653.993 67.2755 653.105 67.1148 652.34 66.7934C651.575 66.4567 650.963 65.9976 650.504 65.416C650.044 64.8344 649.769 64.1611 649.677 63.3959H652.638C652.73 63.8397 652.975 64.2223 653.373 64.5437C653.786 64.8498 654.314 65.0028 654.957 65.0028C655.6 65.0028 656.067 64.8727 656.357 64.6125C656.664 64.3524 656.817 64.0539 656.817 63.7172C656.817 63.2275 656.602 62.8985 656.174 62.7301C655.745 62.5465 655.148 62.3705 654.383 62.2021C653.893 62.095 653.396 61.9649 652.891 61.8119C652.386 61.6588 651.919 61.4675 651.491 61.238C651.077 60.9931 650.741 60.687 650.481 60.3197C650.22 59.9371 650.09 59.4703 650.09 58.9194C650.09 57.9093 650.488 57.0599 651.284 56.3712C652.095 55.6825 653.228 55.3382 654.682 55.3382C656.028 55.3382 657.1 55.6519 657.895 56.2794C658.707 56.9068 659.189 57.7715 659.342 58.8734H656.564C656.396 58.0317 655.761 57.6108 654.659 57.6108C654.108 57.6108 653.679 57.718 653.373 57.9322C653.082 58.1465 652.937 58.4143 652.937 58.7357C652.937 59.0724 653.159 59.3402 653.603 59.5392C654.046 59.7381 654.636 59.9218 655.37 60.0901C656.166 60.2738 656.893 60.4804 657.551 60.71C658.225 60.9242 658.76 61.2533 659.158 61.6971C659.556 62.1256 659.755 62.7454 659.755 63.5565C659.77 64.2605 659.587 64.8957 659.204 65.4619C658.821 66.0282 658.27 66.472 657.551 66.7934C656.832 67.1148 655.982 67.2755 655.003 67.2755ZM667.89 67.2755C666.743 67.2755 665.725 67.0306 664.837 66.5409C663.95 66.0511 663.253 65.3624 662.748 64.4748C662.243 63.5872 661.991 62.5618 661.991 61.3986C661.991 60.2202 662.236 59.1719 662.725 58.2536C663.23 57.3354 663.919 56.6237 664.791 56.1187C665.679 55.5983 666.72 55.3382 667.913 55.3382C669.031 55.3382 670.018 55.583 670.875 56.0728C671.732 56.5625 672.398 57.2359 672.872 58.0929C673.362 58.9347 673.607 59.8759 673.607 60.9166C673.607 61.0849 673.599 61.2609 673.584 61.4446C673.584 61.6282 673.576 61.8195 673.561 62.0185H664.906C664.967 62.9061 665.273 63.6025 665.824 64.1075C666.391 64.6125 667.072 64.8651 667.868 64.8651C668.464 64.8651 668.962 64.735 669.36 64.4748C669.773 64.1993 670.079 63.8473 670.278 63.4188H673.262C673.048 64.1381 672.688 64.7962 672.183 65.3931C671.694 65.9746 671.081 66.4337 670.347 66.7704C669.628 67.1071 668.809 67.2755 667.89 67.2755ZM667.913 57.7256C667.194 57.7256 666.559 57.9322 666.008 58.3454C665.457 58.7434 665.105 59.3555 664.952 60.182H670.622C670.576 59.4321 670.301 58.8352 669.796 58.3914C669.291 57.9475 668.663 57.7256 667.913 57.7256ZM676.078 67V55.6136H678.695L678.971 57.7486C679.384 57.014 679.942 56.4324 680.646 56.0039C681.366 55.5601 682.207 55.3382 683.172 55.3382V58.4373H682.345C681.702 58.4373 681.128 58.5368 680.623 58.7357C680.118 58.9347 679.72 59.279 679.43 59.7687C679.154 60.2585 679.016 60.9395 679.016 61.8119V67H676.078ZM695.471 63.6025C694.92 63.6025 694.407 63.5412 693.933 63.4188L693.083 64.2682C693.343 64.4059 693.695 64.5207 694.139 64.6125C694.583 64.7044 695.302 64.7962 696.297 64.888C697.812 65.0258 698.914 65.3854 699.603 65.967C700.292 66.5485 700.636 67.352 700.636 68.3774C700.636 69.0508 700.452 69.6859 700.085 70.2828C699.718 70.8949 699.151 71.3847 698.386 71.752C697.621 72.1346 696.642 72.3259 695.448 72.3259C693.826 72.3259 692.517 72.0198 691.522 71.4076C690.527 70.8108 690.03 69.9078 690.03 68.6988C690.03 67.6734 690.527 66.7857 691.522 66.0358C691.216 65.8981 690.948 65.7527 690.719 65.5997C690.505 65.4466 690.313 65.2859 690.145 65.1176V64.5896L692.142 62.4776C691.254 61.6971 690.811 60.6947 690.811 59.4703C690.811 58.7051 690.994 58.0088 691.362 57.3813C691.744 56.7538 692.28 56.2564 692.969 55.8891C693.657 55.5218 694.491 55.3382 695.471 55.3382C696.114 55.3382 696.71 55.43 697.261 55.6136H701.577V57.4042L699.626 57.542C699.932 58.1235 700.085 58.7663 700.085 59.4703C700.085 60.2355 699.901 60.9319 699.534 61.5593C699.167 62.1868 698.631 62.6842 697.927 63.0515C697.238 63.4188 696.42 63.6025 695.471 63.6025ZM695.471 61.3527C696.068 61.3527 696.557 61.192 696.94 60.8706C697.338 60.5493 697.537 60.0901 697.537 59.4933C697.537 58.8964 697.338 58.4373 696.94 58.1159C696.557 57.7945 696.068 57.6338 695.471 57.6338C694.843 57.6338 694.338 57.7945 693.956 58.1159C693.573 58.4373 693.382 58.8964 693.382 59.4933C693.382 60.0901 693.573 60.5493 693.956 60.8706C694.338 61.192 694.843 61.3527 695.471 61.3527ZM692.716 68.4003C692.716 68.9666 692.976 69.3875 693.497 69.6629C694.032 69.9537 694.683 70.0991 695.448 70.0991C696.182 70.0991 696.779 69.9461 697.238 69.64C697.698 69.3492 697.927 68.9513 697.927 68.4463C697.927 68.033 697.774 67.6887 697.468 67.4132C697.177 67.1377 696.588 66.9694 695.7 66.9082C695.073 66.8623 694.491 66.7934 693.956 66.7016C693.512 66.9464 693.19 67.2143 692.991 67.505C692.808 67.7958 692.716 68.0943 692.716 68.4003ZM708.804 67.2755C707.656 67.2755 706.638 67.0306 705.751 66.5409C704.863 66.0511 704.167 65.3624 703.662 64.4748C703.157 63.5872 702.904 62.5618 702.904 61.3986C702.904 60.2202 703.149 59.1719 703.639 58.2536C704.144 57.3354 704.832 56.6237 705.705 56.1187C706.592 55.5983 707.633 55.3382 708.827 55.3382C709.944 55.3382 710.931 55.583 711.788 56.0728C712.645 56.5625 713.311 57.2359 713.785 58.0929C714.275 58.9347 714.52 59.8759 714.52 60.9166C714.52 61.0849 714.512 61.2609 714.497 61.4446C714.497 61.6282 714.489 61.8195 714.474 62.0185H705.82C705.881 62.9061 706.187 63.6025 706.738 64.1075C707.304 64.6125 707.985 64.8651 708.781 64.8651C709.378 64.8651 709.875 64.735 710.273 64.4748C710.686 64.1993 710.992 63.8473 711.191 63.4188H714.176C713.961 64.1381 713.602 64.7962 713.097 65.3931C712.607 65.9746 711.995 66.4337 711.26 66.7704C710.541 67.1071 709.722 67.2755 708.804 67.2755ZM708.827 57.7256C708.108 57.7256 707.472 57.9322 706.922 58.3454C706.371 58.7434 706.019 59.3555 705.866 60.182H711.536C711.49 59.4321 711.214 58.8352 710.709 58.3914C710.204 57.9475 709.577 57.7256 708.827 57.7256ZM721.863 67C720.669 67 719.713 66.7092 718.994 66.1277C718.274 65.5461 717.915 64.5131 717.915 63.0285V58.07H715.963V55.6136H717.915L718.259 52.5604H720.853V55.6136H723.929V58.07H720.853V63.0515C720.853 63.6025 720.968 63.9851 721.197 64.1993C721.442 64.3983 721.855 64.4978 722.437 64.4978H723.86V67H721.863ZM731.158 67.2755C730.148 67.2755 729.26 67.1148 728.495 66.7934C727.73 66.4567 727.118 65.9976 726.659 65.416C726.199 64.8344 725.924 64.1611 725.832 63.3959H728.794C728.885 63.8397 729.13 64.2223 729.528 64.5437C729.941 64.8498 730.469 65.0028 731.112 65.0028C731.755 65.0028 732.222 64.8727 732.512 64.6125C732.819 64.3524 732.972 64.0539 732.972 63.7172C732.972 63.2275 732.757 62.8985 732.329 62.7301C731.9 62.5465 731.303 62.3705 730.538 62.2021C730.048 62.095 729.551 61.9649 729.046 61.8119C728.541 61.6588 728.074 61.4675 727.646 61.238C727.233 60.9931 726.896 60.687 726.636 60.3197C726.375 59.9371 726.245 59.4703 726.245 58.9194C726.245 57.9093 726.643 57.0599 727.439 56.3712C728.25 55.6825 729.383 55.3382 730.837 55.3382C732.183 55.3382 733.255 55.6519 734.051 56.2794C734.862 56.9068 735.344 57.7715 735.497 58.8734H732.719C732.551 58.0317 731.916 57.6108 730.814 57.6108C730.263 57.6108 729.834 57.718 729.528 57.9322C729.237 58.1465 729.092 58.4143 729.092 58.7357C729.092 59.0724 729.314 59.3402 729.758 59.5392C730.202 59.7381 730.791 59.9218 731.525 60.0901C732.321 60.2738 733.048 60.4804 733.706 60.71C734.38 60.9242 734.915 61.2533 735.313 61.6971C735.711 62.1256 735.91 62.7454 735.91 63.5565C735.925 64.2605 735.742 64.8957 735.359 65.4619C734.976 66.0282 734.426 66.472 733.706 66.7934C732.987 67.1148 732.138 67.2755 731.158 67.2755ZM749.056 67C747.863 67 746.906 66.7092 746.187 66.1277C745.468 65.5461 745.108 64.5131 745.108 63.0285V58.07H743.157V55.6136H745.108L745.452 52.5604H748.046V55.6136H751.123V58.07H748.046V63.0515C748.046 63.6025 748.161 63.9851 748.391 64.1993C748.636 64.3983 749.049 64.4978 749.63 64.4978H751.054V67H749.056ZM753.645 67V50.4714H756.584V57.3583C756.966 56.7309 757.479 56.2411 758.122 55.8891C758.78 55.5218 759.53 55.3382 760.372 55.3382C761.78 55.3382 762.866 55.782 763.631 56.6696C764.412 57.5573 764.802 58.8581 764.802 60.5722V67H761.887V60.8477C761.887 59.8682 761.688 59.1183 761.29 58.598C760.907 58.0776 760.295 57.8175 759.453 57.8175C758.627 57.8175 757.938 58.1082 757.387 58.6898C756.852 59.2714 756.584 60.0825 756.584 61.1232V67H753.645ZM773.145 67.2755C771.997 67.2755 770.979 67.0306 770.091 66.5409C769.204 66.0511 768.507 65.3624 768.002 64.4748C767.497 63.5872 767.245 62.5618 767.245 61.3986C767.245 60.2202 767.49 59.1719 767.979 58.2536C768.484 57.3354 769.173 56.6237 770.045 56.1187C770.933 55.5983 771.974 55.3382 773.167 55.3382C774.285 55.3382 775.272 55.583 776.129 56.0728C776.986 56.5625 777.652 57.2359 778.126 58.0929C778.616 58.9347 778.861 59.8759 778.861 60.9166C778.861 61.0849 778.853 61.2609 778.838 61.4446C778.838 61.6282 778.83 61.8195 778.815 62.0185H770.16C770.221 62.9061 770.527 63.6025 771.078 64.1075C771.645 64.6125 772.326 64.8651 773.122 64.8651C773.718 64.8651 774.216 64.735 774.614 64.4748C775.027 64.1993 775.333 63.8473 775.532 63.4188H778.516C778.302 64.1381 777.942 64.7962 777.437 65.3931C776.948 65.9746 776.335 66.4337 775.601 66.7704C774.882 67.1071 774.063 67.2755 773.145 67.2755ZM773.167 57.7256C772.448 57.7256 771.813 57.9322 771.262 58.3454C770.711 58.7434 770.359 59.3555 770.206 60.182H775.876C775.83 59.4321 775.555 58.8352 775.05 58.3914C774.545 57.9475 773.917 57.7256 773.167 57.7256ZM639.377 97.2755C638.367 97.2755 637.48 97.1148 636.714 96.7934C635.949 96.4567 635.337 95.9976 634.878 95.416C634.419 94.8344 634.143 94.1611 634.052 93.3959H637.013C637.105 93.8397 637.35 94.2223 637.748 94.5437C638.161 94.8498 638.689 95.0028 639.332 95.0028C639.974 95.0028 640.441 94.8727 640.732 94.6125C641.038 94.3524 641.191 94.0539 641.191 93.7172C641.191 93.2275 640.977 92.8985 640.548 92.7301C640.12 92.5465 639.523 92.3705 638.758 92.2021C638.268 92.095 637.77 91.9649 637.265 91.8119C636.76 91.6588 636.294 91.4675 635.865 91.238C635.452 90.9931 635.115 90.687 634.855 90.3197C634.595 89.9371 634.465 89.4703 634.465 88.9194C634.465 87.9093 634.863 87.0599 635.658 86.3712C636.47 85.6825 637.602 85.3382 639.056 85.3382C640.403 85.3382 641.474 85.6519 642.27 86.2794C643.081 86.9068 643.563 87.7715 643.716 88.8734H640.938C640.77 88.0317 640.135 87.6108 639.033 87.6108C638.482 87.6108 638.054 87.718 637.748 87.9322C637.457 88.1465 637.311 88.4143 637.311 88.7357C637.311 89.0724 637.533 89.3402 637.977 89.5392C638.421 89.7381 639.01 89.9218 639.745 90.0901C640.541 90.2738 641.267 90.4804 641.926 90.71C642.599 90.9242 643.135 91.2533 643.533 91.6971C643.93 92.1256 644.129 92.7454 644.129 93.5565C644.145 94.2605 643.961 94.8957 643.578 95.4619C643.196 96.0282 642.645 96.472 641.926 96.7934C641.206 97.1148 640.357 97.2755 639.377 97.2755ZM652.311 97.2755C651.148 97.2755 650.122 97.023 649.235 96.5179C648.347 96.0129 647.643 95.3089 647.123 94.4059C646.618 93.503 646.365 92.4699 646.365 91.3068C646.365 90.1437 646.618 89.1107 647.123 88.2077C647.643 87.3048 648.347 86.6008 649.235 86.0957C650.122 85.5907 651.148 85.3382 652.311 85.3382C653.765 85.3382 654.989 85.7208 655.984 86.486C656.979 87.2359 657.614 88.2766 657.889 89.608H654.79C654.637 89.0571 654.331 88.6286 653.872 88.3225C653.428 88.0011 652.9 87.8404 652.288 87.8404C651.477 87.8404 650.788 88.1465 650.222 88.7587C649.656 89.3708 649.372 90.2202 649.372 91.3068C649.372 92.3934 649.656 93.2428 650.222 93.855C650.788 94.4671 651.477 94.7732 652.288 94.7732C652.9 94.7732 653.428 94.6202 653.872 94.3141C654.331 94.008 654.637 93.5718 654.79 93.0056H657.889C657.614 94.2911 656.979 95.3242 655.984 96.1047C654.989 96.8852 653.765 97.2755 652.311 97.2755ZM665.961 97.2755C664.859 97.2755 663.864 97.023 662.977 96.5179C662.104 96.0129 661.408 95.3165 660.888 94.4289C660.382 93.5259 660.13 92.4852 660.13 91.3068C660.13 90.1284 660.39 89.0954 660.91 88.2077C661.431 87.3048 662.127 86.6008 663 86.0957C663.887 85.5907 664.882 85.3382 665.984 85.3382C667.07 85.3382 668.05 85.5907 668.922 86.0957C669.81 86.6008 670.506 87.3048 671.011 88.2077C671.532 89.0954 671.792 90.1284 671.792 91.3068C671.792 92.4852 671.532 93.5259 671.011 94.4289C670.506 95.3165 669.81 96.0129 668.922 96.5179C668.035 97.023 667.047 97.2755 665.961 97.2755ZM665.961 94.7273C666.726 94.7273 667.392 94.4442 667.958 93.8779C668.524 93.2964 668.807 92.4393 668.807 91.3068C668.807 90.1743 668.524 89.3249 667.958 88.7587C667.392 88.1771 666.734 87.8863 665.984 87.8863C665.203 87.8863 664.53 88.1771 663.964 88.7587C663.413 89.3249 663.137 90.1743 663.137 91.3068C663.137 92.4393 663.413 93.2964 663.964 93.8779C664.53 94.4442 665.196 94.7273 665.961 94.7273ZM674.419 97V85.6136H677.036L677.312 87.7486C677.725 87.014 678.283 86.4324 678.987 86.0039C679.707 85.5601 680.548 85.3382 681.513 85.3382V88.4373H680.686C680.043 88.4373 679.469 88.5368 678.964 88.7357C678.459 88.9347 678.061 89.279 677.771 89.7687C677.495 90.2585 677.357 90.9395 677.357 91.8119V97H674.419ZM688.852 97.2755C687.704 97.2755 686.686 97.0306 685.798 96.5409C684.911 96.0511 684.214 95.3624 683.709 94.4748C683.204 93.5872 682.952 92.5618 682.952 91.3986C682.952 90.2202 683.197 89.1719 683.686 88.2536C684.191 87.3354 684.88 86.6237 685.753 86.1187C686.64 85.5983 687.681 85.3382 688.875 85.3382C689.992 85.3382 690.979 85.583 691.836 86.0728C692.693 86.5625 693.359 87.2359 693.833 88.0929C694.323 88.9347 694.568 89.8759 694.568 90.9166C694.568 91.0849 694.56 91.2609 694.545 91.4446C694.545 91.6282 694.537 91.8195 694.522 92.0185H685.867C685.929 92.9061 686.235 93.6025 686.786 94.1075C687.352 94.6125 688.033 94.8651 688.829 94.8651C689.426 94.8651 689.923 94.735 690.321 94.4748C690.734 94.1993 691.04 93.8473 691.239 93.4188H694.223C694.009 94.1381 693.649 94.7962 693.144 95.3931C692.655 95.9746 692.043 96.4337 691.308 96.7704C690.589 97.1071 689.77 97.2755 688.852 97.2755ZM688.875 87.7256C688.155 87.7256 687.52 87.9322 686.969 88.3454C686.418 88.7434 686.066 89.3555 685.913 90.182H691.583C691.538 89.4321 691.262 88.8352 690.757 88.3914C690.252 87.9475 689.624 87.7256 688.875 87.7256ZM702.273 97.2755C701.202 97.2755 700.245 97.0153 699.404 96.495C698.562 95.9746 697.896 95.263 697.406 94.36C696.917 93.4571 696.672 92.4317 696.672 91.2839C696.672 90.136 696.917 89.1183 697.406 88.2307C697.896 87.3277 698.562 86.6237 699.404 86.1187C700.245 85.5983 701.202 85.3382 702.273 85.3382C703.13 85.3382 703.88 85.4989 704.523 85.8202C705.166 86.1416 705.686 86.5931 706.084 87.1747V80.4714H709.022V97H706.405L706.084 95.3701C705.717 95.8751 705.227 96.319 704.615 96.7016C704.018 97.0842 703.237 97.2755 702.273 97.2755ZM702.893 94.7044C703.842 94.7044 704.615 94.3906 705.212 93.7632C705.824 93.1204 706.13 92.3016 706.13 91.3068C706.13 90.312 705.824 89.5009 705.212 88.8734C704.615 88.2307 703.842 87.9093 702.893 87.9093C701.959 87.9093 701.187 88.223 700.574 88.8505C699.962 89.478 699.656 90.2891 699.656 91.2839C699.656 92.2786 699.962 93.0974 700.574 93.7402C701.187 94.383 701.959 94.7044 702.893 94.7044ZM722.719 97.2755C721.647 97.2755 720.691 97.0153 719.849 96.495C719.007 95.9746 718.342 95.263 717.852 94.36C717.362 93.4571 717.117 92.4317 717.117 91.2839C717.117 90.136 717.362 89.1183 717.852 88.2307C718.342 87.3277 719.007 86.6237 719.849 86.1187C720.691 85.5983 721.647 85.3382 722.719 85.3382C723.576 85.3382 724.326 85.4989 724.968 85.8202C725.611 86.1416 726.132 86.5931 726.529 87.1747V80.4714H729.468V97H726.851L726.529 95.3701C726.162 95.8751 725.672 96.319 725.06 96.7016C724.463 97.0842 723.683 97.2755 722.719 97.2755ZM723.339 94.7044C724.287 94.7044 725.06 94.3906 725.657 93.7632C726.269 93.1204 726.575 92.3016 726.575 91.3068C726.575 90.312 726.269 89.5009 725.657 88.8734C725.06 88.2307 724.287 87.9093 723.339 87.9093C722.405 87.9093 721.632 88.223 721.02 88.8505C720.408 89.478 720.102 90.2891 720.102 91.2839C720.102 92.2786 720.408 93.0974 721.02 93.7402C721.632 94.383 722.405 94.7044 723.339 94.7044ZM736.386 97.2755C735.406 97.2755 734.603 97.1224 733.975 96.8163C733.348 96.495 732.881 96.0741 732.575 95.5537C732.269 95.0334 732.116 94.4595 732.116 93.832C732.116 92.776 732.529 91.919 733.355 91.2609C734.182 90.6028 735.421 90.2738 737.074 90.2738H739.967V89.9983C739.967 89.2178 739.745 88.6439 739.301 88.2766C738.857 87.9093 738.306 87.7256 737.648 87.7256C737.051 87.7256 736.531 87.871 736.087 88.1618C735.643 88.4373 735.368 88.8505 735.261 89.4014H732.391C732.468 88.575 732.743 87.8557 733.218 87.2435C733.707 86.6314 734.335 86.1646 735.1 85.8432C735.865 85.5065 736.722 85.3382 737.671 85.3382C739.293 85.3382 740.571 85.7437 741.505 86.5549C742.438 87.366 742.905 88.5138 742.905 89.9983V97H740.403L740.128 95.1635C739.791 95.7757 739.316 96.2807 738.704 96.6786C738.107 97.0765 737.335 97.2755 736.386 97.2755ZM737.051 94.9798C737.893 94.9798 738.544 94.7044 739.003 94.1534C739.477 93.6025 739.776 92.9214 739.898 92.1103H737.396C736.615 92.1103 736.057 92.2557 735.72 92.5465C735.383 92.8219 735.215 93.1663 735.215 93.5795C735.215 94.0233 735.383 94.3677 735.72 94.6125C736.057 94.8574 736.5 94.9798 737.051 94.9798ZM750.626 97C749.432 97 748.476 96.7092 747.756 96.1277C747.037 95.5461 746.677 94.5131 746.677 93.0285V88.07H744.726V85.6136H746.677L747.022 82.5604H749.616V85.6136H752.692V88.07H749.616V93.0515C749.616 93.6025 749.73 93.9851 749.96 94.1993C750.205 94.3983 750.618 94.4978 751.2 94.4978H752.623V97H750.626ZM759.14 97.2755C758.161 97.2755 757.357 97.1224 756.73 96.8163C756.102 96.495 755.636 96.0741 755.329 95.5537C755.023 95.0334 754.87 94.4595 754.87 93.832C754.87 92.776 755.284 91.919 756.11 91.2609C756.936 90.6028 758.176 90.2738 759.829 90.2738H762.721V89.9983C762.721 89.2178 762.5 88.6439 762.056 88.2766C761.612 87.9093 761.061 87.7256 760.403 87.7256C759.806 87.7256 759.286 87.871 758.842 88.1618C758.398 88.4373 758.123 88.8505 758.015 89.4014H755.146C755.222 88.575 755.498 87.8557 755.972 87.2435C756.462 86.6314 757.089 86.1646 757.855 85.8432C758.62 85.5065 759.477 85.3382 760.426 85.3382C762.048 85.3382 763.326 85.7437 764.26 86.5549C765.193 87.366 765.66 88.5138 765.66 89.9983V97H763.158L762.882 95.1635C762.545 95.7757 762.071 96.2807 761.459 96.6786C760.862 97.0765 760.089 97.2755 759.14 97.2755ZM759.806 94.9798C760.648 94.9798 761.298 94.7044 761.757 94.1534C762.232 93.6025 762.53 92.9214 762.653 92.1103H760.15C759.37 92.1103 758.811 92.2557 758.475 92.5465C758.138 92.8219 757.969 93.1663 757.969 93.5795C757.969 94.0233 758.138 94.3677 758.475 94.6125C758.811 94.8574 759.255 94.9798 759.806 94.9798Z" fill="black"/>
<rect x="1.67663" y="1.67663" width="351.647" height="137.647" stroke="#1E1E1E" stroke-width="3.35326"/>
<rect x="604.677" y="1.67663" width="200.078" height="137.483" stroke="#1E1E1E" stroke-width="3.35326"/>
<path d="M520.658 75.5928C520.985 75.2654 520.985 74.7346 520.658 74.4072L515.323 69.0722C514.996 68.7448 514.465 68.7448 514.137 69.0722C513.81 69.3996 513.81 69.9304 514.137 70.2578L518.88 75L514.137 79.7422C513.81 80.0696 513.81 80.6004 514.137 80.9278C514.465 81.2552 514.996 81.2552 515.323 80.9278L520.658 75.5928ZM453 75.8383H520.065V74.1617H453V75.8383Z" fill="black"/>
</svg>
